<svg xmlns="http://www.w3.org/2000/svg" width="1em" height="1em" viewBox="0 0 24 24">
  <path fill="currentColor" fill-rule="evenodd" d="M11.25 2H6a4 4 0 0 0-4 4v12a4 4 0 0 0 4 4h5.25V2Zm1.5 20H18a4 4 0 0 0 4-4V6a4 4 0 0 0-4-4h-5.25v20Zm2-16a.75.75 0 0 1 .75-.75h3a.75.75 0 0 1 0 1.5h-3a.75.75 0 0 1-.75-.75ZM5.5 5.25a.75.75 0 0 0 0 1.5h3a.75.75 0 0 0 0-1.5h-3ZM14.75 10a.75.75 0 0 1 .75-.75h3a.75.75 0 0 1 0 1.5h-3a.75.75 0 0 1-.75-.75ZM5.5 9.25a.75.75 0 0 0 0 1.5h3a.75.75 0 0 0 0-1.5h-3ZM18 17.5a1 1 0 1 1-2 0 1 1 0 0 1 2 0Zm-11 1a1 1 0 1 0 0-2 1 1 0 0 0 0 2Z" clip-rule="evenodd"/>
</svg>
