<svg xmlns="http://www.w3.org/2000/svg" width="1em" height="1em" viewBox="0 0 24 24">
  <path fill="currentColor" fill-rule="evenodd" d="M20 11.611V6a4 4 0 0 0-4-4H8a4 4 0 0 0-4 4v5.611a4.513 4.513 0 0 1 1-.111h1a3.5 3.5 0 0 1 2.8 1.4l1.2 1.6a2.5 2.5 0 0 0 4 0l1.2-1.6a3.5 3.5 0 0 1 2.8-1.4h1c.344 0 .678.039 1 .111Zm-8.75-2.44a1.26 1.26 0 0 1-.134-.115L9.53 7.47a.75.75 0 0 0-1.06 1.06l1.585 1.586a2.75 2.75 0 0 0 3.89 0L15.53 8.53a.75.75 0 0 0-1.06-1.06l-1.586 1.586a1.26 1.26 0 0 1-.134.116V5a.75.75 0 0 0-1.5 0v4.172ZM22 16v3a3 3 0 0 1-3 3H5a3 3 0 0 1-3-3v-3a3 3 0 0 1 3-3h1a2 2 0 0 1 1.6.8l1.2 1.6a4 4 0 0 0 6.4 0l1.2-1.6A2 2 0 0 1 18 13h1a3 3 0 0 1 3 3Z" clip-rule="evenodd"/>
</svg>
