<svg xmlns="http://www.w3.org/2000/svg" width="1em" height="1em" viewBox="0 0 24 24">
  <path fill="currentColor" fill-rule="evenodd" d="M3 18V6a4 4 0 0 1 4-4h4.343a4 4 0 0 1 .907.104V6A4.75 4.75 0 0 0 17 10.75h3.896c.069.295.104.6.104.907V18a4 4 0 0 1-4 4H7a4 4 0 0 1-4-4ZM13.75 6V2.805c.148.112.289.234.422.367l5.656 5.656c.133.133.255.274.367.422H17A3.25 3.25 0 0 1 13.75 6ZM10 13.803v2.394c0 1.198 1.335 1.913 2.332 1.248l1.796-1.197a1.5 1.5 0 0 0 0-2.496l-1.796-1.197c-.997-.665-2.332.05-2.332 1.248Z" clip-rule="evenodd"/>
</svg>
