<svg xmlns="http://www.w3.org/2000/svg" width="1em" height="1em" viewBox="0 0 24 24">
  <path fill="currentColor" fill-rule="evenodd" d="M2 4.5v12.25C2 18.545 3.48 20 5.275 20 7.043 20 8.5 18.567 8.5 16.8a.8.8 0 0 1 .8-.8H18V4.5a3 3 0 0 0-3-3H5a3 3 0 0 0-3 3Zm8.75 2a.75.75 0 0 0-1.5 0v2.25H7a.75.75 0 0 0 0 1.5h2.25v2.25a.75.75 0 0 0 1.5 0v-2.25H13a.75.75 0 0 0 0-1.5h-2.25V6.5Zm11.127 12.49A4.002 4.002 0 0 1 18 22H6a4.002 4.002 0 0 0 3.877-3.01c.136-.535.57-.99 1.123-.99h10c.552 0 1.013.455.877.99Z" clip-rule="evenodd"/>
</svg>
