<svg xmlns="http://www.w3.org/2000/svg" width="1em" height="1em" viewBox="0 0 24 24">
  <path fill="currentColor" fill-rule="evenodd" d="M3 18V6a4 4 0 0 1 4-4h4.343a4 4 0 0 1 .907.104V6A4.75 4.75 0 0 0 17 10.75h3.896c.069.295.104.6.104.907V18a4 4 0 0 1-4 4H7a4 4 0 0 1-4-4ZM13.75 6V2.805c.148.112.289.234.422.367l5.656 5.656c.133.133.255.274.367.422H17A3.25 3.25 0 0 1 13.75 6Zm2.026 9.697v.724h.994v.545c-.131.101-.289.188-.472.26a1.5 1.5 0 0 1-.545.106c-.367 0-.664-.127-.89-.38-.227-.257-.34-.64-.34-1.15 0-.472.11-.828.333-1.069.225-.24.527-.36.906-.36.25 0 .458.062.624.185a.9.9 0 0 1 .343.498l.86-.161a1.506 1.506 0 0 0-.58-.926c-.298-.225-.714-.337-1.247-.337-.41 0-.753.071-1.029.214a1.894 1.894 0 0 0-.823.8 2.472 2.472 0 0 0-.281 1.192c0 .412.084.794.252 1.145.168.35.419.62.753.809.334.188.725.281 1.175.281.353 0 .702-.066 1.046-.199.345-.135.609-.29.79-.466v-1.71h-1.869Zm-7.79-1.992h.865v2.719c0 .355-.032.629-.094.82a1.17 1.17 0 0 1-.457.604c-.22.15-.512.225-.873.225-.424 0-.75-.118-.979-.354-.228-.239-.344-.587-.345-1.046l.817-.094c.01.246.046.42.108.522a.467.467 0 0 0 .428.231c.193 0 .33-.055.41-.164.08-.111.12-.34.12-.688v-2.775ZM9.776 18v-4.295h1.392c.527 0 .871.022 1.031.065.246.064.452.205.618.421.166.215.25.494.25.835 0 .264-.048.486-.144.665-.096.18-.218.322-.366.425a1.255 1.255 0 0 1-.449.202 4.951 4.951 0 0 1-.899.062h-.565V18h-.868Zm.868-3.568v1.218h.474c.342 0 .57-.022.686-.067a.572.572 0 0 0 .37-.545.555.555 0 0 0-.139-.387.6.6 0 0 0-.348-.19 4.172 4.172 0 0 0-.624-.03h-.42Z" clip-rule="evenodd"/>
</svg>
