<svg xmlns="http://www.w3.org/2000/svg" width="1em" height="1em" viewBox="0 0 24 24">
  <path fill="currentColor" fill-rule="evenodd" d="M3 18V6a4 4 0 0 1 4-4h4.343a4 4 0 0 1 .907.104V6A4.75 4.75 0 0 0 17 10.75h3.896c.069.295.104.6.104.907V18a4 4 0 0 1-4 4H7a4 4 0 0 1-4-4ZM13.75 6V2.805c.148.112.289.234.422.367l5.656 5.656c.133.133.255.274.367.422H17A3.25 3.25 0 0 1 13.75 6Zm2.586 9.697v.724h.993v.545a1.9 1.9 0 0 1-.472.26 1.5 1.5 0 0 1-.544.106c-.368 0-.665-.127-.891-.38-.227-.257-.34-.64-.34-1.15 0-.472.111-.828.334-1.069.225-.24.526-.36.905-.36.25 0 .458.062.624.185a.9.9 0 0 1 .343.498l.861-.161a1.506 1.506 0 0 0-.58-.926c-.299-.225-.714-.337-1.248-.337-.41 0-.753.071-1.028.214a1.894 1.894 0 0 0-.823.8 2.472 2.472 0 0 0-.282 1.192c0 .412.085.794.252 1.145.168.35.42.62.753.809.334.188.726.281 1.175.281.354 0 .702-.066 1.046-.199.346-.135.61-.29.791-.466v-1.71h-1.87ZM6 18v-4.295h1.392c.527 0 .87.022 1.03.065.247.064.453.205.619.421.166.215.249.494.249.835 0 .264-.048.486-.144.665-.095.18-.217.322-.366.425a1.255 1.255 0 0 1-.448.202 4.952 4.952 0 0 1-.9.062h-.565V18H6Zm.867-3.568v1.218h.475c.342 0 .57-.022.685-.067a.571.571 0 0 0 .37-.545.555.555 0 0 0-.138-.387.6.6 0 0 0-.349-.19 4.173 4.173 0 0 0-.624-.03h-.419ZM10.011 18v-4.295h.844l1.757 2.868v-2.868h.806V18h-.87l-1.732-2.8V18h-.805Z" clip-rule="evenodd"/>
</svg>
