<svg xmlns="http://www.w3.org/2000/svg" width="1em" height="1em" viewBox="0 0 24 24">
  <path fill="currentColor" fill-rule="evenodd" d="M3 18V6a4 4 0 0 1 4-4h4.343a4 4 0 0 1 .907.104V6A4.75 4.75 0 0 0 17 10.75h3.896c.069.295.104.6.104.907V18a4 4 0 0 1-4 4H7a4 4 0 0 1-4-4ZM13.75 6V2.805c.148.112.289.234.422.367l5.656 5.656c.133.133.255.274.367.422H17A3.25 3.25 0 0 1 13.75 6Zm-3.685 9.806c0-.438.066-.805.197-1.102.097-.219.23-.415.398-.589.17-.174.356-.303.557-.386.267-.114.576-.17.926-.17.632 0 1.138.196 1.517.589.381.392.571.938.571 1.637 0 .694-.188 1.236-.565 1.63-.377.39-.88.585-1.512.585-.638 0-1.146-.194-1.523-.583-.377-.39-.566-.928-.566-1.611Zm.894-.03c0 .487.112.856.337 1.108.225.25.51.375.855.375.346 0 .63-.124.85-.372.223-.25.334-.624.334-1.122 0-.492-.108-.86-.325-1.102-.215-.242-.501-.363-.859-.363-.357 0-.645.123-.864.369-.219.244-.328.613-.328 1.107Zm-5.057-2.144h1.585c.358 0 .63.027.818.082.252.074.467.206.647.395.18.19.317.422.41.698.094.273.14.611.14 1.013 0 .354-.043.659-.13.914-.108.313-.262.566-.46.76-.151.146-.354.26-.61.342-.192.06-.448.09-.768.09H5.902v-4.294Zm.868.726v2.845h.647c.242 0 .417-.014.524-.04a.789.789 0 0 0 .349-.18c.094-.084.17-.221.229-.413.058-.193.087-.456.087-.788s-.029-.587-.087-.764a.982.982 0 0 0-.247-.416.826.826 0 0 0-.4-.203c-.122-.027-.36-.04-.713-.04h-.39Zm11.73 2.256-.84-.266c-.073.314-.192.545-.358.691a.87.87 0 0 1-.595.22.951.951 0 0 1-.762-.346c-.195-.23-.293-.617-.293-1.16 0-.512.099-.882.296-1.11a.982.982 0 0 1 .777-.343c.23 0 .425.064.585.193a.907.907 0 0 1 .32.527l.858-.205c-.097-.343-.244-.607-.44-.79-.327-.311-.754-.466-1.28-.466-.601 0-1.086.198-1.456.594-.369.395-.553.95-.553 1.664 0 .676.183 1.21.55 1.6.368.389.836.583 1.407.583.46 0 .84-.113 1.14-.34.3-.228.515-.577.644-1.046Z" clip-rule="evenodd"/>
</svg>
