<svg xmlns="http://www.w3.org/2000/svg" width="1em" height="1em" viewBox="0 0 24 24">
  <path fill="currentColor" fill-rule="evenodd" d="M3 6v12a4 4 0 0 0 4 4h4.343c.308 0 .612-.035.907-.104V18A4.75 4.75 0 0 1 17 13.25h3.896c.069-.295.104-.6.104-.907V6a4 4 0 0 0-4-4H7a4 4 0 0 0-4 4Zm11.172 14.828a4.013 4.013 0 0 1-.422.367V18A3.25 3.25 0 0 1 17 14.75h3.195a4.013 4.013 0 0 1-.367.422l-5.656 5.656Zm-4.824-9.176a.75.75 0 0 1 0-1.06L10.94 9 9.35 7.41a.75.75 0 1 1 1.06-1.062L12 7.94l1.591-1.59a.75.75 0 0 1 1.06 1.06L13.062 9l1.59 1.591a.75.75 0 1 1-1.06 1.06L12 10.062l-1.59 1.59a.75.75 0 0 1-1.062 0Z" clip-rule="evenodd"/>
</svg>
