<svg xmlns="http://www.w3.org/2000/svg" width="1em" height="1em" viewBox="0 0 24 24">
  <path fill="currentColor" fill-rule="evenodd" d="M22 10v7a4 4 0 0 1-4 4H6a4 4 0 0 1-4-4V7a4 4 0 0 1 4-4h2.667a4 4 0 0 1 2.4.8l1.866 1.4a4 4 0 0 0 2.4.8H18a4 4 0 0 1 4 4Zm-10.75.878a2.25 2.25 0 0 1 2.872 2.873.75.75 0 1 0 1.415.498 3.75 3.75 0 0 0-4.786-4.785.75.75 0 0 0 .498 1.414Zm2 5.659a.75.75 0 0 0-.5-1.415 2.25 2.25 0 0 1-2.872-2.873.75.75 0 0 0-1.414-.498 3.75 3.75 0 0 0 4.785 4.786Z" clip-rule="evenodd"/>
</svg>
