<svg xmlns="http://www.w3.org/2000/svg" width="1em" height="1em" viewBox="0 0 24 24">
  <path fill="currentColor" fill-rule="evenodd" d="M17 4a3 3 0 0 1 2.959 2.5H4V5a3 3 0 0 1 3-3h2.57a3 3 0 0 1 1.843.634l.94.732A3 3 0 0 0 14.199 4H17Zm3.526 4H3.474a2 2 0 0 0-1.956 2.42l1.804 8.418A4 4 0 0 0 7.234 22h9.532a4 4 0 0 0 3.912-3.162l1.804-8.419A2 2 0 0 0 20.526 8Zm-9.276 5.828a1.247 1.247 0 0 0-.134.117L9.53 15.53a.75.75 0 1 1-1.06-1.06l1.585-1.586a2.75 2.75 0 0 1 3.89 0l1.585 1.586a.75.75 0 0 1-1.06 1.06l-1.586-1.585a1.247 1.247 0 0 0-.134-.117V18a.75.75 0 1 1-1.5 0v-4.172Z" clip-rule="evenodd"/>
</svg>
