<svg xmlns="http://www.w3.org/2000/svg" width="1em" height="1em" viewBox="0 0 24 24">
  <path fill="currentColor" fill-rule="evenodd" d="M17 4a3 3 0 0 1 2.959 2.5H4V5a3 3 0 0 1 3-3h2.57a3 3 0 0 1 1.843.634l.94.732A3 3 0 0 0 14.199 4H17Zm3.526 4H3.474a2 2 0 0 0-1.956 2.42l1.804 8.418A4 4 0 0 0 7.234 22h9.532a4 4 0 0 0 3.912-3.162l1.804-8.419A2 2 0 0 0 20.526 8ZM9.365 14.706l1.854 2.318a1 1 0 0 0 1.562 0l1.854-2.318c.236-.295.365-.662.365-1.04v-.075a1.591 1.591 0 0 0-2.716-1.125L12 12.75l-.284-.284A1.59 1.59 0 0 0 9 13.591v.075c0 .378.129.745.365 1.04Z" clip-rule="evenodd"/>
</svg>
