<svg xmlns="http://www.w3.org/2000/svg" width="1em" height="1em" viewBox="0 0 24 24">
  <path fill="currentColor" fill-rule="evenodd" d="M9.876 4.478C9.19 6.368 8.75 9.026 8.75 12c0 .38.007.754.021 1.122 1.025.083 2.108.128 3.229.128 1.12 0 2.204-.045 3.229-.128.014-.368.021-.742.021-1.122 0-2.974-.44-5.633-1.126-7.522-.345-.947-.738-1.661-1.136-2.125a2.555 2.555 0 0 0-.338-.332 10.148 10.148 0 0 0-1.3 0c-.107.085-.22.194-.338.332-.398.464-.791 1.178-1.136 2.125Zm5.256 10.157A41.86 41.86 0 0 1 12 14.75c-1.08 0-2.129-.04-3.131-.115.174 1.898.531 3.577 1.007 4.887.345.947.738 1.662 1.136 2.125.118.138.231.247.338.332a10.131 10.131 0 0 0 1.3 0c.107-.085.22-.194.338-.332.399-.463.791-1.178 1.136-2.125.476-1.31.833-2.99 1.008-4.887Zm-7.867-1.667c-.01-.32-.015-.642-.015-.968 0-3.101.456-5.942 1.217-8.034.206-.569.44-1.094.7-1.559C5.122 3.6 2.145 7.28 2.005 11.677c.877.398 2.087.756 3.562 1.03.537.1 1.105.187 1.698.261Zm-5.177.364c.917.342 2.005.627 3.205.85.65.12 1.337.223 2.057.307.174 2.118.565 4.029 1.117 5.546.206.568.44 1.093.7 1.558a10.01 10.01 0 0 1-7.08-8.261Zm14.562 1.157c.72-.084 1.408-.187 2.057-.308 1.2-.222 2.288-.507 3.205-.85a10.01 10.01 0 0 1-7.079 8.262c.26-.465.494-.99.7-1.558.552-1.517.943-3.428 1.117-5.546Zm5.345-2.812c-.877.398-2.087.756-3.562 1.03-.537.1-1.105.187-1.698.261.01-.32.015-.642.015-.968 0-3.101-.456-5.942-1.217-8.034a10.716 10.716 0 0 0-.7-1.559c4.045 1.193 7.022 4.873 7.162 9.27Z" clip-rule="evenodd"/>
</svg>
