<svg xmlns="http://www.w3.org/2000/svg" width="1em" height="1em" viewBox="0 0 24 24">
  <path fill="currentColor" fill-rule="evenodd" d="M12.75 2a.75.75 0 0 0-1.5 0v2.035a7.949 7.949 0 0 0-3.167.988L12.061 9A3 3 0 0 1 15 11.939l3.978 3.978a7.949 7.949 0 0 0 .988-3.168.8.8 0 0 0 .035.001h2a.75.75 0 0 0 0-1.5h-2a.8.8 0 0 0-.035 0 8.002 8.002 0 0 0-7.216-7.215L12.75 4V2Zm0 18v-.035a7.964 7.964 0 0 0 4.352-1.803l3.368 3.368a.75.75 0 1 0 1.06-1.06l-18-18a.75.75 0 0 0-1.06 1.06l3.368 3.368a7.964 7.964 0 0 0-1.803 4.353L4 11.25H2a.75.75 0 0 0 0 1.5h2.035a8.002 8.002 0 0 0 7.216 7.215L11.25 20v2a.75.75 0 0 0 1.5 0v-2ZM12 15a3 3 0 0 1-2.585-4.524l4.109 4.109A2.986 2.986 0 0 1 12 15Z" clip-rule="evenodd"/>
</svg>
