<svg xmlns="http://www.w3.org/2000/svg" width="1em" height="1em" viewBox="0 0 24 24">
  <path fill="currentColor" fill-rule="evenodd" d="M12 1.25a.75.75 0 0 1 .75.75v2.035a8.002 8.002 0 0 1 7.215 7.216L20 11.25h2a.75.75 0 0 1 0 1.5h-2.035a8.002 8.002 0 0 1-7.216 7.215l.001.035v2a.75.75 0 0 1-1.5 0v-2.035a8.002 8.002 0 0 1-7.215-7.216L4 12.75H2a.75.75 0 0 1 0-1.5h2.035a8.002 8.002 0 0 1 7.216-7.215L11.25 4V2a.75.75 0 0 1 .75-.75ZM9.248 12.416l1.515.505a.5.5 0 0 1 .316.316l.505 1.515a.5.5 0 0 0 .934.04l1.99-4.643a.5.5 0 0 0-.657-.657l-4.642 1.99a.5.5 0 0 0 .039.934Z" clip-rule="evenodd"/>
</svg>
