<svg xmlns="http://www.w3.org/2000/svg" width="1em" height="1em" viewBox="0 0 24 24">
  <path fill="currentColor" fill-rule="evenodd" d="M8.508 16.234C5.272 16.69 3 17.756 3 19c0 1.657 4.03 3 9 3s9-1.343 9-3c0-1.244-2.272-2.311-5.508-2.766a3.5 3.5 0 0 1-6.984 0Z" clip-rule="evenodd"/>
  <path fill="currentColor" fill-rule="evenodd" d="M12 6a2 2 0 1 0 0-4 2 2 0 0 0 0 4Zm0 0a4 4 0 0 0-4 4v1a1 1 0 0 0 1 1 1 1 0 0 1 1 1v3a2 2 0 1 0 4 0v-3a1 1 0 0 1 1-1 1 1 0 0 0 1-1v-1a4 4 0 0 0-4-4Z" clip-rule="evenodd"/>
</svg>
