<svg xmlns="http://www.w3.org/2000/svg" width="1em" height="1em" viewBox="0 0 24 24">
  <path fill="currentColor" fill-rule="evenodd" d="M8.5 16h-.626A4 4 0 0 0 4.8 17.44l-1.067 1.28C2.648 20.022 3.574 22 5.27 22h13.46c1.696 0 2.622-1.978 1.537-3.28L19.2 17.44A4 4 0 0 0 16.127 16H15.5a3.5 3.5 0 1 1-7 0Z" clip-rule="evenodd"/>
  <path fill="currentColor" fill-rule="evenodd" d="M12 6a2 2 0 1 0 0-4 2 2 0 0 0 0 4Zm0 0a4 4 0 0 0-4 4v1a1 1 0 0 0 1 1 1 1 0 0 1 1 1v3a2 2 0 1 0 4 0v-3a1 1 0 0 1 1-1 1 1 0 0 0 1-1v-1a4 4 0 0 0-4-4Z" clip-rule="evenodd"/>
</svg>
