<svg xmlns="http://www.w3.org/2000/svg" width="1em" height="1em" viewBox="0 0 24 24">
  <path fill="currentColor" fill-rule="evenodd" d="M12.5 3h-1a1 1 0 0 0-1 1v.5h3V4a1 1 0 0 0-1-1Zm-1 20h1a1 1 0 0 0 1-1v-.5h-3v.5a1 1 0 0 0 1 1Zm2-10.5v1h-3v-1h3Zm3.5-1H5.414a1 1 0 0 1-.707-.293l-2-2a1 1 0 0 1 0-1.414l2-2a1 1 0 0 1 .707-.293H17a1 1 0 0 1 1 1v4a1 1 0 0 1-1 1Zm-10 3h11.586a1 1 0 0 1 .707.293l2 2a1 1 0 0 1 0 1.414l-2 2a1 1 0 0 1-.707.293H7a1 1 0 0 1-1-1v-4a1 1 0 0 1 1-1Z" clip-rule="evenodd"/>
</svg>
