<svg xmlns="http://www.w3.org/2000/svg" width="1em" height="1em" viewBox="0 0 24 24">
  <path fill="currentColor" fill-rule="evenodd" d="M15.027 3.254a4.281 4.281 0 0 0-6.054 0l-5.72 5.719a4.281 4.281 0 0 0 0 6.054l5.72 5.72a4.281 4.281 0 0 0 6.054 0l5.72-5.72a4.281 4.281 0 0 0 0-6.054l-5.72-5.72Zm-2.143 8.216.72-.72H12c-.69 0-1.25.56-1.25 1.25v4a.75.75 0 0 1-1.5 0v-4A2.75 2.75 0 0 1 12 9.25h1.604l-.72-.72a.75.75 0 0 1 1.06-1.06l1.293 1.293a1.75 1.75 0 0 1 0 2.474l-1.293 1.293a.75.75 0 1 1-1.06-1.06Z" clip-rule="evenodd"/>
</svg>
