<svg xmlns="http://www.w3.org/2000/svg" width="1em" height="1em" viewBox="0 0 24 24">
  <path fill="currentColor" fill-rule="evenodd" d="M15.027 3.254a4.281 4.281 0 0 0-6.054 0l-5.72 5.719a4.281 4.281 0 0 0 0 6.054l5.72 5.72a4.281 4.281 0 0 0 6.054 0l5.72-5.72a4.281 4.281 0 0 0 0-6.054l-5.72-5.72ZM13.47 8.116l-.72-.72v5.14A4.733 4.733 0 0 1 16 11.25h.604l-.72-.72a.75.75 0 1 1 1.06-1.06l1.293 1.293a1.75 1.75 0 0 1 0 2.474l-1.292 1.293a.75.75 0 1 1-1.061-1.06l.72-.72H16A3.25 3.25 0 0 0 12.75 16v1a.75.75 0 0 1-1.5 0v-1A3.25 3.25 0 0 0 8 12.75h-.604l.72.72a.75.75 0 1 1-1.06 1.06l-1.293-1.293a1.75 1.75 0 0 1 0-2.474L7.055 9.47a.75.75 0 0 1 1.061 1.06l-.72.72H8c1.257 0 2.4.488 3.25 1.286v-5.14l-.72.72a.75.75 0 1 1-1.06-1.06l1.293-1.293a1.75 1.75 0 0 1 2.474 0l1.293 1.292a.75.75 0 0 1-1.06 1.061Z" clip-rule="evenodd"/>
</svg>
