<svg xmlns="http://www.w3.org/2000/svg" width="1em" height="1em" viewBox="0 0 24 24">
  <path fill="currentColor" fill-rule="evenodd" d="M5.54 3.407a.75.75 0 1 1 .92 1.186 9.622 9.622 0 0 0-2.712 3.283 9.343 9.343 0 0 0-.997 4.09 9.335 9.335 0 0 0 .903 4.11 9.604 9.604 0 0 0 2.634 3.341.75.75 0 0 1-.945 1.166A11.104 11.104 0 0 1 2.3 16.719a10.834 10.834 0 0 1-1.048-4.77 10.843 10.843 0 0 1 1.157-4.746 11.122 11.122 0 0 1 3.133-3.796Zm11.867.134a.75.75 0 0 1 1.052-.134 11.122 11.122 0 0 1 3.133 3.796 10.843 10.843 0 0 1 1.157 4.746 10.835 10.835 0 0 1-1.047 4.77 11.104 11.104 0 0 1-3.045 3.864.75.75 0 1 1-.945-1.166 9.604 9.604 0 0 0 2.634-3.34 9.336 9.336 0 0 0 .904-4.111 9.344 9.344 0 0 0-.998-4.09 9.622 9.622 0 0 0-2.711-3.283.75.75 0 0 1-.134-1.052ZM15.41 7.538a.75.75 0 0 1 1.053-.129 6 6 0 0 1 1.67 2.031c.397.79.608 1.653.618 2.532a5.773 5.773 0 0 1-.561 2.543 5.988 5.988 0 0 1-1.625 2.066.75.75 0 0 1-.949-1.162 4.487 4.487 0 0 0 1.22-1.547 4.273 4.273 0 0 0 .415-1.884 4.278 4.278 0 0 0-.458-1.874 4.502 4.502 0 0 0-1.254-1.523.75.75 0 0 1-.129-1.053Zm-6.818 0a.75.75 0 0 0-1.053-.129 6.001 6.001 0 0 0-1.67 2.031 5.779 5.779 0 0 0-.618 2.532c-.01.878.182 1.746.561 2.543a5.988 5.988 0 0 0 1.625 2.066.75.75 0 1 0 .949-1.162 4.487 4.487 0 0 1-1.219-1.547 4.273 4.273 0 0 1-.416-1.884 4.279 4.279 0 0 1 .458-1.874A4.502 4.502 0 0 1 8.462 8.59a.75.75 0 0 0 .129-1.053ZM14 12a2 2 0 1 0-2.75 1.855V20a.75.75 0 0 0 1.5 0v-6.145A2 2 0 0 0 14 12Z" clip-rule="evenodd"/>
</svg>
