<svg xmlns="http://www.w3.org/2000/svg" width="1em" height="1em" viewBox="0 0 24 24">
  <path fill="currentColor" fill-rule="evenodd" d="M12.75 4.5a.75.75 0 1 1 1.5 0 .75.75 0 0 1-1.5 0Zm3 0c0 .263-.045.515-.128.75h1.756a2.25 2.25 0 1 1 2.122 1.5h-6a2.25 2.25 0 1 1 2.25-2.25Zm4.5 0a.75.75 0 1 1-1.5 0 .75.75 0 0 1 1.5 0ZM21 17.354V19a2 2 0 0 1-2 2C10.163 21 3 13.837 3 5a2 2 0 0 1 2-2h1.646a2 2 0 0 1 1.857 1.257l.814 2.034a2 2 0 0 1-.963 2.532L8 9s.5 2.5 2.5 4.5S15 16 15 16l.177-.354a2 2 0 0 1 2.532-.963l2.034.814A2 2 0 0 1 21 17.354Z" clip-rule="evenodd"/>
</svg>
