<svg xmlns="http://www.w3.org/2000/svg" width="1em" height="1em" viewBox="0 0 24 24">
  <path fill="currentColor" fill-rule="evenodd" d="M21 17.354V19a2 2 0 0 1-2 2C10.163 21 3 13.837 3 5a2 2 0 0 1 2-2h1.646a2 2 0 0 1 1.857 1.257l.814 2.034a2 2 0 0 1-.963 2.532L8 9s.5 2.5 2.5 4.5S15 16 15 16l.177-.354a2 2 0 0 1 2.532-.963l2.034.814A2 2 0 0 1 21 17.354ZM19.5 5a2 2 0 1 1-4 0 2 2 0 0 1 4 0Zm-.3 3A1.8 1.8 0 0 1 21 9.8a1.2 1.2 0 0 1-1.2 1.2h-4.6A1.2 1.2 0 0 1 14 9.8 1.8 1.8 0 0 1 15.8 8h3.4Z" clip-rule="evenodd"/>
</svg>
