<svg xmlns="http://www.w3.org/2000/svg" width="1em" height="1em" viewBox="0 0 24 24">
  <path fill="currentColor" fill-rule="evenodd" d="m19.53 7.53 1.293-1.293a1.75 1.75 0 0 0 0-2.474L19.53 2.47a.75.75 0 1 0-1.06 1.06l1.293 1.293a.25.25 0 0 1 0 .354L18.47 6.47a.75.75 0 0 0 1.06 1.06ZM21 19v-1.646a2 2 0 0 0-1.257-1.857l-2.034-.813a2 2 0 0 0-2.532.962L15 16s-2.5-.5-4.5-2.5S8 9 8 9l.354-.177a2 2 0 0 0 .963-2.532l-.814-2.034A2 2 0 0 0 6.646 3H5a2 2 0 0 0-2 2c0 8.837 7.163 16 16 16a2 2 0 0 0 2-2ZM15.53 7.53a.75.75 0 1 1-1.06-1.06l.72-.72H13a.75.75 0 0 1 0-1.5h2.19l-.72-.72a.75.75 0 0 1 1.06-1.06l1.293 1.293a1.75 1.75 0 0 1 0 2.474L15.53 7.53Z" clip-rule="evenodd"/>
</svg>
