<svg xmlns="http://www.w3.org/2000/svg" width="1em" height="1em" viewBox="0 0 24 24">
  <path fill="currentColor" fill-rule="evenodd" d="M22 6c0 .834-.255 1.608-.691 2.248l-5.557-5.557A4 4 0 0 1 22 6Zm-4 4c.834 0 1.608-.255 2.248-.691l-5.557-5.557A4 4 0 0 0 18 10Zm0 1.5V19a3 3 0 0 1-3 3H5a3 3 0 0 1-3-3v-8a3 3 0 0 1 3-3h7.875A5.502 5.502 0 0 0 18 11.5ZM5.15 12.55a.75.75 0 0 1 1.05-.15l2.2 1.65c.8.6 1.9.6 2.7 0l2.2-1.65a.75.75 0 0 1 .9 1.2L12 15.25a3.75 3.75 0 0 1-4.5 0L5.3 13.6a.75.75 0 0 1-.15-1.05Z" clip-rule="evenodd"/>
</svg>
