<svg xmlns="http://www.w3.org/2000/svg" width="1em" height="1em" viewBox="0 0 24 24">
  <path fill="currentColor" fill-rule="evenodd" d="m18.22 7.024-1.855-2.318A1.666 1.666 0 0 1 16 3.666V3.59a1.591 1.591 0 0 1 2.716-1.125L19 2.75l.284-.284A1.591 1.591 0 0 1 22 3.591v.075c0 .378-.129.745-.365 1.04l-1.854 2.318a1 1 0 0 1-1.562 0ZM2 11a3 3 0 0 1 3-3h10a3 3 0 0 1 3 3v8a3 3 0 0 1-3 3H5a3 3 0 0 1-3-3v-8Zm3.4 1.55a.75.75 0 0 1 1.05-.15l2.2 1.65c.8.6 1.9.6 2.7 0l2.2-1.65a.75.75 0 0 1 .9 1.2l-2.2 1.65a3.75 3.75 0 0 1-4.5 0l-2.2-1.65a.75.75 0 0 1-.15-1.05Z" clip-rule="evenodd"/>
</svg>
