<svg xmlns="http://www.w3.org/2000/svg" width="1em" height="1em" viewBox="0 0 24 24">
  <path fill="currentColor" fill-rule="evenodd" d="M20 2.25a.75.75 0 0 1 .75.75v1.25H22a.75.75 0 0 1 0 1.5h-1.25V7a.75.75 0 0 1-1.5 0V5.75H18a.75.75 0 0 1 0-1.5h1.25V3a.75.75 0 0 1 .75-.75ZM2 10a3 3 0 0 1 3-3h10a3 3 0 0 1 3 3v8a3 3 0 0 1-3 3H5a3 3 0 0 1-3-3v-8Zm3.4 1.55a.75.75 0 0 1 1.05-.15l2.8 2.1a1.25 1.25 0 0 0 1.5 0l2.8-2.1a.75.75 0 0 1 .9 1.2l-2.8 2.1a2.75 2.75 0 0 1-3.3 0l-2.8-2.1a.75.75 0 0 1-.15-1.05Z" clip-rule="evenodd"/>
</svg>
