<svg xmlns="http://www.w3.org/2000/svg" width="1em" height="1em" viewBox="0 0 24 24">
  <path fill="currentColor" fill-rule="evenodd" d="m20.53 6.53 1.293-1.293a1.75 1.75 0 0 0 0-2.474L20.53 1.47a.75.75 0 1 0-1.06 1.06l.72.72H16a.75.75 0 0 0 0 1.5h4.19l-.72.72a.75.75 0 0 0 1.06 1.06ZM2 11a3 3 0 0 1 3-3h10a3 3 0 0 1 3 3v8a3 3 0 0 1-3 3H5a3 3 0 0 1-3-3v-8Zm3.4 1.55a.75.75 0 0 1 1.05-.15l2.2 1.65c.8.6 1.9.6 2.7 0l2.2-1.65a.75.75 0 0 1 .9 1.2l-2.2 1.65a3.75 3.75 0 0 1-4.5 0l-2.2-1.65a.75.75 0 0 1-.15-1.05Z" clip-rule="evenodd"/>
</svg>
