<svg xmlns="http://www.w3.org/2000/svg" width="1em" height="1em" viewBox="0 0 24 24">
  <path fill="currentColor" fill-rule="evenodd" d="M3 2.25a.75.75 0 0 0 0 1.5h1c8.975 0 16.25 7.275 16.25 16.25v1a.75.75 0 0 0 1.5 0v-1c0-9.803-7.947-17.75-17.75-17.75H3ZM2.25 7A.75.75 0 0 1 3 6.25h1c7.594 0 13.75 6.156 13.75 13.75v1a.75.75 0 0 1-1.5 0v-1c0-6.765-5.485-12.25-12.25-12.25H3A.75.75 0 0 1 2.25 7ZM3 10.25a.75.75 0 0 0 0 1.5h1A8.25 8.25 0 0 1 12.25 20v1a.75.75 0 0 0 1.5 0v-1c0-5.385-4.365-9.75-9.75-9.75H3ZM5.5 21a2.5 2.5 0 1 0 0-5 2.5 2.5 0 0 0 0 5Z" clip-rule="evenodd"/>
</svg>
