<svg xmlns="http://www.w3.org/2000/svg" width="1em" height="1em" viewBox="0 0 24 24">
  <path fill="currentColor" fill-rule="evenodd" d="M10.763 2.177a1.75 1.75 0 0 1 2.474 0L14.53 3.47a.75.75 0 0 1-1.06 1.06l-.72-.72V7a.75.75 0 0 1-1.5 0V3.81l-.72.72a.75.75 0 1 1-1.06-1.06l1.293-1.293Zm-6.01 5.515a.75.75 0 0 0-1.062 1.06l1.415 1.414a.75.75 0 1 0 1.06-1.06L4.752 7.692Zm15.555 1.06a.75.75 0 0 0-1.06-1.06l-1.414 1.414a.75.75 0 0 0 1.06 1.06l1.415-1.414ZM3 15.25a.75.75 0 0 0 0 1.5h18a.75.75 0 0 0 0-1.5h-2.291a6.751 6.751 0 0 0-13.418 0H3ZM5.25 19a.75.75 0 0 1 .75-.75h12a.75.75 0 0 1 0 1.5H6a.75.75 0 0 1-.75-.75ZM9 21.25a.75.75 0 0 0 0 1.5h6a.75.75 0 0 0 0-1.5H9Z" clip-rule="evenodd"/>
</svg>
