<svg xmlns="http://www.w3.org/2000/svg" width="1em" height="1em" viewBox="0 0 24 24">
  <path fill="currentColor" fill-rule="evenodd" d="M21.614 7.643a.75.75 0 0 0 .772-1.286l-2.615-1.57a4.75 4.75 0 0 0-5.411.365l-.33.263a3.25 3.25 0 0 1-4.06 0l-.33-.263a4.75 4.75 0 0 0-5.41-.364L1.613 6.357a.75.75 0 0 0 .772 1.286L5 6.074a3.25 3.25 0 0 1 3.702.249l.33.264a4.75 4.75 0 0 0 5.934 0l.33-.264a3.25 3.25 0 0 1 3.702-.249l2.615 1.569Zm1.03 5.743a.75.75 0 0 1-1.03.257L19 12.074a3.25 3.25 0 0 0-3.702.249l-.33.264a4.75 4.75 0 0 1-5.934 0l-.33-.264a3.25 3.25 0 0 0-3.702-.249l-2.615 1.569a.75.75 0 1 1-.772-1.286l2.615-1.57a4.75 4.75 0 0 1 5.411.365l.33.263a3.25 3.25 0 0 0 4.06 0l.33-.263a4.75 4.75 0 0 1 5.41-.364l2.616 1.569a.75.75 0 0 1 .257 1.029Zm0 6a.75.75 0 0 1-1.03.257L19 18.074a3.25 3.25 0 0 0-3.702.249l-.33.264a4.75 4.75 0 0 1-5.934 0l-.33-.264a3.25 3.25 0 0 0-3.702-.249l-2.615 1.569a.75.75 0 1 1-.772-1.286l2.615-1.57a4.75 4.75 0 0 1 5.411.365l.33.263a3.25 3.25 0 0 0 4.06 0l.33-.263a4.75 4.75 0 0 1 5.41-.364l2.616 1.569a.75.75 0 0 1 .257 1.029Z" clip-rule="evenodd"/>
</svg>
