<svg xmlns="http://www.w3.org/2000/svg" width="1em" height="1em" viewBox="0 0 24 24">
  <path fill="currentColor" fill-rule="evenodd" d="M6 2h12a4 4 0 0 1 4 4v12a4 4 0 0 1-4 4H6a4 4 0 0 1-4-4V6a4 4 0 0 1 4-4Zm6.53 16.53a.75.75 0 0 1-1.06 0l-2-2a.75.75 0 1 1 1.06-1.06l.72.72v-3.44H7.81l.72.72a.75.75 0 1 1-1.06 1.06l-2-2a.75.75 0 0 1 0-1.06l2-2a.75.75 0 0 1 1.06 1.06l-.72.72h3.44V7.81l-.72.72a.75.75 0 1 1-1.06-1.06l2-2a.75.75 0 0 1 1.06 0l2 2a.75.75 0 0 1-1.06 1.06l-.72-.72v3.44h3.44l-.72-.72a.75.75 0 1 1 1.06-1.06l2 2a.75.75 0 0 1 0 1.06l-2 2a.75.75 0 1 1-1.06-1.06l.72-.72h-3.44v3.44l.72-.72a.75.75 0 1 1 1.06 1.06l-2 2Z" clip-rule="evenodd"/>
</svg>
