<svg xmlns="http://www.w3.org/2000/svg" width="1em" height="1em" viewBox="0 0 24 24">
  <path fill="currentColor" fill-rule="evenodd" d="M8 22a4 4 0 0 1-4-4V6a4 4 0 0 1 4-4h8a4 4 0 0 1 4 4v12a4 4 0 0 1-4 4H8ZM7.25 6A.75.75 0 0 1 8 5.25h8a.75.75 0 0 1 0 1.5H8A.75.75 0 0 1 7.25 6Zm1.5 4a.75.75 0 1 1-1.5 0 .75.75 0 0 1 1.5 0Zm4 0a.75.75 0 1 1-1.5 0 .75.75 0 0 1 1.5 0Zm3.25.75a.75.75 0 1 0 0-1.5.75.75 0 0 0 0 1.5Zm-8 4a.75.75 0 1 0 0-1.5.75.75 0 0 0 0 1.5Zm4 0a.75.75 0 1 0 0-1.5.75.75 0 0 0 0 1.5Zm4.75-.75a.75.75 0 1 1-1.5 0 .75.75 0 0 1 1.5 0Zm-8 4a.75.75 0 1 1-1.5 0 .75.75 0 0 1 1.5 0Zm4 0a.75.75 0 1 1-1.5 0 .75.75 0 0 1 1.5 0Zm3.25.75a.75.75 0 1 0 0-1.5.75.75 0 0 0 0 1.5Z" clip-rule="evenodd"/>
</svg>
