<svg xmlns="http://www.w3.org/2000/svg" width="1em" height="1em" viewBox="0 0 24 24">
  <path fill="currentColor" fill-rule="evenodd" d="M2.75 2a.75.75 0 0 0-1.5 0v16A4.75 4.75 0 0 0 6 22.75h16a.75.75 0 0 0 0-1.5H6A3.25 3.25 0 0 1 2.75 18V2ZM15.5 15.75a.75.75 0 0 1 0-1.5h.94l-2.303-3.512a.25.25 0 0 0-.423.008l-1.908 3.152c-.7 1.156-2.39 1.117-3.034-.07l-2.43-4.47a.75.75 0 1 1 1.317-.716l2.43 4.47a.25.25 0 0 0 .434.01l1.908-3.153a1.75 1.75 0 0 1 2.96-.053l2.447 3.731.491-.982a.75.75 0 1 1 1.342.67l-.724 1.448a1.75 1.75 0 0 1-1.565.967H15.5Z" clip-rule="evenodd"/>
</svg>
