<svg xmlns="http://www.w3.org/2000/svg" width="1em" height="1em" viewBox="0 0 24 24">
  <path fill="currentColor" fill-rule="evenodd" d="M2.75 2a.75.75 0 0 0-1.5 0v15A4.75 4.75 0 0 0 6 21.75h16a.75.75 0 0 0 0-1.5H6A3.25 3.25 0 0 1 2.75 17V2Zm7 7a1.25 1.25 0 1 1 2.5 0v6a2.75 2.75 0 1 0 5.5 0v-1c0-.69.56-1.25 1.25-1.25h1a.75.75 0 0 0 0-1.5h-1A2.75 2.75 0 0 0 16.25 14v1a1.25 1.25 0 1 1-2.5 0V9a2.75 2.75 0 1 0-5.5 0v1c0 .69-.56 1.25-1.25 1.25H6a.75.75 0 0 0 0 1.5h1A2.75 2.75 0 0 0 9.75 10V9Z" clip-rule="evenodd"/>
</svg>
