<svg xmlns="http://www.w3.org/2000/svg" width="1em" height="1em" viewBox="0 0 24 24">
  <path fill="currentColor" fill-rule="evenodd" d="M19.5 8.5c.946 0 1.815-.328 2.5-.877V18a4 4 0 0 1-4 4H6a4 4 0 0 1-4-4V6a4 4 0 0 1 4-4h10.377A4 4 0 0 0 19.5 8.5ZM8.75 9a1.25 1.25 0 1 1 2.5 0v6a2.75 2.75 0 1 0 5.5 0v-1c0-.69.56-1.25 1.25-1.25h1a.75.75 0 0 0 0-1.5h-1A2.75 2.75 0 0 0 15.25 14v1a1.25 1.25 0 1 1-2.5 0V9a2.75 2.75 0 1 0-5.5 0v1c0 .69-.56 1.25-1.25 1.25H5a.75.75 0 0 0 0 1.5h1A2.75 2.75 0 0 0 8.75 10V9ZM19.5 7a2.5 2.5 0 1 0 0-5 2.5 2.5 0 0 0 0 5Z" clip-rule="evenodd"/>
</svg>
