<svg xmlns="http://www.w3.org/2000/svg" width="1em" height="1em" viewBox="0 0 24 24">
  <path fill="currentColor" fill-rule="evenodd" d="M22 12c0 5.523-4.477 10-10 10S2 17.523 2 12 6.477 2 12 2s10 4.477 10 10ZM7.4 8.55a.75.75 0 0 1 1.05-.15l2.8 2.1a1.25 1.25 0 0 0 1.5 0l2.8-2.1a.75.75 0 0 1 .9 1.2l-2.8 2.1a2.75 2.75 0 0 1-3.3 0l-2.8-2.1a.75.75 0 0 1-.15-1.05Zm1.05 4.85a.75.75 0 0 0-.9 1.2l2.8 2.1a2.75 2.75 0 0 0 3.3 0l2.8-2.1a.75.75 0 1 0-.9-1.2l-2.8 2.1a1.25 1.25 0 0 1-1.5 0l-2.8-2.1Z" clip-rule="evenodd"/>
</svg>
