<svg xmlns="http://www.w3.org/2000/svg" width="1em" height="1em" viewBox="0 0 24 24">
  <path fill="currentColor" fill-rule="evenodd" d="M6 2h12a4 4 0 0 1 4 4v12a4 4 0 0 1-4 4H6a4 4 0 0 1-4-4V6a4 4 0 0 1 4-4Zm10.6 13.45a.75.75 0 0 1-1.05.15l-2.8-2.1a1.25 1.25 0 0 0-1.5 0l-2.8 2.1a.75.75 0 0 1-.9-1.2l2.8-2.1a2.75 2.75 0 0 1 3.3 0l2.8 2.1a.75.75 0 0 1 .15 1.05Zm-1.05-4.85a.75.75 0 0 0 .9-1.2l-2.8-2.1a2.75 2.75 0 0 0-3.3 0l-2.8 2.1a.75.75 0 0 0 .9 1.2l2.8-2.1a1.25 1.25 0 0 1 1.5 0l2.8 2.1Z" clip-rule="evenodd"/>
</svg>
