<svg xmlns="http://www.w3.org/2000/svg" width="1em" height="1em" viewBox="0 0 24 24">
  <path fill="currentColor" fill-rule="evenodd" d="M16.18 22H7.82c-2.31 0-4.18-1.786-4.18-3.99v-4.877a2.61 2.61 0 0 0-.82-1.888c-1.216-1.16-1.058-3.083.333-4.048L9.54 2.763a4.343 4.343 0 0 1 4.918 0l6.389 4.434c1.39.965 1.548 2.888.332 4.048a2.61 2.61 0 0 0-.82 1.888v4.878c0 2.203-1.87 3.989-4.18 3.989Zm-6.43-8.5a.75.75 0 0 1 1.5 0v3a2.25 2.25 0 0 0 4.5 0V16a.25.25 0 0 1 .25-.25h1a.75.75 0 0 0 0-1.5h-1A1.75 1.75 0 0 0 14.25 16v.5a.75.75 0 0 1-1.5 0v-3a2.25 2.25 0 0 0-4.5 0v.5a.25.25 0 0 1-.25.25H7a.75.75 0 0 0 0 1.5h1A1.75 1.75 0 0 0 9.75 14v-.5Z" clip-rule="evenodd"/>
</svg>
