<svg xmlns="http://www.w3.org/2000/svg" width="1em" height="1em" viewBox="0 0 24 24">
  <path fill="currentColor" fill-rule="evenodd" d="M3 8.243A3 3 0 0 1 7.243 4l2.828 2.828-4.242 4.243L3 8.243ZM12 15c.828 0 1.5-.395 1.5-1.5S12 11 12 11s-1.5 1.395-1.5 2.5.672 1.5 1.5 1.5Zm-2.5 4.5c0 1.105-.672 1.5-1.5 1.5s-1.5-.395-1.5-1.5S8 17 8 17s1.5 1.395 1.5 2.5Zm8 0c0 1.105-.672 1.5-1.5 1.5s-1.5-.395-1.5-1.5S16 17 16 17s1.5 1.395 1.5 2.5ZM21 4a3 3 0 0 1 0 4.243L18.17 11.07 13.93 6.828 16.757 4A3 3 0 0 1 21 4Z" clip-rule="evenodd"/>
</svg>
