<svg xmlns="http://www.w3.org/2000/svg" width="1em" height="1em" viewBox="0 0 24 24">
  <path fill="currentColor" fill-rule="evenodd" d="M10 2a2 2 0 1 0 0 4h4a2 2 0 1 0 0-4h-4ZM6.5 4.03A4 4 0 0 0 3 8v10a4 4 0 0 0 4 4h10a4 4 0 0 0 4-4V8a4 4 0 0 0-3.5-3.969A3.5 3.5 0 0 1 14 7.5h-4a3.5 3.5 0 0 1-3.5-3.47Zm4.62 6.23a.75.75 0 0 1 .55.405l1.536 3.069 1.264-1.264a.75.75 0 0 1 .53-.22h2a.75.75 0 0 1 0 1.5h-1.69l-1.78 1.78a.75.75 0 0 1-1.2-.195l-1.536-3.069L9.53 13.53a.75.75 0 0 1-.53.22H7a.75.75 0 0 1 0-1.5h1.69l1.78-1.78a.75.75 0 0 1 .65-.21Z" clip-rule="evenodd"/>
</svg>
