<svg xmlns="http://www.w3.org/2000/svg" width="1em" height="1em" viewBox="0 0 24 24">
  <path fill="currentColor" fill-rule="evenodd" d="M8.75 5A2.25 2.25 0 0 1 11 2.75h2A2.25 2.25 0 0 1 15.25 5v1h-6.5V5Zm-1.5 1V5A3.75 3.75 0 0 1 11 1.25h2A3.75 3.75 0 0 1 16.75 5v1H18a4 4 0 0 1 4 4v8a4 4 0 0 1-4 4H6a4 4 0 0 1-4-4v-8a4 4 0 0 1 4-4h1.25ZM12 10.25a.75.75 0 0 1 .75.75v2.25H15a.75.75 0 0 1 0 1.5h-2.25V17a.75.75 0 0 1-1.5 0v-2.25H9a.75.75 0 0 1 0-1.5h2.25V11a.75.75 0 0 1 .75-.75Z" clip-rule="evenodd"/>
</svg>
