<svg xmlns="http://www.w3.org/2000/svg" width="1em" height="1em" viewBox="0 0 24 24">
  <path fill="currentColor" fill-rule="evenodd" d="M10.75 2a.75.75 0 0 0-1.5 0v2a.75.75 0 0 0 1.5 0c.304.228.5.591.5 1v3a4.25 4.25 0 0 1-8.5 0V5c0-.409.196-.772.5-1a.75.75 0 0 0 1.5 0V2a.75.75 0 0 0-1.5 0v.354A2.751 2.751 0 0 0 1.25 5v3a5.751 5.751 0 0 0 5 5.701v4.549a4.5 4.5 0 1 0 9 0v-5.5a2 2 0 1 1 4 0V14c0 .048.005.095.013.14a2 2 0 1 0 1.474 0 .752.752 0 0 0 .013-.14v-1.25a3.5 3.5 0 1 0-7 0v5.5a3 3 0 1 1-6 0v-4.549c2.821-.367 5-2.78 5-5.701V5c0-1.259-.846-2.32-2-2.646V2Z" clip-rule="evenodd"/>
</svg>
