<svg xmlns="http://www.w3.org/2000/svg" width="1em" height="1em" viewBox="0 0 24 24">
  <path fill="currentColor" fill-rule="evenodd" d="M6.81 3.066C5.06 4.751 2 8.197 2 11.69c0 2.837 1.89 5.749 5.05 6.239A8.764 8.764 0 0 1 6.5 14.9c0-2.483 1.156-4.81 2.435-6.654a24.429 24.429 0 0 1 2.362-2.868A23.443 23.443 0 0 0 9.19 3.067a1.7 1.7 0 0 0-2.38 0ZM8 14.9c0-4.072 3.837-8.089 5.83-9.9a1.724 1.724 0 0 1 2.34 0C18.164 6.81 22 10.827 22 14.9c0 3.5-2.65 7.1-7 7.1s-7-3.6-7-7.1Zm7.264 4.242a.75.75 0 0 1 .594-.878c1.277-.247 2.15-1.26 2.41-2.427a.75.75 0 0 1 1.464.326c-.369 1.657-1.637 3.196-3.59 3.573a.75.75 0 0 1-.878-.594Z" clip-rule="evenodd"/>
</svg>
