<svg xmlns="http://www.w3.org/2000/svg" width="1em" height="1em" viewBox="0 0 24 24">
  <path fill="currentColor" d="M18 3c1.953 0 3.579 1.4 3.93 3.25H2.07A4.001 4.001 0 0 1 6 3h12ZM22 10.25v-2.5H2v2.5h20Z"/>
  <path fill="currentColor" fill-rule="evenodd" d="M22 11.75H2V17a4 4 0 0 0 4 4h7a1 1 0 0 0 1-1v-1a4 4 0 0 1 4-4h3a1 1 0 0 0 1-1v-2.25ZM6 18a1 1 0 1 0 0-2 1 1 0 0 0 0 2Z" clip-rule="evenodd"/>
  <path fill="currentColor" fill-rule="evenodd" d="M20.055 16.803a.75.75 0 0 1 0 1.06l-.883.884.883.884a.75.75 0 1 1-1.06 1.06l-.884-.883-.884.884a.75.75 0 0 1-1.06-1.06l.883-.885-.884-.884a.75.75 0 1 1 1.061-1.06l.884.884.884-.884a.75.75 0 0 1 1.06 0Z" clip-rule="evenodd"/>
</svg>
