<svg xmlns="http://www.w3.org/2000/svg" width="1em" height="1em" viewBox="0 0 24 24">
  <path fill="currentColor" fill-rule="evenodd" d="M2.5 1.75a.75.75 0 0 0-1.5 0v16a4.75 4.75 0 0 0 4.75 4.75h16a.75.75 0 0 0 0-1.5h-16a3.25 3.25 0 0 1-3.25-3.25v-16Zm14.195 8.884L19 12.939v-.689a.75.75 0 0 1 1.5 0v1.5a1.75 1.75 0 0 1-1.75 1.75h-1.5a.75.75 0 0 1 0-1.5h.69l-2.306-2.306a1.25 1.25 0 0 0-1.768 0l-1.171 1.172a2.75 2.75 0 0 1-3.89 0L6.22 10.28a.75.75 0 1 1 1.06-1.06l2.586 2.585a1.25 1.25 0 0 0 1.768 0l1.171-1.171a2.75 2.75 0 0 1 3.89 0Z" clip-rule="evenodd"/>
</svg>
