<svg xmlns="http://www.w3.org/2000/svg" width="1em" height="1em" viewBox="0 0 24 24">
  <path fill="currentColor" fill-rule="evenodd" d="m13.625 1.472 5 2.222c.407.181.773.425 1.09.717L12 7.926 4.286 4.41a3.995 3.995 0 0 1 1.09-.717l5-2.222a4 4 0 0 1 3.249 0ZM3.38 5.647A3.995 3.995 0 0 0 3 7.35v6.801a4 4 0 0 0 2.375 3.656l5 2.222c.283.126.576.217.875.274V9.232L3.38 5.647Zm9.37 14.655c.299-.057.592-.148.875-.274l5-2.222A4 4 0 0 0 21 14.15v-6.8c0-.601-.134-1.18-.38-1.703l-7.87 3.585v11.07Z" clip-rule="evenodd"/>
</svg>
