<svg xmlns="http://www.w3.org/2000/svg" width="1em" height="1em" viewBox="0 0 24 24">
  <path fill="currentColor" fill-rule="evenodd" d="M2 6a4 4 0 0 1 4-4h12a4 4 0 0 1 4 4v12a4 4 0 0 1-4 4H6a4 4 0 0 1-4-4V6Zm6.25 6a.75.75 0 0 1 .75-.75h1.323c.104-.42.158-.856.158-1.295v-.57a2.135 2.135 0 1 1 4.269 0v.497a.75.75 0 1 1-1.5 0v-.497a.635.635 0 1 0-1.27 0v.57c0 .437-.04.87-.122 1.295H13a.75.75 0 0 1 0 1.5h-1.61a6.908 6.908 0 0 1-1.075 1.704.482.482 0 0 0 .365.796H14a.75.75 0 0 1 0 1.5h-3.32c-1.693 0-2.607-1.987-1.504-3.273.197-.228.373-.472.527-.727H9a.75.75 0 0 1-.75-.75Z" clip-rule="evenodd"/>
</svg>
