<svg xmlns="http://www.w3.org/2000/svg" width="1em" height="1em" viewBox="0 0 24 24">
  <path fill="currentColor" fill-rule="evenodd" d="M18 2.75H6a4 4 0 0 0-4 4v8a4 4 0 0 0 4 4h7a1 1 0 0 0 1-1v-1a4 4 0 0 1 4-4h3a1 1 0 0 0 1-1v-5a4 4 0 0 0-4-4Zm-11 4a1 1 0 1 0-2 0 1 1 0 0 0 2 0Zm5 2a2 2 0 1 1 0 4 2 2 0 0 1 0-4Zm9 7a2 2 0 1 0-2 2c-1.246 0-2.377.641-3.208 1.684-.451.566.024 1.316.748 1.316h4.92c.724 0 1.199-.75.748-1.316-.83-1.043-1.962-1.684-3.208-1.684a2 2 0 0 0 2-2Z" clip-rule="evenodd"/>
</svg>
