<svg xmlns="http://www.w3.org/2000/svg" width="1em" height="1em" viewBox="0 0 24 24">
  <path fill="currentColor" fill-rule="evenodd" d="M15.602 5.25H8.398c-1.162-1.57.404-3.768 2.35-3.14l.927.3c.211.067.439.067.65 0l.928-.3c1.945-.628 3.512 1.57 2.349 3.14Zm-7.096 1.5h6.988c1.32.73 2.35 1.95 2.822 3.46l1.25 4c1.207 3.864-1.68 7.79-5.727 7.79H10.16c-4.048 0-6.934-3.926-5.727-7.79l1.25-4a5.996 5.996 0 0 1 2.822-3.46Zm6.858 10.906a.75.75 0 0 0-.728-1.312c-1.17.65-1.97.906-2.696.903-.721-.003-1.48-.263-2.562-.895a.75.75 0 0 0-.756 1.296c1.172.683 2.203 1.095 3.312 1.1 1.106.004 2.177-.397 3.43-1.092Z" clip-rule="evenodd"/>
</svg>
