<svg xmlns="http://www.w3.org/2000/svg" width="1em" height="1em" viewBox="0 0 24 24">
  <path fill="currentColor" fill-rule="evenodd" d="M18 2h-6a4.001 4.001 0 0 0-3.71 2.5h13.42A4.001 4.001 0 0 0 18 2ZM2 16v-4h4a2 2 0 1 1 0 4H2ZM6 6h16v8a1 1 0 0 1-1 1h-3a4 4 0 0 0-4 4v2a1 1 0 0 1-1 1H6a4 4 0 0 1-4-4v-.5h4a3.5 3.5 0 1 0 0-7H2V10a4 4 0 0 1 4-4Zm16.564 12.494a.75.75 0 1 0-1.128-.988l-2.87 3.28a.25.25 0 0 1-.345.03l-1.753-1.402a.75.75 0 0 0-.937 1.172l1.753 1.402a1.75 1.75 0 0 0 2.41-.214l2.87-3.28Z" clip-rule="evenodd"/>
</svg>
