<svg xmlns="http://www.w3.org/2000/svg" width="1em" height="1em" viewBox="0 0 24 24">
  <path fill="currentColor" fill-rule="evenodd" d="M22 7a4 4 0 0 0-4-4H6a4 4 0 0 0-4 4v1.5h4a3.5 3.5 0 1 1 0 7H2V17a4 4 0 0 0 4 4h7a1 1 0 0 0 1-1v-1a4 4 0 0 1 4-4h3a1 1 0 0 0 1-1V7ZM8 12a2 2 0 0 0-2-2H2v4h4a2 2 0 0 0 2-2Zm14.494 4.436a.75.75 0 0 1 .07 1.058l-2.87 3.28a1.75 1.75 0 0 1-2.41.214l-1.752-1.402a.75.75 0 0 1 .936-1.172l1.753 1.403a.25.25 0 0 0 .345-.031l2.87-3.28a.75.75 0 0 1 1.058-.07Z" clip-rule="evenodd"/>
</svg>
