<svg xmlns="http://www.w3.org/2000/svg" width="1em" height="1em" viewBox="0 0 24 24">
  <path fill="currentColor" fill-rule="evenodd" d="M12 2h6a4.001 4.001 0 0 1 3.71 2.5H8.29A4.001 4.001 0 0 1 12 2ZM2 12v4h4a2 2 0 1 0 0-4H2Zm20-6H6a4 4 0 0 0-4 4v.5h4a3.5 3.5 0 1 1 0 7H2v.5a4 4 0 0 0 4 4h7a1 1 0 0 0 1-1v-3a4 4 0 0 1 4-4h3a1 1 0 0 0 1-1V6Zm-1 11a2 2 0 1 0-2 2c-1.246 0-2.377.641-3.208 1.684-.451.566.024 1.316.748 1.316h4.92c.724 0 1.199-.75.748-1.316C21.378 19.641 20.246 19 19 19a2 2 0 0 0 2-2Z" clip-rule="evenodd"/>
</svg>
