<svg xmlns="http://www.w3.org/2000/svg" width="1em" height="1em" viewBox="0 0 24 24">
  <path fill="currentColor" d="m16.684 20.306-1.887-2.564a2.029 2.029 0 0 1-.402-1.204v-2.6c0-.599.536-1.084 1.198-1.084H19.8c1.203 0 1.655-1.428.635-2.006l-4.914-2.784c-.7-.396-1.126-1.092-1.126-1.84V4.395a2.395 2.395 0 0 0-4.79 0v1.829c0 .748-.426 1.444-1.126 1.84l-4.914 2.784c-1.02.578-.568 2.006.635 2.006h4.207c.662 0 1.198.486 1.198 1.085v2.599c0 .428-.14.847-.402 1.204l-1.887 2.564c-.681.927.433 2.071 1.532 1.573l2.08-.943a2.619 2.619 0 0 1 2.143 0l2.081.943c1.098.498 2.213-.646 1.532-1.573Z"/>
</svg>
