<svg xmlns="http://www.w3.org/2000/svg" width="1em" height="1em" viewBox="0 0 24 24">
  <path fill="currentColor" fill-rule="evenodd" d="M9.605 6.224V4.395a2.395 2.395 0 0 1 4.79 0v1.829c0 .748.426 1.444 1.126 1.84l4.914 2.784c1.02.578.569 2.006-.635 2.006h-3.886L9.582 6.522c.015-.098.023-.198.023-.298ZM3.53 2.47a.75.75 0 0 0-1.06 1.06l5.067 5.068-3.972 2.25c-1.02.578-.569 2.006.635 2.006h4.207c.662 0 1.198.486 1.198 1.085v2.599c0 .428-.14.847-.403 1.204l-1.886 2.564c-.681.927.433 2.071 1.532 1.573l2.08-.943a2.619 2.619 0 0 1 2.143 0l2.081.943c1.098.498 2.213-.646 1.532-1.573l-1.887-2.564a2.029 2.029 0 0 1-.402-1.204v-1.082l6.075 6.074a.75.75 0 1 0 1.06-1.06l-18-18Z" clip-rule="evenodd"/>
</svg>
