<svg xmlns="http://www.w3.org/2000/svg" width="1em" height="1em" viewBox="0 0 24 24">
  <path fill="currentColor" fill-rule="evenodd" d="M12.53 2.984a.75.75 0 1 0-1.06 1.061l7.07 7.071a1.25 1.25 0 0 1 0 1.768l-2.962 2.962v-1.018a.75.75 0 0 0-1.5 0v1.829c0 .966.784 1.75 1.75 1.75h1.829a.75.75 0 0 0 0-1.5h-1.018l2.962-2.963a2.75 2.75 0 0 0 0-3.889l-7.07-7.07ZM6.343 5.593a.75.75 0 1 0 0 1.5h1.018l-2.963 2.962a2.75 2.75 0 0 0 0 3.89l7.072 7.07a.75.75 0 0 0 1.06-1.06l-7.07-7.071a1.25 1.25 0 0 1 0-1.768l2.962-2.962V9.17a.75.75 0 1 0 1.5 0V7.343a1.75 1.75 0 0 0-1.75-1.75H6.343Z" clip-rule="evenodd"/>
</svg>
