<svg xmlns="http://www.w3.org/2000/svg" width="1em" height="1em" viewBox="0 0 24 24">
  <path fill="currentColor" fill-rule="evenodd" d="M10 1.25a.75.75 0 0 0 0 1.5h4a.75.75 0 0 0 0-1.5h-4ZM6 6a2 2 0 0 1 2-2h8a2 2 0 0 1 2 2v14a2 2 0 0 1-2 2H8a2 2 0 0 1-2-2V6Zm3.11 7.161.908-1.108 3.185-3.89c.318-.386.904-.028.751.46l-.878 2.814c-.095.305.118.62.419.62h1.063c.379 0 .582.477.332.782l-4.093 4.997c-.318.387-.904.029-.751-.46l.878-2.813c.095-.305-.118-.62-.419-.62H9.442c-.379 0-.582-.477-.332-.782Z" clip-rule="evenodd"/>
</svg>
