<svg xmlns="http://www.w3.org/2000/svg" width="1em" height="1em" viewBox="0 0 24 24">
  <path fill="currentColor" fill-rule="evenodd" d="M13.16 4.943a.25.25 0 0 0-.41.192v5.463l3.72-2.48a.25.25 0 0 0 .02-.4l-3.33-2.775Zm-1.91 5.655V5.135c0-1.484 1.73-2.294 2.87-1.344l3.331 2.775a1.75 1.75 0 0 1-.15 2.8L13.352 12l3.95 2.633a1.75 1.75 0 0 1 .15 2.8l-3.33 2.776c-1.14.95-2.871.14-2.871-1.344V13.4l-4.834 3.223a.75.75 0 1 1-.832-1.248L10.648 12 5.584 8.624a.75.75 0 1 1 .832-1.248l4.834 3.222Zm1.5 2.803v5.464a.25.25 0 0 0 .41.192l3.33-2.776a.25.25 0 0 0-.02-.4l-3.72-2.48Zm5.664-2.815L19.828 12l-1.414 1.414L17 12l1.414-1.414ZM7 12l-1.414-1.414L4.172 12l1.414 1.414L7 12Z" clip-rule="evenodd"/>
</svg>
