<svg xmlns="http://www.w3.org/2000/svg" width="1em" height="1em" viewBox="0 0 24 24">
  <path fill="currentColor" fill-rule="evenodd" d="M11.16 4.943a.25.25 0 0 0-.41.192v5.463l3.72-2.48a.25.25 0 0 0 .021-.4l-3.33-2.775Zm-1.91 5.655V5.135c0-1.484 1.73-2.294 2.87-1.344l3.331 2.775a1.75 1.75 0 0 1-.15 2.8L11.353 12l3.95 2.633a1.75 1.75 0 0 1 .15 2.8L12.12 20.21c-1.14.95-2.87.14-2.87-1.344V13.4l-4.834 3.223a.75.75 0 1 1-.832-1.248L8.648 12 3.584 8.624a.75.75 0 0 1 .832-1.248l4.834 3.222Zm1.5 2.803v5.464a.25.25 0 0 0 .41.192l3.331-2.776a.25.25 0 0 0-.021-.4l-3.72-2.48ZM17 12a1 1 0 1 1-2 0 1 1 0 0 1 2 0Zm2.34-3.771a.75.75 0 1 0-1.131.984A4.23 4.23 0 0 1 19.25 12c0 1.089-.409 2.08-1.082 2.833a.75.75 0 1 0 1.118 1A5.732 5.732 0 0 0 20.75 12a5.73 5.73 0 0 0-1.41-3.771Z" clip-rule="evenodd"/>
</svg>
