<svg xmlns="http://www.w3.org/2000/svg" width="1em" height="1em" viewBox="0 0 24 24">
  <path fill="currentColor" fill-rule="evenodd" d="M2.47 2.47a.75.75 0 0 1 1.06 0l18 18a.75.75 0 1 1-1.06 1.06l-1.801-1.8A4.976 4.976 0 0 1 16 20.5H8a5 5 0 0 1-5-5v-4a5 5 0 0 1 2.9-4.54L2.47 3.53a.75.75 0 0 1 0-1.06ZM12 16.5a3 3 0 0 1-1.89-5.33l4.22 4.22A2.995 2.995 0 0 1 12 16.5Zm9-5a5 5 0 0 0-5-5h-.126a4.002 4.002 0 0 0-7.33-1.016l12.033 12.032A4.984 4.984 0 0 0 21 15.5v-4ZM13 7a1 1 0 1 1-2 0 1 1 0 0 1 2 0Z" clip-rule="evenodd"/>
</svg>
