<svg xmlns="http://www.w3.org/2000/svg" width="1em" height="1em" viewBox="0 0 24 24">
  <path fill="currentColor" fill-rule="evenodd" d="M21.75 4.775a2.75 2.75 0 0 0-3.62-2.61l-6.632 2.212a4.744 4.744 0 0 0-2.343 1.717l4.233 4.234 5.217-1.739a1.25 1.25 0 0 1 1.645 1.186V14a3.733 3.733 0 0 0-2.25-.75c-.5 0-.977.098-1.414.276l4.888 4.888A3.74 3.74 0 0 0 21.75 17V4.775ZM3.53 2.47a.75.75 0 0 0-1.06 1.06l5.78 5.78V16a3.75 3.75 0 1 0 1.5 3v-5.117a3.248 3.248 0 0 1 2.222-3.083L3.53 2.47Zm18 19.06a.75.75 0 0 0 0-1.06l-.848-.849-5.303-5.303a3.75 3.75 0 0 0 4.035 6.156l1.056 1.056a.75.75 0 0 0 1.06 0Z" clip-rule="evenodd"/>
</svg>
