<svg xmlns="http://www.w3.org/2000/svg" width="1em" height="1em" viewBox="0 0 24 24">
  <path fill="currentColor" fill-rule="evenodd" d="M7 5.75c-.69 0-1.25.56-1.25 1.25v1a.75.75 0 0 1-1.5 0V7A2.75 2.75 0 0 1 7 4.25h10A2.75 2.75 0 0 1 19.75 7v1a.75.75 0 0 1-1.5 0V7c0-.69-.56-1.25-1.25-1.25H7Zm10 12.5c.69 0 1.25-.56 1.25-1.25v-1a.75.75 0 0 1 1.5 0v1A2.75 2.75 0 0 1 17 19.75H7A2.75 2.75 0 0 1 4.25 17v-1a.75.75 0 0 1 1.5 0v1c0 .69.56 1.25 1.25 1.25h10Zm-15-7a.75.75 0 0 0 0 1.5h20a.75.75 0 0 0 0-1.5H2Z" clip-rule="evenodd"/>
</svg>
