<svg xmlns="http://www.w3.org/2000/svg" width="1em" height="1em" viewBox="0 0 24 24">
  <path fill="currentColor" fill-rule="evenodd" d="M14.166 2.492a.75.75 0 0 0-.332 1.462 8.263 8.263 0 0 1 6.212 6.212.75.75 0 0 0 1.371.225l1.223-2a.75.75 0 1 0-1.28-.782l-.371.608a9.768 9.768 0 0 0-6.823-5.725ZM3.955 13.834a.75.75 0 0 0-1.372-.225l-1.223 2a.75.75 0 0 0 1.28.782l.372-.607a9.768 9.768 0 0 0 6.822 5.724.75.75 0 1 0 .332-1.462 8.263 8.263 0 0 1-6.211-6.212Zm1.504-5.193a2 2 0 0 0 0 2.829l7.071 7.07a2 2 0 0 0 2.829 0l3.182-3.181a2 2 0 0 0 0-2.829L11.47 5.46a2 2 0 0 0-2.829 0L5.46 8.64Z" clip-rule="evenodd"/>
</svg>
