<svg xmlns="http://www.w3.org/2000/svg" width="1em" height="1em" viewBox="0 0 24 24">
  <path fill="currentColor" fill-rule="evenodd" d="m5.378 4.943 4.998-2.221a4 4 0 0 1 3.249 0l4.978 2.212c1.455.647 2.41 2.101 2.309 3.691-.391 6.098-2.135 8.855-6.847 12.053a3.686 3.686 0 0 1-4.13-.001C5.239 17.497 3.43 14.778 3.07 8.604c-.092-1.58.862-3.018 2.308-3.66Zm10.187 5.55a.75.75 0 1 0-1.13-.987l-2.87 3.28a.25.25 0 0 1-.344.03L9.47 11.415a.75.75 0 1 0-.937 1.172l1.752 1.402a1.75 1.75 0 0 0 2.41-.214l2.87-3.28Z" clip-rule="evenodd"/>
</svg>
