<svg xmlns="http://www.w3.org/2000/svg" width="1em" height="1em" viewBox="0 0 24 24">
  <path fill="currentColor" fill-rule="evenodd" d="M11.152 4h1.697c.937 0 1.697.716 1.697 1.6a1.333 1.333 0 0 0 1.97 1.17l.09-.048c.811-.442 1.85-.18 2.318.585l.848 1.386c.469.765.19 1.744-.62 2.186a1.277 1.277 0 0 0 0 2.242c.81.442 1.089 1.42.62 2.186l-.848 1.386c-.469.765-1.507 1.027-2.318.585l-.09-.049a1.333 1.333 0 0 0-1.97 1.171c0 .884-.76 1.6-1.697 1.6h-1.697c-.938 0-1.697-.716-1.697-1.6a1.333 1.333 0 0 0-1.97-1.17l-.09.049c-.812.441-1.85.18-2.319-.586l-.848-1.386c-.469-.765-.19-1.744.62-2.186a1.277 1.277 0 0 0 0-2.242c-.81-.442-1.089-1.42-.62-2.186l.848-1.386c.469-.765 1.507-1.027 2.318-.585l.09.049c.889.483 1.97-.16 1.97-1.171 0-.884.76-1.6 1.697-1.6ZM12 15a3 3 0 1 0 0-6 3 3 0 0 0 0 6Z" clip-rule="evenodd"/>
</svg>
