<svg xmlns="http://www.w3.org/2000/svg" width="1em" height="1em" viewBox="0 0 24 24">
  <path fill="currentColor" fill-rule="evenodd" d="M19.828 7.828c.133.133.255.274.367.422H18A3.25 3.25 0 0 1 14.75 5V2.805c.148.112.289.234.422.367l4.656 4.656ZM13.25 5V2.104A4 4 0 0 0 12.343 2H7a4 4 0 0 0-4 4v12a4 4 0 0 0 4 4h10a4 4 0 0 0 4-4v-7.343c0-.308-.035-.612-.104-.907H18A4.75 4.75 0 0 1 13.25 5Zm2.314 7.494a.75.75 0 1 0-1.128-.988l-2.87 3.28a.25.25 0 0 1-.345.03L9.47 13.415a.75.75 0 0 0-.938 1.172l1.753 1.402a1.75 1.75 0 0 0 2.41-.214l2.87-3.28Z" clip-rule="evenodd"/>
</svg>
