<svg xmlns="http://www.w3.org/2000/svg" width="1em" height="1em" viewBox="0 0 24 24">
  <path fill="currentColor" fill-rule="evenodd" d="m10.2 3.4 1-1.333a1 1 0 0 1 1.6 0l1 1.333A1 1 0 0 1 13 5h-.25v5.96l4.329-1.444a.25.25 0 0 0 .171-.237V7.3a1.5 1.5 0 1 1 1.5 0v1.98a1.75 1.75 0 0 1-1.197 1.66l-4.803 1.602v1.44a.81.81 0 0 1 0 .038V18a.752.752 0 0 1-.013.14 2 2 0 1 1-1.474 0 .752.752 0 0 1-.013-.14v-3.46l-4.803-1.6a1.75 1.75 0 0 1-1.197-1.66V9.468A1 1 0 0 1 4.5 8.5v-1a1 1 0 0 1 1-1h1a1 1 0 0 1 1 1v1a1 1 0 0 1-.75.968v1.811a.25.25 0 0 0 .171.237l4.329 1.443v-.94a.81.81 0 0 1 0-.038V5H11a1 1 0 0 1-.8-1.6Z" clip-rule="evenodd"/>
</svg>
