<svg xmlns="http://www.w3.org/2000/svg" width="1em" height="1em" viewBox="0 0 24 24">
  <path fill="currentColor" fill-rule="evenodd" d="M22 12a9.976 9.976 0 0 1-3.441 7.549A9.961 9.961 0 0 1 12 22a9.961 9.961 0 0 1-6.559-2.451A9.977 9.977 0 0 1 2 12C2 6.477 6.477 2 12 2s10 4.477 10 10Zm-7-3a3 3 0 1 0-6 0 3 3 0 0 0 6 0Zm-3 5c1.713 0 2.839.917 3.633 1.935.593.76.389 1.876-.47 2.312A6.97 6.97 0 0 1 12 19a6.97 6.97 0 0 1-3.162-.753c-.86-.436-1.064-1.551-.471-2.312C9.16 14.917 10.287 14 12 14Z" clip-rule="evenodd"/>
</svg>
