<svg xmlns="http://www.w3.org/2000/svg" width="1em" height="1em" viewBox="0 0 24 24">
  <path fill="currentColor" fill-rule="evenodd" d="M13.1 5.243a2 2 0 0 0 0 2.828l2.829 2.828a2 2 0 0 0 2.828 0l2.829-2.828a2 2 0 0 0 0-2.828l-2.829-2.829a2 2 0 0 0-2.828 0L13.1 5.243ZM4 2a2 2 0 0 0-2 2v4a2 2 0 0 0 2 2h4a2 2 0 0 0 2-2V4a2 2 0 0 0-2-2H4Zm0 12a2 2 0 0 0-2 2v4a2 2 0 0 0 2 2h4a2 2 0 0 0 2-2v-4a2 2 0 0 0-2-2H4Zm10 2a2 2 0 0 1 2-2h4a2 2 0 0 1 2 2v4a2 2 0 0 1-2 2h-4a2 2 0 0 1-2-2v-4Z" clip-rule="evenodd"/>
</svg>
