<svg xmlns="http://www.w3.org/2000/svg" width="1em" height="1em" viewBox="0 0 24 24">
  <path fill="currentColor" fill-rule="evenodd" d="M10.393 18.83 3.036 8.898c-.594-.801-.513-1.93.26-2.56 5.448-4.45 11.96-4.45 17.408 0 .773.63.854 1.759.26 2.56l-2.508 3.386a2.25 2.25 0 0 0-3.047 3.307l.343.343-2.145 2.896a2 2 0 0 1-3.214 0Zm7.137-5.36a.75.75 0 1 0-1.06 1.06l1.59 1.591-1.59 1.591a.75.75 0 0 0 1.06 1.061l1.591-1.591 1.591 1.591a.75.75 0 0 0 1.061-1.06l-1.591-1.592 1.591-1.59a.75.75 0 1 0-1.06-1.061l-1.592 1.59-1.59-1.59Z" clip-rule="evenodd"/>
</svg>
