<svg width="68" height="35" viewBox="0 0 68 35" fill="none" xmlns="http://www.w3.org/2000/svg">
<path d="M66.8531 0H1.18443C0.835829 0 0.492994 0.137475 0.269195 0.403501C-0.220004 0.985009 -0.00227835 1.81485 0.598972 2.13729L15.9157 10.3525L15.9186 10.3566L19.4848 34.0375C19.6125 34.858 20.5906 35.2786 21.2739 34.7953L36.2325 24.2084L36.2384 24.2081L46.8388 30.0155C47.3444 30.2923 47.996 30.1401 48.3252 29.6686L59.4711 13.7091C59.831 13.1938 59.7033 12.4854 59.186 12.127C58.6685 11.7684 57.9578 11.8957 57.5977 12.411L47.0413 27.5267C47.0397 27.529 47.0366 27.5298 47.0342 27.5284L25.8942 15.9469C25.8899 15.9447 25.8905 15.9385 25.8951 15.9368L63.9469 3.30242C63.952 3.30076 63.9562 3.3065 63.9532 3.31074L57.5977 12.411C57.2389 12.9246 57.5352 13.7089 58.0417 14.0788C58.5611 14.4581 59.1055 14.232 59.4711 13.7091L67.7984 1.78551C67.8306 1.73908 67.8598 1.68872 67.8848 1.63775C68.2553 0.888823 67.6843 0 66.8531 0ZM34.0068 22.9855C34.0103 22.9875 34.0106 22.9926 34.0072 22.9949L22.101 31.4214C22.097 31.4241 22.0917 31.4209 22.0923 31.4161L23.9566 17.4882C23.9571 17.4844 23.9614 17.4823 23.9648 17.4841L34.0068 22.9855ZM52.2771 4.78107L22.6863 14.6061C22.2783 14.7422 21.973 15.1088 21.916 15.534L20.5515 25.7273C20.5506 25.7337 20.5415 25.7337 20.5406 25.7275L18.2568 10.5609C18.2563 10.5579 18.2583 10.5552 18.2613 10.5547L52.2743 4.77033C52.281 4.76912 52.2834 4.7788 52.2771 4.78107ZM53.3343 2.28399L17.1587 8.43618L17.1552 8.43557L5.68485 2.28353C5.67984 2.28081 5.68167 2.2731 5.68744 2.2731H53.3334C53.3402 2.2731 53.3409 2.28293 53.3343 2.28399Z" fill="#2D2926"/>
</svg>
