<svg width="16" height="16" viewBox="0 0 16 16" fill="none" xmlns="http://www.w3.org/2000/svg">
<path d="M14.6267 7.48704C14.38 5.84038 12.88 4.66704 11.2133 4.66704H9.30001C8.95334 4.66704 8.66667 4.95371 8.66667 5.30038C8.66667 5.64704 8.95334 5.93371 9.30001 5.93371H11.2333C12.3 5.93371 13.26 6.69371 13.38 7.75371C13.4933 8.70704 12.9533 9.54704 12.1467 9.90038L13.08 10.8337C14.1667 10.1537 14.84 8.89371 14.6267 7.48704ZM2.74667 2.37371C2.48667 2.11371 2.06667 2.11371 1.80667 2.37371C1.54667 2.63371 1.54667 3.05371 1.80667 3.31371L3.40667 4.91371C2.11334 5.44704 1.22667 6.76038 1.34667 8.27371C1.48667 10.0337 3.06001 11.3337 4.82001 11.3337H6.70001C7.04667 11.3337 7.33334 11.047 7.33334 10.7004C7.33334 10.3537 7.04667 10.067 6.70001 10.067H4.77334C3.68667 10.067 2.70667 9.27371 2.60667 8.18704C2.50667 7.04038 3.34667 6.07371 4.44001 5.95371L5.84001 7.35371C5.55334 7.41371 5.33334 7.66038 5.33334 7.96704V8.03371C5.33334 8.38038 5.62001 8.66704 5.96667 8.66704H7.15334L8.66667 10.1804V11.3337H9.82001L12.02 13.5337C12.28 13.7937 12.7 13.7937 12.96 13.5337C13.22 13.2737 13.22 12.8537 12.96 12.5937L2.74667 2.37371ZM10.6667 7.96704C10.6667 7.62038 10.38 7.33371 10.0333 7.33371H9.59334L10.5867 8.32704C10.6333 8.24038 10.6667 8.14038 10.6667 8.03371V7.96704Z" fill="#2D2926"/>
</svg>
