<svg width="16" height="16" viewBox="0 0 16 16" fill="none" xmlns="http://www.w3.org/2000/svg">
<path d="M11.3334 4.66699H9.33337C8.96671 4.66699 8.66671 4.96699 8.66671 5.33366C8.66671 5.70033 8.96671 6.00033 9.33337 6.00033H11.3334C12.4334 6.00033 13.3334 6.90033 13.3334 8.00033C13.3334 9.10033 12.4334 10.0003 11.3334 10.0003H9.33337C8.96671 10.0003 8.66671 10.3003 8.66671 10.667C8.66671 11.0337 8.96671 11.3337 9.33337 11.3337H11.3334C13.1734 11.3337 14.6667 9.84033 14.6667 8.00033C14.6667 6.16033 13.1734 4.66699 11.3334 4.66699ZM5.33337 8.00033C5.33337 8.36699 5.63337 8.66699 6.00004 8.66699H10C10.3667 8.66699 10.6667 8.36699 10.6667 8.00033C10.6667 7.63366 10.3667 7.33366 10 7.33366H6.00004C5.63337 7.33366 5.33337 7.63366 5.33337 8.00033ZM6.66671 10.0003H4.66671C3.56671 10.0003 2.66671 9.10033 2.66671 8.00033C2.66671 6.90033 3.56671 6.00033 4.66671 6.00033H6.66671C7.03337 6.00033 7.33337 5.70033 7.33337 5.33366C7.33337 4.96699 7.03337 4.66699 6.66671 4.66699H4.66671C2.82671 4.66699 1.33337 6.16033 1.33337 8.00033C1.33337 9.84033 2.82671 11.3337 4.66671 11.3337H6.66671C7.03337 11.3337 7.33337 11.0337 7.33337 10.667C7.33337 10.3003 7.03337 10.0003 6.66671 10.0003Z" fill="#2D2926"/>
</svg>
