<svg width="16" height="16" viewBox="0 0 16 16" fill="none" xmlns="http://www.w3.org/2000/svg">
<g clip-path="url(#clip0)">
<path d="M15.3333 2.66663V6.66662H11.3333" stroke="#F0000B" stroke-width="1.5" stroke-linecap="round" stroke-linejoin="round"/>
<path d="M0.666687 13.3334V9.33337H4.66669" stroke="#F0000B" stroke-width="1.5" stroke-linecap="round" stroke-linejoin="round"/>
<path d="M2.34002 6.00001C2.67813 5.04453 3.25278 4.19028 4.01033 3.51695C4.76789 2.84363 5.68366 2.37319 6.67221 2.14952C7.66076 1.92584 8.68986 1.95624 9.66348 2.23786C10.6371 2.51948 11.5235 3.04315 12.24 3.76001L15.3334 6.66668M0.666687 9.33334L3.76002 12.24C4.47652 12.9569 5.36294 13.4805 6.33656 13.7622C7.31018 14.0438 8.33928 14.0742 9.32783 13.8505C10.3164 13.6268 11.2322 13.1564 11.9897 12.4831C12.7473 11.8097 13.3219 10.9555 13.66 10" stroke="#F0000B" stroke-width="1.5" stroke-linecap="round" stroke-linejoin="round"/>
</g>
<defs>
<clipPath id="clip0">
<path d="M0 0H16V16H0V0Z" fill="white"/>
</clipPath>
</defs>
</svg>
