<svg width="16" height="16" viewBox="0 0 16 16" fill="none" xmlns="http://www.w3.org/2000/svg">
<path d="M8.58957 2.31044C8.35892 1.89648 7.64162 1.89648 7.41097 2.31044L1.41127 13.0708C1.35726 13.1672 1.33048 13.2753 1.33355 13.3845C1.33662 13.4937 1.36942 13.6003 1.42877 13.6938C1.48811 13.7874 1.57198 13.8648 1.67218 13.9184C1.77239 13.9721 1.88553 14.0002 2.00057 14H14C14.1149 14.0002 14.228 13.9721 14.3281 13.9185C14.4283 13.8649 14.5121 13.7876 14.5714 13.694C14.6306 13.6005 14.6634 13.494 14.6664 13.3849C14.6694 13.2758 14.6426 13.1678 14.5886 13.0714L8.58957 2.31044Z" fill="#F0000B"/>
<path d="M8 5.33331L8 9.33331" stroke="white" stroke-width="2"/>
<path d="M8 10.6666L8 12.6666" stroke="white" stroke-width="2"/>
</svg>
