<svg xmlns="http://www.w3.org/2000/svg" width="1em" height="1em" viewBox="0 0 24 24">
  <path fill="currentColor" fill-rule="evenodd" d="M8.282.75a.75.75 0 0 1 .75.75V3h6.5V1.5a.75.75 0 0 1 1.5 0V3h.25a4 4 0 0 1 4 4v1.086a1 1 0 0 1-.293.707L8.575 21.207a1 1 0 0 1-.707.293h-.586a4 4 0 0 1-4-4V7a4 4 0 0 1 4-4h.25V1.5a.75.75 0 0 1 .75-.75Zm3.25 9.146-.72.72a.75.75 0 0 1-1.06-1.06l1.292-1.293a1.75 1.75 0 0 1 2.475 0l1.293 1.292a.75.75 0 1 1-1.06 1.061l-.72-.72v3.19a.75.75 0 1 1-1.5 0v-3.19Zm9.26 3.094a1.674 1.674 0 0 0-2.368 0l-5.014 5.015c-.121.12-.209.27-.256.434l-.626 2.197a.5.5 0 0 0 .618.618l2.196-.627c.165-.046.314-.134.435-.255l5.014-5.015a1.674 1.674 0 0 0 0-2.367Z" clip-rule="evenodd"/>
</svg>
