<svg xmlns="http://www.w3.org/2000/svg" width="1em" height="1em" viewBox="0 0 24 24">
  <path fill="currentColor" fill-rule="evenodd" d="M17.032 1.5a.75.75 0 1 0-1.5 0V3h-6.5V1.5a.75.75 0 0 0-1.5 0V3h-.25a4 4 0 0 0-4 4v10.5a4 4 0 0 0 4 4h10a4 4 0 0 0 4-4V7a4 4 0 0 0-4-4h-.25V1.5Zm-2.099 9.409a.75.75 0 1 0-1.06-1.06l-1.591 1.59-1.591-1.59a.75.75 0 1 0-1.06 1.06l1.59 1.591-1.59 1.591a.75.75 0 1 0 1.06 1.06l1.59-1.59 1.592 1.59a.75.75 0 0 0 1.06-1.06l-1.59-1.591 1.59-1.591Z" clip-rule="evenodd"/>
</svg>
