<svg xmlns="http://www.w3.org/2000/svg" width="1em" height="1em" viewBox="0 0 24 24">
  <path fill="currentColor" fill-rule="evenodd" d="M16.282.75a.75.75 0 0 1 .75.75V3h.25a4 4 0 0 1 4 4v10.5a4 4 0 0 1-4 4h-10a4 4 0 0 1-4-4V7a4 4 0 0 1 4-4h.25V1.5a.75.75 0 1 1 1.5 0V3h6.5V1.5a.75.75 0 0 1 .75-.75Zm1.75 11.75a.75.75 0 0 1-.75.75h-6a.75.75 0 0 1 0-1.5h6a.75.75 0 0 1 .75.75Zm-.75-3.25a.75.75 0 1 0 0-1.5h-6a.75.75 0 0 0 0 1.5h6Zm.75 7.25a.75.75 0 0 1-.75.75h-6a.75.75 0 0 1 0-1.5h6a.75.75 0 0 1 .75.75Zm-9.25-8a1 1 0 1 1-2 0 1 1 0 0 1 2 0Zm-1 5a1 1 0 1 0 0-2 1 1 0 0 0 0 2Zm1 3a1 1 0 1 1-2 0 1 1 0 0 1 2 0Z" clip-rule="evenodd"/>
</svg>
