<svg xmlns="http://www.w3.org/2000/svg" width="1em" height="1em" viewBox="0 0 24 24">
  <path fill="currentColor" fill-rule="evenodd" d="M9.032 1.5a.75.75 0 0 0-1.5 0V3h-.25a4 4 0 0 0-4 4v10.5a4 4 0 0 0 4 4h.586a1 1 0 0 0 .707-.293L20.989 8.793a1 1 0 0 0 .293-.707V7a4 4 0 0 0-4-4h-.25V1.5a.75.75 0 1 0-1.5 0V3h-6.5V1.5Zm11.76 11.49a1.674 1.674 0 0 0-2.368 0l-5.014 5.015c-.121.12-.209.27-.256.434l-.626 2.197a.5.5 0 0 0 .618.618l2.196-.627c.165-.046.314-.134.435-.255l5.014-5.015a1.674 1.674 0 0 0 0-2.367Z" clip-rule="evenodd"/>
</svg>
