<svg xmlns="http://www.w3.org/2000/svg" width="1em" height="1em" viewBox="0 0 24 24">
  <path fill="currentColor" fill-rule="evenodd" d="M10.282 1.5a2 2 0 0 0 0 4h4a2 2 0 1 0 0-4h-4Zm-7 6a4 4 0 0 1 3.5-3.969 3.5 3.5 0 0 0 3.5 3.47h4a3.5 3.5 0 0 0 3.5-3.47 4 4 0 0 1 3.5 3.97v10a4 4 0 0 1-4 4h-10a4 4 0 0 1-4-4v-10Zm8.25 2a.75.75 0 0 1 .75-.75h4a.75.75 0 1 1 0 1.5h-4a.75.75 0 0 1-.75-.75Zm.75 3.25a.75.75 0 0 0 0 1.5h4a.75.75 0 1 0 0-1.5h-4Zm-.75 4.75a.75.75 0 0 1 .75-.75h4a.75.75 0 1 1 0 1.5h-4a.75.75 0 0 1-.75-.75Zm-1.75-8a1 1 0 1 1-2 0 1 1 0 0 1 2 0Zm-1 5a1 1 0 1 0 0-2 1 1 0 0 0 0 2Zm1 3a1 1 0 1 1-2 0 1 1 0 0 1 2 0Z" clip-rule="evenodd"/>
</svg>
