<svg xmlns="http://www.w3.org/2000/svg" width="1em" height="1em" viewBox="0 0 24 24">
  <path fill="currentColor" fill-rule="evenodd" d="M8.282 3.5a2 2 0 0 1 2-2h4a2 2 0 1 1 0 4h-4a2 2 0 0 1-2-2Zm-1.5.031a4 4 0 0 0-3.5 3.97v10a4 4 0 0 0 4 4h10a4 4 0 0 0 4-4v-10a4 4 0 0 0-3.5-3.97 3.5 3.5 0 0 1-3.5 3.47h-4a3.5 3.5 0 0 1-3.5-3.47Zm3.25 8.969a2.25 2.25 0 1 1 4.5 0 2.25 2.25 0 0 1-4.5 0Zm2.25-3.75a3.75 3.75 0 1 0 2.068 6.879l.901.901a.75.75 0 0 0 1.061-1.06l-.902-.902a3.75 3.75 0 0 0-3.129-5.818Z" clip-rule="evenodd"/>
</svg>
