<svg xmlns="http://www.w3.org/2000/svg" width="1em" height="1em" viewBox="0 0 24 24">
  <path fill="currentColor" fill-rule="evenodd" d="M8.282 3.5a2 2 0 0 1 2-2h4a2 2 0 1 1 0 4h-4a2 2 0 0 1-2-2Zm-1.5.031a4 4 0 0 0-3.5 3.97v10a4 4 0 0 0 4 4h10a4 4 0 0 0 4-4v-10a4 4 0 0 0-3.5-3.97 3.5 3.5 0 0 1-3.5 3.47h-4a3.5 3.5 0 0 1-3.5-3.47Zm1.5 5.219a.75.75 0 1 0 0 1.5h8a.75.75 0 1 0 0-1.5h-8Zm-.75 4.75a.75.75 0 0 1 .75-.75h8a.75.75 0 1 1 0 1.5h-8a.75.75 0 0 1-.75-.75Zm.75 3.25a.75.75 0 0 0 0 1.5h4a.75.75 0 1 0 0-1.5h-4Z" clip-rule="evenodd"/>
</svg>
