<svg xmlns="http://www.w3.org/2000/svg" width="1em" height="1em" viewBox="0 0 24 24">
  <path fill="currentColor" fill-rule="evenodd" d="M7.497 2.687a.75.75 0 1 0-.6-1.374 12.797 12.797 0 0 0-5.521 4.636.75.75 0 0 0 1.249.83 11.297 11.297 0 0 1 4.872-4.092Zm9.607-1.374a.75.75 0 0 0-.601 1.374c1.99.87 3.681 2.301 4.872 4.093a.75.75 0 0 0 1.25-.83 12.797 12.797 0 0 0-5.521-4.637Zm2.345 17.583A9.46 9.46 0 0 0 21.5 13a9.5 9.5 0 0 0-19 0 9.46 9.46 0 0 0 2.05 5.896l-2.133 2.632a.75.75 0 1 0 1.166.944l2-2.467A9.466 9.466 0 0 0 12 22.5a9.466 9.466 0 0 0 6.417-2.495l2 2.467a.75.75 0 1 0 1.166-.944l-2.134-2.632ZM12 7.25a.75.75 0 0 1 .75.75v4.599l2.666 1.777a.75.75 0 1 1-.832 1.248l-3-2A.75.75 0 0 1 11.25 13V8a.75.75 0 0 1 .75-.75Z" clip-rule="evenodd"/>
</svg>
