<svg xmlns="http://www.w3.org/2000/svg" width="1em" height="1em" viewBox="0 0 24 24">
  <path fill="currentColor" fill-rule="evenodd" d="M1.47 2.53a.75.75 0 0 1 1.06-1.06l20 20a.75.75 0 1 1-1.06 1.06l-1.865-1.865A3.987 3.987 0 0 1 18 21H6a4 4 0 0 1-4-4v-7c0-1.883 1.3-3.461 3.052-3.887L1.47 2.53Zm8.64 8.64a3 3 0 1 0 4.22 4.22l-4.22-4.22ZM10.07 3h3.86a2 2 0 0 1 1.664.89L17 6h1a4 4 0 0 1 4 4v7c0 .309-.035.61-.101.899L8.2 4.2l.206-.31A2 2 0 0 1 10.07 3ZM12 7a1 1 0 1 0 0-2 1 1 0 0 0 0 2Z" clip-rule="evenodd"/>
</svg>
