<svg xmlns="http://www.w3.org/2000/svg" width="1em" height="1em" viewBox="0 0 24 24">
  <path fill="currentColor" fill-rule="evenodd" d="M2 6a4 4 0 0 1 4-4h12a4 4 0 0 1 4 4v12a4 4 0 0 1-4 4H6a4 4 0 0 1-4-4V6Zm2.25 1A2.75 2.75 0 0 1 7 4.25h10A2.75 2.75 0 0 1 19.75 7v10A2.75 2.75 0 0 1 17 19.75H7A2.75 2.75 0 0 1 4.25 17V7ZM7 5.75c-.69 0-1.25.56-1.25 1.25v10c0 .69.56 1.25 1.25 1.25h10c.69 0 1.25-.56 1.25-1.25V7c0-.69-.56-1.25-1.25-1.25H7ZM12.75 9a.75.75 0 0 0-1.5 0v2.382c0 .663.374 1.269.967 1.565l1.448.724a.75.75 0 1 0 .67-1.342l-1.447-.723a.25.25 0 0 1-.138-.224V9Z" clip-rule="evenodd"/>
</svg>
