<svg xmlns="http://www.w3.org/2000/svg" width="1em" height="1em" viewBox="0 0 24 24">
  <path fill="currentColor" fill-rule="evenodd" d="M12.643 6.5H8V6a4 4 0 0 1 4-4h6a4 4 0 0 1 4 4v6a4 4 0 0 1-4 4h-.5v-4.643A4.857 4.857 0 0 0 12.643 6.5ZM6 22h6a4 4 0 0 0 4-4v-6a4 4 0 0 0-4-4H6a4 4 0 0 0-4 4v6a4 4 0 0 0 4 4Zm6.494-9.564a.75.75 0 0 1 .07 1.058l-2.87 3.28a1.75 1.75 0 0 1-2.41.214l-1.753-1.402a.75.75 0 0 1 .938-1.172l1.752 1.403a.25.25 0 0 0 .345-.031l2.87-3.28a.75.75 0 0 1 1.058-.07Z" clip-rule="evenodd"/>
</svg>
