<svg xmlns="http://www.w3.org/2000/svg" width="1em" height="1em" viewBox="0 0 24 24">
  <path fill="currentColor" fill-rule="evenodd" d="M12.75 2.75a.75.75 0 0 0-1.5 0v2a.75.75 0 0 0 1.5 0v-2ZM3.53 5.22a.75.75 0 0 0-1.06 1.06l1.5 1.5a.75.75 0 0 0 1.06-1.06l-1.5-1.5Zm18 1.06a.75.75 0 0 0-1.06-1.06l-1.5 1.5a.75.75 0 0 0 1.06 1.06l1.5-1.5Zm-.653 6.041c1.497 1.433 1.497 3.925 0 5.358C18.813 19.655 15.604 22 12 22c-3.604 0-6.813-2.345-8.877-4.321-1.497-1.433-1.497-3.925 0-5.358 2.064-1.975 5.273-4.32 8.877-4.32 3.604 0 6.813 2.345 8.877 4.32ZM15 15.001a3 3 0 1 1-6 0 3 3 0 0 1 6 0Z" clip-rule="evenodd"/>
</svg>
