<svg xmlns="http://www.w3.org/2000/svg" width="1em" height="1em" viewBox="0 0 24 24">
  <path fill="currentColor" fill-rule="evenodd" d="M4.75 8.354V3a.75.75 0 0 0-1.5 0v5.354a2.751 2.751 0 0 0-2 2.646v2c0 1.259.846 2.32 2 2.646V21a.75.75 0 0 0 1.5 0v-5.354a2.751 2.751 0 0 0 2-2.646v-2c0-1.259-.846-2.32-2-2.646Zm8-4V3a.75.75 0 0 0-1.5 0v1.354A2.751 2.751 0 0 0 9.25 7v2a2.75 2.75 0 1 0 5.5 0V7c0-1.259-.846-2.32-2-2.646ZM12 21.75a.75.75 0 0 1-.75-.75v-7a.75.75 0 0 1 1.5 0v7a.75.75 0 0 1-.75.75Zm8-11a.75.75 0 0 1-.75-.75V3a.75.75 0 0 1 1.5 0v7a.75.75 0 0 1-.75.75Zm0 1.5A2.75 2.75 0 0 0 17.25 15v2c0 1.259.846 2.32 2 2.646V21a.75.75 0 0 0 1.5 0v-1.354a2.751 2.751 0 0 0 2-2.646v-2A2.75 2.75 0 0 0 20 12.25Z" clip-rule="evenodd"/>
</svg>
