<svg xmlns="http://www.w3.org/2000/svg" width="1em" height="1em" viewBox="0 0 24 24">
  <path fill="currentColor" fill-rule="evenodd" d="M9.922 2.571a4.067 4.067 0 0 1 4.156 0l4.844 2.868C20.208 6.201 21 7.61 21 9.132v5.736c0 1.523-.792 2.931-2.078 3.693l-4.844 2.868a4.067 4.067 0 0 1-4.156 0L5.078 18.56C3.792 17.799 3 16.39 3 14.868V9.132c0-1.523.792-2.931 2.078-3.693l4.844-2.868ZM12 7.75c-.69 0-1.25.56-1.25 1.25a.75.75 0 0 1-1.5 0 2.75 2.75 0 1 1 5.064 1.487 8.991 8.991 0 0 1-.562.757l-.1.124a13.7 13.7 0 0 0-.428.548c-.324.444-.474.779-.474 1.084v.5a.75.75 0 0 1-1.5 0V13c0-.8.392-1.46.761-1.967.156-.214.326-.425.482-.617l.09-.113c.186-.23.344-.432.47-.628A1.25 1.25 0 0 0 12 7.75Zm.75 8.25a.75.75 0 0 0-1.5 0v1a.75.75 0 0 0 1.5 0v-1Z" clip-rule="evenodd"/>
</svg>
