<svg xmlns="http://www.w3.org/2000/svg" width="1em" height="1em" viewBox="0 0 24 24">
  <path fill="currentColor" fill-rule="evenodd" d="M22 12c0 5.523-4.477 10-10 10S2 17.523 2 12 6.477 2 12 2s10 4.477 10 10ZM12 7.75c-.69 0-1.25.56-1.25 1.25a.75.75 0 0 1-1.5 0 2.75 2.75 0 1 1 5.064 1.487 8.991 8.991 0 0 1-.562.757l-.1.124a13.7 13.7 0 0 0-.428.548c-.324.444-.474.779-.474 1.084v.5a.75.75 0 0 1-1.5 0V13c0-.8.392-1.46.761-1.967.156-.214.326-.425.482-.617l.09-.113c.186-.23.344-.432.47-.628A1.25 1.25 0 0 0 12 7.75Zm.75 8.25a.75.75 0 0 0-1.5 0v1a.75.75 0 0 0 1.5 0v-1Z" clip-rule="evenodd"/>
</svg>
