<svg xmlns="http://www.w3.org/2000/svg" width="1em" height="1em" viewBox="0 0 24 24">
  <path fill="currentColor" fill-rule="evenodd" d="M9.922 2.571a4.067 4.067 0 0 1 4.156 0l4.844 2.868C20.208 6.201 21 7.61 21 9.132v5.736c0 1.523-.792 2.931-2.078 3.693l-4.844 2.868a4.067 4.067 0 0 1-4.156 0L5.078 18.56C3.792 17.799 3 16.39 3 14.868V9.132c0-1.523.792-2.931 2.078-3.693l4.844-2.868ZM13 7a1 1 0 1 1-2 0 1 1 0 0 1 2 0Zm-2 2.25a.75.75 0 0 0 0 1.5h.25V17a.75.75 0 0 0 1.5 0v-7a.75.75 0 0 0-.75-.75h-1Z" clip-rule="evenodd"/>
</svg>
