<svg xmlns="http://www.w3.org/2000/svg" width="1em" height="1em" viewBox="0 0 24 24">
  <path fill="currentColor" fill-rule="evenodd" d="M6.75 8a2.75 2.75 0 1 0-5.5 0 2.75 2.75 0 0 0 5.5 0Zm0 8a2.75 2.75 0 1 0-5.5 0 2.75 2.75 0 0 0 5.5 0Zm2.5-10a.75.75 0 0 1 .75-.75h6a.75.75 0 0 1 0 1.5h-6A.75.75 0 0 1 9.25 6Zm.75 7.25a.75.75 0 0 0 0 1.5h6a.75.75 0 0 0 0-1.5h-6ZM9.25 10a.75.75 0 0 1 .75-.75h12a.75.75 0 0 1 0 1.5H10a.75.75 0 0 1-.75-.75Zm.75 7.25a.75.75 0 0 0 0 1.5h12a.75.75 0 0 0 0-1.5H10Z" clip-rule="evenodd"/>
</svg>
