<svg xmlns="http://www.w3.org/2000/svg" width="1em" height="1em" viewBox="0 0 24 24">
  <path fill="currentColor" fill-rule="evenodd" d="M11.5 2.75a8.75 8.75 0 1 0 0 17.5 8.75 8.75 0 0 0 0-17.5ZM1.25 11.5c0-5.66 4.59-10.25 10.25-10.25S21.75 5.84 21.75 11.5c0 2.56-.939 4.902-2.491 6.698l3.271 3.272a.75.75 0 1 1-1.06 1.06l-3.272-3.271A10.21 10.21 0 0 1 11.5 21.75c-5.66 0-10.25-4.59-10.25-10.25ZM11.5 6.75a.75.75 0 0 1 .75.75v3.25h3.25a.75.75 0 0 1 0 1.5h-3.25v3.25a.75.75 0 0 1-1.5 0v-3.25H7.5a.75.75 0 0 1 0-1.5h3.25V7.5a.75.75 0 0 1 .75-.75Z" clip-rule="evenodd"/>
</svg>
