<svg xmlns="http://www.w3.org/2000/svg" width="1em" height="1em" viewBox="0 0 24 24">
  <path fill="currentColor" fill-rule="evenodd" d="M11.046 3h1.909c1.054 0 1.909.806 1.909 1.8a1.5 1.5 0 0 0 2.216 1.317l.102-.055c.913-.497 2.08-.202 2.607.659l.955 1.558c.527.861.214 1.962-.699 2.46-1 .543-1 1.979 0 2.523.913.497 1.226 1.598.699 2.459l-.955 1.558c-.527.861-1.694 1.156-2.608.66l-.101-.056a1.5 1.5 0 0 0-2.216 1.317c0 .994-.855 1.8-1.91 1.8h-1.909c-1.054 0-1.909-.806-1.909-1.8a1.5 1.5 0 0 0-2.216-1.317l-.101.055c-.914.497-2.081.202-2.608-.659l-.955-1.558c-.527-.861-.214-1.962.699-2.46 1-.543 1-1.979 0-2.523-.913-.497-1.226-1.598-.699-2.459l.955-1.558c.527-.861 1.694-1.156 2.608-.66l.101.056A1.5 1.5 0 0 0 9.136 4.8c0-.994.855-1.8 1.91-1.8ZM12 15a3 3 0 1 0 0-6 3 3 0 0 0 0 6Z" clip-rule="evenodd"/>
</svg>
