<svg xmlns="http://www.w3.org/2000/svg" width="1em" height="1em" viewBox="0 0 24 24">
  <path fill="currentColor" fill-rule="evenodd" d="m5.332 4.71 5.039-2.346a3.864 3.864 0 0 1 3.275 0l5.019 2.337a4.046 4.046 0 0 1 2.328 3.9c-.395 6.44-2.152 9.353-6.903 12.731a3.575 3.575 0 0 1-4.162 0C5.19 17.971 3.368 15.1 3.006 8.577A4.037 4.037 0 0 1 5.332 4.71Zm10.232 5.784a.75.75 0 1 0-1.129-.988l-2.87 3.28a.25.25 0 0 1-.344.03l-1.753-1.402a.75.75 0 1 0-.937 1.172l1.753 1.402a1.75 1.75 0 0 0 2.41-.214l2.87-3.28Z" clip-rule="evenodd"/>
</svg>
