<svg xmlns="http://www.w3.org/2000/svg" width="1em" height="1em" viewBox="0 0 24 24">
  <path fill="currentColor" fill-rule="evenodd" d="M18 2H6a4 4 0 0 0-4 4v12a4 4 0 0 0 4 4h12a4 4 0 0 0 4-4V6a4 4 0 0 0-4-4ZM9.495 14.436a.75.75 0 0 0-.993 1.125l.275.21c.162.114.395.26.693.404a5.79 5.79 0 0 0 2.53.575 5.79 5.79 0 0 0 2.53-.575 5.149 5.149 0 0 0 .885-.545l.083-.07a.75.75 0 0 0-.992-1.124l-.14.105a3.654 3.654 0 0 1-.49.284A4.29 4.29 0 0 1 12 15.25a4.29 4.29 0 0 1-1.876-.425 3.655 3.655 0 0 1-.49-.284l-.14-.105ZM17 10a1 1 0 1 1-2 0 1 1 0 0 1 2 0Zm-9 1a1 1 0 1 0 0-2 1 1 0 0 0 0 2Z" clip-rule="evenodd"/>
</svg>
