<svg xmlns="http://www.w3.org/2000/svg" width="1em" height="1em" viewBox="0 0 24 24">
  <path fill="currentColor" fill-rule="evenodd" d="M4.945 19.817a2.75 2.75 0 0 0 4.11 0l1.506-1.694a.75.75 0 1 0-1.122-.996L7.934 18.82c-.057.064-.118.12-.184.17V5.01c.066.05.127.106.184.17L9.44 6.873a.75.75 0 0 0 1.122-.996L9.055 4.183a2.75 2.75 0 0 0-4.11 0L3.439 5.877a.75.75 0 0 0 1.122.996L6.066 5.18a1.26 1.26 0 0 1 .184-.17v13.98a1.261 1.261 0 0 1-.184-.17L4.56 17.127a.75.75 0 1 0-1.122.996l1.506 1.694ZM14 6a2 2 0 0 1 2-2h2a2 2 0 0 1 2 2v2a2 2 0 0 1-2 2h-2a2 2 0 0 1-2-2V6Zm0 10a2 2 0 0 1 2-2h2a2 2 0 0 1 2 2v2a2 2 0 0 1-2 2h-2a2 2 0 0 1-2-2v-2Z" clip-rule="evenodd"/>
</svg>
