<svg xmlns="http://www.w3.org/2000/svg" width="1em" height="1em" viewBox="0 0 24 24">
  <path fill="currentColor" fill-rule="evenodd" d="M7 2.25A4.75 4.75 0 0 0 2.25 7v10A4.75 4.75 0 0 0 7 21.75h1.625a.75.75 0 0 0 0-1.5H7A3.25 3.25 0 0 1 3.75 17V7A3.25 3.25 0 0 1 7 3.75h10A3.25 3.25 0 0 1 20.25 7v1.625a.75.75 0 0 0 1.5 0V7A4.75 4.75 0 0 0 17 2.25H7ZM9.75 15a5.25 5.25 0 1 1 10.5 0 5.25 5.25 0 0 1-10.5 0ZM15 8.25a6.75 6.75 0 1 0 4.213 12.024l1.257 1.256a.75.75 0 1 0 1.06-1.06l-1.256-1.257A6.75 6.75 0 0 0 15 8.25Zm.75 4.75a.75.75 0 0 0-1.5 0v1.25H13a.75.75 0 0 0 0 1.5h1.25V17a.75.75 0 0 0 1.5 0v-1.25H17a.75.75 0 0 0 0-1.5h-1.25V13Z" clip-rule="evenodd"/>
</svg>
