<svg xmlns="http://www.w3.org/2000/svg" width="1em" height="1em" viewBox="0 0 24 24">
  <path fill="currentColor" fill-rule="evenodd" d="M8 4.25a.75.75 0 0 0-.75.75v8.19l-.72-.72a.75.75 0 0 0-1.06 1.06l2 2a.75.75 0 0 0 1.06 0l2-2a.75.75 0 1 0-1.06-1.06l-.72.72V5A.75.75 0 0 0 8 4.25Zm8 0a.75.75 0 0 0-.75.75v8.19l-.72-.72a.75.75 0 1 0-1.06 1.06l2 2a.75.75 0 0 0 1.06 0l2-2a.75.75 0 1 0-1.06-1.06l-.72.72V5a.75.75 0 0 0-.75-.75Zm-11 14a.75.75 0 0 0 0 1.5h14a.75.75 0 0 0 0-1.5H5Z" clip-rule="evenodd"/>
</svg>
