<svg xmlns="http://www.w3.org/2000/svg" width="1em" height="1em" viewBox="0 0 24 24">
  <path fill="currentColor" fill-rule="evenodd" d="M5 5.75a.75.75 0 0 1 0-1.5h14a.75.75 0 0 1 0 1.5H5Zm3 14a.75.75 0 0 1-.75-.75v-8.19l-.72.72a.75.75 0 0 1-1.06-1.06l2-2a.75.75 0 0 1 1.06 0l2 2a.75.75 0 1 1-1.06 1.06l-.72-.72V19a.75.75 0 0 1-.75.75Zm8 0a.75.75 0 0 1-.75-.75v-8.19l-.72.72a.75.75 0 1 1-1.06-1.06l2-2a.75.75 0 0 1 1.06 0l2 2a.75.75 0 1 1-1.06 1.06l-.72-.72V19a.75.75 0 0 1-.75.75Z" clip-rule="evenodd"/>
</svg>
