<svg xmlns="http://www.w3.org/2000/svg" width="1em" height="1em" viewBox="0 0 24 24">
  <path fill="currentColor" fill-rule="evenodd" d="m8.53 16.53-2 2a.75.75 0 0 1-1.06 0l-2-2a.75.75 0 1 1 1.06-1.06l.72.72V7.81l-.72.72a.75.75 0 0 1-1.06-1.06l2-2a.75.75 0 0 1 1.06 0l2 2a.75.75 0 0 1-1.06 1.06l-.72-.72v8.38l.72-.72a.75.75 0 0 1 1.06 1.06ZM12 6.25a.75.75 0 0 0 0 1.5h8a.75.75 0 0 0 0-1.5h-8ZM11.25 12a.75.75 0 0 1 .75-.75h8a.75.75 0 0 1 0 1.5h-8a.75.75 0 0 1-.75-.75Zm.75 4.25a.75.75 0 0 0 0 1.5h8a.75.75 0 0 0 0-1.5h-8Z" clip-rule="evenodd"/>
</svg>
