<svg xmlns="http://www.w3.org/2000/svg" width="1em" height="1em" viewBox="0 0 24 24">
  <path fill="currentColor" fill-rule="evenodd" d="M5.25 6A.75.75 0 0 1 6 5.25h12a.75.75 0 0 1 0 1.5H6A.75.75 0 0 1 5.25 6Zm.22 8.53a.75.75 0 0 1 0-1.06L6.94 12l-1.47-1.47a.75.75 0 1 1 1.06-1.06l2 2a.75.75 0 0 1 0 1.06l-2 2a.75.75 0 0 1-1.06 0ZM11 9.25a.75.75 0 0 0 0 1.5h7a.75.75 0 0 0 0-1.5h-7Zm0 4h7a.75.75 0 0 1 0 1.5h-7a.75.75 0 0 1 0-1.5Zm-5 4a.75.75 0 0 0 0 1.5h12a.75.75 0 0 0 0-1.5H6Z" clip-rule="evenodd"/>
</svg>
