<svg xmlns="http://www.w3.org/2000/svg" width="1em" height="1em" viewBox="0 0 24 24">
  <path fill="currentColor" fill-rule="evenodd" d="M18.136 5.864a3.964 3.964 0 0 0-5.606 0L10.864 7.53a.75.75 0 1 1-1.061-1.06l1.667-1.667a5.464 5.464 0 1 1 7.727 7.728l-1.667 1.666a.75.75 0 0 1-1.06-1.06l1.666-1.667a3.964 3.964 0 0 0 0-5.606Zm-3.484 3.484a.75.75 0 0 1 0 1.061l-4.243 4.243a.75.75 0 1 1-1.06-1.06l4.242-4.244a.75.75 0 0 1 1.06 0Zm-3.182 8.789a3.964 3.964 0 0 1-5.607-5.607l1.667-1.666a.75.75 0 1 0-1.06-1.06L4.802 11.47a5.464 5.464 0 1 0 7.727 7.727l1.667-1.667a.75.75 0 1 0-1.06-1.06l-1.668 1.667Z" clip-rule="evenodd"/>
</svg>
