<svg xmlns="http://www.w3.org/2000/svg" width="1em" height="1em" viewBox="0 0 24 24">
  <path fill="currentColor" fill-rule="evenodd" d="M18 1.25a.75.75 0 0 1 .75.75v2.25H21a.75.75 0 0 1 0 1.5h-2.25V8a.75.75 0 0 1-1.5 0V5.75H15a.75.75 0 0 1 0-1.5h2.25V2a.75.75 0 0 1 .75-.75ZM21 18v-7a1 1 0 0 0-1-1h-3a4 4 0 0 1-4-4V3a1 1 0 0 0-1-1H7a4 4 0 0 0-4 4v12a4 4 0 0 0 4 4h10a4 4 0 0 0 4-4ZM7.25 7A.75.75 0 0 1 8 6.25h3a.75.75 0 0 1 0 1.5H8A.75.75 0 0 1 7.25 7ZM8 11.25a.75.75 0 0 0 0 1.5h8a.75.75 0 0 0 0-1.5H8ZM7.25 17a.75.75 0 0 1 .75-.75h8a.75.75 0 0 1 0 1.5H8a.75.75 0 0 1-.75-.75Z" clip-rule="evenodd"/>
</svg>
