<svg xmlns="http://www.w3.org/2000/svg" width="1em" height="1em" viewBox="0 0 24 24">
  <path fill="currentColor" fill-rule="evenodd" d="M2.25 7A4.75 4.75 0 0 1 7 2.25h10A4.75 4.75 0 0 1 21.75 7v10A4.75 4.75 0 0 1 17 21.75H7A4.75 4.75 0 0 1 2.25 17V7ZM7 3.75A3.25 3.25 0 0 0 3.75 7v1.074h7.5V3.75H7Zm5.75 0v4.324h7.5V7A3.25 3.25 0 0 0 17 3.75h-4.25Zm7.5 5.824h-7.5v4.853h7.5V9.574Zm0 6.353h-7.5v4.323H17A3.25 3.25 0 0 0 20.25 17v-1.073Zm-9 4.323v-4.323h-7.5V17A3.25 3.25 0 0 0 7 20.25h4.25Zm-7.5-5.823h7.5V9.574h-7.5v4.853Z" clip-rule="evenodd"/>
</svg>
