<svg xmlns="http://www.w3.org/2000/svg" width="1em" height="1em" viewBox="0 0 24 24">
  <path fill="currentColor" fill-rule="evenodd" d="M4 2a2 2 0 0 0-2 2v16a2 2 0 1 0 4 0v-3.25h2.25v.75a.75.75 0 0 0 1.5 0v-.75h1.5v.75a.75.75 0 0 0 1.5 0v-.75H18V20a2 2 0 1 0 4 0V4a2 2 0 1 0-4 0v3.25h-2.25V6.5a.75.75 0 0 0-1.5 0v.75h-1.5V6.5a.75.75 0 0 0-1.5 0v.75H6V4a2 2 0 0 0-2-2Zm2 6.75v6.5h2.25v-.75a.75.75 0 0 1 1.5 0v.75h1.5v-.75a.75.75 0 0 1 1.5 0v.75H18v-6.5h-2.25v.75a.75.75 0 0 1-1.5 0v-.75h-1.5v.75a.75.75 0 0 1-1.5 0v-.75H6Z" clip-rule="evenodd"/>
</svg>
