<svg xmlns="http://www.w3.org/2000/svg" width="1em" height="1em" viewBox="0 0 24 24">
  <path fill="currentColor" fill-rule="evenodd" d="M5 11.5c-.344 0-.678.039-1 .111V4a2 2 0 0 1 2-2h7.343a4 4 0 0 1 2.829 1.172l2.656 2.656A4 4 0 0 1 20 8.657v2.954a4.513 4.513 0 0 0-1-.111h-1a3.5 3.5 0 0 0-2.8 1.4L14 14.5a2.5 2.5 0 0 1-4 0l-1.2-1.6A3.5 3.5 0 0 0 6 11.5H5Zm3-3.25a.75.75 0 0 0 0 1.5h8a.75.75 0 0 0 0-1.5H8ZM7.25 5A.75.75 0 0 1 8 4.25h4a.75.75 0 0 1 0 1.5H8A.75.75 0 0 1 7.25 5ZM22 16v3a3 3 0 0 1-3 3H5a3 3 0 0 1-3-3v-3a3 3 0 0 1 3-3h1a2 2 0 0 1 1.6.8l1.2 1.6a4 4 0 0 0 6.4 0l1.2-1.6A2 2 0 0 1 18 13h1a3 3 0 0 1 3 3Z" clip-rule="evenodd"/>
</svg>
