<svg xmlns="http://www.w3.org/2000/svg" width="1em" height="1em" viewBox="0 0 24 24">
  <path fill="currentColor" fill-rule="evenodd" d="M11.04 3.324c.5-.6 1.42-.6 1.92 0L15.19 6H8.81l2.23-2.676ZM6.857 6l3.03-3.636a2.75 2.75 0 0 1 4.226 0L17.143 6H18a4 4 0 0 1 4 4v8a4 4 0 0 1-4 4H6a4 4 0 0 1-4-4v-8a4 4 0 0 1 4-4h.857Zm-.607 4A.75.75 0 0 1 7 9.25h10a.75.75 0 0 1 0 1.5H7a.75.75 0 0 1-.75-.75ZM7 13.25a.75.75 0 0 0 0 1.5h10a.75.75 0 0 0 0-1.5H7ZM6.25 18a.75.75 0 0 1 .75-.75h5a.75.75 0 0 1 0 1.5H7a.75.75 0 0 1-.75-.75Z" clip-rule="evenodd"/>
</svg>
