<svg xmlns="http://www.w3.org/2000/svg" width="1em" height="1em" viewBox="0 0 24 24">
  <path fill="currentColor" fill-rule="evenodd" d="M7.5 4a2 2 0 0 1 2-2h5a2 2 0 0 1 2 2v5a2 2 0 0 1-2 2h-5a2 2 0 0 1-2-2V4Zm4.894.033a.75.75 0 0 1 .356.638v3.25H13a.75.75 0 0 1 0 1.5h-2a.75.75 0 0 1 0-1.5h.25V5.878a.75.75 0 0 1-.585-1.378l1-.5a.75.75 0 0 1 .73.033ZM2 15a2 2 0 0 1 2-2h5a2 2 0 0 1 2 2v5a2 2 0 0 1-2 2H4a2 2 0 0 1-2-2v-5Zm11 0a2 2 0 0 1 2-2h5a2 2 0 0 1 2 2v5a2 2 0 0 1-2 2h-5a2 2 0 0 1-2-2v-5Z" clip-rule="evenodd"/>
</svg>
