<svg xmlns="http://www.w3.org/2000/svg" width="1em" height="1em" viewBox="0 0 24 24">
  <path fill="currentColor" fill-rule="evenodd" d="M9 2a2 2 0 0 0-2 2v3h10V4a2 2 0 0 0-2-2H9ZM1.25 9.25A.75.75 0 0 1 2 8.5h20a.75.75 0 0 1 0 1.5h-1v6c0 .352-.09.682-.25.969V22a.75.75 0 0 1-1.5 0v-4.015c-.082.01-.165.015-.25.015h-1.25v2a.75.75 0 0 1-1.5 0v-2h-8.5v2a.75.75 0 0 1-1.5 0v-2H5c-.085 0-.168-.005-.25-.015V22a.75.75 0 0 1-1.5 0v-5.031A1.991 1.991 0 0 1 3 16v-6H2a.75.75 0 0 1-.75-.75Z" clip-rule="evenodd"/>
</svg>
