<svg xmlns="http://www.w3.org/2000/svg" width="1em" height="1em" viewBox="0 0 24 24">
  <path fill="currentColor" fill-rule="evenodd" d="M5.826 1.385a.75.75 0 0 1 1.044.186A6.242 6.242 0 0 0 12.02 4.25a6.242 6.242 0 0 0 5.11-2.679.75.75 0 0 1 1.23.858A7.783 7.783 0 0 1 15.33 5a7.776 7.776 0 0 1 3.917 4.25H4.752A7.777 7.777 0 0 1 8.67 5a7.782 7.782 0 0 1-3.03-2.57.75.75 0 0 1 .186-1.045ZM12 19.75c-2.123 0-4 1.058-5.13 2.68a.75.75 0 0 1-1.23-.86A7.783 7.783 0 0 1 8.67 19a7.777 7.777 0 0 1-3.918-4.25h14.496A7.777 7.777 0 0 1 15.33 19a7.783 7.783 0 0 1 3.03 2.57.75.75 0 0 1-1.23.86A6.242 6.242 0 0 0 12 19.75Zm-7.65-9a7.806 7.806 0 0 0 0 2.5h15.3a7.804 7.804 0 0 0 0-2.5H4.35Z" clip-rule="evenodd"/>
</svg>
