<svg xmlns="http://www.w3.org/2000/svg" width="1em" height="1em" viewBox="0 0 24 24">
  <path fill="currentColor" fill-rule="evenodd" d="M2.25 6A3.75 3.75 0 0 1 6 2.25a.75.75 0 0 1 0 1.5A2.25 2.25 0 0 0 3.75 6v8.26a4.25 4.25 0 0 1 6.635 1.514A2.738 2.738 0 0 1 12 15.25c.604 0 1.162.194 1.615.524a4.25 4.25 0 0 1 6.635-1.514V6A2.25 2.25 0 0 0 18 3.75a.75.75 0 0 1 0-1.5A3.75 3.75 0 0 1 21.75 6v11.5a4.25 4.25 0 0 1-8.47.5h-.03a1.25 1.25 0 1 0-2.5 0h-.03a4.25 4.25 0 0 1-8.47-.5V6Z" clip-rule="evenodd"/>
</svg>
