<svg xmlns="http://www.w3.org/2000/svg" width=".96em" height="1em" viewBox="0 0 24 25">
  <path fill="currentColor" fill-rule="evenodd" d="M16 18.458v.292c0 2.301-1.79 4.167-4 4.167S8 21.05 8 18.75v-.292h3.79a.723.723 0 0 0 .42 0H16Zm0-1.5v-.511c0-.681.333-1.305.808-1.773A7.417 7.417 0 0 0 19 9.374c0-4.026-3.134-7.29-7-7.29s-7 3.264-7 7.29c0 2.088.842 3.97 2.192 5.3.475.468.808 1.091.808 1.773v.511h3.25v-5.176L9.47 9.927a.804.804 0 0 1 0-1.105.729.729 0 0 1 1.06 0L12 10.353l1.47-1.53a.729.729 0 0 1 1.06 0c.293.305.293.8 0 1.104l-1.78 1.855v5.176H16Z" clip-rule="evenodd"/>
</svg>
