<svg xmlns="http://www.w3.org/2000/svg" width="1em" height="1em" viewBox="0 0 24 24">
  <path fill="currentColor" fill-rule="evenodd" d="M12 1.25a.75.75 0 0 1 .75.75v1.25H14a.75.75 0 0 1 .75.75v1.834a6.751 6.751 0 0 1-2 12.875v2.541H15a.75.75 0 0 1 0 1.5H9a.75.75 0 0 1 0-1.5h2.25v-2.5H8a.75.75 0 0 1 0-1.5h4.012a5.25 5.25 0 0 0 2.738-9.723V12a.75.75 0 0 1-.75.75h-1.25V14a.75.75 0 0 1-1.5 0v-1.25H10a.75.75 0 0 1-.75-.75V4a.75.75 0 0 1 .75-.75h1.25V2a.75.75 0 0 1 .75-.75Z" clip-rule="evenodd"/>
</svg>
