<svg xmlns="http://www.w3.org/2000/svg" width="1em" height="1em" viewBox="0 0 24 24">
  <path fill="currentColor" fill-rule="evenodd" d="M2 4.5a1.5 1.5 0 1 1 3 0v1.75H2V4.5Zm0 13.039V7.75h3v9.789a4 4 0 0 1-.672 2.219l-.412.618a.5.5 0 0 1-.832 0l-.412-.618A4 4 0 0 1 2 17.538ZM8 6a3 3 0 0 1 3-3h8a3 3 0 0 1 3 3v12a3 3 0 0 1-3 3h-8a3 3 0 0 1-3-3V6Zm3.25 2a.75.75 0 0 1 .75-.75h6a.75.75 0 0 1 0 1.5h-6a.75.75 0 0 1-.75-.75Zm.75 3.25a.75.75 0 0 0 0 1.5h6a.75.75 0 0 0 0-1.5h-6ZM11.25 16a.75.75 0 0 1 .75-.75h3a.75.75 0 0 1 0 1.5h-3a.75.75 0 0 1-.75-.75Z" clip-rule="evenodd"/>
</svg>
