<svg xmlns="http://www.w3.org/2000/svg" width="1em" height="1em" viewBox="0 0 24 24">
  <path fill="currentColor" fill-rule="evenodd" d="M4.176 4.176c.269-.268.712-.444 1.406-.425.696.02 1.572.237 2.578.668a16.76 16.76 0 0 1 2.56 1.401 29.392 29.392 0 0 0-2.592 2.308A29.398 29.398 0 0 0 5.82 10.72a16.758 16.758 0 0 1-1.4-2.56c-.432-1.006-.65-1.882-.669-2.578-.019-.694.157-1.137.425-1.406Zm4.575-1.135c1.032.442 2.131 1.061 3.249 1.833 1.118-.772 2.217-1.391 3.249-1.833 1.11-.476 2.178-.763 3.127-.789.951-.027 1.854.21 2.508.864.655.654.89 1.557.864 2.508-.027.949-.313 2.017-.789 3.127-.442 1.032-1.061 2.131-1.834 3.249.773 1.118 1.392 2.217 1.834 3.249.476 1.11.762 2.178.789 3.127.026.951-.21 1.854-.864 2.508-.654.655-1.557.89-2.508.864-.95-.027-2.017-.313-3.127-.789-1.032-.442-2.131-1.061-3.249-1.833-1.118.772-2.217 1.391-3.249 1.833-1.11.476-2.178.762-3.127.789-.95.026-1.854-.21-2.508-.864-.655-.654-.89-1.557-.864-2.508.027-.949.313-2.017.789-3.127.442-1.032 1.061-2.131 1.833-3.249-.772-1.118-1.391-2.217-1.833-3.249-.476-1.11-.763-2.178-.789-3.127-.027-.951.21-1.854.864-2.508.654-.655 1.557-.89 2.508-.864.949.026 2.017.313 3.127.789Zm.438 6.148A27.58 27.58 0 0 1 12 6.727c.935.71 1.884 1.535 2.811 2.462A27.571 27.571 0 0 1 17.273 12a27.58 27.58 0 0 1-2.462 2.811A27.59 27.59 0 0 1 12 17.273a27.586 27.586 0 0 1-2.811-2.462A27.585 27.585 0 0 1 6.727 12a27.574 27.574 0 0 1 2.462-2.811Zm6.683-1.061c.848.848 1.62 1.72 2.308 2.592a16.756 16.756 0 0 0 1.4-2.56c.432-1.006.65-1.882.669-2.578.019-.694-.157-1.137-.425-1.406-.269-.268-.712-.444-1.406-.425-.696.02-1.572.237-2.578.668-.804.345-1.668.816-2.56 1.401.872.687 1.744 1.46 2.592 2.308Zm0 7.744a29.389 29.389 0 0 0 2.308-2.592 16.753 16.753 0 0 1 1.4 2.56c.432 1.006.649 1.882.669 2.578.019.694-.157 1.137-.425 1.406-.269.268-.712.444-1.406.424-.697-.019-1.572-.236-2.578-.667a16.755 16.755 0 0 1-2.56-1.401 29.39 29.39 0 0 0 2.592-2.308Zm-7.744 0c.848.848 1.72 1.621 2.592 2.308a16.744 16.744 0 0 1-2.56 1.4c-1.006.432-1.882.65-2.578.669-.694.019-1.137-.157-1.406-.425-.268-.269-.444-.712-.425-1.406.02-.696.237-1.572.668-2.578.345-.804.816-1.668 1.401-2.56a29.39 29.39 0 0 0 2.308 2.592ZM12 14a2 2 0 1 0 0-4 2 2 0 0 0 0 4Z" clip-rule="evenodd"/>
</svg>
