<svg xmlns="http://www.w3.org/2000/svg" width="1em" height="1em" viewBox="0 0 24 24">
  <path fill="currentColor" fill-rule="evenodd" d="M20.238 10.515v.986a2.22 2.22 0 1 1-4.44 0v-.986l1.543.686c.43.191.922.191 1.353 0l1.544-.686Zm-5.829-.617v2.436a.416.416 0 1 1-.832 0V9.527l.015.008.817.363Z" clip-rule="evenodd"/>
  <path fill="currentColor" d="m22.443 9.437-3.75-1.666a1.665 1.665 0 0 0-1.352 0l-3.749 1.666a.278.278 0 0 0 0 .508l3.75 1.666c.43.191.921.191 1.352 0l3.749-1.666a.278.278 0 0 0 0-.508Z"/>
  <path fill="currentColor" fill-rule="evenodd" d="M16.317 18.572h5.031a1.11 1.11 0 0 0 1.11-1.11c0-1.203-1.086-2.237-2.643-2.695a.526.526 0 0 0-.521.141l-.882.892a.555.555 0 0 1-.79 0l-.88-.892a.526.526 0 0 0-.522-.141 4.893 4.893 0 0 0-1.436.676c.96.88 1.529 1.96 1.533 3.13ZM11.782 8.207v1.506a3.387 3.387 0 0 1-6.775 0V8.207l2.356 1.047a2.54 2.54 0 0 0 2.063 0l2.356-1.047Zm-8.892-.94v3.716a.635.635 0 1 1-1.27 0V6.7a.46.46 0 0 0 .024.011l1.246.554Z" clip-rule="evenodd"/>
  <path fill="currentColor" d="M15.145 5.938 9.426 3.397a2.54 2.54 0 0 0-2.063 0l-5.72 2.541a.423.423 0 0 0 0 .774l5.72 2.542a2.54 2.54 0 0 0 2.063 0l5.72-2.542a.423.423 0 0 0 0-.774ZM6.447 14.285l1.345 1.36a.847.847 0 0 0 1.205 0l1.345-1.36c.208-.21.511-.3.795-.216 2.375.698 4.032 2.277 4.032 4.112 0 .935-.758 1.693-1.694 1.693H3.314a1.694 1.694 0 0 1-1.694-1.693c0-1.835 1.657-3.414 4.033-4.112a.803.803 0 0 1 .794.216Z"/>
</svg>
