<svg xmlns="http://www.w3.org/2000/svg" width="1em" height="1em" viewBox="0 0 24 24">
  <path fill="currentColor" fill-rule="evenodd" d="M17.133 2.213c-.735.438-.987 1.408-.562 2.166l2.56 4.579a1.511 1.511 0 0 0 2.1.58c.735-.438.987-1.408.563-2.166l-2.562-4.579a1.511 1.511 0 0 0-2.099-.58ZM15.058 4.67 7.442 9.208c-.98.584-1.315 1.877-.75 2.889l.146.261-.017.01-3.774 2.25-.393-.702a.75.75 0 0 0-1.309.733l1.537 2.747a.75.75 0 0 0 1.31-.733l-.413-.736 3.792-2.26.146.261c.566 1.012 1.819 1.358 2.799.774l1.37-.816L7.9 21.658a.75.75 0 0 0 1.335.684l4.455-8.686 4.455 8.686a.75.75 0 1 0 1.335-.684l-4.831-9.418 3.495-2.083a3.092 3.092 0 0 1-.32-.467l-2.562-4.578a3.113 3.113 0 0 1-.204-.442Z" clip-rule="evenodd"/>
</svg>
