<svg xmlns="http://www.w3.org/2000/svg" width="1em" height="1em" viewBox="0 0 24 24">
  <path fill="currentColor" fill-rule="evenodd" d="M17 2.062h1a4 4 0 0 1 4 4v6a2 2 0 0 1-2 2h-5a2 2 0 0 0-2 2v4a2 2 0 0 1-2 2H6a4 4 0 0 1-4-4v-12a4 4 0 0 1 4-4h11ZM8 7.648V3.562h8v4.086c0 .89-1.077 1.337-1.707.707l-1.586-1.586a1 1 0 0 0-1.414 0L9.707 8.355C9.077 8.985 8 8.539 8 7.648Zm13 10.414c0 1.546-1.469 3.376-2.35 4.336a.873.873 0 0 1-1.3 0c-.881-.96-2.35-2.79-2.35-4.336 0-2.209 1.343-3 3-3s3 .791 3 3Zm-2 0a1 1 0 1 1-2 0 1 1 0 0 1 2 0Z" clip-rule="evenodd"/>
</svg>
