<svg xmlns="http://www.w3.org/2000/svg" width="1em" height="1em" viewBox="0 0 24 24">
  <path fill="currentColor" fill-rule="evenodd" d="M17 2.062h1a4 4 0 0 1 4 4v6a2 2 0 0 1-2 2h-5a2 2 0 0 0-2 2v4a2 2 0 0 1-2 2H6a4 4 0 0 1-4-4v-12a4 4 0 0 1 4-4h11ZM8 7.648V3.562h8v4.086c0 .89-1.077 1.337-1.707.707l-1.586-1.586a1 1 0 0 0-1.414 0L9.707 8.355C9.077 8.985 8 8.539 8 7.648Zm8.735 11.53.72.724V16.12c0-.417.336-.755.75-.755s.75.338.75.755v3.783l.72-.724a.747.747 0 0 1 1.06 0 .758.758 0 0 1 0 1.067l-1.293 1.301a1.742 1.742 0 0 1-2.474 0l-1.293-1.3a.758.758 0 0 1 0-1.068.747.747 0 0 1 1.06 0Z" clip-rule="evenodd"/>
</svg>
