<svg xmlns="http://www.w3.org/2000/svg" width="1em" height="1em" viewBox="0 0 24 24">
  <path fill="currentColor" fill-rule="evenodd" d="M17 2h1a4 4 0 0 1 4 4v6a2 2 0 0 1-2 2h-5a2 2 0 0 0-2 2v4a2 2 0 0 1-2 2H6a4 4 0 0 1-4-4V6a4 4 0 0 1 4-4h11ZM8 7.586V3.5h8v4.086c0 .89-1.077 1.337-1.707.707l-1.586-1.586a1 1 0 0 0-1.414 0L9.707 8.293C9.077 8.923 8 8.477 8 7.586Zm8.409 8.762a.75.75 0 1 0-1.06 1.061L16.938 19l-1.59 1.591a.75.75 0 1 0 1.06 1.06L18 20.062l1.591 1.59a.75.75 0 0 0 1.06-1.06L19.062 19l1.59-1.591a.75.75 0 0 0-1.06-1.06L18 17.938l-1.591-1.59Z" clip-rule="evenodd"/>
</svg>
