<svg xmlns="http://www.w3.org/2000/svg" width="1em" height="1em" viewBox="0 0 24 24">
  <path fill="currentColor" fill-rule="evenodd" d="M6 3.062h3.5a4 4 0 0 1 4 4v12h-3a3.5 3.5 0 0 0-6.907-.805A3.994 3.994 0 0 1 2 15.062v-8a4 4 0 0 1 4-4Zm2 3.75a.75.75 0 0 1 .75.75v2.75h1.75a.75.75 0 0 1 0 1.5H8a.75.75 0 0 1-.75-.75v-3.5a.75.75 0 0 1 .75-.75Zm13.446 11.632A3.5 3.5 0 0 0 15 17.258V7.062h2.21a2 2 0 0 1 1.367.541l2.79 2.617A2 2 0 0 1 22 11.678v5.383c0 .536-.21 1.023-.554 1.382ZM9 19.062a2 2 0 1 1-4 0 2 2 0 0 1 4 0Zm11 0a2 2 0 1 1-4 0 2 2 0 0 1 4 0Z" clip-rule="evenodd"/>
</svg>
