<svg xmlns="http://www.w3.org/2000/svg" width="1em" height="1em" viewBox="0 0 24 24">
  <path fill="currentColor" fill-rule="evenodd" d="M6 3.062h3.5a4 4 0 0 1 4 4v12h-3a3.5 3.5 0 0 0-6.907-.805A3.994 3.994 0 0 1 2 15.062v-8a4 4 0 0 1 4-4Zm3.945 5.056a.75.75 0 0 1 0 1.06l-.884.884.884.884a.75.75 0 0 1-1.061 1.06L8 11.124l-.884.884a.75.75 0 1 1-1.06-1.061l.883-.884-.883-.884a.75.75 0 1 1 1.06-1.06L8 9l.884-.883a.75.75 0 0 1 1.06 0Zm11.5 10.326A3.5 3.5 0 0 0 15 17.258V7.062h2.21a2 2 0 0 1 1.367.541l2.79 2.617A2 2 0 0 1 22 11.678v5.383c0 .536-.21 1.023-.554 1.382ZM9 19.062a2 2 0 1 1-4 0 2 2 0 0 1 4 0Zm11 0a2 2 0 1 1-4 0 2 2 0 0 1 4 0Z" clip-rule="evenodd"/>
</svg>
