<svg xmlns="http://www.w3.org/2000/svg" width="1em" height="1em" viewBox="0 0 24 24">
  <path fill="currentColor" fill-rule="evenodd" d="M12 2.312a.75.75 0 0 1 .75.75v1.25H14a.75.75 0 0 1 0 1.5h-1.25v1.25a.75.75 0 0 1-1.5 0v-1.25H10a.75.75 0 1 1 0-1.5h1.25v-1.25a.75.75 0 0 1 .75-.75ZM4 11.74v5.087a2 2 0 0 0 1.106 1.789l6 3a2 2 0 0 0 1.788 0l6-3A2 2 0 0 0 20 16.826V11.74l-5.33 2.665a1.5 1.5 0 0 1-1.918-.51L12 12.766l-.752 1.128a1.5 1.5 0 0 1-1.919.51L4 11.739Zm7.976-1.661-7.96-3.992-1.987 2.956 8.002 4.023 1.945-2.987Zm0 0 2.022 2.987 8.02-3.965-2.027-2.988-8.015 3.966Z" clip-rule="evenodd"/>
</svg>
