<svg xmlns="http://www.w3.org/2000/svg" width="1em" height="1em" viewBox="0 0 24 24">
  <path fill="currentColor" fill-rule="evenodd" d="M12 1.25a.75.75 0 0 1 .75.75v1a.75.75 0 0 1-1.5 0V2a.75.75 0 0 1 .75-.75ZM9 6a3 3 0 0 0-3 3v6a3 3 0 0 0 3 3h6a3 3 0 0 0 3-3V9a3 3 0 0 0-3-3H9Zm4 3.75a.75.75 0 0 0 0-1.5h-2a.75.75 0 0 0 0 1.5h2ZM12.75 21a.75.75 0 0 0-1.5 0v1a.75.75 0 0 0 1.5 0v-1Zm7.851-17.602a.75.75 0 0 1 0 1.061l-.707.707a.75.75 0 0 1-1.06-1.06l.707-.708a.75.75 0 0 1 1.06 0ZM5.166 19.894a.75.75 0 1 0-1.06-1.06l-.707.707a.75.75 0 1 0 1.06 1.06l.707-.707ZM22.75 12a.75.75 0 0 1-.75.75h-1a.75.75 0 0 1 0-1.5h1a.75.75 0 0 1 .75.75ZM3 12.75a.75.75 0 0 0 0-1.5H2a.75.75 0 0 0 0 1.5h1ZM20.601 20.6a.75.75 0 0 1-1.06 0l-.707-.707a.75.75 0 1 1 1.06-1.06l.707.707a.75.75 0 0 1 0 1.06ZM4.106 5.166a.75.75 0 1 0 1.06-1.06l-.707-.708A.75.75 0 1 0 3.4 4.46l.707.707Z" clip-rule="evenodd"/>
</svg>
