<svg xmlns="http://www.w3.org/2000/svg" width="1em" height="1em" viewBox="0 0 24 24">
  <path fill="currentColor" fill-rule="evenodd" d="M22 18V8.403c0-.22-.018-.438-.054-.653H2.054A4 4 0 0 0 2 8.403V18a4 4 0 0 0 4 4h12a4 4 0 0 0 4-4Zm-.877-12.096c.09.111.172.227.248.346H2.63c.076-.12.159-.235.248-.346l1.922-2.403A4 4 0 0 1 7.922 2h8.156A4 4 0 0 1 19.2 3.5l1.922 2.403ZM9.75 14a2.25 2.25 0 1 1 4.5 0 2.25 2.25 0 0 1-4.5 0ZM12 10.25a3.75 3.75 0 1 0 2.068 6.879l.902.901a.75.75 0 1 0 1.06-1.06l-.901-.902A3.75 3.75 0 0 0 12 10.25Z" clip-rule="evenodd"/>
</svg>
