<svg xmlns="http://www.w3.org/2000/svg" width="1em" height="1em" viewBox="0 0 24 24">
  <path fill="currentColor" fill-rule="evenodd" d="M22 18V8.403c0-.22-.018-.438-.054-.653H2.054A4 4 0 0 0 2 8.403V18a4 4 0 0 0 4 4h12a4 4 0 0 0 4-4ZM2.629 6.25H21.37a4.02 4.02 0 0 0-.247-.346L19.2 3.501A4 4 0 0 0 16.078 2H7.923A4 4 0 0 0 4.798 3.5L2.877 5.904a4.003 4.003 0 0 0-.248.346Zm10.02 11.086C13.531 16.376 15 14.546 15 13c0-2.21-1.343-3-3-3s-3 .79-3 3c0 1.546 1.469 3.376 2.35 4.336a.873.873 0 0 0 1.3 0ZM12 14a1 1 0 1 0 0-2 1 1 0 0 0 0 2Z" clip-rule="evenodd"/>
</svg>
