<svg xmlns="http://www.w3.org/2000/svg" width="1em" height="1em" viewBox="0 0 24 24">
  <path fill="currentColor" fill-rule="evenodd" d="M22 18V8.403c0-.22-.018-.438-.054-.653H2.054A4 4 0 0 0 2 8.403V18a4 4 0 0 0 4 4h12a4 4 0 0 0 4-4ZM2.629 6.25H21.37a4.02 4.02 0 0 0-.247-.346L19.2 3.501A4 4 0 0 0 16.078 2H7.923A4 4 0 0 0 4.798 3.5L2.877 5.904a4.003 4.003 0 0 0-.248.346Zm9.636 5.667-.265.265-.265-.265a1.875 1.875 0 0 0-2.652 2.651l1.856 1.856a1.5 1.5 0 0 0 2.122 0l1.856-1.856a1.875 1.875 0 0 0-2.652-2.651Z" clip-rule="evenodd"/>
</svg>
