<svg xmlns="http://www.w3.org/2000/svg" width="1em" height="1em" viewBox="0 0 24 24">
  <path fill="currentColor" fill-rule="evenodd" d="M22 8.403V18a4 4 0 0 1-4 4H6a4 4 0 0 1-4-4V8.403a4 4 0 0 1 .054-.653h19.892c.036.215.054.433.054.653Zm-.629-2.153a4.02 4.02 0 0 0-.247-.346L19.2 3.501A4 4 0 0 0 16.078 2H7.923a4 4 0 0 0-3.124 1.501L2.877 5.904a4.003 4.003 0 0 0-.248.346H21.37ZM16 18.25a.75.75 0 0 0 0 1.5h3a.75.75 0 0 0 0-1.5h-3ZM15.25 16a.75.75 0 0 1 .75-.75h3a.75.75 0 0 1 0 1.5h-3a.75.75 0 0 1-.75-.75Z" clip-rule="evenodd"/>
</svg>
