<svg xmlns="http://www.w3.org/2000/svg" width="1em" height="1em" viewBox="0 0 24 24">
  <path fill="currentColor" fill-rule="evenodd" d="m13.625 2.358 5 2.31a4.031 4.031 0 0 1 1.622 1.37L12 10.161 3.753 6.038a4.03 4.03 0 0 1 1.622-1.37l5-2.31a3.863 3.863 0 0 1 3.25 0ZM3.132 7.405A4.307 4.307 0 0 0 3 8.466v7.068c0 1.643.93 3.131 2.375 3.798l5 2.31c.283.13.576.225.875.284V11.464l-8.118-4.06Zm9.618 14.521c.299-.059.592-.154.875-.284l5-2.31C20.069 18.665 21 17.177 21 15.534V8.466c0-.364-.046-.72-.132-1.061l-8.118 4.058v10.463Z" clip-rule="evenodd"/>
</svg>
