<svg xmlns="http://www.w3.org/2000/svg" width="1em" height="1em" viewBox="0 0 24 24">
  <path fill="currentColor" fill-rule="evenodd" d="M1.25 2A.75.75 0 0 1 2 1.25h1A2.75 2.75 0 0 1 5.75 4v14.145c.501.203.902.604 1.105 1.105H22a.75.75 0 0 1 0 1.5H6.855a2 2 0 1 1-2.605-2.605V4c0-.69-.56-1.25-1.25-1.25H2A.75.75 0 0 1 1.25 2ZM8 7a2 2 0 0 1 2-2h8a2 2 0 0 1 2 2v8a2 2 0 0 1-2 2h-8a2 2 0 0 1-2-2V7Zm4.25 1a.75.75 0 0 1 .75-.75h2a.75.75 0 0 1 0 1.5h-2a.75.75 0 0 1-.75-.75Z" clip-rule="evenodd"/>
</svg>
