<svg xmlns="http://www.w3.org/2000/svg" width="1em" height="1em" viewBox="0 0 24 24">
  <path fill="currentColor" fill-rule="evenodd" d="M19 4a2 2 0 0 0-2-2h-4a2 2 0 0 0-2 2v4a2 2 0 0 0 2 2h4a2 2 0 0 0 2-2V6.75h3a.75.75 0 0 0 0-1.5h-3V4Zm-6 12a2 2 0 0 0-2-2H7a2 2 0 0 0-2 2v1.25H2a.75.75 0 0 0 0 1.5h3V20a2 2 0 0 0 2 2h4a2 2 0 0 0 2-2v-4ZM1.25 6A.75.75 0 0 1 2 5.25h6a.75.75 0 0 1 0 1.5H2A.75.75 0 0 1 1.25 6Zm14 12a.75.75 0 0 1 .75-.75h6a.75.75 0 0 1 0 1.5h-6a.75.75 0 0 1-.75-.75Z" clip-rule="evenodd"/>
</svg>
