<svg xmlns="http://www.w3.org/2000/svg" width="1em" height="1em" viewBox="0 0 24 24">
  <path fill="currentColor" fill-rule="evenodd" d="M2.75 6A3.25 3.25 0 0 1 6 2.75h8a.75.75 0 0 0 0-1.5H6A4.75 4.75 0 0 0 1.25 6v12A4.75 4.75 0 0 0 6 22.75h12A4.75 4.75 0 0 0 22.75 18v-8a.75.75 0 0 0-1.5 0v3.51a2.002 2.002 0 0 0-.14-.104l-2.381-1.587a4 4 0 0 0-5.048.5L10.32 15.68a4 4 0 0 1-5.047.5L2.75 14.5V6Zm17-4a.75.75 0 0 0-1.5 0v2.25H16a.75.75 0 0 0 0 1.5h2.25V8a.75.75 0 0 0 1.5 0V5.75H22a.75.75 0 0 0 0-1.5h-2.25V2ZM8.5 11a2.5 2.5 0 1 0 0-5 2.5 2.5 0 0 0 0 5Z" clip-rule="evenodd"/>
</svg>
