<svg xmlns="http://www.w3.org/2000/svg" width="1em" height="1em" viewBox="0 0 24 24">
  <path fill="currentColor" fill-rule="evenodd" d="M12 2.75a9.25 9.25 0 1 0 2.056 18.27.75.75 0 1 1 .332 1.464A10.78 10.78 0 0 1 12 22.75C6.063 22.75 1.25 17.937 1.25 12S6.063 1.25 12 1.25 22.75 6.063 22.75 12c0 .82-.092 1.62-.266 2.388a.75.75 0 1 1-1.463-.332A9.25 9.25 0 0 0 12 2.75Zm-.83 6.335 3.147 1.573c1.105.553 1.105 2.13 0 2.684l-3.146 1.573A1.5 1.5 0 0 1 9 13.573v-3.146a1.5 1.5 0 0 1 2.17-1.342Zm7.36 8.385a.75.75 0 1 0-1.06 1.06L18.94 20l-1.47 1.47a.75.75 0 1 0 1.06 1.06L20 21.06l1.47 1.47a.75.75 0 1 0 1.06-1.06L21.06 20l1.47-1.47a.75.75 0 1 0-1.06-1.06L20 18.94l-1.47-1.47Z" clip-rule="evenodd"/>
</svg>
