<svg xmlns="http://www.w3.org/2000/svg" width="1em" height="1em" viewBox="0 0 24 24">
  <path fill="currentColor" fill-rule="evenodd" d="m9.422 9.789-3.528 1.764A2 2 0 0 1 3 9.764V6.236a2 2 0 0 1 2.894-1.789l3.528 1.764c1.474.737 1.474 2.84 0 3.578ZM13.25 6a.75.75 0 0 1 .75-.75h7a.75.75 0 0 1 0 1.5h-7a.75.75 0 0 1-.75-.75Zm.75 4.25a.75.75 0 0 0 0 1.5h7a.75.75 0 0 0 0-1.5h-7ZM2.25 16a.75.75 0 0 1 .75-.75h18a.75.75 0 0 1 0 1.5H3a.75.75 0 0 1-.75-.75ZM3 20.25a.75.75 0 0 0 0 1.5h18a.75.75 0 0 0 0-1.5H3Z" clip-rule="evenodd"/>
</svg>
