<svg xmlns="http://www.w3.org/2000/svg" width="1em" height="1em" viewBox="0 0 24 24">
  <path fill="currentColor" fill-rule="evenodd" d="M7.533 7.602 11.8 4.403c1.318-.988 3.2-.048 3.2 1.6v11.994c0 1.648-1.882 2.588-3.2 1.6l-4.267-3.2a2 2 0 0 0-1.2-.399H4A2 2 0 0 1 2 14v-3.998a2 2 0 0 1 2-2h2.334a2 2 0 0 0 1.2-.399ZM17.561 9.44A.75.75 0 0 0 16.5 10.5l1.47 1.47-1.47 1.47a.75.75 0 0 0 1.06 1.06l1.47-1.47 1.47 1.47a.75.75 0 0 0 1.06-1.06l-1.47-1.47 1.47-1.47a.75.75 0 0 0-1.06-1.06l-1.47 1.47-1.47-1.47Z" clip-rule="evenodd"/>
</svg>
