<svg xmlns="http://www.w3.org/2000/svg" width="1em" height="1em" viewBox="0 0 24 24">
  <path fill="currentColor" fill-rule="evenodd" d="M22 7.25h-6.543l3.641-5.097A4.002 4.002 0 0 1 22 6v1.25ZM2 8.75h20V18a4 4 0 0 1-4 4H6a4 4 0 0 1-4-4V8.75Zm3.614-1.5H2V6a4 4 0 0 1 4-4h3.364l-3.75 5.25Zm1.843 0L11.207 2h6.157l-3.75 5.25H7.457Zm4.543 4a.75.75 0 0 1 .75.75v2.25H15a.75.75 0 0 1 0 1.5h-2.25V18a.75.75 0 0 1-1.5 0v-2.25H9a.75.75 0 0 1 0-1.5h2.25V12a.75.75 0 0 1 .75-.75Z" clip-rule="evenodd"/>
</svg>
