<svg xmlns="http://www.w3.org/2000/svg" width="1em" height="1em" viewBox="0 0 24 24">
  <path fill="currentColor" fill-rule="evenodd" d="M8.75 2a.75.75 0 0 0-1.5 0v1.5H7a4 4 0 0 0-4 4v.75h18V7.5a4 4 0 0 0-4-4h-.25V2a.75.75 0 0 0-1.5 0v1.5h-6.5V2ZM21 9.75H3V18a4 4 0 0 0 4 4h10a4 4 0 0 0 4-4V9.75Zm-10.591 2.598a.75.75 0 1 0-1.06 1.061L10.938 15l-1.59 1.591a.75.75 0 1 0 1.06 1.06L12 16.062l1.591 1.59a.75.75 0 0 0 1.06-1.06L13.062 15l1.59-1.591a.75.75 0 0 0-1.06-1.06L12 13.938l-1.591-1.59Z" clip-rule="evenodd"/>
</svg>
