<svg xmlns="http://www.w3.org/2000/svg" width="1em" height="1em" viewBox="0 0 24 24">
  <path fill="currentColor" fill-rule="evenodd" d="M1.25 6A4.75 4.75 0 0 1 6 1.25h12A4.75 4.75 0 0 1 22.75 6v7.111a.75.75 0 0 1-1.5 0V6A3.25 3.25 0 0 0 18 2.75H6A3.25 3.25 0 0 0 2.75 6v12A3.25 3.25 0 0 0 6 21.25h7.111a.75.75 0 0 1 0 1.5H6A4.75 4.75 0 0 1 1.25 18V6ZM19 15.25a.75.75 0 0 1 .75.75v2.25H22a.75.75 0 0 1 0 1.5h-2.25V22a.75.75 0 0 1-1.5 0v-2.25H16a.75.75 0 0 1 0-1.5h2.25V16a.75.75 0 0 1 .75-.75Zm-7-10a.75.75 0 0 1 .75.75v4.145a2 2 0 1 1-1.531 3.697L9.53 15.53a.75.75 0 0 1-1.06-1.06l1.688-1.689a2 2 0 0 1 1.092-2.636V6a.75.75 0 0 1 .75-.75Z" clip-rule="evenodd"/>
</svg>
