<svg xmlns="http://www.w3.org/2000/svg" width="1em" height="1em" viewBox="0 0 24 24">
  <path fill="currentColor" fill-rule="evenodd" d="M11.698 1.254c.1-.003.201-.004.302-.004 5.937 0 10.75 4.813 10.75 10.75S17.937 22.75 12 22.75c-.101 0-.202-.001-.302-.004a.75.75 0 1 1 .041-1.5 9.25 9.25 0 1 0 0-18.493.75.75 0 1 1-.04-1.499ZM9.133 2.387a.75.75 0 0 1-.433.969 9.177 9.177 0 0 0-.479.198.75.75 0 0 1-.613-1.368c.183-.083.369-.16.557-.232a.75.75 0 0 1 .968.433ZM5.675 4.218a.75.75 0 0 1-.03 1.06 9.317 9.317 0 0 0-.367.367.75.75 0 1 1-1.09-1.03c.139-.146.28-.288.427-.427a.75.75 0 0 1 1.06.03ZM3.177 7.23a.75.75 0 0 1 .377.991c-.07.158-.136.317-.198.48a.75.75 0 0 1-1.402-.536c.072-.188.15-.374.232-.557a.75.75 0 0 1 .99-.378Zm-1.152 3.74a.75.75 0 0 1 .729.77 9.435 9.435 0 0 0 0 .52.75.75 0 1 1-1.5.042 10.933 10.933 0 0 1 0-.604.75.75 0 0 1 .77-.729Zm.362 3.897a.75.75 0 0 1 .969.433c.062.162.128.321.198.479a.75.75 0 0 1-1.368.613 10.72 10.72 0 0 1-.232-.557.75.75 0 0 1 .433-.968Zm1.831 3.458a.75.75 0 0 1 1.06.03c.12.125.242.248.367.367a.75.75 0 0 1-1.03 1.09c-.146-.139-.288-.28-.427-.427a.75.75 0 0 1 .03-1.06Zm3.012 2.498a.75.75 0 0 1 .991-.377 9.1 9.1 0 0 0 .48.198.75.75 0 0 1-.536 1.402c-.188-.072-.374-.15-.557-.232a.75.75 0 0 1-.378-.99ZM12 5.25a.75.75 0 0 1 .75.75v4.145a2 2 0 0 1 0 3.71V16a.75.75 0 0 1-1.5 0v-2.145a2 2 0 0 1 0-3.71V6a.75.75 0 0 1 .75-.75Z" clip-rule="evenodd"/>
</svg>
