<svg xmlns="http://www.w3.org/2000/svg" width="1em" height="1em" viewBox="0 0 24 24">
  <path fill="currentColor" fill-rule="evenodd" d="M11.698 1.254c.1-.003.201-.004.302-.004 5.937 0 10.75 4.813 10.75 10.75 0 .101-.001.202-.004.302a.75.75 0 1 1-1.5-.041 9.25 9.25 0 0 0-9.507-9.507.75.75 0 1 1-.04-1.5ZM9.133 2.387a.75.75 0 0 1-.433.969 9.177 9.177 0 0 0-.479.198.75.75 0 0 1-.613-1.368c.183-.083.369-.16.557-.232a.75.75 0 0 1 .968.433ZM5.675 4.218a.75.75 0 0 1-.03 1.06 9.317 9.317 0 0 0-.367.367.75.75 0 1 1-1.09-1.03c.139-.146.28-.288.427-.427a.75.75 0 0 1 1.06.03ZM3.177 7.23a.75.75 0 0 1 .377.991c-.07.158-.136.317-.198.48a.75.75 0 0 1-1.402-.536c.072-.188.15-.374.232-.557a.75.75 0 0 1 .99-.378Zm-1.152 3.74a.75.75 0 0 1 .729.77 9.435 9.435 0 0 0 0 .52.75.75 0 1 1-1.5.042 10.933 10.933 0 0 1 0-.604.75.75 0 0 1 .77-.729Zm.362 3.897a.75.75 0 0 1 .969.433c.062.162.128.321.198.479a.75.75 0 0 1-1.368.613 10.72 10.72 0 0 1-.232-.557.75.75 0 0 1 .433-.968Zm19.226 0a.75.75 0 0 1 .433.968c-.072.188-.15.374-.232.557a.75.75 0 0 1-1.368-.613c.07-.158.136-.317.198-.48a.75.75 0 0 1 .969-.432ZM4.218 18.325a.75.75 0 0 1 1.06.03c.12.125.242.248.367.367a.75.75 0 0 1-1.03 1.09c-.146-.139-.288-.28-.427-.427a.75.75 0 0 1 .03-1.06Zm15.564 0c.3.285.314.76.03 1.06-.139.146-.28.288-.427.426a.75.75 0 1 1-1.03-1.09c.125-.118.248-.24.367-.366a.75.75 0 0 1 1.06-.03Zm-3.012 2.498a.75.75 0 0 1-.378.991c-.183.082-.369.16-.557.232a.75.75 0 0 1-.535-1.402c.162-.061.321-.128.479-.198a.75.75 0 0 1 .991.377Zm-9.54 0a.75.75 0 0 1 .991-.377 9.1 9.1 0 0 0 .48.198.75.75 0 0 1-.536 1.402c-.188-.072-.374-.15-.557-.232a.75.75 0 0 1-.378-.99Zm3.74 1.152a.75.75 0 0 1 .77-.729 9.396 9.396 0 0 0 .52 0 .75.75 0 0 1 .042 1.5 10.816 10.816 0 0 1-.604 0 .75.75 0 0 1-.729-.77ZM12 5.25a.75.75 0 0 0-.75.75v4.145a2 2 0 1 0 2.605 2.605H16a.75.75 0 0 0 0-1.5h-2.145a2.006 2.006 0 0 0-1.105-1.105V6a.75.75 0 0 0-.75-.75Z" clip-rule="evenodd"/>
</svg>
