<svg xmlns="http://www.w3.org/2000/svg" width="1em" height="1em" viewBox="0 0 24 24">
  <path fill="currentColor" d="M12 4.4c-3.045 0-5.474 2.297-5.474 5.086 0 .185.01.368.032.548.064.558-.178 1.14-.692 1.367-.76.337-1.661-.033-1.786-.854A7.064 7.064 0 0 1 4 9.486C4 5.33 7.603 2 12 2s8 3.331 8 7.486c0 4.154-3.603 7.485-8 7.485a8.58 8.58 0 0 1-1.45-.123L9.165 21.15c-.204.634-.91.99-1.577.797-.667-.193-1.043-.864-.84-1.498l4.043-12.571c.204-.634.91-.99 1.577-.797.667.193 1.043.864.84 1.498l-1.914 5.95c.23.028.466.042.705.042 3.045 0 5.474-2.297 5.474-5.085 0-2.789-2.43-5.086-5.474-5.086Z"/>
</svg>
