<svg xmlns="http://www.w3.org/2000/svg" width="1em" height="1em" viewBox="0 0 24 24">
  <path fill="currentColor" fill-rule="evenodd" d="M12 20a8 8 0 0 1-7.943-8.958 5 5 0 1 1 6.986-6.986 8 8 0 0 1 8.9 8.9 5 5 0 1 1-6.986 6.986 8.092 8.092 0 0 1-.957.058Zm-.5-12.75a2.75 2.75 0 0 0 0 5.5h1a1.25 1.25 0 1 1 0 2.5h-1c-.69 0-1.25-.56-1.25-1.25a.75.75 0 0 0-1.5 0 2.75 2.75 0 0 0 2.75 2.75h1a2.75 2.75 0 1 0 0-5.5h-1a1.25 1.25 0 1 1 0-2.5h1c.69 0 1.25.56 1.25 1.25a.75.75 0 0 0 1.5 0 2.75 2.75 0 0 0-2.75-2.75h-1Z" clip-rule="evenodd"/>
</svg>
