<svg xmlns="http://www.w3.org/2000/svg" width="1em" height="1em" viewBox="0 0 24 24">
  <path fill="currentColor" fill-rule="evenodd" d="M8.288 4.288A5.231 5.231 0 0 1 12 2.75c1.45 0 2.761.587 3.712 1.538a.75.75 0 0 0 1.061-1.061A6.731 6.731 0 0 0 12 1.25a6.731 6.731 0 0 0-4.773 1.977.75.75 0 0 0 1.06 1.06Zm2.121 2.121A2.24 2.24 0 0 1 12 5.75a2.24 2.24 0 0 1 1.591.659.75.75 0 0 0 1.06-1.06A3.74 3.74 0 0 0 12 4.25a3.74 3.74 0 0 0-2.652 1.098.75.75 0 0 0 1.061 1.061ZM14 8a4 4 0 0 1 4 4v6a4 4 0 0 1-4 4h-4a4 4 0 0 1-4-4v-6a4 4 0 0 1 4-4h4Zm-5 4.75a.75.75 0 0 1 .75.75v3a.75.75 0 0 1-1.5 0v-3a.75.75 0 0 1 .75-.75Z" clip-rule="evenodd"/>
</svg>
