<svg xmlns="http://www.w3.org/2000/svg" width="1em" height="1em" viewBox="0 0 24 24">
  <path fill="currentColor" fill-rule="evenodd" d="M3.64 18.01c0 2.204 1.87 3.99 4.18 3.99h8.36c2.31 0 4.18-1.786 4.18-3.99v-4.877c0-.708.296-1.387.82-1.888 1.216-1.16 1.058-3.083-.332-4.048l-6.39-4.434a4.343 4.343 0 0 0-4.917 0L3.153 7.197c-1.391.965-1.55 2.888-.333 4.048.524.5.82 1.18.82 1.888v4.878Zm11.012-1.358a.75.75 0 0 1-1.061 0L12 15.06l-1.591 1.59a.75.75 0 1 1-1.06-1.06L10.938 14l-1.59-1.591a.75.75 0 1 1 1.06-1.06L12 12.938l1.591-1.59a.75.75 0 1 1 1.06 1.06L13.062 14l1.59 1.591a.75.75 0 0 1 0 1.06Z" clip-rule="evenodd"/>
</svg>
