<svg xmlns="http://www.w3.org/2000/svg" width="1em" height="1em" viewBox="0 0 24 24">
  <path fill="currentColor" fill-rule="evenodd" d="M21 10.15v7.817C21 20.194 19.21 22 17 22H7c-2.21 0-4-1.806-4-4.033V10.15c0-1.21.54-2.357 1.47-3.123l5-4.118a3.975 3.975 0 0 1 5.06 0l5 4.118A4.046 4.046 0 0 1 21 10.15ZM8.293 15.31a.75.75 0 1 0-.586 1.38c1.629.691 2.97 1.063 4.335 1.06 1.366-.003 2.68-.382 4.255-1.061a.75.75 0 1 0-.594-1.378c-1.49.642-2.589.936-3.664.939-1.077.003-2.204-.286-3.746-.94Z" clip-rule="evenodd"/>
</svg>
