<svg xmlns="http://www.w3.org/2000/svg" width="1em" height="1em" viewBox="0 0 24 24">
  <path fill="currentColor" fill-rule="evenodd" d="M21 17.967V10.15c0-1.21-.54-2.357-1.47-3.123l-5-4.118a3.975 3.975 0 0 0-5.06 0l-5 4.118A4.046 4.046 0 0 0 3 10.15v7.817C3 20.194 4.79 22 7 22h10c2.21 0 4-1.806 4-4.033ZM12.75 17a.75.75 0 1 1-1.5 0 .75.75 0 0 1 1.5 0Zm-4.462-3.712A5.231 5.231 0 0 1 12 11.75c1.45 0 2.761.587 3.712 1.538a.75.75 0 1 0 1.06-1.061A6.731 6.731 0 0 0 12 10.25a6.731 6.731 0 0 0-4.773 1.977.75.75 0 0 0 1.06 1.06Zm2.121 2.121A2.24 2.24 0 0 1 12 14.75a2.24 2.24 0 0 1 1.591.659.75.75 0 1 0 1.06-1.06A3.74 3.74 0 0 0 12 13.25a3.74 3.74 0 0 0-2.652 1.098.75.75 0 0 0 1.061 1.061Z" clip-rule="evenodd"/>
</svg>
