<svg xmlns="http://www.w3.org/2000/svg" width="1em" height="1em" viewBox="0 0 24 24">
  <path fill="currentColor" fill-rule="evenodd" d="M21 10.15v7.817C21 20.194 19.21 22 17 22H7c-2.21 0-4-1.806-4-4.033V10.15c0-1.21.54-2.357 1.47-3.123l5-4.118a3.975 3.975 0 0 1 5.06 0l5 4.118A4.046 4.046 0 0 1 21 10.15Zm-9-.4c-.69 0-1.25.56-1.25 1.25v1h2.5v-1c0-.69-.56-1.25-1.25-1.25ZM9.25 12c0 .048.004.095.013.14A2 2 0 0 0 8 14v2a2 2 0 0 0 2 2h4a2 2 0 0 0 2-2v-2a2 2 0 0 0-1.263-1.86.752.752 0 0 0 .013-.14v-1a2.75 2.75 0 1 0-5.5 0v1Z" clip-rule="evenodd"/>
</svg>
