<svg xmlns="http://www.w3.org/2000/svg" width="1em" height="1em" viewBox="0 0 24 24">
  <path fill="currentColor" fill-rule="evenodd" d="M20.36 18.01c0 2.204-1.87 3.99-4.18 3.99H7.82c-2.31 0-4.18-1.786-4.18-3.99v-4.877a2.61 2.61 0 0 0-.82-1.888c-1.216-1.16-1.058-3.083.333-4.048L9.54 2.763a4.343 4.343 0 0 1 4.918 0l6.389 4.434c1.39.965 1.548 2.888.332 4.048a2.61 2.61 0 0 0-.82 1.888v4.878ZM12 9.75c-.69 0-1.25.56-1.25 1.25v1h2.5v-1c0-.69-.56-1.25-1.25-1.25ZM9.25 12c0 .048.004.095.013.14A2 2 0 0 0 8 14v2a2 2 0 0 0 2 2h4a2 2 0 0 0 2-2v-2a2 2 0 0 0-1.263-1.86.752.752 0 0 0 .013-.14v-1a2.75 2.75 0 1 0-5.5 0v1Z" clip-rule="evenodd"/>
</svg>
