<svg xmlns="http://www.w3.org/2000/svg" width="1em" height="1em" viewBox="0 0 24 24">
  <path fill="currentColor" fill-rule="evenodd" d="M16.18 22H7.82c-2.31 0-4.18-1.786-4.18-3.99v-4.877a2.61 2.61 0 0 0-.82-1.888c-1.216-1.16-1.058-3.083.333-4.048L9.54 2.763a4.343 4.343 0 0 1 4.918 0l6.389 4.434c1.39.965 1.548 2.888.332 4.048a2.61 2.61 0 0 0-.82 1.888v4.878c0 2.203-1.87 3.989-4.18 3.989ZM14 17.75a.75.75 0 0 1 0-1.5h.787l-1.563-3.126a.25.25 0 0 0-.448 0l-1.21 2.423c-.646 1.29-2.486 1.29-3.131 0l-2.106-4.212a.75.75 0 1 1 1.342-.67l2.105 4.21a.25.25 0 0 0 .448 0l1.21-2.422c.646-1.29 2.486-1.29 3.131 0L16 15.323l.33-.658a.75.75 0 1 1 1.34.67l-1 2a.75.75 0 0 1-.67.415h-2Z" clip-rule="evenodd"/>
</svg>
