<svg xmlns="http://www.w3.org/2000/svg" width="1em" height="1em" viewBox="0 0 24 24">
  <path fill="currentColor" fill-rule="evenodd" d="M21 17.967V10.15c0-1.21-.54-2.357-1.47-3.123l-5-4.118a3.975 3.975 0 0 0-5.06 0l-5 4.118A4.046 4.046 0 0 0 3 10.15v7.817C3 20.194 4.79 22 7 22h10c2.21 0 4-1.806 4-4.033ZM8.667 12.333a3.333 3.333 0 0 1 6.666 0v1.234c0 .595.247 1.164.68 1.571.713.668.24 1.862-.736 1.862H8.723c-.976 0-1.448-1.194-.736-1.862.434-.407.68-.976.68-1.57v-1.235ZM11 18.25a.75.75 0 0 0 0 1.5h2a.75.75 0 0 0 0-1.5h-2Z" clip-rule="evenodd"/>
</svg>
