<svg xmlns="http://www.w3.org/2000/svg" width="1em" height="1em" viewBox="0 0 24 24">
  <path fill="currentColor" fill-rule="evenodd" d="M21 10.15v7.817C21 20.194 19.21 22 17 22H7c-2.21 0-4-1.806-4-4.033V10.15c0-1.21.54-2.357 1.47-3.123l5-4.118a3.975 3.975 0 0 1 5.06 0l5 4.118A4.046 4.046 0 0 1 21 10.15Zm-7.05-.9a1.8 1.8 0 0 0-1.799 1.861l-1.973.986a1.8 1.8 0 1 0 0 2.805l1.973.987-.001.061a1.8 1.8 0 1 0 .672-1.403l-1.973-.986a1.769 1.769 0 0 0 0-.122l1.973-.986A1.8 1.8 0 1 0 13.95 9.25Z" clip-rule="evenodd"/>
</svg>
