<svg xmlns="http://www.w3.org/2000/svg" width="1em" height="1em" viewBox="0 0 24 24">
  <path fill="currentColor" fill-rule="evenodd" d="M16.18 22c2.31 0 4.18-1.786 4.18-3.99v-4.877c0-.708.296-1.387.82-1.888 1.216-1.16 1.058-3.083-.332-4.048l-6.39-4.434a4.343 4.343 0 0 0-4.917 0L3.153 7.197c-1.391.965-1.55 2.888-.333 4.048.524.5.82 1.18.82 1.888v4.878C3.64 20.214 5.51 22 7.82 22h8.36Zm-3.43-5a.75.75 0 1 1-1.5 0 .75.75 0 0 1 1.5 0Zm-4.462-3.712A5.231 5.231 0 0 1 12 11.75c1.45 0 2.761.587 3.712 1.538a.75.75 0 1 0 1.06-1.061A6.731 6.731 0 0 0 12 10.25a6.731 6.731 0 0 0-4.773 1.977.75.75 0 0 0 1.06 1.06Zm2.121 2.121A2.24 2.24 0 0 1 12 14.75a2.24 2.24 0 0 1 1.591.659.75.75 0 1 0 1.06-1.06A3.74 3.74 0 0 0 12 13.25a3.74 3.74 0 0 0-2.652 1.098.75.75 0 0 0 1.061 1.061Z" clip-rule="evenodd"/>
</svg>
