<svg xmlns="http://www.w3.org/2000/svg" width="1em" height="1em" viewBox="0 0 24 24">
  <path fill="currentColor" fill-rule="evenodd" d="M16.18 22c2.31 0 4.18-1.786 4.18-3.99v-4.877c0-.708.296-1.387.82-1.888 1.216-1.16 1.058-3.083-.332-4.048l-6.39-4.434a4.343 4.343 0 0 0-4.917 0L3.153 7.197c-1.391.965-1.55 2.888-.333 4.048.524.5.82 1.18.82 1.888v4.878C3.64 20.214 5.51 22 7.82 22h8.36ZM12 10.25a.75.75 0 0 1 .75.75v2.25H15a.75.75 0 0 1 0 1.5h-2.25V17a.75.75 0 0 1-1.5 0v-2.25H9a.75.75 0 0 1 0-1.5h2.25V11a.75.75 0 0 1 .75-.75Z" clip-rule="evenodd"/>
</svg>
