<svg xmlns="http://www.w3.org/2000/svg" width="1em" height="1em" viewBox="0 0 24 24">
  <path fill="currentColor" fill-rule="evenodd" d="M21 10.15v7.817C21 20.194 19.21 22 17 22H7c-2.21 0-4-1.806-4-4.033V10.15c0-1.21.54-2.357 1.47-3.123l5-4.118a3.975 3.975 0 0 1 5.06 0l5 4.118A4.046 4.046 0 0 1 21 10.15ZM8.75 11a.75.75 0 0 0-1.5 0v4a.75.75 0 0 0 1.5 0v-4Zm7.25-.75a.75.75 0 0 1 .75.75v4a.75.75 0 0 1-1.5 0v-4a.75.75 0 0 1 .75-.75ZM12.75 9a.75.75 0 0 0-1.5 0v8a.75.75 0 0 0 1.5 0V9Z" clip-rule="evenodd"/>
</svg>
