<svg xmlns="http://www.w3.org/2000/svg" width="1em" height="1em" viewBox="0 0 24 24">
  <path fill="currentColor" fill-rule="evenodd" d="M21 10.15v7.817C21 20.194 19.21 22 17 22H7c-2.21 0-4-1.806-4-4.033V10.15c0-1.21.54-2.357 1.47-3.123l5-4.118a3.975 3.975 0 0 1 5.06 0l5 4.118A4.046 4.046 0 0 1 21 10.15ZM9.75 12.5a.75.75 0 0 1 1.5 0v3a2.25 2.25 0 0 0 4.5 0 .75.75 0 0 1 .75-.75h.5a.75.75 0 0 0 0-1.5h-.5a2.25 2.25 0 0 0-2.25 2.25.75.75 0 0 1-1.5 0v-3a2.25 2.25 0 0 0-4.5 0v1a.75.75 0 0 1-.75.75H7a.75.75 0 0 0 0 1.5h.5a2.25 2.25 0 0 0 2.25-2.25v-1Z" clip-rule="evenodd"/>
</svg>
