<svg xmlns="http://www.w3.org/2000/svg" width="1em" height="1em" viewBox="0 0 24 24">
  <path fill="currentColor" fill-rule="evenodd" d="M21 17.967V10.15c0-1.21-.54-2.357-1.47-3.123l-5-4.118a3.975 3.975 0 0 0-5.06 0l-5 4.118A4.046 4.046 0 0 0 3 10.15v7.817C3 20.194 4.79 22 7 22h10c2.21 0 4-1.806 4-4.033Zm-6.348-1.315a.75.75 0 0 1-1.061 0L12 15.06l-1.591 1.59a.75.75 0 1 1-1.06-1.06L10.938 14l-1.59-1.591a.75.75 0 1 1 1.06-1.06L12 12.938l1.591-1.59a.75.75 0 1 1 1.06 1.06L13.062 14l1.59 1.591a.75.75 0 0 1 0 1.06Z" clip-rule="evenodd"/>
</svg>
