<svg xmlns="http://www.w3.org/2000/svg" width="1em" height="1em" viewBox="0 0 24 24">
  <path fill="currentColor" fill-rule="evenodd" d="M16.18 22H7.82c-2.31 0-4.18-1.786-4.18-3.99v-4.877a2.61 2.61 0 0 0-.82-1.888c-1.216-1.16-1.058-3.083.333-4.048L9.54 2.763a4.343 4.343 0 0 1 4.918 0l6.389 4.434c1.39.965 1.548 2.888.332 4.048a2.61 2.61 0 0 0-.82 1.888v4.878c0 2.203-1.87 3.989-4.18 3.989Zm-.189-9.097a1.486 1.486 0 0 1 0 2.194C15.08 15.954 13.631 17 12 17c-1.63 0-3.079-1.046-3.991-1.903a1.486 1.486 0 0 1 0-2.194c.912-.857 2.36-1.903 3.99-1.903 1.631 0 3.08 1.046 3.992 1.903ZM13 14a1 1 0 1 1-2 0 1 1 0 0 1 2 0Z" clip-rule="evenodd"/>
</svg>
