<svg xmlns="http://www.w3.org/2000/svg" width="1em" height="1em" viewBox="0 0 24 24">
  <path fill="currentColor" fill-rule="evenodd" d="M21 10.15v7.817C21 20.194 19.21 22 17 22H7c-2.21 0-4-1.806-4-4.033V10.15c0-1.21.54-2.357 1.47-3.123l5-4.118a3.975 3.975 0 0 1 5.06 0l5 4.118A4.046 4.046 0 0 1 21 10.15ZM10.75 10a.75.75 0 0 0-1.5 0v.25H8a.75.75 0 0 0 0 1.5h1.25V12a.75.75 0 0 0 1.5 0v-2Zm1.25.25a.75.75 0 0 0 0 1.5h4a.75.75 0 0 0 0-1.5h-4ZM14.75 15a.75.75 0 0 0-1.5 0v2a.75.75 0 0 0 1.5 0v-.25H16a.75.75 0 0 0 0-1.5h-1.25V15ZM8 15.25a.75.75 0 0 0 0 1.5h4a.75.75 0 0 0 0-1.5H8Z" clip-rule="evenodd"/>
</svg>
