<svg xmlns="http://www.w3.org/2000/svg" width="1em" height="1em" viewBox="0 0 24 24">
  <path fill="currentColor" fill-rule="evenodd" d="M16.18 22H7.82c-2.31 0-4.18-1.786-4.18-3.99v-4.877a2.61 2.61 0 0 0-.82-1.888c-1.216-1.16-1.058-3.083.333-4.048L9.54 2.763a4.343 4.343 0 0 1 4.918 0l6.389 4.434c1.39.965 1.548 2.888.332 4.048a2.61 2.61 0 0 0-.82 1.888v4.878c0 2.203-1.87 3.989-4.18 3.989Zm-7.887-6.69a.75.75 0 1 0-.586 1.38c1.629.691 2.97 1.063 4.335 1.06 1.366-.003 2.68-.382 4.255-1.061a.75.75 0 1 0-.594-1.378c-1.49.642-2.589.936-3.664.939-1.077.003-2.204-.286-3.746-.94Z" clip-rule="evenodd"/>
</svg>
