<svg xmlns="http://www.w3.org/2000/svg" width="1em" height="1em" viewBox="0 0 24 24">
  <path fill="currentColor" fill-rule="evenodd" d="M16.18 22H7.82c-2.31 0-4.18-1.786-4.18-3.99v-4.877a2.61 2.61 0 0 0-.82-1.888c-1.216-1.16-1.058-3.083.333-4.048L9.54 2.763a4.343 4.343 0 0 1 4.918 0l6.389 4.434c1.39.965 1.548 2.888.332 4.048a2.61 2.61 0 0 0-.82 1.888v4.878c0 2.203-1.87 3.989-4.18 3.989ZM9.106 10.447l2-1a2 2 0 0 1 1.788 0l1.991.996c.683.34 1.12 1.042 1.08 1.804-.162 2.997-.89 4.392-2.852 5.94a1.802 1.802 0 0 1-2.226 0c-1.957-1.538-2.712-2.916-2.86-5.95-.036-.757.401-1.451 1.08-1.79Z" clip-rule="evenodd"/>
</svg>
