<svg xmlns="http://www.w3.org/2000/svg" width="1em" height="1em" viewBox="0 0 24 24">
  <path fill="currentColor" fill-rule="evenodd" d="M21 10.15v7.817C21 20.194 19.21 22 17 22H7c-2.21 0-4-1.806-4-4.033V10.15c0-1.21.54-2.357 1.47-3.123l5-4.118a3.975 3.975 0 0 1 5.06 0l5 4.118A4.046 4.046 0 0 1 21 10.15ZM7 12a2 2 0 0 1 2-2h6a2 2 0 0 1 2 2v4a2 2 0 0 1-2 2H9a2 2 0 0 1-2-2v-4Zm2.33.665a.75.75 0 0 1 1.005-.336l1.106.553a1.25 1.25 0 0 0 1.118 0l1.106-.553a.75.75 0 0 1 .67 1.342l-1.105.553a2.75 2.75 0 0 1-2.46 0l-1.105-.553a.75.75 0 0 1-.336-1.006Z" clip-rule="evenodd"/>
</svg>
