<svg xmlns="http://www.w3.org/2000/svg" width="1em" height="1em" viewBox="0 0 24 24">
  <path fill="currentColor" fill-rule="evenodd" d="M21 10.15v7.817C21 20.194 19.21 22 17 22H7c-2.21 0-4-1.806-4-4.033V10.15c0-1.21.54-2.357 1.47-3.123l5-4.118a3.975 3.975 0 0 1 5.06 0l5 4.118A4.046 4.046 0 0 1 21 10.15Zm-11.894.297 2-1a2 2 0 0 1 1.788 0l1.991.996c.683.34 1.12 1.042 1.08 1.804-.162 2.997-.89 4.392-2.852 5.94a1.802 1.802 0 0 1-2.226 0c-1.957-1.538-2.712-2.916-2.86-5.95-.036-.757.401-1.451 1.08-1.79Z" clip-rule="evenodd"/>
</svg>
