<svg xmlns="http://www.w3.org/2000/svg" width="1em" height="1em" viewBox="0 0 24 24">
  <path fill="currentColor" fill-rule="evenodd" d="M21 17.967V10.15c0-1.21-.54-2.357-1.47-3.123l-5-4.118a3.975 3.975 0 0 0-5.06 0l-5 4.118A4.046 4.046 0 0 0 3 10.15v7.817C3 20.194 4.79 22 7 22h10c2.21 0 4-1.806 4-4.033ZM12 9.25a.75.75 0 0 1 .75.75v2a.75.75 0 0 1-1.5 0v-2a.75.75 0 0 1 .75-.75Zm-2.438 2.6a.75.75 0 1 0-1.124-.992 4.75 4.75 0 1 0 7.125 0 .75.75 0 1 0-1.125.993 3.25 3.25 0 1 1-4.875 0Z" clip-rule="evenodd"/>
</svg>
