<svg xmlns="http://www.w3.org/2000/svg" width="1em" height="1em" viewBox="0 0 24 24">
  <path fill="currentColor" fill-rule="evenodd" d="M5.46 5.46a.75.75 0 1 0-1.061-1.061A10.719 10.719 0 0 0 1.25 12c0 2.968 1.204 5.657 3.149 7.601a.75.75 0 0 0 1.06-1.06A9.219 9.219 0 0 1 2.75 12a9.219 9.219 0 0 1 2.71-6.54ZM19.6 4.398a.75.75 0 0 0-1.06 1.06A9.218 9.218 0 0 1 21.25 12a9.219 9.219 0 0 1-2.71 6.54.75.75 0 1 0 1.061 1.061A10.719 10.719 0 0 0 22.75 12c0-2.968-1.204-5.657-3.149-7.601ZM8.288 8.288a.75.75 0 0 0-1.061-1.061A6.731 6.731 0 0 0 5.25 12c0 1.864.756 3.552 1.977 4.773a.75.75 0 1 0 1.06-1.06A5.231 5.231 0 0 1 6.75 12c0-1.45.587-2.761 1.538-3.712Zm8.485-1.061a.75.75 0 0 0-1.06 1.06A5.231 5.231 0 0 1 17.25 12c0 1.45-.587 2.761-1.538 3.712a.75.75 0 0 0 1.061 1.061A6.731 6.731 0 0 0 18.75 12a6.731 6.731 0 0 0-1.977-4.773ZM12 14.5a2.5 2.5 0 1 0 0-5 2.5 2.5 0 0 0 0 5Z" clip-rule="evenodd"/>
</svg>
