<svg xmlns="http://www.w3.org/2000/svg" width="1em" height="1em" viewBox="0 0 24 24">
  <path fill="currentColor" fill-rule="evenodd" d="M8.288 4.288A5.231 5.231 0 0 1 12 2.75c1.45 0 2.761.587 3.712 1.538a.75.75 0 0 0 1.061-1.061A6.731 6.731 0 0 0 12 1.25a6.731 6.731 0 0 0-4.773 1.977.75.75 0 0 0 1.06 1.06Zm2.121 2.121A2.24 2.24 0 0 1 12 5.75a2.24 2.24 0 0 1 1.591.659.75.75 0 0 0 1.06-1.06A3.74 3.74 0 0 0 12 4.25a3.74 3.74 0 0 0-2.652 1.098.75.75 0 0 0 1.061 1.061Zm-2.536 2.62A2 2 0 0 1 9.62 8h4.758a2 2 0 0 1 1.748 1.029l2.222 4c.74 1.333-.223 2.971-1.748 2.971H12.75v5.25H15a.75.75 0 0 1 0 1.5H9a.75.75 0 0 1 0-1.5h2.25V16H7.399c-1.525 0-2.489-1.638-1.748-2.971l2.222-4Z" clip-rule="evenodd"/>
</svg>
