<svg xmlns="http://www.w3.org/2000/svg" width="1em" height="1em" viewBox="0 0 24 24">
  <path fill="currentColor" fill-rule="evenodd" d="M19 5a3 3 0 0 0-3-3H8a3 3 0 0 0-3 3v14a3 3 0 0 0 3 3h8a3 3 0 0 0 3-3V5Zm-7 9.75a.75.75 0 1 0 0-1.5.75.75 0 0 0 0 1.5Zm0-6c-1.45 0-2.761.587-3.712 1.538a.75.75 0 1 1-1.061-1.061A6.731 6.731 0 0 1 12 7.25c1.864 0 3.552.756 4.773 1.977a.75.75 0 0 1-1.06 1.06A5.231 5.231 0 0 0 12 8.75Zm0 3a2.24 2.24 0 0 0-1.591.659.75.75 0 1 1-1.06-1.06A3.74 3.74 0 0 1 12 10.25a3.74 3.74 0 0 1 2.652 1.098.75.75 0 0 1-1.061 1.061A2.24 2.24 0 0 0 12 11.75Zm-1 6.5a.75.75 0 0 0 0 1.5h2a.75.75 0 0 0 0-1.5h-2Z" clip-rule="evenodd"/>
</svg>
