<svg xmlns="http://www.w3.org/2000/svg" width="1em" height="1em" viewBox="0 0 24 24">
  <path fill="currentColor" fill-rule="evenodd" d="M12 2.75c-1.45 0-2.761.587-3.712 1.538a.75.75 0 0 1-1.061-1.061A6.731 6.731 0 0 1 12 1.25c1.864 0 3.552.756 4.773 1.977a.75.75 0 1 1-1.06 1.06A5.231 5.231 0 0 0 12 2.75Zm0 3a2.24 2.24 0 0 0-1.591.659.75.75 0 1 1-1.06-1.06A3.74 3.74 0 0 1 12 4.25a3.74 3.74 0 0 1 2.652 1.098.75.75 0 0 1-1.061 1.061A2.24 2.24 0 0 0 12 5.75ZM10 10a2 2 0 1 1 4 0v6.764a3 3 0 1 1-4 0V10Zm2 10a1 1 0 1 0 0-2 1 1 0 0 0 0 2Zm5-11.75a.75.75 0 0 0 0 1.5h1a.75.75 0 0 0 0-1.5h-1ZM16.25 12a.75.75 0 0 1 .75-.75h3a.75.75 0 0 1 0 1.5h-3a.75.75 0 0 1-.75-.75Zm.75 2.25a.75.75 0 0 0 0 1.5h1a.75.75 0 0 0 0-1.5h-1Z" clip-rule="evenodd"/>
</svg>
