<svg xmlns="http://www.w3.org/2000/svg" width="1em" height="1em" viewBox="0 0 24 24">
  <path fill="currentColor" fill-rule="evenodd" d="M8.25 5a3.75 3.75 0 0 1 7.5 0v1.01a4 4 0 0 1 3.688 3.494l1 8A4 4 0 0 1 16.468 22H7.532a4 4 0 0 1-3.969-4.496l1-8A4 4 0 0 1 8.25 6.01V5Zm6 0v1h-4.5V5a2.25 2.25 0 1 1 4.5 0Zm-3.841 6.348a.75.75 0 1 0-1.06 1.061L10.938 14l-1.59 1.591a.75.75 0 1 0 1.06 1.06L12 15.062l1.591 1.59a.75.75 0 1 0 1.06-1.06L13.062 14l1.59-1.591a.75.75 0 0 0-1.06-1.06L12 12.938l-1.591-1.59Z" clip-rule="evenodd"/>
</svg>
