<svg xmlns="http://www.w3.org/2000/svg" width="1em" height="1em" viewBox="0 0 24 24">
  <path fill="currentColor" fill-rule="evenodd" d="M12 1.25A3.75 3.75 0 0 0 8.25 5v1.01a4 4 0 0 0-3.688 3.494l-1 8A4 4 0 0 0 7.532 22h8.937a4 4 0 0 0 3.969-4.496l-1-8A4 4 0 0 0 15.75 6.01V5A3.75 3.75 0 0 0 12 1.25ZM14.25 6V5a2.25 2.25 0 0 0-4.5 0v1h4.5Zm-6 8a.75.75 0 0 1 .75-.75h2.25V11a.75.75 0 0 1 1.5 0v2.25H15a.75.75 0 0 1 0 1.5h-2.25V17a.75.75 0 0 1-1.5 0v-2.25H9a.75.75 0 0 1-.75-.75Z" clip-rule="evenodd"/>
</svg>
