<svg xmlns="http://www.w3.org/2000/svg" width="1em" height="1em" viewBox="0 0 24 24">
  <path fill="currentColor" fill-rule="evenodd" d="M12.48 1.424a.75.75 0 0 0-.96 0L6.028 6H5a3 3 0 0 0-3 3v10a3 3 0 0 0 3 3h14a3 3 0 0 0 3-3V9a3 3 0 0 0-3-3h-1.028L12.48 1.424ZM15.63 6 12 2.976 8.372 6h7.257ZM6.25 10A.75.75 0 0 1 7 9.25h10a.75.75 0 0 1 0 1.5H7a.75.75 0 0 1-.75-.75ZM7 13.25a.75.75 0 0 0 0 1.5h10a.75.75 0 0 0 0-1.5H7ZM6.25 18a.75.75 0 0 1 .75-.75h5a.75.75 0 0 1 0 1.5H7a.75.75 0 0 1-.75-.75Z" clip-rule="evenodd"/>
</svg>
