<svg xmlns="http://www.w3.org/2000/svg" width="1em" height="1em" viewBox="0 0 24 24">
  <path fill="currentColor" fill-rule="evenodd" d="M2.75 1.25a.75.75 0 0 0 0 1.5h2C5.44 2.75 6 3.31 6 4v9a4 4 0 0 0 4 4h8a4 4 0 0 0 4-4V8a4 4 0 0 0-4-4H7.5a2.75 2.75 0 0 0-2.75-2.75h-2Zm14.814 8.244a.75.75 0 1 0-1.128-.988l-2.87 3.28a.25.25 0 0 1-.345.03l-1.752-1.402a.75.75 0 0 0-.938 1.172l1.753 1.402a1.75 1.75 0 0 0 2.41-.214l2.87-3.28ZM9.5 22a1.5 1.5 0 1 0 0-3 1.5 1.5 0 0 0 0 3Zm9 0a1.5 1.5 0 1 0 0-3 1.5 1.5 0 0 0 0 3Z" clip-rule="evenodd"/>
</svg>
