<svg xmlns="http://www.w3.org/2000/svg" width="1em" height="1em" viewBox="0 0 24 24">
  <path fill="currentColor" fill-rule="evenodd" d="M2.75 1.25a.75.75 0 0 0 0 1.5h2C5.44 2.75 6 3.31 6 4v9a4 4 0 0 0 4 4h8a4 4 0 0 0 4-4V8a4 4 0 0 0-4-4H7.5a2.75 2.75 0 0 0-2.75-2.75h-2ZM9.5 22a1.5 1.5 0 1 0 0-3 1.5 1.5 0 0 0 0 3ZM20 20.5a1.5 1.5 0 1 1-3 0 1.5 1.5 0 0 1 3 0Zm-2.347-8.868a.75.75 0 0 1-.285 1.021c-1.215.685-2.261 1.095-3.365 1.097-1.105.002-2.154-.404-3.374-1.098a.75.75 0 1 1 .742-1.304c1.136.646 1.911.903 2.629.902.72-.001 1.494-.262 2.632-.903a.75.75 0 0 1 1.021.285Z" clip-rule="evenodd"/>
</svg>
