<svg xmlns="http://www.w3.org/2000/svg" width="1em" height="1em" viewBox="0 0 24 24">
  <path fill="currentColor" fill-rule="evenodd" d="M2.75 1.25a.75.75 0 0 0 0 1.5h2C5.44 2.75 6 3.31 6 4v9a4 4 0 0 0 4 4h8a4 4 0 0 0 4-4V8a4 4 0 0 0-4-4H7.5a2.75 2.75 0 0 0-2.75-2.75h-2ZM9.5 22a1.5 1.5 0 1 0 0-3 1.5 1.5 0 0 0 0 3ZM20 20.5a1.5 1.5 0 1 1-3 0 1.5 1.5 0 0 1 3 0ZM13.25 9.396l-.72.72a.75.75 0 1 1-1.06-1.06l1.293-1.293a1.75 1.75 0 0 1 2.474 0l1.293 1.292a.75.75 0 1 1-1.06 1.061l-.72-.72v4.19a.75.75 0 0 1-1.5 0v-4.19Z" clip-rule="evenodd"/>
</svg>
