<svg xmlns="http://www.w3.org/2000/svg" width=".96em" height="1em" viewBox="0 0 24 25">
  <path fill="currentColor" fill-rule="evenodd" d="M12.75 13.627h.017c4.342 0 7.247-4.47 5.483-8.437l-1.32-2.97a1 1 0 0 0-.913-.593H7.983a1 1 0 0 0-.914.594L5.75 5.19c-1.763 3.967 1.142 8.436 5.484 8.436h.017v7.25H9a.75.75 0 1 0 0 1.5h6a.75.75 0 0 0 0-1.5h-2.25v-7.25Zm.085-9.67a.75.75 0 0 1 .336 1.005l-.957 1.915H13a.75.75 0 0 1 .67 1.085l-1.5 3a.75.75 0 0 1-1.34-.67l.957-1.915H11a.75.75 0 0 1-.67-1.085l1.5-3a.75.75 0 0 1 1.005-.336Z" clip-rule="evenodd"/>
</svg>
