<svg xmlns="http://www.w3.org/2000/svg" width="1em" height="1em" viewBox="0 0 24 24">
  <path fill="currentColor" d="M8.398 5.25h7.204c1.163-1.57-.404-3.768-2.35-3.14l-.927.3a1.06 1.06 0 0 1-.65 0l-.928-.3c-1.945-.628-3.511 1.57-2.349 3.14Z"/>
  <path fill="currentColor" fill-rule="evenodd" d="M15.494 6.75H8.506a5.996 5.996 0 0 0-2.822 3.46l-1.25 4C3.227 18.074 6.114 22 10.161 22h3.678c4.048 0 6.934-3.926 5.727-7.79l-1.25-4a5.997 5.997 0 0 0-2.822-3.46Zm-.13 11.906a.75.75 0 0 0-.728-1.312c-1.17.65-1.97.906-2.696.903-.721-.003-1.48-.263-2.562-.895a.75.75 0 0 0-.756 1.296c1.172.683 2.203 1.095 3.312 1.1 1.106.004 2.177-.397 3.43-1.092Z" clip-rule="evenodd"/>
</svg>
