<svg xmlns="http://www.w3.org/2000/svg" width="1em" height="1em" viewBox="0 0 24 24">
  <path fill="currentColor" fill-rule="evenodd" d="M5 2h14a2 2 0 0 1 2 2v15.154a2 2 0 0 1-2.677 1.882l-1.562-.562a2 2 0 0 0-1.498.058L12.82 21.63a2 2 0 0 1-1.642 0l-2.442-1.1a2 2 0 0 0-1.498-.057l-1.562.562A2 2 0 0 1 3 19.154V4a2 2 0 0 1 2-2Zm12 5.75a.75.75 0 0 0 0-1.5H7a.75.75 0 0 0 0 1.5h10Zm.75 3.25a.75.75 0 0 1-.75.75H7a.75.75 0 0 1 0-1.5h10a.75.75 0 0 1 .75.75ZM12 15.75a.75.75 0 0 0 0-1.5H7a.75.75 0 0 0 0 1.5h5Z" clip-rule="evenodd"/>
</svg>
