<svg xmlns="http://www.w3.org/2000/svg" width="1em" height="1em" viewBox="0 0 24 24">
  <path fill="currentColor" d="M16.313 6 14.4 3.45a.75.75 0 0 1 1.2-.9l2.596 3.46a4.005 4.005 0 0 1 3.633 3.24H2.171a4.005 4.005 0 0 1 3.634-3.24L8.4 2.55a.75.75 0 0 1 1.2.9L7.688 6h8.625Z"/>
  <path fill="currentColor" fill-rule="evenodd" d="M2.173 10.75h19.654a4.078 4.078 0 0 1-.045.205l-1.966 8A4 4 0 0 1 15.93 22H8.07a4 4 0 0 1-3.884-3.045l-1.967-8a4.09 4.09 0 0 1-.045-.205ZM12 14l.265-.265a1.875 1.875 0 1 1 2.652 2.651l-1.856 1.857a1.5 1.5 0 0 1-2.122 0l-1.856-1.857a1.875 1.875 0 0 1 2.652-2.651L12 14Z" clip-rule="evenodd"/>
</svg>
