<svg xmlns="http://www.w3.org/2000/svg" width="1em" height="1em" viewBox="0 0 24 24">
  <path fill="currentColor" fill-rule="evenodd" d="M15.612 3H8.389a4 4 0 0 0-3.946 3.342l-1.667 10A4 4 0 0 0 6.722 21H12a1 1 0 0 0 1-1v-3a4 4 0 0 1 4-4h2.486a1 1 0 0 0 .987-1.164l-.916-5.494A4 4 0 0 0 15.612 3Zm.138 4a3.75 3.75 0 1 1-7.5 0V6a.75.75 0 0 1 1.5 0v1a2.25 2.25 0 0 0 4.5 0V6a.75.75 0 0 1 1.5 0v1Zm4.902 9.409a.75.75 0 0 0-1.061-1.06L18 16.938l-1.591-1.59a.75.75 0 0 0-1.06 1.06L16.938 18l-1.59 1.591a.75.75 0 1 0 1.06 1.06L18 19.062l1.591 1.59a.75.75 0 1 0 1.06-1.06L19.062 18l1.59-1.591Z" clip-rule="evenodd"/>
</svg>
