<svg xmlns="http://www.w3.org/2000/svg" width="1em" height="1em" viewBox="0 0 24 24">
  <path fill="currentColor" d="M14.4 3.45 16.313 6H7.688L9.6 3.45a.75.75 0 1 0-1.2-.9L5.805 6.01A4.005 4.005 0 0 0 2.17 9.25H21.83a4.005 4.005 0 0 0-3.634-3.24L15.6 2.55a.75.75 0 0 0-1.2.9Z"/>
  <path fill="currentColor" fill-rule="evenodd" d="M21.827 10.75H2.173c.013.068.028.136.045.205l1.967 8A4 4 0 0 0 8.069 22h7.862a4 4 0 0 0 3.885-3.045l1.966-8c.017-.069.032-.137.045-.205ZM12 12.25a.75.75 0 0 1 .75.75v2.25H15a.75.75 0 0 1 0 1.5h-2.25V19a.75.75 0 0 1-1.5 0v-2.25H9a.75.75 0 0 1 0-1.5h2.25V13a.75.75 0 0 1 .75-.75Z" clip-rule="evenodd"/>
</svg>
