<!-- Generated by IcoMoon.io -->
<svg version="1.1" xmlns="http://www.w3.org/2000/svg" width="24" height="24" viewBox="0 0 24 24">
<title>arrows-arrows-hv-24</title>
<path d="M19.586 13h-6.586v6.586l2.293-2.293 1.414 1.414-4.707 4.707-4.707-4.707 1.414-1.414 2.293 2.293v-6.586h-6.586l2.293 2.293-1.414 1.414-4.707-4.707 4.707-4.707 1.414 1.414-2.293 2.293h6.586v-6.586l-2.293 2.293-1.414-1.414 4.707-4.707 4.707 4.707-1.414 1.414-2.293-2.293v6.586h6.586l-2.293-2.293 1.414-1.414 4.707 4.707-4.707 4.707-1.414-1.414 2.293-2.293z"></path>
</svg>
