<!-- Generated by IcoMoon.io -->
<svg version="1.1" xmlns="http://www.w3.org/2000/svg" width="24" height="24" viewBox="0 0 24 24">
<title>arrows-circle-chevrons-bottom-24</title>
<path d="M1 12c0 6.075 4.925 11 11 11s11-4.925 11-11c0-6.075-4.925-11-11-11s-11 4.925-11 11zM21 12c0 4.971-4.029 9-9 9s-9-4.029-9-9c0-4.971 4.029-9 9-9s9 4.029 9 9zM15.293 11.293l1.414 1.414-4.707 4.707-4.707-4.707 1.414-1.414 3.293 3.293 3.293-3.293zM15.293 7.293l-3.293 3.293-3.293-3.293-1.414 1.414 4.707 4.707 4.707-4.707-1.414-1.414z"></path>
</svg>
