<!-- Generated by IcoMoon.io -->
<svg version="1.1" xmlns="http://www.w3.org/2000/svg" width="24" height="24" viewBox="0 0 24 24">
<title>arrows-swap-24</title>
<path d="M16.293 0.293c0.39-0.391 1.024-0.391 1.414 0l4 4c0.39 0.391 0.39 1.024 0 1.414l-4 4c-0.39 0.39-1.024 0.39-1.414 0s-0.39-1.024 0-1.414l3.293-3.293-3.293-3.293c-0.39-0.391-0.39-1.024 0-1.414z"></path>
<path d="M7 6c-0.796 0-1.559 0.316-2.121 0.879s-0.879 1.326-0.879 2.121v2c0 0.552-0.448 1-1 1s-1-0.448-1-1v-2c0-1.326 0.527-2.598 1.464-3.536s2.209-1.464 3.536-1.464h14c0.552 0 1 0.448 1 1s-0.448 1-1 1h-14z"></path>
<path d="M7.707 14.293c0.391 0.39 0.391 1.024 0 1.414l-3.293 3.293 3.293 3.293c0.391 0.39 0.391 1.024 0 1.414s-1.024 0.39-1.414 0l-4-4c-0.391-0.39-0.391-1.024 0-1.414l4-4c0.391-0.39 1.024-0.39 1.414 0z"></path>
<path d="M21 12c0.552 0 1 0.448 1 1v2c0 1.326-0.527 2.598-1.464 3.535s-2.209 1.464-3.535 1.464h-14c-0.552 0-1-0.448-1-1s0.448-1 1-1h14c0.796 0 1.559-0.316 2.121-0.879s0.879-1.326 0.879-2.121v-2c0-0.552 0.448-1 1-1z"></path>
</svg>
