<!-- Generated by IcoMoon.io -->
<svg version="1.1" xmlns="http://www.w3.org/2000/svg" width="24" height="24" viewBox="0 0 24 24">
<title>arrows-circle-arrow-left-curved-24</title>
<path d="M12 23c-6.075 0-11-4.925-11-11s4.925-11 11-11c6.075 0 11 4.925 11 11s-4.925 11-11 11zM12 21c4.971 0 9-4.029 9-9s-4.029-9-9-9c-4.971 0-9 4.029-9 9s4.029 9 9 9zM11.707 13.293l-2.293-2.293h4.586c1.105 0 2 0.895 2 2s-0.895 2-2 2v2c2.209 0 4-1.791 4-4s-1.791-4-4-4h-4.586l2.293-2.293-1.414-1.414-4.707 4.707 4.707 4.707 1.414-1.414z"></path>
</svg>
