<!-- Generated by IcoMoon.io -->
<svg version="1.1" xmlns="http://www.w3.org/2000/svg" width="24" height="24" viewBox="0 0 24 24">
<title>arrows-circle-arrow-right-curved-24</title>
<path d="M12 23c-6.075 0-11-4.925-11-11s4.925-11 11-11c6.075 0 11 4.925 11 11s-4.925 11-11 11zM12 21c4.971 0 9-4.029 9-9s-4.029-9-9-9c-4.971 0-9 4.029-9 9s4.029 9 9 9zM12.293 6.707l2.293 2.293h-4.586c-2.209 0-4 1.791-4 4s1.791 4 4 4v-2c-1.105 0-2-0.895-2-2s0.895-2 2-2h4.586l-2.293 2.293 1.414 1.414 4.707-4.707-4.707-4.707-1.414 1.414z"></path>
</svg>
