<!-- Generated by IcoMoon.io -->
<svg version="1.1" xmlns="http://www.w3.org/2000/svg" width="24" height="24" viewBox="0 0 24 24">
<title>arrows-refresh-ccw-alert-24</title>
<path d="M8 7h-1.807c1.36-1.921 3.413-3 5.807-3 4.418 0 8 3.582 8 8h2c0-5.523-4.477-10-10-10-2.804 0-5.275 1.183-7 3.27v-1.27h-2v5h5v-2zM16 17h1.807c-1.36 1.921-3.413 3-5.807 3-4.418 0-8-3.582-8-8h-2c0 5.523 4.477 10 10 10 2.804 0 5.275-1.182 7-3.27v1.27h2v-5h-5v2zM12 15.998c0.552 0 1-0.448 1-1s-0.448-1-1-1c-0.552 0-1 0.448-1 1s0.448 1 1 1zM13.004 6.998h-2.001v6h2.001v-6z"></path>
</svg>
