<!-- Generated by IcoMoon.io -->
<svg version="1.1" xmlns="http://www.w3.org/2000/svg" width="24" height="24" viewBox="0 0 24 24">
<title>arrows-arrow-bold-forvard-all-24</title>
<path d="M10 3.586l8.414 8.414-8.414 8.414v-4.58c-2.044-0.225-4.124 0.704-6.293 2.873l-1.707 1.707v-2.414c0-6.149 2.739-9.587 8-9.965v-4.449zM12 8.414v1.586h-1c-4.022 0-6.25 1.81-6.84 5.682 2.313-1.681 4.687-2.251 7.082-1.653l0.758 0.189v1.367l3.586-3.586-3.586-3.586zM14 3.586v3l5.414 5.414-5.414 5.414v3l8.414-8.414-8.414-8.414z"></path>
</svg>
