<!-- Generated by IcoMoon.io -->
<svg version="1.1" xmlns="http://www.w3.org/2000/svg" width="24" height="24" viewBox="0 0 24 24">
<title>arrows-arrow-bold-redo-24</title>
<path d="M21 19v-13.414l-4.003 4.003c-0.492-0.48-0.788-0.747-1.15-1.036-1.372-1.098-2.736-1.552-4.847-1.552-3.886 0-8 3.179-8 7v2.414l1.707-1.707c0.041-0.041 0.137-0.13 0.282-0.249 0.249-0.206 0.534-0.413 0.847-0.606 0.871-0.536 1.779-0.852 2.663-0.852 1.561 0 2.336 0.448 3.239 1.846l-4.154 4.154h13.414zM16.293 11.707l0.707 0.707 2-2v6.586h-6.586l1.833-1.833-0.379-0.663c-1.414-2.475-2.751-3.504-5.368-3.504-0.893 0-1.76 0.204-2.59 0.562 1.137-1.486 3.168-2.562 5.090-2.562 1.667 0 2.589 0.307 3.597 1.114 0.429 0.343 0.779 0.676 1.695 1.593z"></path>
</svg>
