<!-- Generated by IcoMoon.io -->
<svg version="1.1" xmlns="http://www.w3.org/2000/svg" width="24" height="24" viewBox="0 0 24 24">
<title>arrows-arrow-bold-undo-24</title>
<path d="M3 19h13.414l-4.154-4.154c0.903-1.398 1.678-1.846 3.239-1.846 0.885 0 1.793 0.316 2.663 0.852 0.313 0.193 0.598 0.4 0.847 0.606 0.144 0.12 0.241 0.208 0.282 0.249l1.707 1.707v-2.414c0-3.821-4.113-7-8-7-2.111 0-3.475 0.455-4.847 1.552-0.362 0.29-0.658 0.556-1.15 1.036l-4.003-4.003v13.414zM5 17v-6.586l2 2 0.707-0.707c0.916-0.916 1.266-1.25 1.695-1.593 1.009-0.807 1.93-1.114 3.598-1.114 1.922 0 3.953 1.076 5.090 2.562-0.831-0.358-1.698-0.562-2.59-0.562-2.617 0-3.954 1.029-5.368 3.504l-0.379 0.663 1.833 1.833h-6.586z"></path>
</svg>
