<!-- Generated by IcoMoon.io -->
<svg version="1.1" xmlns="http://www.w3.org/2000/svg" width="24" height="24" viewBox="0 0 24 24">
<title>arrows-arrow-bold-reply-all-24</title>
<path d="M4.586 12l5.414-5.414v-3l-8.414 8.414 8.414 8.414v-3l-5.414-5.414zM14 15.834v4.58l-8.414-8.414 8.414-8.414v4.449c5.261 0.378 8 3.816 8 9.965v2.414l-1.707-1.707c-2.169-2.169-4.248-3.098-6.293-2.873zM12 8.414l-3.586 3.586 3.586 3.586v-1.367l0.758-0.189c2.395-0.599 4.769-0.028 7.082 1.653-0.59-3.873-2.817-5.682-6.84-5.682h-1v-1.586z"></path>
</svg>
