<!-- Generated by IcoMoon.io -->
<svg version="1.1" xmlns="http://www.w3.org/2000/svg" width="24" height="24" viewBox="0 0 24 24">
<title>arrows-refresh-cw-alert-24</title>
<path d="M12 4c2.394 0 4.446 1.079 5.807 3h-1.807v2h5v-5h-2v1.27c-1.725-2.088-4.196-3.27-7-3.27-5.523 0-10 4.477-10 10h2c0-4.418 3.582-8 8-8zM12 20c-2.394 0-4.446-1.079-5.807-3h1.807v-2h-5v5h2v-1.27c1.725 2.088 4.196 3.27 7 3.27 5.523 0 10-4.477 10-10h-2c0 4.418-3.582 8-8 8zM12 15.998c0.552 0 1-0.448 1-1s-0.448-1-1-1c-0.552 0-1 0.448-1 1s0.448 1 1 1zM13.004 6.998h-2.001v6h2.001v-6z"></path>
</svg>
