<!-- Generated by IcoMoon.io -->
<svg version="1.1" xmlns="http://www.w3.org/2000/svg" width="24" height="24" viewBox="0 0 24 24">
<title>basic-brush-24</title>
<path d="M20 1h-16v12c0 1.518 0.848 1.998 3.213 2.708 1.385 0.415 1.787 0.644 1.787 0.792 0 0.768-0.070 1.283-0.22 1.883 0.029-0.116-0.142 0.544-0.18 0.72-0.066 0.309-0.1 0.591-0.1 0.897 0 1.661 1.562 3 3.5 3s3.5-1.339 3.5-3c0-0.306-0.034-0.588-0.1-0.897-0.038-0.176-0.208-0.837-0.18-0.72-0.15-0.6-0.22-1.115-0.22-1.883 0-0.148 0.403-0.376 1.791-0.792 2.368-0.71 3.217-1.191 3.209-2.714v-11.994zM12.926 11h5.074v2c0.001 0.15-0.399 0.378-1.783 0.792l-0.004 0.001c-2.364 0.708-3.213 1.189-3.213 2.707 0 0.941 0.092 1.617 0.28 2.367-0.018-0.072 0.137 0.527 0.164 0.654 0.039 0.18 0.056 0.324 0.056 0.478 0 0.482-0.604 1-1.5 1s-1.5-0.518-1.5-1c0-0.154 0.017-0.298 0.056-0.478 0.027-0.128 0.182-0.726 0.164-0.654 0.188-0.75 0.28-1.427 0.28-2.367 0-1.518-0.848-1.998-3.213-2.708-1.385-0.415-1.787-0.644-1.787-0.792v-2h6.926zM6 9v-6h2v4h2v-4h2v3h2v-3h4v6h-12z"></path>
</svg>
