<!-- Generated by IcoMoon.io -->
<svg version="1.1" xmlns="http://www.w3.org/2000/svg" width="24" height="24" viewBox="0 0 24 24">
<title>basic-star-no-24</title>
<path d="M6.851 8.266l-5.558-5.558 1.414-1.414 20 20-1.414 1.414-2.563-2.563 0.476 2.774-7.206-3.788-7.206 3.788 1.376-8.024-5.83-5.683 6.511-0.946zM16.281 17.695l0.269 1.567-4.55-2.392-4.55 2.392 0.869-5.066-3.681-3.588 3.977-0.578 7.665 7.665zM19.362 10.608l-2.299 2.241 1.414 1.414 5.182-5.051-8.056-1.171-3.603-7.3-2.328 4.717 1.493 1.493 0.835-1.691 2.275 4.609 5.087 0.739z"></path>
</svg>
