<!-- Generated by IcoMoon.io -->
<svg version="1.1" xmlns="http://www.w3.org/2000/svg" width="24" height="24" viewBox="0 0 24 24">
<title>basic-pencil-create-24</title>
<path d="M16.437 2c0.655 0 1.282 0.261 1.741 0.723l3.101 3.101c0.462 0.462 0.721 1.088 0.721 1.741s-0.259 1.279-0.721 1.741l-11.321 11.318c-0.698 0.806-1.689 1.301-2.823 1.378h-5.135v-1l0.003-4.215c0.085-1.054 0.575-2.035 1.323-2.694l11.369-11.369c0.461-0.464 1.088-0.725 1.742-0.725zM7.064 20.005c0.534-0.038 1.032-0.286 1.431-0.743l7.562-7.562-3.754-3.755-7.606 7.604c-0.405 0.358-0.656 0.86-0.696 1.318v3.135l3.064 0.002zM13.717 6.531l3.754 3.754 2.394-2.394c0.087-0.087 0.135-0.204 0.135-0.327s-0.049-0.24-0.135-0.327l-3.104-3.104c-0.086-0.086-0.202-0.135-0.324-0.135s-0.238 0.049-0.324 0.135l-2.397 2.396z"></path>
</svg>
