<!-- Generated by IcoMoon.io -->
<svg version="1.1" xmlns="http://www.w3.org/2000/svg" width="24" height="24" viewBox="0 0 24 24">
<title>basic-clear-X-xs-24</title>
<path d="M4 12c0-4.418 3.582-8 8-8 2.122 0 4.157 0.843 5.657 2.343s2.343 3.535 2.343 5.657c0 4.418-3.582 8-8 8s-8-3.582-8-8zM15.486 15.514c0.316-0.316 0.316-0.827 0-1.143l-2.343-2.371 2.371-2.343c0.316-0.316 0.316-0.827 0-1.143s-0.827-0.316-1.143 0l-2.371 2.343-2.343-2.371c-0.316-0.316-0.827-0.316-1.143 0s-0.316 0.827 0 1.143l2.343 2.371-2.371 2.343c-0.157 0.149-0.245 0.355-0.245 0.571s0.089 0.423 0.245 0.571c0.149 0.156 0.355 0.245 0.571 0.245s0.423-0.089 0.571-0.245l2.371-2.343 2.343 2.371c0.315 0.316 0.827 0.316 1.143 0z"></path>
</svg>
