<!-- Generated by IcoMoon.io -->
<svg version="1.1" xmlns="http://www.w3.org/2000/svg" width="24" height="24" viewBox="0 0 24 24">
<title>basic-share-24</title>
<path d="M14 6c0 0.287 0.030 0.568 0.088 0.838l-5.071 2.535c-0.733-0.842-1.813-1.374-3.017-1.374-2.209 0-4 1.791-4 4s1.791 4 4 4c1.204 0 2.284-0.532 3.017-1.374l5.071 2.535c-0.058 0.27-0.088 0.551-0.088 0.838 0 2.209 1.791 4 4 4s4-1.791 4-4c0-2.209-1.791-4-4-4-1.204 0-2.284 0.532-3.017 1.374l-5.071-2.535c0.058-0.27 0.088-0.551 0.088-0.838s-0.030-0.568-0.088-0.838l5.071-2.535c0.733 0.842 1.813 1.374 3.017 1.374 2.209 0 4-1.791 4-4s-1.791-4-4-4c-2.209 0-4 1.791-4 4zM8 12c0 1.105-0.895 2-2 2s-2-0.895-2-2c0-1.105 0.895-2 2-2s2 0.895 2 2zM18 8c1.105 0 2-0.895 2-2s-0.895-2-2-2c-1.105 0-2 0.895-2 2s0.895 2 2 2zM20 18c0 1.105-0.895 2-2 2s-2-0.895-2-2c0-1.105 0.895-2 2-2s2 0.895 2 2z"></path>
</svg>
