<!-- Generated by IcoMoon.io -->
<svg version="1.1" xmlns="http://www.w3.org/2000/svg" width="24" height="24" viewBox="0 0 24 24">
<title>basic-eye-24</title>
<path d="M12 4c2.728 0 5.336 1.431 7.766 3.781 0.829 0.802 1.579 1.658 2.24 2.514 0.399 0.517 0.681 0.923 0.836 1.166l0.345 0.539-0.345 0.539c-0.155 0.242-0.438 0.649-0.836 1.166-0.66 0.856-1.411 1.713-2.24 2.514-2.431 2.351-5.039 3.781-7.766 3.781s-5.336-1.431-7.766-3.781c-0.829-0.802-1.579-1.658-2.24-2.514-0.399-0.517-0.681-0.923-0.836-1.166l-0.345-0.539 0.345-0.539c0.155-0.242 0.438-0.649 0.836-1.166 0.66-0.856 1.411-1.713 2.24-2.514 2.431-2.351 5.039-3.781 7.766-3.781zM20.422 11.517c-0.605-0.784-1.292-1.569-2.046-2.298-2.094-2.024-4.271-3.219-6.376-3.219s-4.283 1.194-6.376 3.219c-0.754 0.729-1.442 1.514-2.046 2.298-0.131 0.169-0.251 0.331-0.362 0.483 0.11 0.152 0.231 0.314 0.362 0.483 0.605 0.784 1.292 1.569 2.046 2.298 2.093 2.025 4.271 3.219 6.376 3.219s4.283-1.194 6.376-3.219c0.754-0.729 1.442-1.514 2.046-2.298 0.131-0.169 0.251-0.331 0.362-0.483-0.11-0.152-0.231-0.314-0.362-0.483zM8 12c0 2.209 1.791 4 4 4s4-1.791 4-4c0-2.209-1.791-4-4-4s-4 1.791-4 4zM14 12c0 1.105-0.895 2-2 2s-2-0.895-2-2 0.895-2 2-2c1.105 0 2 0.895 2 2z"></path>
</svg>
