<!-- Generated by IcoMoon.io -->
<svg version="1.1" xmlns="http://www.w3.org/2000/svg" width="24" height="24" viewBox="0 0 24 24">
<title>basic-circle-star-24</title>
<path d="M1 12c0 6.075 4.925 11 11 11s11-4.925 11-11c0-6.075-4.925-11-11-11s-11 4.925-11 11zM21 12c0 4.971-4.029 9-9 9s-9-4.029-9-9c0-4.971 4.029-9 9-9s9 4.029 9 9zM7.582 17.939l0.844-4.92-3.574-3.484 4.94-0.718 2.209-4.476 2.209 4.476 4.94 0.718-3.574 3.484 0.844 4.92-4.418-2.323-4.418 2.323zM13.425 12.321l0.336 1.962-1.762-0.926-1.762 0.926 0.336-1.962-1.426-1.389 1.97-0.286 0.881-1.785 0.881 1.785 1.97 0.286-1.425 1.389z"></path>
</svg>
