<!-- Generated by IcoMoon.io -->
<svg version="1.1" xmlns="http://www.w3.org/2000/svg" width="24" height="24" viewBox="0 0 24 24">
<title>basic-link-no-24</title>
<path d="M1.293 2.707l4.309 4.309c-2.575 0.203-4.601 2.357-4.601 4.984 0 2.761 2.239 5 5 5h4v-2h-4c-1.657 0-3-1.343-3-3s1.343-3 3-3h1.586l2 2h-2.586v2h4.586l9.707 9.707 1.414-1.414-20-20-1.414 1.414zM19.032 14.818l1.497 1.497c1.479-0.869 2.471-2.475 2.471-4.314 0-2.761-2.239-5-5-5h-4v2h4c1.657 0 3 1.343 3 3 0 1.294-0.82 2.397-1.968 2.818z"></path>
</svg>
