<!-- Generated by IcoMoon.io -->
<svg version="1.1" xmlns="http://www.w3.org/2000/svg" width="24" height="24" viewBox="0 0 24 24">
<title>basic-image-24</title>
<path d="M4 2h16c1.105 0 2 0.895 2 2v16c0 1.105-0.895 2-2 2h-16c-1.105 0-2-0.895-2-2v-16c0-1.105 0.895-2 2-2zM4 4v11.586l4-4 3.5 3.5 6.5-6.5 2 2v-6.586h-16zM4 20h9.586l-5.586-5.586-4 4v1.586zM20 20v-6.586l-2-2-5.086 5.086 3.5 3.5h3.586zM14 8c0-1.657-1.343-3-3-3s-3 1.343-3 3 1.343 3 3 3c1.657 0 3-1.343 3-3zM10 8c0-0.552 0.448-1 1-1s1 0.448 1 1c0 0.552-0.448 1-1 1s-1-0.448-1-1z"></path>
</svg>
