<!-- Generated by IcoMoon.io -->
<svg version="1.1" xmlns="http://www.w3.org/2000/svg" width="24" height="24" viewBox="0 0 24 24">
<title>basic-eye-no-24</title>
<path d="M2.707 1.293l-1.414 1.414 4.065 4.065c-0.379 0.314-0.753 0.651-1.124 1.009-0.829 0.802-1.579 1.658-2.24 2.514-0.399 0.517-0.681 0.923-0.836 1.166l-0.345 0.539 0.345 0.539c0.155 0.242 0.438 0.649 0.836 1.166 0.66 0.857 1.411 1.713 2.24 2.514 2.431 2.351 5.039 3.781 7.766 3.781 1.721 0 3.394-0.57 5.006-1.58l4.287 4.287 1.414-1.414-20-20zM15.545 16.959l-1.513-1.513c-0.595 0.352-1.29 0.554-2.032 0.554-2.209 0-4-1.791-4-4 0-0.742 0.202-1.436 0.554-2.032l-1.774-1.774c-0.387 0.312-0.773 0.655-1.156 1.025-0.754 0.729-1.442 1.514-2.046 2.298-0.131 0.169-0.251 0.331-0.362 0.483 0.11 0.152 0.231 0.314 0.362 0.483 0.605 0.784 1.292 1.569 2.046 2.298 2.093 2.024 4.271 3.219 6.376 3.219 1.168 0 2.359-0.368 3.545-1.041zM10.068 11.482c-0.044 0.165-0.068 0.339-0.068 0.518 0 1.105 0.896 2 2 2 0.179 0 0.353-0.024 0.518-0.068l-2.45-2.45zM20.098 15.891l-1.414-1.414c0.634-0.641 1.217-1.317 1.739-1.994 0.131-0.169 0.251-0.331 0.362-0.483-0.11-0.152-0.231-0.314-0.362-0.483-0.605-0.784-1.292-1.569-2.046-2.298-2.094-2.024-4.271-3.219-6.376-3.219-0.522 0-1.049 0.074-1.578 0.215l-1.582-1.582c1.032-0.412 2.087-0.633 3.16-0.633 2.728 0 5.336 1.431 7.766 3.781 0.829 0.802 1.579 1.658 2.24 2.514 0.399 0.517 0.681 0.923 0.836 1.166l0.345 0.539-0.345 0.539c-0.155 0.242-0.438 0.649-0.836 1.166-0.571 0.741-1.209 1.481-1.908 2.187z"></path>
</svg>
