<!-- Generated by IcoMoon.io -->
<svg version="1.1" xmlns="http://www.w3.org/2000/svg" width="24" height="24" viewBox="0 0 24 24">
<title>basic-sticker-24</title>
<path d="M12 23c-6.075 0-11-4.925-11-11s4.925-11 11-11h0.414l10.586 10.586v0.414c0 6.075-4.925 11-11 11zM3 12c0 4.971 4.029 9 9 9 4.306 0 7.906-3.025 8.792-7.065-0.721 0.189-1.472 0.288-2.236 0.288-4.848 0-8.778-3.93-8.778-8.778 0-0.764 0.098-1.515 0.288-2.236-4.041 0.885-7.065 4.485-7.065 8.792zM12.066 3.481c-0.19 0.629-0.288 1.289-0.288 1.964 0 3.743 3.035 6.778 6.778 6.778 0.675 0 1.335-0.099 1.964-0.288l-8.453-8.453z"></path>
</svg>
