<!-- Generated by IcoMoon.io -->
<svg version="1.1" xmlns="http://www.w3.org/2000/svg" width="24" height="24" viewBox="0 0 24 24">
<title>basic-camera-create-24</title>
<path d="M6.937 5.845c0.071-0.099 0.15-0.219 0.25-0.382 0.037-0.059 0.137-0.224 0.211-0.347l0.084-0.138c0.829-1.356 1.432-1.978 2.518-1.978h5v2h-5c-0.087 0-0.36 0.282-0.812 1.022l-0.073 0.12c-0.075 0.124-0.184 0.304-0.226 0.372-0.123 0.199-0.225 0.356-0.328 0.499-0.448 0.623-0.896 0.987-1.561 0.987h-3c-0.552 0-1 0.448-1 1v9c0 0.552 0.448 1 1 1h16c0.552 0 1-0.448 1-1v-6h2v6c0 1.657-1.343 3-3 3h-16c-1.657 0-3-1.343-3-3v-9c0-1.657 1.343-3 3-3h2.816c0.033-0.038 0.074-0.090 0.121-0.155zM17 8v-2h2v-2h2v2h2v2h-2v2h-2v-2h-2zM12 18c-2.761 0-5-2.239-5-5s2.239-5 5-5c2.761 0 5 2.239 5 5s-2.239 5-5 5zM12 16c1.657 0 3-1.343 3-3s-1.343-3-3-3c-1.657 0-3 1.343-3 3s1.343 3 3 3z"></path>
</svg>
