<!-- Generated by IcoMoon.io -->
<svg version="1.1" xmlns="http://www.w3.org/2000/svg" width="24" height="24" viewBox="0 0 24 24">
<title>basic-options-3-24</title>
<path d="M11 11h2v11h-2v-11z"></path>
<path d="M11 2h2v3h-2v-3z"></path>
<path d="M5 18h2v4h-2v-4z"></path>
<path d="M5 2h2v10h-2v-10z"></path>
<path d="M6 17c-0.552 0-1-0.448-1-1s0.448-1 1-1c0.552 0 1 0.448 1 1s-0.448 1-1 1zM6 19c1.657 0 3-1.343 3-3s-1.343-3-3-3c-1.657 0-3 1.343-3 3s1.343 3 3 3z"></path>
<path d="M12 10c-0.552 0-1-0.448-1-1s0.448-1 1-1c0.552 0 1 0.448 1 1s-0.448 1-1 1zM12 12c1.657 0 3-1.343 3-3s-1.343-3-3-3-3 1.343-3 3c0 1.657 1.343 3 3 3z"></path>
<path d="M17 2h2v13h-2v-13z"></path>
<path d="M18 20c-0.552 0-1-0.448-1-1s0.448-1 1-1c0.552 0 1 0.448 1 1s-0.448 1-1 1zM18 22c1.657 0 3-1.343 3-3s-1.343-3-3-3c-1.657 0-3 1.343-3 3s1.343 3 3 3z"></path>
</svg>
