<!-- Generated by IcoMoon.io -->
<svg version="1.1" xmlns="http://www.w3.org/2000/svg" width="24" height="24" viewBox="0 0 24 24">
<title>basic-thumbs-up-24</title>
<path d="M22 11.999c0-1.683-1.13-3-3-3h-3.073l0.028-0.076c0.028-0.075 0.106-0.282 0.182-0.482l0-0 0-0.001c0.067-0.177 0.132-0.349 0.16-0.422 0.19-0.51 0.329-0.922 0.441-1.329 0.17-0.615 0.262-1.17 0.262-1.69 0-1.472-0.908-2.386-2.252-2.778-0.606-0.176-1.134-0.223-1.748-0.222h-0.48l-0.3 0.374c-0.339 0.422-1.005 1.184-1.773 2.061v0c-1.417 1.619-3.18 3.634-3.877 4.648-0.181-0.054-0.372-0.082-0.57-0.082h-2c-1.105 0-2 0.895-2 2v9c0 1.105 0.895 2 2 2h2c0.687 0 1.293-0.346 1.653-0.874 0.303 0.196 0.642 0.36 1.010 0.492 0.842 0.301 1.678 0.394 2.371 0.381l6.966 0.001c2.755 0 4-4.056 4-10zM9.337 19.734c-0.885-0.317-1.337-0.833-1.337-1.735v-7c0-0.24 0.044-0.453 0.142-0.68 0.175-0.408 1.76-2.217 3.263-3.931v-0c0.776-0.885 1.529-1.745 2.055-2.374 0.251 0.019 0.488 0.057 0.729 0.128 0.573 0.167 0.811 0.406 0.811 0.857 0 0.317-0.064 0.702-0.19 1.159-0.094 0.341-0.216 0.702-0.387 1.162-0.024 0.065-0.085 0.225-0.15 0.396l-0 0c-0.079 0.207-0.163 0.429-0.194 0.514-0.13 0.352-0.216 0.611-0.274 0.846-0.249 1 0.001 1.924 1.195 1.924h4c0.691 0 1 0.36 1 1 0 4.791-0.985 8-2 8l-7.037 0.001c-0.438 0.008-1.052-0.060-1.626-0.265zM4 20v-9h2v9h-2z"></path>
</svg>
