<!-- Generated by IcoMoon.io -->
<svg version="1.1" xmlns="http://www.w3.org/2000/svg" width="24" height="24" viewBox="0 0 24 24">
<title>basic-trash-empty-24</title>
<path d="M9 1c-1.105 0-2 0.895-2 2v1h-3c-1.105 0-2 0.895-2 2v2c0 1.105 0.895 2 2 2h0.080l0.924 11.083c-0.003 1.022 0.892 1.917 1.997 1.917h10c1.105 0 2-0.895 2-2l0.92-11h0.080c1.105 0 2-0.895 2-2v-2c0-1.105-0.895-2-2-2h-3v-1c0-1.105-0.895-2-2-2h-6zM4 6h16v2h-16v-2zM6.086 10h11.827l-0.91 10.917-0.003 0.083h-10l-0.913-11zM15 3v1h-6v-1h6zM13.414 15l2.293-2.293-1.414-1.414-2.293 2.293-2.293-2.293-1.414 1.414 2.293 2.293-2.293 2.293 1.414 1.414 2.293-2.293 2.293 2.293 1.414-1.414-2.293-2.293z"></path>
</svg>
