<!-- Generated by IcoMoon.io -->
<svg version="1.1" xmlns="http://www.w3.org/2000/svg" width="24" height="24" viewBox="0 0 24 24">
<title>basic-paperclip-no-24</title>
<path d="M12.87 20.138l2.904-2.949 5.519 5.519 1.414-1.414-20-20-1.414 1.414 5.425 5.425-2.86 2.903c-2.477 2.527-2.477 6.578-0.002 9.103 2.454 2.503 6.599 2.463 9.013-0zM8.45 14.363l2.232-2.266 1.133 1.133-2.264 2.3c-0.298 0.307-0.8 0.309-1.101 0.002-0.317-0.324-0.317-0.844 0-1.168zM13.229 14.643l-2.247 2.283c-1.075 1.11-2.873 1.115-3.961 0.004-1.079-1.101-1.079-2.866 0.002-3.969l2.245-2.279-1.136-1.136-2.847 2.891c-1.713 1.747-1.713 4.553 0 6.301 1.663 1.697 4.521 1.669 6.158-0.002l2.917-2.962-1.131-1.131zM12.060 7.846l1.414 1.414 1.293-1.313-1.425-1.403-1.283 1.303zM14.607 10.393l1.895-1.925c1.015-1.036 1.015-2.699 0-3.734-0.968-0.988-2.682-0.966-3.63 0.002l-1.947 1.976-1.414-1.414 1.935-1.964c1.723-1.758 4.725-1.797 6.485 0 1.777 1.813 1.777 4.721-0.002 6.536l-1.908 1.938-1.414-1.414zM20.292 9.749l-3.14 3.189 1.414 1.414 3.151-3.2-1.425-1.403z"></path>
</svg>
