<!-- Generated by IcoMoon.io -->
<svg version="1.1" xmlns="http://www.w3.org/2000/svg" width="24" height="24" viewBox="0 0 24 24">
<title>basic-clear-X-24</title>
<path d="M2 12c0-5.523 4.477-10 10-10 2.652 0 5.196 1.054 7.071 2.929s2.929 4.419 2.929 7.071c0 5.523-4.477 10-10 10s-10-4.477-10-10zM15.717 15.748c0.336-0.336 0.336-0.882 0-1.219l-2.496-2.529 2.526-2.498c0.336-0.337 0.336-0.882 0-1.219s-0.881-0.337-1.217 0l-2.526 2.498-2.496-2.529c-0.336-0.337-0.881-0.337-1.217 0s-0.336 0.882 0 1.219l2.496 2.529-2.526 2.498c-0.167 0.159-0.261 0.379-0.261 0.609s0.094 0.451 0.261 0.609c0.159 0.167 0.379 0.261 0.609 0.261s0.45-0.095 0.609-0.261l2.526-2.498 2.496 2.529c0.336 0.336 0.881 0.336 1.217 0z"></path>
</svg>
