<!-- Generated by IcoMoon.io -->
<svg version="1.1" xmlns="http://www.w3.org/2000/svg" width="24" height="24" viewBox="0 0 24 24">
<title>basic-circle-block-24</title>
<path d="M12 23c-6.075 0-11-4.925-11-11s4.925-11 11-11c6.075 0 11 4.925 11 11s-4.925 11-11 11zM19.032 17.618c1.232-1.54 1.968-3.493 1.968-5.618 0-4.971-4.029-9-9-9-2.125 0-4.078 0.736-5.618 1.968l12.65 12.65zM17.618 19.032l-12.65-12.65c-1.232 1.54-1.968 3.493-1.968 5.618 0 4.971 4.029 9 9 9 2.125 0 4.078-0.736 5.618-1.968z"></path>
</svg>
