<!-- Generated by IcoMoon.io -->
<svg version="1.1" xmlns="http://www.w3.org/2000/svg" width="24" height="24" viewBox="0 0 24 24">
<title>basic-inbox-24</title>
<path d="M22 19c0 1.105-0.895 2-2 2h-16c-1.105 0-2-0.895-2-2v-7.205l3.102-7.235c0.451-0.918 1.019-1.486 1.898-1.559l10.131 0.009c0.753 0.099 1.304 0.651 1.788 1.598l3.081 7.189v7.205zM4 13v6h16v-6h-4c0 1.105-0.895 2-2 2h-4c-1.105 0-2-0.895-2-2h-4zM4.517 11h5.483v2h4v-2h5.484l-2.373-5.543c-0.112-0.218-0.215-0.371-0.299-0.457l-9.636-0.004c-0.077 0.083-0.173 0.229-0.257 0.398l-2.403 5.606z"></path>
</svg>
