<!-- Generated by IcoMoon.io -->
<svg version="1.1" xmlns="http://www.w3.org/2000/svg" width="24" height="24" viewBox="0 0 24 24">
<title>basic-options-24</title>
<path d="M13 11c-1.864 0-3.43-1.275-3.874-3h-7.126v-2h7.126c0.444-1.725 2.010-3 3.874-3 2.209 0 4 1.791 4 4s-1.791 4-4 4zM19 6h3v2h-3v-2zM8 21c-1.864 0-3.43-1.275-3.874-3h-2.126v-2h2.126c0.444-1.725 2.010-3 3.874-3 2.209 0 4 1.791 4 4s-1.791 4-4 4zM14 18h8v-2h-8v2zM10 17c0 1.105-0.895 2-2 2s-2-0.895-2-2c0-1.105 0.895-2 2-2s2 0.895 2 2zM15 7c0 1.105-0.895 2-2 2s-2-0.895-2-2c0-1.105 0.895-2 2-2s2 0.895 2 2z"></path>
</svg>
