<!-- Generated by IcoMoon.io -->
<svg version="1.1" xmlns="http://www.w3.org/2000/svg" width="24" height="24" viewBox="0 0 24 24">
<title>basic-mic-no-24</title>
<path d="M8 9.414l-6.707-6.707 1.414-1.414 20 20-1.414 1.414-4.387-4.387c-1.107 0.86-2.445 1.436-3.906 1.618v1.062h3v2h-8v-2h3v-1.062c-3.946-0.492-7-3.858-7-7.938v-2h2v2c0 3.314 2.686 6 6 6 1.296 0 2.496-0.411 3.477-1.109l-1.445-1.444c-0.596 0.352-1.29 0.554-2.032 0.554-2.209 0-4-1.791-4-4v-2.586zM12.518 13.932c-0.165 0.044-0.339 0.068-0.518 0.068-1.105 0-2-0.895-2-2v-0.586l2.518 2.518zM14 5v4.786l2 2v-6.786c0-2.209-1.791-4-4-4-1.839 0-3.388 1.241-3.855 2.93l1.855 1.855v-0.786c0-1.105 0.895-2 2-2s2 0.895 2 2zM19.358 15.144l-1.568-1.568c0.136-0.502 0.209-1.031 0.209-1.576v-2h2v2c0 1.116-0.229 2.179-0.642 3.144z"></path>
</svg>
