<!-- Generated by IcoMoon.io -->
<svg version="1.1" xmlns="http://www.w3.org/2000/svg" width="24" height="24" viewBox="0 0 24 24">
<title>basic-dashboard-24</title>
<path d="M5.398 21.799c-2.748-2.064-4.398-5.296-4.398-8.799 0-6.075 4.925-11 11-11s11 4.925 11 11c0 3.504-1.65 6.735-4.398 8.799l-0.267 0.201h-12.67l-0.267-0.201zM17.658 20c2.095-1.695 3.342-4.243 3.342-7 0-4.971-4.029-9-9-9s-9 4.029-9 9c0 2.757 1.247 5.305 3.343 7h11.315zM17.319 7.573l-1.638-1.147-2.633 3.761c-0.326-0.121-0.679-0.188-1.048-0.188-1.657 0-3 1.343-3 3s1.343 3 3 3c1.657 0 3-1.343 3-3 0-0.555-0.151-1.076-0.414-1.522l2.733-3.905zM13 13c0 0.552-0.448 1-1 1s-1-0.448-1-1c0-0.552 0.448-1 1-1s1 0.448 1 1z"></path>
</svg>
