<!-- Generated by IcoMoon.io -->
<svg version="1.1" xmlns="http://www.w3.org/2000/svg" width="24" height="24" viewBox="0 0 24 24">
<title>basic-cut-24</title>
<path d="M17.806 1.442l1.659 1.117-6.26 9.298 2.35 3.49c0.448-0.174 0.935-0.269 1.445-0.269 2.209 0 4 1.791 4 4s-1.791 4-4 4c-2.209 0-4-1.791-4-4 0-0.976 0.349-1.87 0.93-2.564l-1.93-2.867-1.93 2.867c0.58 0.694 0.93 1.588 0.93 2.564 0 2.209-1.791 4-4 4s-4-1.791-4-4c0-2.209 1.791-4 4-4 0.509 0 0.997 0.095 1.445 0.269l2.35-3.49-6.26-9.298 1.659-1.117 5.806 8.625 5.807-8.625zM9 19.078c0 1.105-0.895 2-2 2s-2-0.895-2-2c0-1.105 0.895-2 2-2s2 0.895 2 2zM19 19.078c0 1.105-0.895 2-2 2s-2-0.895-2-2c0-1.105 0.895-2 2-2s2 0.895 2 2z"></path>
</svg>
