<!-- Generated by IcoMoon.io -->
<svg version="1.1" xmlns="http://www.w3.org/2000/svg" width="24" height="24" viewBox="0 0 24 24">
<title>basic-heart-24</title>
<path d="M16.553 2c-1.448-0-2.381 0.172-3.45 0.696-0.396 0.194-0.768 0.427-1.113 0.7-0.332-0.257-0.688-0.48-1.068-0.668-1.090-0.539-2.072-0.728-3.467-0.728-3.738 0-6.455 3.097-6.455 7.12 0 3.038 1.694 5.972 4.849 8.81 1.656 1.489 3.77 2.963 5.285 3.748l0.866 0.449 0.866-0.449c1.514-0.784 3.629-2.258 5.285-3.748 3.155-2.838 4.849-5.772 4.849-8.81 0-3.98-2.742-7.105-6.447-7.12zM21 9.12c0 2.38-1.414 4.829-4.186 7.323-1.512 1.359-3.455 2.718-4.814 3.431-1.359-0.713-3.302-2.071-4.814-3.431-2.772-2.494-4.186-4.943-4.186-7.323 0-2.972 1.884-5.12 4.455-5.12 1.11 0 1.794 0.132 2.581 0.521 0.465 0.23 0.876 0.534 1.231 0.913l0.736 0.785 0.729-0.791c0.364-0.395 0.78-0.705 1.25-0.935 0.764-0.374 1.405-0.492 2.567-0.492 2.539 0.011 4.451 2.189 4.451 5.12z"></path>
</svg>
