<!-- Generated by IcoMoon.io -->
<svg version="1.1" xmlns="http://www.w3.org/2000/svg" width="24" height="24" viewBox="0 0 24 24">
<title>basic-edit-24</title>
<path d="M21 22h-9v-2h9v2z"></path>
<path d="M18.77 4c-0.326 0-0.639 0.13-0.87 0.36l-12.946 12.946-0.58 2.32 2.32-0.58 12.946-12.946c0.114-0.114 0.205-0.25 0.267-0.399s0.094-0.309 0.094-0.471c0-0.162-0.032-0.322-0.094-0.471s-0.152-0.285-0.267-0.399c-0.114-0.114-0.25-0.205-0.399-0.267s-0.309-0.094-0.471-0.094zM16.486 2.946c0.606-0.606 1.427-0.946 2.284-0.946 0.424 0 0.844 0.084 1.236 0.246s0.748 0.4 1.048 0.7c0.3 0.3 0.538 0.656 0.7 1.048s0.246 0.812 0.246 1.236-0.084 0.844-0.246 1.236c-0.162 0.392-0.4 0.748-0.7 1.048l-13.141 13.142-0.465 0.263-4.205 1.051-1.213-1.213 1.051-4.205 0.263-0.465 13.142-13.142z"></path>
</svg>
