<!-- Generated by IcoMoon.io -->
<svg version="1.1" xmlns="http://www.w3.org/2000/svg" width="24" height="24" viewBox="0 0 24 24">
<title>basic-paperclip-24</title>
<path d="M13.343 6.544l1.425 1.403-6.318 6.416c-0.317 0.324-0.317 0.844 0 1.168 0.301 0.307 0.803 0.306 1.101-0.002l6.951-7.062c1.015-1.036 1.015-2.699 0-3.734-0.968-0.988-2.681-0.966-3.63 0.002l-7.587 7.702c-1.713 1.747-1.713 4.553 0 6.301 1.663 1.697 4.521 1.669 6.158-0.002l8.849-8.987 1.425 1.403-8.847 8.986c-2.414 2.463-6.56 2.503-9.013 0-2.475-2.525-2.475-6.576 0.002-9.103l7.587-7.702c1.723-1.758 4.725-1.797 6.485 0 1.777 1.813 1.777 4.721-0.002 6.536l-6.947 7.057c-1.075 1.11-2.873 1.115-3.961 0.004-1.079-1.101-1.079-2.866 0.002-3.969l6.32-6.418z"></path>
</svg>
