<!-- Generated by IcoMoon.io -->
<svg version="1.1" xmlns="http://www.w3.org/2000/svg" width="24" height="24" viewBox="0 0 24 24">
<title>basic-thumbs-down-24</title>
<path d="M16.137 15.558c-0.076-0.201-0.154-0.407-0.182-0.482l-0.028-0.076h3.073c1.87 0 3-1.317 3-3 0-5.944-1.245-10-4-10 0 0-6.977 0-7.001-0-0.658-0.012-1.493 0.081-2.336 0.382-0.368 0.132-0.707 0.296-1.010 0.492-0.36-0.527-0.966-0.874-1.653-0.874h-2c-1.105 0-2 0.895-2 2v9c0 1.105 0.895 2 2 2h2c0.198 0 0.39-0.029 0.571-0.083 0.697 1.015 2.46 3.029 3.876 4.648v0c0.768 0.878 1.434 1.639 1.773 2.061l0.3 0.374h0.487c0.607 0 1.135-0.046 1.741-0.222 1.344-0.391 2.252-1.305 2.252-2.778 0-0.52-0.092-1.075-0.262-1.69-0.112-0.407-0.251-0.819-0.441-1.329-0.027-0.073-0.093-0.246-0.16-0.423zM8 13v-7c0-0.902 0.452-1.418 1.337-1.735 0.574-0.205 1.189-0.273 1.629-0.266l7.034 0.001c1.015 0 2 3.209 2 8 0 0.64-0.309 1-1 1h-4c-1.194 0-1.444 0.924-1.195 1.924 0.059 0.235 0.144 0.494 0.274 0.846 0.031 0.084 0.115 0.306 0.194 0.514l0 0.001c0.064 0.17 0.125 0.33 0.15 0.396 0.171 0.46 0.293 0.821 0.387 1.162 0.126 0.456 0.19 0.842 0.19 1.159 0 0.451-0.238 0.69-0.811 0.857-0.241 0.070-0.478 0.109-0.729 0.128-0.526-0.629-1.28-1.489-2.055-2.374-1.503-1.714-3.088-3.523-3.263-3.931-0.097-0.227-0.142-0.44-0.142-0.68zM4 13v-9h2v9h-2z"></path>
</svg>
