<!-- Generated by IcoMoon.io -->
<svg version="1.1" xmlns="http://www.w3.org/2000/svg" width="24" height="24" viewBox="0 0 24 24">
<title>basic-settings-24</title>
<path d="M18.656 20.897l2.217-2.217-0.781-2.837 0.34-0.813 2.567-1.449v-3.135l-2.56-1.455-0.334-0.811 0.791-2.838-2.219-2.216-2.837 0.781-0.811-0.34-1.449-2.568h-3.135l-1.455 2.56-0.811 0.334-2.838-0.792-2.215 2.215 0.781 2.838-0.34 0.811-2.568 1.449v3.135l2.558 1.458 0.335 0.812-0.791 2.838 2.216 2.216 2.838-0.781 0.811 0.34 1.449 2.567h3.135l1.457-2.558 0.812-0.335 2.838 0.79zM18.853 13.626l-0.872 2.082 0.655 2.381-0.568 0.568-2.376-0.662-2.083 0.859-1.222 2.145h-0.804l-1.212-2.146-2.080-0.872-2.382 0.655-0.567-0.567 0.662-2.376-0.859-2.083-2.145-1.223v-0.805l2.147-1.212 0.872-2.080-0.655-2.382 0.566-0.566 2.376 0.663 2.084-0.859 1.22-2.147h0.804l1.212 2.147 2.080 0.872 2.383-0.656 0.569 0.568-0.662 2.375 0.859 2.084 2.147 1.22v0.804l-2.147 1.212zM12 16c-2.209 0-4-1.791-4-4s1.791-4 4-4c2.209 0 4 1.791 4 4s-1.791 4-4 4zM14 12c0 1.105-0.895 2-2 2s-2-0.895-2-2c0-1.105 0.895-2 2-2s2 0.895 2 2z"></path>
</svg>
