<!-- Generated by IcoMoon.io -->
<svg version="1.1" xmlns="http://www.w3.org/2000/svg" width="24" height="24" viewBox="0 0 24 24">
<title>basic-heart-no-24</title>
<path d="M2.414 1.293l20 20-1.414 1.414-3.82-3.82c-1.467 1.14-3.082 2.181-4.312 2.797l-0.868 0.434-0.868-0.434c-1.565-0.783-3.752-2.255-5.465-3.742-3.267-2.838-5.023-5.774-5.023-8.822 0-1.964 0.667-3.705 1.796-4.974l-1.439-1.439 1.414-1.414zM15.754 17.461l-11.897-11.897c-0.764 0.901-1.213 2.135-1.213 3.556 0 2.371 1.463 4.818 4.334 7.312 1.578 1.371 3.61 2.74 5.022 3.45 1.055-0.531 2.455-1.429 3.754-2.421zM21.357 9.12c0-2.924-1.986-5.109-4.645-5.12-1.213 0-1.887 0.12-2.687 0.498-0.491 0.232-0.927 0.545-1.305 0.942l-0.717 0.751-0.724-0.745c-0.37-0.381-0.799-0.687-1.285-0.92-0.659-0.315-1.251-0.463-2.055-0.51l-1.902-1.902c0.404-0.075 0.824-0.115 1.257-0.115 1.436 0 2.442 0.187 3.563 0.722 0.404 0.193 0.783 0.423 1.135 0.69 0.365-0.282 0.759-0.523 1.18-0.722 1.099-0.519 2.056-0.69 3.545-0.69 3.808 0.015 6.641 3.133 6.641 7.12 0 2.431-1.117 4.792-3.228 7.087l-1.416-1.416c1.754-1.928 2.644-3.823 2.644-5.672z"></path>
</svg>
