<!-- Generated by IcoMoon.io -->
<svg version="1.1" xmlns="http://www.w3.org/2000/svg" width="24" height="24" viewBox="0 0 24 24">
<title>basic-globe-24</title>
<path d="M12 1c6.075 0 11 4.925 11 11s-4.925 11-11 11c-6.075 0-11-4.925-11-11s4.925-11 11-11zM3.066 10.907c0.292 0.373 1.102 0.851 2.343 1.24 0.488 0.153 1.023 0.288 1.597 0.403-0.004-0.182-0.006-0.366-0.006-0.55 0-3.328 0.606-6.333 1.655-8.358-2.99 1.198-5.188 3.955-5.589 7.265zM7.129 14.611c-1.606-0.279-2.983-0.702-4.026-1.245 0.485 3.188 2.644 5.827 5.552 6.992-0.766-1.479-1.295-3.479-1.525-5.747zM9.179 14.877c0.897 0.081 1.842 0.123 2.821 0.123 0.963 0 1.912-0.055 2.825-0.156-0.451 3.598-1.698 6.156-2.825 6.156-1.123 0-2.367-2.543-2.821-6.123zM14.986 12.804c-0.95 0.123-1.958 0.195-2.986 0.195-1.044 0-2.047-0.052-2.985-0.15-0.010-0.28-0.015-0.563-0.015-0.85 0-5.016 1.594-9 3-9s3 3.984 3 9c0 0.271-0.005 0.54-0.014 0.804zM16.879 14.527c-0.225 2.302-0.758 4.334-1.534 5.831 2.959-1.186 5.142-3.897 5.576-7.161-1.060 0.552-2.457 1.013-4.042 1.331zM20.928 10.86c-0.471 0.528-1.955 1.156-3.932 1.594 0.003-0.151 0.004-0.302 0.004-0.454 0-3.328-0.606-6.333-1.655-8.358 2.976 1.192 5.167 3.928 5.583 7.218z"></path>
</svg>
