<!-- Generated by IcoMoon.io -->
<svg version="1.1" xmlns="http://www.w3.org/2000/svg" width="24" height="24" viewBox="0 0 24 24">
<title>basic-flame-24</title>
<path d="M11.176 11.53c0.546-0.767 0.485-1.575 0.107-3.028-0.749-2.874-0.451-4.449 2.132-6.313l1.261-0.91 0.305 1.525c0.324 1.621 0.856 2.623 2.223 4.551 0.054 0.077 0.054 0.077 0.109 0.154 1.968 2.777 2.688 4.451 2.688 7.492 0 3.688-3.729 7-8 7s-8-3.311-8-7c0-0.069 0-0.067-0.012-0.372-0.090-2.357 0.345-4.201 2.109-6.193 0.373-0.421 0.796-0.825 1.273-1.212l1.052-0.854 0.506 1.257c0.374 0.929 0.812 1.659 1.307 2.195 0.419 0.454 0.73 1.025 0.941 1.708zM7.594 9.762c-1.357 1.533-1.68 2.899-1.608 4.79 0.014 0.352 0.013 0.34 0.013 0.448 0 2.528 2.784 5 6 5s6-2.472 6-5c0-2.542-0.568-3.865-2.319-6.335-0.054-0.077-0.054-0.077-0.109-0.153-1.063-1.5-1.697-2.544-2.117-3.711-0.685 0.821-0.645 1.637-0.238 3.197 0.749 2.874 0.451 4.449-2.132 6.313l-1.473 1.063-0.11-1.813c-0.071-1.158-0.333-1.945-0.736-2.382-0.399-0.432-0.759-0.937-1.082-1.516-0.030 0.033-0.060 0.066-0.089 0.099z"></path>
</svg>
