<!-- Generated by IcoMoon.io -->
<svg version="1.1" xmlns="http://www.w3.org/2000/svg" width="24" height="24" viewBox="0 0 24 24">
<title>basic-camera-24</title>
<path d="M6.937 5.845c0.071-0.099 0.15-0.219 0.25-0.382 0.037-0.059 0.137-0.224 0.211-0.347l0-0 0.084-0.138c0.829-1.356 1.432-1.978 2.518-1.978h4c1.087 0 1.689 0.622 2.518 1.978l0.084 0.138c0.074 0.123 0.174 0.288 0.211 0.347 0.1 0.163 0.179 0.283 0.25 0.382 0.047 0.065 0.087 0.117 0.121 0.155h2.816c1.657 0 3 1.343 3 3v9c0 1.657-1.343 3-3 3h-16c-1.657 0-3-1.343-3-3v-9c0-1.657 1.343-3 3-3h2.816c0.033-0.038 0.074-0.090 0.121-0.155zM4 8c-0.552 0-1 0.448-1 1v9c0 0.552 0.448 1 1 1h16c0.552 0 1-0.448 1-1v-9c0-0.552-0.448-1-1-1h-3c-0.664 0-1.112-0.364-1.561-0.987-0.103-0.143-0.205-0.3-0.328-0.499-0.042-0.068-0.152-0.249-0.227-0.373l-0.073-0.12c-0.452-0.74-0.725-1.022-0.812-1.022h-4c-0.087 0-0.36 0.282-0.812 1.022l-0.073 0.121c-0.075 0.124-0.184 0.304-0.226 0.372-0.123 0.199-0.225 0.356-0.328 0.499-0.448 0.623-0.896 0.987-1.561 0.987h-3zM20 10c0 0.552-0.448 1-1 1s-1-0.448-1-1c0-0.552 0.448-1 1-1s1 0.448 1 1zM7 13c0 2.761 2.239 5 5 5s5-2.239 5-5c0-2.761-2.239-5-5-5s-5 2.239-5 5zM15 13c0 1.657-1.343 3-3 3s-3-1.343-3-3c0-1.657 1.343-3 3-3s3 1.343 3 3z"></path>
</svg>
