<!-- Generated by IcoMoon.io -->
<svg version="1.1" xmlns="http://www.w3.org/2000/svg" width="24" height="24" viewBox="0 0 24 24">
<title>basic-globe-no-24</title>
<path d="M3.547 4.961l-2.254-2.254 1.414-1.414 20 20-1.414 1.414-2.254-2.254c-1.908 1.59-4.362 2.547-7.039 2.547-6.075 0-11-4.925-11-11 0-2.678 0.957-5.132 2.547-7.039zM17.618 19.032l-1.297-1.297c-0.259 0.987-0.587 1.872-0.976 2.622 0.825-0.33 1.589-0.779 2.272-1.326zM13.54 14.954l1.098 1.098c-0.551 2.949-1.641 4.948-2.638 4.948-1.123 0-2.367-2.543-2.821-6.123 0.897 0.081 1.842 0.123 2.821 0.123 0.519 0 1.033-0.016 1.54-0.046zM11.583 12.997l-2.533-2.533c-0.033 0.498-0.050 1.011-0.050 1.536 0 0.287 0.005 0.571 0.015 0.85 0.813 0.085 1.673 0.135 2.568 0.147zM7.218 8.633c-0.143 1.063-0.218 2.195-0.218 3.367 0 0.184 0.002 0.368 0.006 0.55-0.574-0.114-1.109-0.249-1.597-0.403-1.24-0.39-2.051-0.867-2.343-1.24 0.206-1.7 0.885-3.253 1.902-4.525l2.25 2.25zM7.129 14.611c-1.606-0.279-2.983-0.702-4.026-1.245 0.485 3.188 2.644 5.827 5.552 6.992-0.766-1.479-1.295-3.479-1.525-5.747z"></path>
<path d="M8.655 3.642c-0.177 0.342-0.341 0.711-0.492 1.106l1.582 1.582c0.593-2.038 1.455-3.33 2.256-3.33 1.367 0 2.911 3.765 2.996 8.582l2.752 2.752c1.227-0.3 2.311-0.689 3.173-1.137-0.154 1.161-0.53 2.251-1.082 3.228l1.458 1.458c1.079-1.701 1.703-3.719 1.703-5.882 0-6.075-4.925-11-11-11-2.164 0-4.181 0.625-5.882 1.703l1.458 1.458c0.346-0.196 0.707-0.369 1.079-0.519zM20.928 10.86c-0.471 0.528-1.955 1.156-3.932 1.594 0.003-0.151 0.004-0.302 0.004-0.454 0-3.328-0.606-6.333-1.655-8.358 2.976 1.192 5.167 3.928 5.583 7.218z"></path>
</svg>
