<!-- Generated by IcoMoon.io -->
<svg version="1.1" xmlns="http://www.w3.org/2000/svg" width="24" height="24" viewBox="0 0 24 24">
<title>basic-screenshot-24</title>
<path d="M3 21c-1.105 0-2-0.895-2-2v-14c0-1.105 0.895-2 2-2h18c1.105 0 2 0.895 2 2v14c0 1.105-0.895 2-2 2h-18zM21 5h-18v14h18v-14zM11 7h2c0.72 0 1.327 0.306 1.816 0.788 0.072 0.071 0.138 0.142 0.199 0.212h0.586c1.341 0 2.4 1.134 2.4 2.5v4c0 1.366-1.059 2.5-2.4 2.5h-7.2c-1.341 0-2.4-1.134-2.4-2.5v-4c0-1.366 1.059-2.5 2.4-2.5h0.586c0.060-0.070 0.126-0.141 0.199-0.212 0.489-0.482 1.096-0.788 1.816-0.788zM11 9c-0.129 0-0.267 0.069-0.412 0.212-0.108 0.106-0.182 0.214-0.204 0.256l-0.282 0.532h-1.702c-0.205 0-0.4 0.209-0.4 0.5v4c0 0.291 0.195 0.5 0.4 0.5h7.2c0.205 0 0.4-0.209 0.4-0.5v-4c0-0.291-0.195-0.5-0.4-0.5h-1.702l-0.282-0.532c-0.022-0.042-0.097-0.15-0.204-0.256-0.145-0.143-0.283-0.212-0.412-0.212h-2zM10 12c0-1.105 0.895-2 2-2s2 0.895 2 2c0 1.105-0.895 2-2 2s-2-0.895-2-2z"></path>
</svg>
