<!-- Generated by IcoMoon.io -->
<svg version="1.1" xmlns="http://www.w3.org/2000/svg" width="24" height="24" viewBox="0 0 24 24">
<title>basic-user-24</title>
<path d="M12 23c-6.075 0-11-4.925-11-11s4.925-11 11-11c6.075 0 11 4.925 11 11s-4.925 11-11 11zM19.399 17.125c1.009-1.454 1.601-3.22 1.601-5.125 0-4.971-4.029-9-9-9s-9 4.029-9 9c0 1.904 0.591 3.67 1.601 5.125 1.125-1.486 3.77-2.125 7.399-2.125s6.274 0.638 7.399 2.125zM17.965 18.74c-0.293-1.052-2.395-1.74-5.965-1.74s-5.672 0.687-5.965 1.74c1.588 1.406 3.677 2.26 5.965 2.26s4.377-0.854 5.965-2.26zM12 15c-2.239 0-4-1.573-4-5 0-2.244 1.579-4 4-4 2.414 0 4 1.922 4 4.2 0 3.28-1.782 4.8-4 4.8zM10 10c0 2.269 0.818 3 2 3 1.178 0 2-0.702 2-2.8 0-1.25-0.784-2.2-2-2.2-1.266 0-2 0.816-2 2z"></path>
</svg>
