<!-- Generated by IcoMoon.io -->
<svg version="1.1" xmlns="http://www.w3.org/2000/svg" width="24" height="24" viewBox="0 0 24 24">
<title>basic-pencil-edit-24</title>
<path d="M22 20c0 1.105-0.895 2-2 2h-16c-1.105 0-2-0.895-2-2v-16c0-1.105 0.895-2 2-2h7v2h-7v16h16v-7h2v7zM19.178 2.723l2.101 2.101c0.462 0.462 0.721 1.088 0.721 1.741s-0.259 1.279-0.721 1.741l-8.322 8.318c-0.699 0.806-1.689 1.301-2.823 1.379h-4.135v-1l0.003-3.215c0.085-1.054 0.575-2.035 1.323-2.694l8.369-8.369c0.461-0.464 1.088-0.725 1.742-0.725s1.282 0.261 1.741 0.723zM10.064 16.005c0.534-0.038 1.032-0.286 1.431-0.743l6.062-6.062-2.754-2.754-6.106 6.104c-0.405 0.358-0.656 0.86-0.696 1.318v2.135l2.064 0.002zM16.217 5.031l2.754 2.754 0.894-0.894c0.087-0.087 0.135-0.204 0.135-0.327s-0.049-0.24-0.135-0.327l-2.104-2.104c-0.086-0.086-0.202-0.135-0.324-0.135s-0.238 0.049-0.324 0.135l-0.897 0.896z"></path>
</svg>
