<!-- Generated by IcoMoon.io -->
<svg version="1.1" xmlns="http://www.w3.org/2000/svg" width="24" height="24" viewBox="0 0 24 24">
<title>basic-glasses-24</title>
<path d="M1 13c-0.552 0-1-0.448-1-1s0.448-1 1-1h0.416c0.772-1.766 2.534-3 4.584-3 1.824 0 3.421 0.977 4.294 2.437 0.491-0.279 1.083-0.437 1.706-0.437s1.215 0.158 1.706 0.437c0.873-1.459 2.469-2.437 4.294-2.437 2.050 0 3.812 1.234 4.584 3h0.416c0.552 0 1 0.448 1 1s-0.448 1-1 1c0 2.761-2.239 5-5 5s-5-2.239-5-5c0-0.169 0.008-0.336 0.025-0.5h-0.025c0-0.203-0.395-0.5-1-0.5s-1 0.297-1 0.5h-0.025c0.016 0.165 0.025 0.331 0.025 0.5 0 2.761-2.239 5-5 5s-5-2.239-5-5zM6 16c1.657 0 3-1.343 3-3s-1.343-3-3-3c-1.657 0-3 1.343-3 3s1.343 3 3 3zM21 13c0-1.657-1.343-3-3-3s-3 1.343-3 3c0 1.657 1.343 3 3 3s3-1.343 3-3z"></path>
</svg>
