<!-- Generated by IcoMoon.io -->
<svg version="1.1" xmlns="http://www.w3.org/2000/svg" width="24" height="24" viewBox="0 0 24 24">
<title>basic-layers-24</title>
<path d="M13.157 2.28c-0.673-0.374-1.641-0.374-2.313 0l-8.051 4.473c-1.056 0.587-1.056 1.907 0 2.494l1.356 0.753-1.356 0.753c-1.056 0.587-1.056 1.907 0 2.494l1.356 0.753-1.356 0.753c-1.056 0.587-1.056 1.907 0 2.494l8.051 4.473c0.673 0.374 1.641 0.374 2.313 0l8.051-4.473c1.056-0.587 1.056-1.907 0-2.494l-1.356-0.753 1.356-0.753c1.056-0.587 1.056-1.907 0-2.494l-1.356-0.753 1.356-0.753c1.056-0.587 1.056-1.907 0-2.494l-8.051-4.473zM13.157 13.72l4.636-2.576 1.541 0.856-7.149 3.971c-0.069 0.038-0.302 0.038-0.371 0l-7.149-3.971 1.541-0.856 4.636 2.576c0.673 0.374 1.641 0.374 2.313 0zM6.207 15.144l4.636 2.576c0.673 0.374 1.641 0.374 2.313 0l4.636-2.576 1.541 0.856-7.149 3.971c-0.069 0.038-0.302 0.038-0.371 0l-7.149-3.971 1.541-0.856zM11.815 4.029c0.069-0.038 0.302-0.038 0.371 0l7.149 3.971-7.149 3.971c-0.069 0.038-0.302 0.038-0.371 0l-7.149-3.971 7.149-3.971z"></path>
</svg>
