<!-- Generated by IcoMoon.io -->
<svg version="1.1" xmlns="http://www.w3.org/2000/svg" width="24" height="24" viewBox="0 0 24 24">
<title>basic-camera-no-24</title>
<path d="M2.707 1.293l20 20-1.414 1.414-1.707-1.707h-15.586c-1.657 0-3-1.343-3-3v-9c0-1.657 1.343-3 3-3h0.586l-3.293-3.293 1.414-1.414zM17.586 19l-2.263-2.263c-0.901 0.802-2.074 1.263-3.323 1.263-2.761 0-5-2.239-5-5 0-1.249 0.462-2.422 1.263-3.323l-1.677-1.677h-2.586c-0.552 0-1 0.448-1 1v9c0 0.552 0.448 1 1 1h13.586zM9.681 11.096c-0.434 0.528-0.681 1.195-0.681 1.904 0 1.657 1.343 3 3 3 0.709 0 1.377-0.247 1.904-0.681l-4.223-4.223zM20 6h-2.816c-0.033-0.038-0.074-0.090-0.121-0.155-0.071-0.098-0.15-0.219-0.25-0.382-0.036-0.059-0.135-0.222-0.21-0.345l-0.085-0.141c-0.829-1.356-1.432-1.978-2.518-1.978h-4c-0.593 0-1.032 0.247-1.498 0.691-0.099 0.095-0.437 0.441-0.406 0.409 0 0 1.424 1.404 1.431 1.398-0.017 0.017 0.287-0.294 0.355-0.36 0.028-0.027 0.052-0.049 0.071-0.067 0.067-0.062 0.077-0.072 0.047-0.072h4c0.087 0 0.36 0.282 0.812 1.022l0.073 0.12c0.075 0.124 0.184 0.304 0.226 0.372 0.123 0.199 0.225 0.356 0.328 0.499 0.448 0.623 0.896 0.987 1.561 0.987h3c0.552 0 1 0.448 1 1v9h2v-9c0-1.657-1.343-3-3-3zM19 11c-0.552 0-1-0.448-1-1s0.448-1 1-1 1 0.448 1 1c0 0.552-0.448 1-1 1z"></path>
</svg>
