<!-- Generated by IcoMoon.io -->
<svg version="1.1" xmlns="http://www.w3.org/2000/svg" width="24" height="24" viewBox="0 0 24 24">
<title>basic-toggle-left-24</title>
<path d="M17 5h-10c-3.866 0-7 3.134-7 7s3.134 7 7 7h10c3.866 0 7-3.134 7-7s-3.134-7-7-7zM2 12c0-2.761 2.239-5 5-5h10c2.761 0 5 2.239 5 5s-2.239 5-5 5h-10c-2.761 0-5-2.239-5-5zM7 16c-2.209 0-4-1.791-4-4s1.791-4 4-4 4 1.791 4 4c0 2.209-1.791 4-4 4zM9 12c0 1.105-0.895 2-2 2s-2-0.895-2-2c0-1.105 0.895-2 2-2s2 0.895 2 2z"></path>
</svg>
