<!-- Generated by IcoMoon.io -->
<svg version="1.1" xmlns="http://www.w3.org/2000/svg" width="24" height="24" viewBox="0 0 24 24">
<title>basic-delete-24</title>
<path d="M8 4h13c1.104 0 2 0.895 2 2v12c0 1.105-0.895 2-2 2h-13c-0.505 0-0.733-0.186-1.197-0.682-0.046-0.050-0.094-0.102-0.142-0.156-0.184-0.208-0.348-0.412-0.43-0.521l-5.533-6.64 5.483-6.575c0.104-0.148 0.262-0.358 0.445-0.573 0.073-0.086 0.146-0.167 0.217-0.241 0.386-0.402 0.672-0.611 1.156-0.611zM8.15 6.148c-0.136 0.16-0.26 0.325-0.382 0.492l-4.467 5.36 4.493 5.393c0.083 0.108 0.22 0.279 0.367 0.446 0.036 0.041 0.070 0.079 0.103 0.114 0.016 0.017 0.031 0.033 0.046 0.048h12.69v-12h-12.717c-0.041 0.043-0.086 0.093-0.133 0.148zM16.293 8.293l-2.293 2.293-2.293-2.293-1.414 1.414 2.293 2.293-2.293 2.293 1.414 1.414 2.293-2.293 2.293 2.293 1.414-1.414-2.293-2.293 2.293-2.293-1.414-1.414z"></path>
</svg>
