<!-- Generated by IcoMoon.io -->
<svg version="1.1" xmlns="http://www.w3.org/2000/svg" width="16" height="16" viewBox="0 0 16 16">
<title>call-phone-16</title>
<path d="M7.61 8.388c-0.542-0.542-0.989-1.128-1.227-1.602-0.078-0.156-0.126-0.287-0.148-0.38l0.48-0.481c0.105-0.105 0.156-0.157 0.221-0.226 0.139-0.146 0.254-0.279 0.356-0.416 0.458-0.617 0.628-1.288 0.086-1.893-1.026-1.435-1.716-2.322-2.158-2.759-0.913-0.902-2.4-0.781-3.192-0.001-0.382 0.377-0.512 0.507-0.905 0.905-2.292 2.293-0.925 7.035 2.687 10.651s8.353 4.983 10.652 2.684c0.361-0.348 0.669-0.656 0.913-0.914 0.772-0.816 0.889-2.239-0.006-3.169-0.425-0.442-1.272-1.099-2.768-2.17-0.547-0.485-1.188-0.38-1.757-0.007-0.256 0.168-0.437 0.333-0.776 0.672l-0.48 0.48c-0.093-0.021-0.224-0.070-0.379-0.148-0.474-0.238-1.060-0.685-1.601-1.227zM10.888 11.293l0.596-0.596c0.102-0.102 0.182-0.181 0.249-0.242 1.207 0.87 1.913 1.423 2.198 1.72 0.097 0.101 0.079 0.319-0.006 0.409-0.221 0.233-0.508 0.521-0.862 0.862-1.305 1.305-4.902 0.267-7.837-2.67-2.936-2.939-3.974-6.537-2.682-7.829 0.39-0.397 0.513-0.519 0.889-0.889 0.060-0.059 0.305-0.079 0.384-0.001 0.308 0.304 0.885 1.039 1.728 2.209-0.017 0.019-0.036 0.038-0.055 0.059-0.051 0.053-0.093 0.097-0.187 0.191l-0.596 0.596c-1.147 1.147-0.237 2.965 1.49 4.693 1.725 1.727 3.545 2.638 4.692 1.491z"></path>
</svg>
