<!-- Generated by IcoMoon.io -->
<svg version="1.1" xmlns="http://www.w3.org/2000/svg" width="24" height="24" viewBox="0 0 24 24">
<title>call-call-decline-24</title>
<path d="M11.997 12c0.927 0 1.812 0.118 2.43 0.324 0.27 0.090 0.465 0.189 0.569 0.276v0.902c0 0.253 0.002 0.38 0.009 0.543 0.055 1.14 0.344 1.911 1.396 1.954 2.015 0.335 3.361 0.502 4.093 0.502 1.456 0 2.5-1.31 2.5-2.5 0-0.135 0.001-0.244 0.003-0.491 0.002-0.25 0.003-0.362 0.003-0.504 0-0.194-0.002-0.366-0.006-0.533 0-3.696-5.025-6.472-10.996-6.473-5.971-0.001-10.997 2.776-10.997 6.5v1.5c0 1.197 1.042 2.5 2.5 2.5 0.732 0 2.080-0.168 4.098-0.503 0.767-0.044 1.167-0.601 1.317-1.32 0.070-0.339 0.083-0.621 0.083-1.177v-0.9c0.104-0.087 0.3-0.186 0.569-0.276 0.618-0.206 1.503-0.324 2.429-0.324zM6.998 12.5v1c0 0.261-0.004 0.438-0.015 0.571-1.751 0.286-2.928 0.429-3.484 0.429-0.242 0-0.5-0.322-0.5-0.5v-1.5c0-2.3 3.984-4.501 8.997-4.5 5.014 0.001 8.997 2.201 8.997 4.5 0.004 0.173 0.006 0.328 0.006 0.505 0 0.134-0.001 0.241-0.003 0.486-0.002 0.253-0.003 0.366-0.003 0.509 0 0.172-0.261 0.5-0.5 0.5-0.556 0-1.733-0.143-3.483-0.429-0.003-0.038-0.006-0.079-0.008-0.124-0.006-0.121-0.007-0.225-0.007-0.448v-1c0-1.766-2.204-2.499-4.999-2.5-2.793-0.001-4.999 0.734-4.999 2.5z"></path>
</svg>
