<!-- Generated by IcoMoon.io -->
<svg version="1.1" xmlns="http://www.w3.org/2000/svg" width="24" height="24" viewBox="0 0 24 24">
<title>call-call-no-24</title>
<path d="M1.293 21.293l1.414 1.414 4.831-4.831c4.435 4.026 9.902 5.423 12.566 2.758 0.465-0.448 0.858-0.842 1.169-1.17 0.895-0.946 1.031-2.604-0.006-3.682-0.532-0.552-1.617-1.394-3.534-2.765-0.587-0.525-1.284-0.411-1.922 0.008-0.307 0.201-0.531 0.405-0.952 0.828l-0.766 0.767c-0.082 0.082-1.003-0.356-2.059-1.238l10.674-10.674-1.414-1.414-20 20zM10.61 14.804l-1.656 1.656c3.724 3.342 8.044 4.453 9.75 2.747 0.458-0.441 0.83-0.814 1.117-1.118 0.207-0.219 0.245-0.672 0.006-0.919-0.397-0.413-1.37-1.171-3.050-2.377-0.122 0.099-0.273 0.242-0.505 0.474l-0.766 0.767c-1.152 1.153-3.021 0.417-4.896-1.229zM9.374 9.899c-0.036 0.036 0.029 0.235 0.189 0.538l-1.471 1.471c-0.805-1.341-0.979-2.576-0.131-3.423l0.766-0.766c0.123-0.123 0.179-0.18 0.246-0.25 0.092-0.096 0.167-0.181 0.227-0.256-1.165-1.623-1.958-2.638-2.385-3.060-0.221-0.218-0.714-0.178-0.896 0.001-0.484 0.476-0.642 0.635-1.144 1.145-1.48 1.481-0.816 4.972 1.608 8.318l-1.43 1.43c-3.104-4.134-3.979-8.773-1.597-11.157 0.504-0.512 0.67-0.678 1.16-1.161 0.913-0.9 2.648-1.041 3.703 0.001 0.555 0.548 1.439 1.686 2.754 3.526 0.586 0.65 0.4 1.385-0.118 2.084-0.123 0.166-0.264 0.329-0.435 0.508-0.082 0.086-0.146 0.151-0.28 0.285l-0.767 0.767z"></path>
</svg>
