<!-- Generated by IcoMoon.io -->
<svg version="1.1" xmlns="http://www.w3.org/2000/svg" width="24" height="24" viewBox="0 0 24 24">
<title>call-call-hash-24</title>
<path d="M10.857 8.338c0.518-0.698 0.704-1.434 0.118-2.084-1.315-1.84-2.199-2.978-2.754-3.526-1.055-1.042-2.789-0.901-3.703-0.001-0.491 0.483-0.657 0.649-1.16 1.161-2.806 2.807-1.095 8.741 3.454 13.294 4.548 4.552 10.481 6.264 13.293 3.451 0.465-0.448 0.858-0.842 1.169-1.17 0.895-0.946 1.031-2.604-0.006-3.681-0.531-0.552-1.617-1.394-3.534-2.766-0.587-0.525-1.284-0.411-1.922 0.008-0.307 0.201-0.531 0.405-0.952 0.828l-0.766 0.767c-0.101 0.101-1.471-0.585-2.802-1.917s-2.017-2.703-1.916-2.803l0.767-0.767c0.134-0.134 0.198-0.199 0.28-0.285 0.171-0.18 0.313-0.343 0.435-0.508zM15.506 16.033l0.766-0.767c0.232-0.232 0.383-0.375 0.505-0.474 1.68 1.206 2.652 1.965 3.050 2.377 0.239 0.248 0.201 0.7-0.006 0.919-0.287 0.303-0.66 0.676-1.117 1.118-1.818 1.819-6.608 0.437-10.479-3.438-3.872-3.876-5.253-8.666-3.449-10.472 0.502-0.51 0.661-0.668 1.144-1.145 0.181-0.179 0.675-0.219 0.896-0.001 0.427 0.422 1.219 1.436 2.385 3.060-0.060 0.075-0.136 0.16-0.227 0.256-0.067 0.071-0.123 0.128-0.246 0.25l-0.766 0.766c-1.303 1.303-0.193 3.521 1.916 5.632 2.108 2.11 4.326 3.221 5.629 1.917zM18 12l0.2-2h-2l-0.2 2h-2l0.2-2h-2.2l0.2-2h2.2l0.2-2h-1.6l0.2-2h1.6l0.2-2h2l-0.2 2h2l0.2-2h2l-0.2 2h2.2l-0.2 2h-2.2l-0.2 2h1.6l-0.2 2h-1.6l-0.2 2h-2zM18.6 6h-2l-0.2 2h2l0.2-2z"></path>
</svg>
