<!-- Generated by IcoMoon.io -->
<svg version="1.1" xmlns="http://www.w3.org/2000/svg" width="24" height="24" viewBox="0 0 24 24">
<title>call-call-missed-24</title>
<path d="M7 8v-2.586l5 5 6.707-6.707-1.414-1.414-5.293 5.293-3.586-3.586h2.586v-2h-6v6h2zM14.427 17.324c-0.618-0.206-1.503-0.324-2.43-0.324s-1.812 0.118-2.429 0.324c-0.27 0.090-0.465 0.189-0.569 0.276v0.9c0 0.556-0.013 0.838-0.083 1.177-0.15 0.719-0.55 1.276-1.317 1.32-2.018 0.335-3.366 0.503-4.098 0.503-1.457 0-2.5-1.303-2.5-2.5v-1.5c0-3.724 5.027-6.501 10.997-6.5 5.972 0.001 10.997 2.777 10.996 6.473 0.005 0.166 0.006 0.339 0.006 0.533 0 0.141-0.001 0.253-0.003 0.504-0.002 0.247-0.003 0.356-0.003 0.491 0 1.19-1.044 2.5-2.5 2.5-0.732 0-2.078-0.167-4.093-0.502-1.052-0.043-1.341-0.814-1.396-1.954-0.008-0.163-0.009-0.29-0.009-0.543v-0.902c-0.104-0.087-0.3-0.186-0.569-0.276zM6.998 18.5v-1c0-1.766 2.206-2.501 4.999-2.5 2.794 0.001 4.999 0.734 4.999 2.5v1c0 0.223 0.001 0.327 0.007 0.448 0.002 0.045 0.005 0.086 0.008 0.124 1.75 0.286 2.927 0.429 3.483 0.429 0.238 0 0.5-0.328 0.5-0.5 0-0.143 0.001-0.256 0.003-0.509 0.002-0.244 0.003-0.352 0.003-0.486 0-0.177-0.002-0.332-0.006-0.505 0-2.299-3.983-4.499-8.997-4.5-5.013-0.001-8.997 2.2-8.997 4.5v1.5c0 0.178 0.257 0.5 0.5 0.5 0.556 0 1.733-0.143 3.484-0.429 0.011-0.134 0.015-0.311 0.015-0.571z"></path>
</svg>
