<!-- Generated by IcoMoon.io -->
<svg version="1.1" xmlns="http://www.w3.org/2000/svg" width="24" height="24" viewBox="0 0 24 24">
<title>call-call-incoming-24</title>
<path d="M10.974 6.254c0.586 0.65 0.4 1.385-0.118 2.084-0.123 0.166-0.264 0.329-0.435 0.508-0.082 0.086-0.146 0.151-0.28 0.285l-0.767 0.767c-0.1 0.1 0.585 1.471 1.916 2.803s2.701 2.018 2.802 1.917l0.766-0.767c0.422-0.422 0.645-0.626 0.953-0.828 0.638-0.419 1.335-0.533 1.922-0.008 1.917 1.371 3.003 2.213 3.534 2.766 1.037 1.077 0.901 2.736 0.006 3.681-0.31 0.328-0.704 0.722-1.169 1.17-2.811 2.813-8.745 1.101-13.293-3.451-4.549-4.553-6.26-10.487-3.454-13.294 0.504-0.512 0.67-0.678 1.16-1.161 0.913-0.9 2.648-1.041 3.703 0.001 0.555 0.548 1.439 1.686 2.754 3.526zM16.272 15.266l-0.766 0.767c-1.303 1.303-3.521 0.192-5.629-1.917-2.109-2.111-3.219-4.329-1.916-5.632l0.766-0.766c0.123-0.123 0.179-0.18 0.246-0.25 0.092-0.096 0.167-0.181 0.227-0.256-1.165-1.623-1.958-2.638-2.385-3.060-0.221-0.218-0.714-0.178-0.896 0.001-0.484 0.476-0.642 0.635-1.144 1.145-1.804 1.805-0.423 6.596 3.449 10.472 3.871 3.875 8.661 5.256 10.479 3.438 0.458-0.441 0.831-0.815 1.117-1.118 0.207-0.219 0.244-0.672 0.006-0.919-0.397-0.413-1.37-1.171-3.050-2.378-0.122 0.099-0.273 0.241-0.505 0.474zM20 11v-2h-3.586l5.293-5.293-1.414-1.414-5.293 5.293v-3.586h-2v7h7z"></path>
</svg>
