<!-- Generated by IcoMoon.io -->
<svg version="1.1" xmlns="http://www.w3.org/2000/svg" width="24" height="24" viewBox="0 0 24 24">
<title>call-call-voicemail-24</title>
<path d="M10 15h3.999c-0.628-0.836-1-1.874-1-3 0-2.761 2.239-5 5-5s5 2.239 5 5c0 2.761-2.239 5-5 5h-12c-2.761 0-5-2.239-5-5s2.239-5 5-5c2.761 0 5 2.239 5 5 0 1.126-0.372 2.164-1 3zM6 15c1.657 0 3-1.343 3-3s-1.343-3-3-3c-1.657 0-3 1.343-3 3s1.343 3 3 3zM21 12c0-1.657-1.343-3-3-3s-3 1.343-3 3c0 1.657 1.343 3 3 3s3-1.343 3-3z"></path>
</svg>
