<!-- Generated by IcoMoon.io -->
<svg version="1.1" xmlns="http://www.w3.org/2000/svg" width="16" height="16" viewBox="0 0 16 16">
<title>camera-16</title>
<path d="M4.532 1.555l0-0 0.061-0.095c0.636-0.991 1.113-1.46 2.007-1.46h2.8c0.894 0 1.371 0.469 2.007 1.46l0.061 0.095c0.052 0.082 0.12 0.189 0.145 0.227 0.060 0.093 0.107 0.162 0.149 0.218h1.839c1.341 0 2.4 1.134 2.4 2.5v8c0 1.366-1.059 2.5-2.4 2.5h-11.2c-1.341 0-2.4-1.134-2.4-2.5v-8c0-1.366 1.059-2.5 2.4-2.5h1.839c0.041-0.056 0.089-0.125 0.149-0.218 0.025-0.038 0.093-0.145 0.145-0.227zM6.276 2.54l-0.049 0.077c-0.053 0.083-0.131 0.205-0.161 0.253-0.090 0.139-0.166 0.249-0.244 0.352-0.366 0.484-0.745 0.778-1.322 0.778h-2.1c-0.205 0-0.4 0.209-0.4 0.5v8c0 0.291 0.195 0.5 0.4 0.5h11.2c0.205 0 0.4-0.209 0.4-0.5v-8c0-0.291-0.195-0.5-0.4-0.5h-2.1c-0.577 0-0.956-0.293-1.322-0.778-0.078-0.103-0.154-0.213-0.244-0.352-0.030-0.047-0.109-0.17-0.161-0.253l-0-0-0.049-0.077c-0.171-0.266-0.284-0.419-0.381-0.515-0.016-0.016-2.67-0.025-2.67-0.025-0.113 0.121-0.227 0.274-0.397 0.54zM4 8c0 2.209 1.791 4 4 4s4-1.791 4-4c0-2.209-1.791-4-4-4s-4 1.791-4 4zM8 10c1.105 0 2-0.895 2-2s-0.895-2-2-2c-1.105 0-2 0.895-2 2s0.895 2 2 2zM13 5.5c0 0.276-0.224 0.5-0.5 0.5s-0.5-0.224-0.5-0.5c0-0.276 0.224-0.5 0.5-0.5s0.5 0.224 0.5 0.5z"></path>
</svg>
