<!-- Generated by IcoMoon.io -->
<svg version="1.1" xmlns="http://www.w3.org/2000/svg" width="24" height="24" viewBox="0 0 24 24">
<title>chatting-question-24</title>
<path d="M12 22c-5.523 0-10-4.477-10-10s4.477-10 10-10c5.523 0 10 4.477 10 10 0 1.725-0.438 3.387-1.258 4.86l0.353 4.235-4.235-0.353c-1.473 0.82-3.135 1.258-4.86 1.258zM16.115 18.862l0.277-0.166 2.514 0.21-0.21-2.514 0.166-0.277c0.741-1.233 1.138-2.643 1.138-4.115 0-4.418-3.582-8-8-8s-8 3.582-8 8c0 4.418 3.582 8 8 8 1.472 0 2.882-0.397 4.115-1.138zM12 16.998c-0.552 0-1-0.448-1-1s0.448-1 1-1c0.552 0 1 0.448 1 1s-0.448 1-1 1zM11 14v-1c0-0.737 0.383-1.299 0.978-1.771 0.179-0.142 0.233-0.177 0.556-0.383 0.288-0.183 0.466-0.498 0.466-0.846 0-0.552-0.448-1-1-1s-1 0.448-1 1h-2c0-1.657 1.343-3 3-3s3 1.343 3 3c0 1.040-0.534 1.989-1.395 2.535-0.253 0.16-0.284 0.181-0.384 0.261-0.117 0.093-0.179 0.161-0.205 0.19-0.011 0.012-0.015 0.017-0.015 0.015v1h-2z"></path>
</svg>
