<!-- Generated by IcoMoon.io -->
<svg version="1.1" xmlns="http://www.w3.org/2000/svg" width="16" height="16" viewBox="0 0 16 16">
<title>clear-X-xs-16</title>
<path fill="#a3a4a8" d="M2 8c0-3.314 2.686-6 6-6 1.591 0 3.117 0.632 4.243 1.757s1.757 2.651 1.757 4.243c0 3.314-2.686 6-6 6s-6-2.686-6-6zM10.614 10.636c0.237-0.237 0.237-0.62 0-0.857l-1.757-1.779 1.779-1.757c0.237-0.237 0.237-0.62 0-0.857s-0.62-0.237-0.857 0l-1.779 1.757-1.757-1.779c-0.237-0.237-0.62-0.237-0.857 0s-0.237 0.62 0 0.857l1.757 1.779-1.779 1.757c-0.117 0.112-0.184 0.267-0.184 0.429s0.066 0.317 0.184 0.429c0.112 0.117 0.267 0.184 0.429 0.184s0.317-0.066 0.429-0.184l1.779-1.757 1.757 1.779c0.237 0.237 0.62 0.237 0.857 0z"></path>
</svg>
