<!-- Generated by IcoMoon.io -->
<svg version="1.1" xmlns="http://www.w3.org/2000/svg" width="24" height="24" viewBox="0 0 24 24">
<title>connection-wi-fi-no-24</title>
<path d="M2.707 1.293l-1.414 1.414 3.991 3.991c-1.152 0.627-2.234 1.428-3.209 2.402-0.025 0.025-0.050 0.050-0.075 0.075l1.414 1.414c0.025-0.025 0.050-0.050 0.075-0.075 0.983-0.983 2.095-1.76 3.281-2.331l1.476 1.476c-1.273 0.487-2.466 1.243-3.492 2.269l1.414 1.414c1.052-1.052 2.324-1.75 3.668-2.093l1.755 1.755c-1.457 0.056-2.897 0.641-4.009 1.753l1.414 1.414c1.562-1.562 4.095-1.562 5.657 0l0.053-0.052 6.588 6.588 1.414-1.414-20-20zM13.327 9.113l4.192 4.192 1.376-1.376c-1.569-1.569-3.53-2.508-5.568-2.816zM9.444 5.229l1.793 1.793c3.279-0.201 6.625 0.938 9.147 3.417l1.414-1.414c-3.374-3.324-8.016-4.59-12.355-3.796zM13.238 17.586c-0.781-0.781-2.047-0.781-2.828 0l1.414 1.414 1.414-1.414z"></path>
</svg>
