<!-- Generated by IcoMoon.io -->
<svg version="1.1" xmlns="http://www.w3.org/2000/svg" width="24" height="24" viewBox="0 0 24 24">
<title>connection-broadcasting-24</title>
<path d="M3.891 2.567l1.474 1.351c-1.469 1.602-2.366 3.737-2.366 6.082s0.897 4.48 2.366 6.082l-1.474 1.352c-1.795-1.958-2.891-4.567-2.891-7.433s1.096-5.475 2.891-7.433zM20.109 2.567c1.796 1.958 2.891 4.567 2.891 7.433s-1.096 5.475-2.891 7.433l-1.474-1.351c1.469-1.602 2.366-3.737 2.366-6.082s-0.897-4.48-2.366-6.082l1.474-1.351zM8.721 22l0.667-2h5.225l0.667 2h2.108l-3.286-9.859c0.555-0.544 0.899-1.303 0.899-2.141 0-1.657-1.343-3-3-3s-3 1.343-3 3c0 0.839 0.344 1.597 0.899 2.141l-3.286 9.859h2.108zM10.054 18l0.667-2h2.558l0.667 2h-3.892zM12.613 14l-0.338-1.012c-0.091 0.008-0.182 0.012-0.275 0.012s-0.184-0.004-0.275-0.012l-0.338 1.012h1.225zM13 10c0 0.552-0.448 1-1 1s-1-0.448-1-1c0-0.552 0.448-1 1-1s1 0.448 1 1zM19 10c0-1.824-0.697-3.484-1.84-4.73l-1.474 1.351c0.816 0.89 1.314 2.076 1.314 3.379s-0.498 2.489-1.314 3.379l1.474 1.351c1.143-1.246 1.84-2.907 1.84-4.73zM8.314 6.621l-1.474-1.351c-1.143 1.246-1.84 2.907-1.84 4.73s0.697 3.484 1.84 4.73l1.474-1.351c-0.816-0.89-1.314-2.076-1.314-3.379s0.498-2.489 1.314-3.379z"></path>
</svg>
