<!-- Generated by IcoMoon.io -->
<svg version="1.1" xmlns="http://www.w3.org/2000/svg" width="24" height="24" viewBox="0 0 24 24">
<title>connection-broadcast-24</title>
<path d="M4.408 4.040l1.478 1.355c-1.775 1.644-2.886 3.994-2.886 6.604s1.111 4.961 2.886 6.605l-1.478 1.355c-2.1-2.003-3.408-4.829-3.408-7.96s1.308-5.956 3.408-7.96zM9 12c0 1.657 1.343 3 3 3s3-1.343 3-3c0-1.657-1.343-3-3-3s-3 1.343-3 3zM13 12c0 0.552-0.448 1-1 1s-1-0.448-1-1c0-0.552 0.448-1 1-1s1 0.448 1 1zM8.853 8.115l-1.486-1.362c-1.451 1.283-2.367 3.158-2.367 5.247s0.915 3.965 2.367 5.247l1.486-1.362c-1.13-0.917-1.853-2.317-1.853-3.885s0.722-2.969 1.853-3.885zM19.592 4.040c2.1 2.003 3.408 4.829 3.408 7.96s-1.308 5.956-3.408 7.96l-1.478-1.355c1.775-1.644 2.886-3.994 2.886-6.605s-1.111-4.961-2.886-6.604l1.478-1.355zM19 12c0-2.089-0.915-3.965-2.367-5.247l-1.486 1.362c1.13 0.917 1.852 2.317 1.852 3.885s-0.722 2.968-1.852 3.885l1.486 1.362c1.452-1.283 2.367-3.158 2.367-5.247z"></path>
</svg>
