<!-- Generated by IcoMoon.io -->
<svg version="1.1" xmlns="http://www.w3.org/2000/svg" width="24" height="24" viewBox="0 0 24 24">
<title>connection-wi-fi-24</title>
<path d="M2.075 9.101c-0.025 0.025-0.050 0.050-0.075 0.075l1.414 1.414c0.025-0.025 0.050-0.050 0.075-0.075 4.661-4.661 12.203-4.686 16.895-0.075l1.414-1.414c-5.473-5.392-14.281-5.367-19.723 0.075zM4.753 11.929c3.905-3.905 10.237-3.905 14.142 0l-1.414 1.414c-3.124-3.124-8.19-3.124-11.314 0l-1.414-1.414zM16.067 14.757c-2.343-2.343-6.142-2.343-8.485 0l1.414 1.414c1.562-1.562 4.095-1.562 5.657 0l1.414-1.414zM13.238 17.586c-0.781-0.781-2.047-0.781-2.828 0l1.414 1.414 1.414-1.414z"></path>
</svg>
