<!-- Generated by IcoMoon.io -->
<svg version="1.1" xmlns="http://www.w3.org/2000/svg" width="16" height="16" viewBox="0 0 16 16">
<title>eye-16</title>
<path d="M13.698 4.852c-1.503-1.767-3.401-2.852-5.698-2.852s-4.194 1.085-5.698 2.852c-0.878 1.032-1.443 2.059-1.731 2.776l-0.149 0.372 0.149 0.372c0.287 0.717 0.852 1.744 1.73 2.776 1.503 1.768 3.401 2.852 5.699 2.852s4.196-1.085 5.699-2.852c0.877-1.032 1.443-2.059 1.73-2.776l0.149-0.372-0.149-0.372c-0.287-0.717-0.853-1.744-1.731-2.776zM12.174 6.148c0.418 0.492 0.774 1.023 1.066 1.553 0.060 0.11 0.113 0.21 0.158 0.299-0.045 0.089-0.098 0.189-0.158 0.299-0.292 0.53-0.648 1.061-1.066 1.553-1.154 1.358-2.537 2.148-4.175 2.148s-3.021-0.79-4.175-2.148c-0.418-0.492-0.774-1.023-1.066-1.553-0.060-0.11-0.113-0.21-0.158-0.299 0.045-0.089 0.098-0.189 0.158-0.299 0.292-0.53 0.648-1.061 1.067-1.553 1.155-1.358 2.537-2.148 4.174-2.148s3.019 0.79 4.174 2.148zM8 11c-1.657 0-3-1.343-3-3s1.343-3 3-3c1.657 0 3 1.343 3 3s-1.343 3-3 3zM9 8c0 0.552-0.448 1-1 1s-1-0.448-1-1c0-0.552 0.448-1 1-1s1 0.448 1 1z"></path>
</svg>
