<!-- Generated by IcoMoon.io -->
<svg version="1.1" xmlns="http://www.w3.org/2000/svg" width="24" height="24" viewBox="0 0 24 24">
<title>file-folder-music-24</title>
<path d="M23 7c0-1.105-0.895-2-2-2h-8.998c0.040-0 0.027-0.016-0.061-0.123-0.022-0.026-0.048-0.058-0.079-0.096s-0.117-0.149-0.192-0.246c-0.054-0.069-0.102-0.131-0.122-0.156-0.716-0.903-1.429-1.379-2.549-1.379h-6c-1.105 0-2 0.895-2 2v14c0 1.105 0.895 2 2 2h18c1.105 0 2-0.895 2-2v-12zM21 7v12h-18v-14h6c0.384 0 0.607 0.149 0.982 0.621 0.012 0.015 0.045 0.058 0.088 0.113 0.080 0.104 0.191 0.246 0.237 0.303 0.503 0.623 0.971 0.96 1.689 0.963h9.005zM12 13.14v-5.009l4.555 3.036-1.109 1.664-1.445-0.964v3.631c0 1.453-1.395 2.5-3 2.5s-3-1.047-3-2.5 1.395-2.5 3-2.5c0.347 0 0.684 0.049 1 0.141zM11 16c0.605 0 1-0.297 1-0.5s-0.395-0.5-1-0.5c-0.605 0-1 0.297-1 0.5s0.395 0.5 1 0.5z"></path>
</svg>
