<!-- Generated by IcoMoon.io -->
<svg version="1.1" xmlns="http://www.w3.org/2000/svg" width="24" height="24" viewBox="0 0 24 24">
<title>file-folder-cloud-24</title>
<path d="M21 5c1.105 0 2 0.895 2 2v12c0 1.105-0.895 2-2 2h-18c-1.105 0-2-0.895-2-2v-14c0-1.105 0.895-2 2-2h6c1.12 0 1.833 0.475 2.549 1.379 0.020 0.025 0.068 0.087 0.122 0.156l0 0c0.075 0.097 0.161 0.208 0.192 0.246s0.057 0.070 0.079 0.096v0c0.088 0.107 0.101 0.122 0.061 0.123h8.998zM21 19v-12h-9.005c-0.718-0.004-1.186-0.34-1.689-0.963-0.045-0.056-0.156-0.199-0.237-0.303l-0-0c-0.042-0.054-0.076-0.098-0.087-0.112-0.375-0.473-0.597-0.621-0.982-0.621h-6v14h18zM16.059 10.76c-0.663-1.615-2.22-2.76-4.059-2.76-1.453 0-2.76 0.723-3.566 1.862-1.424 0.495-2.434 1.873-2.434 3.471 0 2.007 1.593 3.667 3.6 3.667h5.2c1.786 0 3.2-1.473 3.2-3.25 0-1.331-0.793-2.491-1.941-2.99zM14.8 15h-5.2c-0.884 0-1.6-0.746-1.6-1.667s0.716-1.667 1.6-1.667c0.045 0 0.090 0.002 0.135 0.006 0.328-0.974 1.218-1.673 2.265-1.673 1.326 0 2.4 1.119 2.4 2.5 0 0.024-0 0.048-0.001 0.072 0.125-0.046 0.26-0.072 0.401-0.072 0.663 0 1.2 0.56 1.2 1.25s-0.537 1.25-1.2 1.25z"></path>
</svg>
