<!-- Generated by IcoMoon.io -->
<svg version="1.1" xmlns="http://www.w3.org/2000/svg" width="24" height="24" viewBox="0 0 24 24">
<title>file-folder-opened-24</title>
<path d="M19 5h-6.998c0.040-0 0.027-0.016-0.061-0.123v-0c-0.022-0.026-0.048-0.058-0.079-0.096s-0.116-0.148-0.192-0.246l-0-0c-0.054-0.069-0.102-0.131-0.122-0.156-0.716-0.903-1.429-1.379-2.549-1.379h-6c-1.105 0-2 0.895-2 2v14c0 1.105 0.895 2 2 2h16c1.062 0 1.93-0.827 1.996-1.872l1.98-8.911 0.024-0.217c0-1.105-0.895-2-2-2v-1c0-1.105-0.895-2-2-2zM19 7v1h-14c-1.167 0-1.69 0.621-1.971 1.76l-0.029 0.131v-4.891h6c0.384 0 0.607 0.149 0.982 0.621 0.012 0.015 0.045 0.058 0.087 0.112l0 0c0.080 0.104 0.191 0.246 0.237 0.303 0.503 0.623 0.971 0.96 1.689 0.963h7.005zM19 19h-15.976l1.952-8.783c0.024-0.096 0.044-0.167 0.060-0.217h15.939l-1.952 8.783-0.024 0.217z"></path>
</svg>
