<!-- Generated by IcoMoon.io -->
<svg version="1.1" xmlns="http://www.w3.org/2000/svg" width="24" height="24" viewBox="0 0 24 24">
<title>file-folder-checked-24</title>
<path d="M21 5c1.105 0 2 0.895 2 2v12c0 1.105-0.895 2-2 2h-18c-1.105 0-2-0.895-2-2v-14c0-1.105 0.895-2 2-2h6c1.12 0 1.833 0.475 2.549 1.379 0.020 0.025 0.068 0.087 0.122 0.156l0 0c0.075 0.097 0.161 0.208 0.192 0.246s0.057 0.070 0.079 0.096v0c0.088 0.107 0.101 0.122 0.061 0.123h8.998zM21 19v-12h-9.005c-0.718-0.004-1.186-0.34-1.689-0.963-0.045-0.056-0.156-0.199-0.237-0.303l-0-0c-0.042-0.054-0.076-0.098-0.087-0.112-0.375-0.473-0.597-0.621-0.982-0.621h-6v14h18zM15.293 9.293l-4.293 4.293-2.293-2.293-1.414 1.414 3.707 3.707 5.707-5.707-1.414-1.414z"></path>
</svg>
