<!-- Generated by IcoMoon.io -->
<svg version="1.1" xmlns="http://www.w3.org/2000/svg" width="24" height="24" viewBox="0 0 24 24">
<title>file-file-code-24</title>
<path d="M5 1h10.414l5.586 5.586v14.414c0 1.105-0.895 2-2 2h-14c-1.105 0-2-0.895-2-2v-18c0-1.105 0.895-2 2-2zM13 3h-8v18h14v-12h-4c-1.105 0-2-0.895-2-2v-4zM15 3.414v3.586h3.586l-3.586-3.586zM11.707 15.293l-1.414 1.414-3.707-3.707 3.707-3.707 1.414 1.414-2.293 2.293 2.293 2.293zM17.414 15l-3.707-3.707-1.414 1.414 2.293 2.293-2.293 2.293 1.414 1.414 3.707-3.707z"></path>
</svg>
