<!-- Generated by IcoMoon.io -->
<svg version="1.1" xmlns="http://www.w3.org/2000/svg" width="24" height="24" viewBox="0 0 24 24">
<title>file-folder-create-24</title>
<path d="M23 7v8h-2v-4h-18v8h11v2h-11c-1.105 0-2-0.895-2-2v-14c0-1.105 0.895-2 2-2h6c1.12 0 1.833 0.475 2.549 1.379 0.020 0.025 0.068 0.087 0.122 0.156l0 0c0.075 0.097 0.161 0.208 0.192 0.246s0.057 0.070 0.079 0.096v0c0.088 0.107 0.101 0.122 0.061 0.123h8.998c1.105 0 2 0.895 2 2zM21 9v-2h-9.005c-0.718-0.004-1.186-0.34-1.689-0.963-0.045-0.056-0.156-0.199-0.237-0.303l-0-0-0.001-0.001c-0.042-0.054-0.075-0.097-0.087-0.112-0.375-0.473-0.597-0.621-0.982-0.621h-6v4h18zM17 21h2v2h2v-2h2v-2h-2v-2h-2v2h-2v2z"></path>
</svg>
