<!-- Generated by IcoMoon.io -->
<svg version="1.1" xmlns="http://www.w3.org/2000/svg" width="24" height="24" viewBox="0 0 24 24">
<title>file-clipboard-text-24</title>
<path d="M8.996 2h-0.996c-1.105 0-2 0.895-2 2h-1c-1.105 0-2 0.895-2 2v15c0 1.105 0.895 2 2 2h14c1.105 0 2-0.895 2-2v-15c0-1.105-0.895-2-2-2h-1c0-1.105-0.895-2-2-2h-0.996c-0.752-0.637-1.843-1-3.004-1s-2.252 0.363-3.004 1zM16 7c0.74 0 1.387-0.402 1.732-1h1.268v15h-14v-15h1.268c0.346 0.598 0.992 1 1.732 1h8zM8 16h6v-2h-6v2zM8 10h8v2h-8v-2zM9.858 4l0.299-0.345c0.329-0.379 1.033-0.655 1.843-0.655s1.515 0.277 1.843 0.655l0.299 0.345h1.858v1h-8v-1h1.858z"></path>
</svg>
