<!-- Generated by IcoMoon.io -->
<svg version="1.1" xmlns="http://www.w3.org/2000/svg" width="24" height="24" viewBox="0 0 24 24">
<title>finance-control-point-duplicate-deposit-24</title>
<path d="M16 8h-2v3h-3v2h3v3h2v-3h3v-2h-3v-3zM2 12c0-2.79 1.64-5.2 4.010-6.32v-2.16c-3.49 1.24-6.010 4.57-6.010 8.48s2.52 7.24 6.010 8.48v-2.16c-2.37-1.12-4.010-3.53-4.010-6.32zM15 3c-4.96 0-9 4.040-9 9s4.040 9 9 9c4.96 0 9-4.040 9-9s-4.040-9-9-9zM15 19c-3.86 0-7-3.14-7-7s3.14-7 7-7c3.86 0 7 3.14 7 7s-3.14 7-7 7z"></path>
</svg>
