<!-- Generated by IcoMoon.io -->
<svg version="1.1" xmlns="http://www.w3.org/2000/svg" width="24" height="24" viewBox="0 0 24 24">
<title>finance-bitcoin-24</title>
<path d="M13 4.064c2.414 0.323 4 1.857 4 4.436 0 1.307-0.407 2.345-1.124 3.094 1.324 0.708 2.124 2.037 2.124 3.906 0 2.902-1.927 4.5-4.75 4.5h-0.25v2h-2v-2h-2v2h-2v-2h-2v-2h2v-12h-2v-2h2v-2h2v2h2v-2h2v2.064zM12 6h-3v5h3c1.956 0 3-0.811 3-2.5s-1.044-2.5-3-2.5zM9 13v5h4.25c1.792 0 2.75-0.794 2.75-2.5s-0.958-2.5-2.75-2.5h-4.25z"></path>
</svg>
