<!-- Generated by IcoMoon.io -->
<svg version="1.1" xmlns="http://www.w3.org/2000/svg" width="16" height="16" viewBox="0 0 16 16">
<title>finance-eth-gray-16</title>
<path fill="#eceff0" d="M16 8c0 4.418-3.582 8-8 8s-8-3.582-8-8c0-4.418 3.582-8 8-8s8 3.582 8 8z"></path>
<path fill="#343434" d="M7.998 1.818l-0.079 0.284v8.242l0.079 0.084 3.635-2.261-3.635-6.348z"></path>
<path fill="#8c8c8c" d="M7.999 1.818l-3.635 6.348 3.635 2.261v-8.609z"></path>
<path fill="#3c3c3b" d="M7.998 11.152l-0.045 0.057v2.936l0.045 0.137 3.637-5.391-3.637 2.26z"></path>
<path fill="#8c8c8c" d="M7.999 14.283v-3.131l-3.635-2.26 3.635 5.391z"></path>
<path fill="#141414" d="M7.998 10.428l3.635-2.261-3.635-1.739v4z"></path>
<path fill="#393939" d="M4.363 8.166l3.635 2.261v-4l-3.635 1.739z"></path>
</svg>
