<!-- Generated by IcoMoon.io -->
<svg version="1.1" xmlns="http://www.w3.org/2000/svg" width="24" height="24" viewBox="0 0 24 24">
<title>finance-PSWAP-24</title>
<path d="M18.515 15.315c0.866 0.866 0.866 2.277 0 3.143s-2.277 0.866-3.143 0c-0.866-0.866-2.667-5.81-2.667-5.81s4.942 1.801 5.81 2.667zM11.407 12.648c0 0-1.801 4.939-2.667 5.81-0.866 0.866-2.277 0.866-3.143 0s-0.866-2.277 0-3.143c0.866-0.866 5.81-2.667 5.81-2.667zM18.515 5.54c0.866 0.866 0.866 2.277 0 3.143s-5.81 2.667-5.81 2.667 1.801-4.939 2.667-5.81c0.868-0.871 2.275-0.871 3.143 0zM8.74 5.54c0.866 0.866 2.667 5.81 2.667 5.81s-4.939-1.801-5.81-2.667c-0.866-0.866-0.866-2.277 0-3.143 0.866-0.871 2.275-0.871 3.143 0zM23.998 12c0 1.227-0.993 2.222-2.222 2.222-1.227 0-8.443-2.222-8.443-2.222s7.216-2.222 8.443-2.222c1.227 0 2.222 0.993 2.222 2.222zM10.665 12c0 0-7.216 2.222-8.443 2.222s-2.222-0.993-2.222-2.222c0-1.227 0.993-2.222 2.222-2.222 1.227 0 8.443 2.222 8.443 2.222zM11.998 24c-1.227 0-2.222-0.993-2.222-2.222s2.222-8.443 2.222-8.443 2.222 7.216 2.222 8.443c0 1.227-0.995 2.222-2.222 2.222zM11.998 10.665c0 0-2.222-7.216-2.222-8.443s0.993-2.222 2.222-2.222c1.227 0 2.222 0.993 2.222 2.222s-2.222 8.443-2.222 8.443z"></path>
</svg>
