<!-- Generated by IcoMoon.io -->
<svg version="1.1" xmlns="http://www.w3.org/2000/svg" width="24" height="24" viewBox="0 0 24 24">
<title>finance-creditcard-scan-24</title>
<path d="M5 3v2h-2v2h-2v-2c0-1.105 0.814-2 1.818-2h2.182zM5.818 6h12.364c1.004 0 1.818 0.895 1.818 2v8c0 1.105-0.814 2-1.818 2h-12.364c-1.004 0-1.818-0.895-1.818-2v-8c0-1.105 0.814-2 1.818-2zM6 12v4h12v-4h-12zM6 10h12v-2h-12v2zM19 19v2h2.182c1.004 0 1.818-0.895 1.818-2v-2h-2v2h-2zM19 3h2.182c1.004 0 1.818 0.895 1.818 2v2h-2v-2h-2v-2zM2.818 21h2.182v-2h-2v-2h-2v2c0 1.105 0.814 2 1.818 2z"></path>
</svg>
