<!-- Generated by IcoMoon.io -->
<svg version="1.1" xmlns="http://www.w3.org/2000/svg" width="24" height="24" viewBox="0 0 24 24">
<title>finance-liquidity-24</title>
<path d="M11.29 2.291c0.39-0.388 1.020-0.389 1.41-0.001l5.306 5.273c0 0-0-0 0 0 1.19 1.182 2.001 2.688 2.33 4.329s0.161 3.343-0.483 4.888c-0.644 1.546-1.734 2.866-3.132 3.795s-3.041 1.424-4.721 1.424-3.323-0.495-4.721-1.424c-1.398-0.928-2.488-2.249-3.132-3.795s-0.812-3.247-0.483-4.888c0.329-1.641 1.14-3.147 2.329-4.329 0-0-0 0 0 0l5.297-5.273zM11.996 4.41l-4.593 4.573c-0.909 0.903-1.527 2.053-1.778 3.303s-0.123 2.547 0.369 3.726c0.491 1.179 1.323 2.187 2.392 2.898s2.327 1.090 3.614 1.090 2.545-0.379 3.614-1.090c1.069-0.71 1.901-1.719 2.393-2.898s0.619-2.475 0.369-3.726c-0.251-1.251-0.869-2.401-1.778-3.303l-4.601-4.573z"></path>
<path d="M8.5 12.125c0.552 0 1 0.448 1 1 0 0.399 0.073 0.79 0.211 1.151s0.336 0.679 0.577 0.939c0.24 0.26 0.517 0.457 0.809 0.589s0.598 0.196 0.903 0.196c0.552 0 1 0.448 1 1s-0.448 1-1 1c-0.591 0-1.176-0.126-1.722-0.371s-1.042-0.604-1.46-1.057c-0.418-0.453-0.749-0.99-0.975-1.581s-0.343-1.225-0.343-1.866c0-0.552 0.448-1 1-1z"></path>
</svg>
