<!-- Generated by IcoMoon.io -->
<svg version="1.1" xmlns="http://www.w3.org/2000/svg" width="24" height="24" viewBox="0 0 24 24">
<title>finance-VALerc20-outline-24</title>
<path d="M18 15h-12v2h12v-2z"></path>
<path d="M1 12c0-6.075 4.925-11 11-11s11 4.925 11 11c0 6.075-4.925 11-11 11s-11-4.925-11-11zM7.738 4.071c1.269-0.683 2.72-1.071 4.262-1.071s2.994 0.388 4.262 1.071l-4.262 5.328-4.262-5.328zM6.089 5.213c-1.893 1.65-3.089 4.079-3.089 6.787 0 4.971 4.029 9 9 9s9-4.029 9-9c0-2.708-1.196-5.137-3.090-6.787l-4.63 5.787h4.719v2h-12v-2h4.719l-4.63-5.787z"></path>
</svg>
