<!-- Generated by IcoMoon.io -->
<svg version="1.1" xmlns="http://www.w3.org/2000/svg" width="24" height="24" viewBox="0 0 24 24">
<title>finance-paypass-24</title>
<path d="M19 11.999c0-3.579-0.854-6.87-2.286-9.36l-1.797 0.896c1.271 2.159 2.077 5.14 2.077 8.464s-0.806 6.305-2.077 8.464l1.797 0.896c1.432-2.49 2.286-5.781 2.286-9.36zM14.988 11.999c0-2.831-0.735-5.45-1.977-7.514l-1.8 0.897c1.096 1.755 1.771 4.065 1.771 6.617s-0.675 4.862-1.771 6.617l1.8 0.897c1.242-2.064 1.977-4.683 1.977-7.514zM9.369 6.301c1.015 1.62 1.607 3.585 1.607 5.698s-0.593 4.079-1.607 5.698l-1.803-0.899c0.881-1.334 1.405-2.993 1.405-4.799s-0.524-3.466-1.405-4.799l1.803-0.899zM6.964 11.999c0-1.43-0.42-2.767-1.155-3.924l-1.809 0.902c0.61 0.891 0.958 1.925 0.958 3.022s-0.348 2.131-0.958 3.022l1.809 0.902c0.735-1.156 1.155-2.494 1.155-3.924z"></path>
</svg>
