<!-- Generated by IcoMoon.io -->
<svg version="1.1" xmlns="http://www.w3.org/2000/svg" width="16" height="16" viewBox="0 0 16 16">
<title>finance-XOR-16</title>
<path fill="#fff" d="M16 8c0 4.418-3.582 8-8 8s-8-3.582-8-8c0-4.418 3.582-8 8-8s8 3.582 8 8z"></path>
<path fill="#e3232c" d="M13.229 14.055c1.697-1.467 2.771-3.636 2.771-6.055 0-4.418-3.582-8-8-8s-8 3.582-8 8c0 2.419 1.074 4.588 2.771 6.055l4.204-5.255h-3.776v-1.6h4v-1.6h-4v-1.6h9.6v1.6h-4v1.6h4v1.6h-3.776l4.204 5.255z"></path>
<path fill="#e3232c" d="M11.917 14.977l-3.917-4.896-3.917 4.896c1.158 0.651 2.494 1.023 3.917 1.023s2.759-0.372 3.917-1.023z"></path>
</svg>
