<!-- Generated by IcoMoon.io -->
<svg version="1.1" xmlns="http://www.w3.org/2000/svg" width="16" height="16" viewBox="0 0 16 16">
<title>finance-eth-blue-16</title>
<path fill="#627eea" d="M8 16c4.418 0 8-3.582 8-8s-3.582-8-8-8c-4.418 0-8 3.582-8 8s3.582 8 8 8z"></path>
<path fill="#fff" opacity="0.602" d="M7.999 2v4.435l3.748 1.675-3.748-6.11z"></path>
<path fill="#fff" d="M7.999 2l-3.749 6.11 3.749-1.675v-4.435z"></path>
<path fill="#fff" opacity="0.602" d="M7.999 10.984v3.014l3.751-5.19-3.751 2.176z"></path>
<path fill="#fff" d="M7.999 13.998v-3.014l-3.749-2.175 3.749 5.19z"></path>
<path fill="#fff" opacity="0.2" d="M7.999 10.287l3.748-2.177-3.748-1.674v3.851z"></path>
<path fill="#fff" opacity="0.602" d="M4.25 8.11l3.749 2.177v-3.851l-3.749 1.674z"></path>
</svg>
