<!-- Generated by IcoMoon.io -->
<svg version="1.1" xmlns="http://www.w3.org/2000/svg" width="24" height="24" viewBox="0 0 24 24">
<title>finance-XOR-outline-24</title>
<path d="M23 12c0-6.075-4.925-11-11-11s-11 4.925-11 11 4.925 11 11 11c6.075 0 11-4.925 11-11zM16.199 19.963c-1.254 0.662-2.682 1.037-4.199 1.037s-2.945-0.375-4.199-1.037l4.199-5.344 4.199 5.344zM17.856 18.834l-4.584-5.835h4.728v-2h-5v-2h5v-2h-12v2h5v2h-5v2h4.728l-4.584 5.835c-1.925-1.65-3.144-4.1-3.144-6.834 0-4.971 4.029-9 9-9s9 4.030 9 9c0 2.734-1.219 5.184-3.144 6.834z"></path>
</svg>
