<!-- Generated by IcoMoon.io -->
<svg version="1.1" xmlns="http://www.w3.org/2000/svg" width="24" height="24" viewBox="0 0 24 24">
<title>finance-creditcard-no-24</title>
<path d="M2.818 19c-1.004 0-1.818-0.895-1.818-2v-12c0-1.023 0.699-1.867 1.6-1.986l-1.307-1.307 1.414-1.414 20 20-1.414 1.414-2.707-2.707h-15.768zM3 5v3h4.586l-3-3h-1.586zM9.586 10h-6.586v7h13.586l-7-7zM8.214 3h12.968c1.004 0 1.818 0.895 1.818 2v12c0 0.238-0.038 0.467-0.107 0.678l-1.893-1.893v-5.786h-5.786l-2-2h7.786v-3h-10.786l-2-2z"></path>
</svg>
