<!-- Generated by IcoMoon.io -->
<svg version="1.1" xmlns="http://www.w3.org/2000/svg" width="24" height="24" viewBox="0 0 24 24">
<title>finance-receive-show-QR-24</title>
<path d="M3 6c0-1.657 1.343-3 3-3h2c1.657 0 3 1.343 3 3v2c0 1.657-1.343 3-3 3h-2c-1.657 0-3-1.343-3-3v-2zM6 5c-0.552 0-1 0.448-1 1v2c0 0.552 0.448 1 1 1h2c0.552 0 1-0.448 1-1v-2c0-0.552-0.448-1-1-1h-2z"></path>
<path d="M13 6c0-1.657 1.343-3 3-3h2c1.657 0 3 1.343 3 3v2c0 1.657-1.343 3-3 3h-2c-1.657 0-3-1.343-3-3v-2zM16 5c-0.552 0-1 0.448-1 1v2c0 0.552 0.448 1 1 1h2c0.552 0 1-0.448 1-1v-2c0-0.552-0.448-1-1-1h-2z"></path>
<path d="M6 6.5c0-0.276 0.224-0.5 0.5-0.5h1c0.276 0 0.5 0.224 0.5 0.5v1c0 0.276-0.224 0.5-0.5 0.5h-1c-0.276 0-0.5-0.224-0.5-0.5v-1z"></path>
<path d="M16 6.5c0-0.276 0.224-0.5 0.5-0.5h1c0.276 0 0.5 0.224 0.5 0.5v1c0 0.276-0.224 0.5-0.5 0.5h-1c-0.276 0-0.5-0.224-0.5-0.5v-1z"></path>
<path d="M13 13.5c0-0.276 0.224-0.5 0.5-0.5h2c0.276 0 0.5 0.224 0.5 0.5v2c0 0.276-0.224 0.5-0.5 0.5h-2c-0.276 0-0.5-0.224-0.5-0.5v-2z"></path>
<path d="M16 16.5c0-0.276 0.224-0.5 0.5-0.5h1c0.276 0 0.5 0.224 0.5 0.5v1c0 0.276-0.224 0.5-0.5 0.5h-1c-0.276 0-0.5-0.224-0.5-0.5v-1z"></path>
<path d="M18 13.5c0-0.276 0.224-0.5 0.5-0.5h2c0.276 0 0.5 0.224 0.5 0.5v2c0 0.276-0.224 0.5-0.5 0.5h-2c-0.276 0-0.5-0.224-0.5-0.5v-2z"></path>
<path d="M13 18.5c0-0.276 0.224-0.5 0.5-0.5h2c0.276 0 0.5 0.224 0.5 0.5v2c0 0.276-0.224 0.5-0.5 0.5h-2c-0.276 0-0.5-0.224-0.5-0.5v-2z"></path>
<path d="M18 18.5c0-0.276 0.224-0.5 0.5-0.5h2c0.276 0 0.5 0.224 0.5 0.5v2c0 0.276-0.224 0.5-0.5 0.5h-2c-0.276 0-0.5-0.224-0.5-0.5v-2z"></path>
<path d="M6 16.5c0-0.276 0.224-0.5 0.5-0.5h1c0.276 0 0.5 0.224 0.5 0.5v1c0 0.276-0.224 0.5-0.5 0.5h-1c-0.276 0-0.5-0.224-0.5-0.5v-1z"></path>
<path d="M3 16c0-1.657 1.343-3 3-3h2c1.657 0 3 1.343 3 3v2c0 1.657-1.343 3-3 3h-2c-1.657 0-3-1.343-3-3v-2zM6 15c-0.552 0-1 0.448-1 1v2c0 0.552 0.448 1 1 1h2c0.552 0 1-0.448 1-1v-2c0-0.552-0.448-1-1-1h-2z"></path>
</svg>
