<!-- Generated by IcoMoon.io -->
<svg version="1.1" xmlns="http://www.w3.org/2000/svg" width="24" height="24" viewBox="0 0 24 24">
<title>finance-strongbox-24</title>
<path d="M20.182 2h-16.364c-1.004 0-1.818 0.895-1.818 2v16c0 1.105 0.814 2 1.818 2h1.182v1h2v-1h10v1h2v-1h1.182c1.004 0 1.818-0.895 1.818-2v-16c0-1.105-0.814-2-1.818-2zM4 20v-16h16v2h-1v2h1v8h-1v2h1v2h-16zM17.707 16.293l-1.414 1.414-2.261-2.261c-0.595 0.352-1.29 0.554-2.032 0.554s-1.437-0.202-2.032-0.554l-2.261 2.261-1.414-1.414 2.261-2.261c-0.352-0.595-0.554-1.29-0.554-2.032s0.202-1.437 0.554-2.032l-2.261-2.261 1.414-1.414 2.261 2.261c0.595-0.352 1.29-0.554 2.032-0.554s1.437 0.202 2.032 0.554l2.261-2.261 1.414 1.414-2.261 2.261c0.352 0.595 0.554 1.29 0.554 2.032s-0.202 1.437-0.554 2.032l2.261 2.261zM14 12c0 1.105-0.895 2-2 2s-2-0.895-2-2c0-1.105 0.895-2 2-2s2 0.895 2 2z"></path>
</svg>
