<!-- Generated by IcoMoon.io -->
<svg version="1.1" xmlns="http://www.w3.org/2000/svg" width="24" height="24" viewBox="0 0 24 24">
<title>finance-wallet-24</title>
<path d="M15.451 1.403c1.062-0.303 2.169 0.312 2.472 1.374 0.051 0.179 0.077 0.364 0.077 0.549v1.674h2c1.105 0 2 0.895 2 2v12c0 1.104-0.895 2-2 2h-16c-1.105 0-2-0.895-2-2h0.027c-0.018-0.108-0.027-0.216-0.027-0.326v-11.92c0-0.893 0.592-1.678 1.451-1.923l12-3.429zM10.14 19h9.86v-8h-2v4.246c0 0.893-0.592 1.678-1.451 1.923l-6.409 1.831zM20 7v2h-2v-2h2zM4 6.754v11.92l12-3.429v-11.92l-12 3.429zM14 9c0 0.552-0.448 1-1 1s-1-0.448-1-1c0-0.552 0.448-1 1-1s1 0.448 1 1z"></path>
</svg>
