<!-- Generated by IcoMoon.io -->
<svg version="1.1" xmlns="http://www.w3.org/2000/svg" width="16" height="16" viewBox="0 0 16 16">
<title>finance-KSM-16</title>
<path fill="#000" d="M16 8c0 4.418-3.582 8-8 8s-8-3.582-8-8c0-4.418 3.582-8 8-8s8 3.582 8 8z"></path>
<path fill="#fff" d="M13.356 4.41c-0.188-0.149-0.413-0.352-0.822-0.403-0.384-0.051-0.774 0.207-1.039 0.378s-0.764 0.672-0.97 0.824c-0.206 0.153-0.735 0.294-1.585 0.806s-4.188 2.662-4.188 2.662l0.869 0.011-3.873 2.001h0.387l-0.557 0.425c0 0 0.492 0.131 0.905-0.131v0.12c0 0 4.611-1.823 5.502-1.351l-0.543 0.16c0.047 0 0.923 0.058 0.923 0.058 0.021 0.182 0.082 0.357 0.179 0.513s0.226 0.288 0.379 0.388c0.528 0.349 0.539 0.541 0.539 0.541s-0.275 0.113-0.275 0.254c0 0 0.405-0.123 0.782-0.113 0.239 0.009 0.476 0.047 0.706 0.113 0 0-0.029-0.153-0.395-0.254s-0.727-0.501-0.905-0.719c-0.109-0.139-0.179-0.303-0.205-0.478s-0.006-0.353 0.057-0.517c0.127-0.331 0.568-0.512 1.48-0.984 1.075-0.559 1.321-0.973 1.473-1.297s0.377-0.966 0.503-1.268c0.159-0.389 0.355-0.596 0.518-0.719s0.887-0.396 0.887-0.396c0 0-0.554-0.483-0.731-0.625z"></path>
</svg>
