<!-- Generated by IcoMoon.io -->
<svg version="1.1" xmlns="http://www.w3.org/2000/svg" width="16" height="16" viewBox="0 0 16 16">
<title>folder-16</title>
<path d="M16 5c0-1.105-0.895-2-2-2h-5.998c0.040-0 0.027-0.016-0.061-0.123-0.022-0.026-0.048-0.058-0.079-0.096s-0.116-0.149-0.192-0.246c-0.053-0.069-0.102-0.131-0.122-0.156-0.716-0.903-1.429-1.379-2.549-1.379h-3c-1.105 0-2 0.895-2 2v10c0 1.105 0.895 2 2 2h12c1.105 0 2-0.895 2-2v-8zM14 5v8h-12v-10h3c0.384 0 0.607 0.149 0.982 0.621 0.012 0.015 0.046 0.058 0.088 0.113 0.080 0.104 0.191 0.246 0.237 0.303 0.503 0.623 0.971 0.96 1.689 0.963l6.005 0z"></path>
</svg>
