<!-- Generated by IcoMoon.io -->
<svg version="1.1" xmlns="http://www.w3.org/2000/svg" width="24" height="24" viewBox="0 0 24 24">
<title>food-chicken-24</title>
<path d="M11.179 10.009c-1.794-0.2-4.106 0.6-5.703 2.199-1.993 1.997-1.928 4.478-0.050 6.36s4.355 1.947 6.348-0.050c1.576-1.579 2.374-3.857 2.202-5.644-0.078-0.811-0.356-1.521-0.852-2.018-0.482-0.483-1.164-0.76-1.945-0.847zM15.181 10.25l1.813-1.817 0.681 0.452c0.589 0.391 1.381 0.316 1.887-0.192 0.586-0.587 0.586-1.538 0-2.125-0.233-0.234-0.528-0.38-0.848-0.425l-0.744-0.106-0.106-0.745c-0.045-0.32-0.191-0.615-0.424-0.849-0.586-0.587-1.536-0.587-2.121 0-0.507 0.508-0.582 1.301-0.192 1.891l0.452 0.683-1.805 1.808c0.274 0.176 0.529 0.381 0.763 0.615 0.247 0.247 0.461 0.519 0.643 0.811zM11.711 8.060l1.373-1.375c-0.444-1.247-0.154-2.679 0.823-3.658 1.367-1.369 3.583-1.369 4.95 0 0.373 0.373 0.651 0.818 0.822 1.301 0.483 0.172 0.926 0.451 1.299 0.824 1.367 1.369 1.367 3.589 0 4.959-0.977 0.979-2.406 1.269-3.651 0.824l-1.401 1.403c0.373 2.498-0.675 5.526-2.741 7.596-2.791 2.796-6.53 2.697-9.172 0.050s-2.741-6.393 0.050-9.189c2.084-2.088 5.142-3.138 7.648-2.735z"></path>
</svg>
