<!-- Generated by IcoMoon.io -->
<svg version="1.1" xmlns="http://www.w3.org/2000/svg" width="24" height="24" viewBox="0 0 24 24">
<title>food-icecream-24</title>
<path d="M11 23h2v-4h4.182c1.004 0 1.818-0.895 1.818-2v-9c0-3.866-3.134-7-7-7s-7 3.134-7 7v9c0 1.105 0.814 2 1.818 2h4.182v4zM16.651 13.337c0.114-0.075 0.227-0.136 0.349-0.185v3.849h-10v-3.627l0.042 0.021c0.886 0.444 1.32 0.606 1.958 0.606s1.066-0.16 1.953-0.607l0-0c0.076-0.039 0.077-0.039 0.15-0.075 0.465-0.232 0.711-0.318 0.896-0.318 0.108 0 0.254 0.033 0.446 0.105 0.164 0.062 0.319 0.134 0.636 0.291 0.925 0.457 1.31 0.603 1.918 0.603 0.479 0 0.857-0.136 1.255-0.393 0.048-0.031 0.156-0.105 0.249-0.169v0c0.067-0.046 0.126-0.087 0.147-0.101zM12 3c2.761 0 5 2.239 5 5v3.082c-0.553 0.101-1.008 0.295-1.444 0.581-0.050 0.033-0.153 0.104-0.241 0.164-0.068 0.047-0.127 0.088-0.146 0.1-0.1 0.065-0.122 0.073-0.169 0.073-0.175 0-0.411-0.090-1.032-0.396-0.374-0.185-0.57-0.276-0.813-0.368-0.401-0.152-0.773-0.236-1.155-0.236-0.589 0-1.059 0.164-1.788 0.528-0.041 0.021-0.061 0.030-0.081 0.041s-0.039 0.020-0.077 0.039c-0.599 0.301-0.843 0.393-1.054 0.393-0.212 0-0.462-0.093-1.062-0.394-0.405-0.203-0.685-0.335-0.938-0.425v-3.181c0-2.761 2.239-5 5-5z"></path>
</svg>
