<!-- Generated by IcoMoon.io -->
<svg version="1.1" xmlns="http://www.w3.org/2000/svg" width="24" height="24" viewBox="0 0 24 24">
<title>food-bread-24</title>
<path d="M21 20v-10.535c1.196-0.692 2-1.984 2-3.465 0-2.209-1.791-4-4-4h-14c-2.209 0-4 1.791-4 4 0 1.481 0.804 2.773 2 3.465v10.535c0 1.105 0.895 2 2 2h14c1.105 0 2-0.895 2-2zM19 20h-14v-11.689l-0.999-0.578c-0.616-0.356-1.001-1.010-1.001-1.734 0-1.105 0.895-2 2-2h14c1.105 0 2 0.895 2 2 0 0.723-0.386 1.377-1.002 1.734l-0.999 0.578v11.689z"></path>
</svg>
