<!-- Generated by IcoMoon.io -->
<svg version="1.1" xmlns="http://www.w3.org/2000/svg" width="24" height="24" viewBox="0 0 24 24">
<title>food-avocado-24</title>
<path d="M3 14c0 4.897 3.761 9 9 9s9-4.102 9-9c0-2.2-0.741-4.811-2.112-7.46-1.954-3.775-3.686-5.54-6.388-5.54h-1c-2.729 0-4.91 2.201-6.414 5.595-1.453 3.279-2.086 5.391-2.086 7.405zM19 14c0 3.83-2.906 7-7 7s-7-3.17-7-7c0-1.664 0.566-3.553 1.914-6.595 1.218-2.748 2.86-4.405 4.586-4.405h1c1.702 0 2.975 1.298 4.612 4.46 1.234 2.383 1.888 4.69 1.888 6.54zM12 17.75c-2.209 0-4-1.791-4-4 0-2.299 1.822-4.75 4-4.75s4 2.451 4 4.75c0 2.209-1.791 4-4 4zM14 13.75c0 1.105-0.895 2-2 2s-2-0.895-2-2c0-1.301 1.077-2.75 2-2.75s2 1.449 2 2.75z"></path>
</svg>
