<!-- Generated by IcoMoon.io -->
<svg version="1.1" xmlns="http://www.w3.org/2000/svg" width="24" height="24" viewBox="0 0 24 24">
<title>food-coffee-24</title>
<path d="M4.36 3.045c-0.733 0.158-1.331 0.72-1.519 1.47l-0.5 2c-0.040 0.159-0.060 0.322-0.060 0.485 0 1.054 0.816 1.918 1.851 1.995l2.001 14.005h11.735l2.001-14.006c0.113-0.008 0.226-0.027 0.336-0.054 1.072-0.268 1.723-1.354 1.455-2.425l-0.5-2c-0.188-0.751-0.786-1.313-1.519-1.47l-0.47-0.939c-0.339-0.678-1.031-1.106-1.789-1.106h-10.764c-0.758 0-1.45 0.428-1.789 1.106l-0.47 0.939zM6.153 9h11.694l-1.714 12h-8.265l-1.714-12zM4.781 5h0.837l1-2h10.764l1 2h0.837l0.5 2h-15.438l0.5-2z"></path>
</svg>
