<!-- Generated by IcoMoon.io -->
<svg version="1.1" xmlns="http://www.w3.org/2000/svg" width="24" height="24" viewBox="0 0 24 24">
<title>gadgets-battery-100-24</title>
<path d="M19 6h-16c-1.105 0-2 0.895-2 2v8c0 1.105 0.895 2 2 2h16c1.105 0 2-0.895 2-2v-1c1.105 0 2-0.895 2-2v-2c0-1.105-0.895-2-2-2v-1c0-1.105-0.895-2-2-2zM3 16v-8h16v8h-16zM6.078 9.074h-2v6.187h2v-6.187zM7.078 9.074h2v6.187h-2v-6.187zM12.078 9.074h-2v6.187h2v-6.187zM13.078 9.074h2v6.187h-2v-6.187zM18.078 9.074h-2v6.187h2v-6.187z"></path>
</svg>
