<!-- Generated by IcoMoon.io -->
<svg version="1.1" xmlns="http://www.w3.org/2000/svg" width="16" height="16" viewBox="0 0 16 16">
<title>globe-16</title>
<path d="M8 16c-4.418 0-8-3.582-8-8s3.582-8 8-8c4.418 0 8 3.582 8 8s-3.582 8-8 8zM13.852 9.332c-0.226 0.051-0.462 0.101-0.708 0.149-0.403 0.080-0.812 0.151-1.225 0.214-0.125 1.274-0.39 2.442-0.776 3.417 1.351-0.833 2.347-2.186 2.709-3.78zM11.997 7.657c-0.034-1.798-0.335-3.458-0.854-4.769 1.513 0.932 2.581 2.518 2.811 4.363-0.362 0.091-0.763 0.182-1.197 0.267-0.251 0.050-0.504 0.096-0.76 0.139zM10 7.912c-0.661 0.057-1.33 0.088-2 0.088s-1.339-0.031-2-0.088c0.010-1.72 0.304-3.315 0.798-4.467 0.419-0.977 0.892-1.444 1.202-1.444s0.783 0.467 1.202 1.444c0.494 1.152 0.788 2.748 0.798 4.468zM4.081 9.694c-0.411-0.063-0.817-0.134-1.217-0.213-0.249-0.049-0.487-0.1-0.716-0.152 0.361 1.595 1.357 2.949 2.709 3.782-0.386-0.975-0.651-2.143-0.776-3.417zM4.003 7.656c0.034-1.798 0.335-3.457 0.854-4.768-1.512 0.932-2.579 2.515-2.81 4.358 0.405 0.098 0.855 0.203 1.205 0.272 0.248 0.049 0.499 0.095 0.751 0.137zM9.877 9.928c-0.62 0.047-1.247 0.072-1.877 0.072s-1.257-0.025-1.877-0.072c0.131 0.999 0.363 1.901 0.675 2.627 0.419 0.977 0.892 1.444 1.202 1.444s0.783-0.467 1.202-1.444c0.311-0.726 0.543-1.629 0.674-2.627z"></path>
</svg>
