<!-- Generated by IcoMoon.io -->
<svg version="1.1" xmlns="http://www.w3.org/2000/svg" width="24" height="24" viewBox="0 0 24 24">
<title>grid-apps-24</title>
<path d="M4 2c-1.105 0-2 0.895-2 2v5c0 1.105 0.895 2 2 2h5c1.105 0 2-0.895 2-2v-5c0-1.105-0.895-2-2-2h-5zM4 13c-1.105 0-2 0.895-2 2v5c0 1.105 0.895 2 2 2h5c1.105 0 2-0.895 2-2v-5c0-1.105-0.895-2-2-2h-5zM18 13v3h3v2h-3v3h-2v-3h-3v-2h3v-3h2zM4 20v-5h5v5h-5zM4 9v-5h5v5h-5zM15 2c-1.105 0-2 0.895-2 2v5c0 1.105 0.895 2 2 2h5c1.105 0 2-0.895 2-2v-5c0-1.105-0.895-2-2-2h-5zM15 9v-5h5v5h-5z"></path>
</svg>
