<!-- Generated by IcoMoon.io -->
<svg version="1.1" xmlns="http://www.w3.org/2000/svg" width="24" height="24" viewBox="0 0 24 24">
<title>grid-stack-24-1</title>
<path d="M20 5v11c1.105 0 2-0.895 2-2v-10c0-1.105-0.895-2-2-2h-10c-1.105 0-2 0.895-2 2h11c0.552 0 1 0.448 1 1zM17 19v-11c0-0.552-0.448-1-1-1h-11c0-1.105 0.895-2 2-2h10c1.105 0 2 0.895 2 2v10c0 1.105-0.895 2-2 2zM14 8h-10c-1.105 0-2 0.895-2 2v10c0 1.105 0.895 2 2 2h10c1.105 0 2-0.895 2-2v-10c0-1.105-0.895-2-2-2zM4 20v-10h10v10h-10z"></path>
</svg>
