<!-- Generated by IcoMoon.io -->
<svg version="1.1" xmlns="http://www.w3.org/2000/svg" width="24" height="24" viewBox="0 0 24 24">
<title>grid-stack-24</title>
<path d="M2.818 3h18.364c1.004 0 1.818 0.895 1.818 2v14c0 1.105-0.814 2-1.818 2h-18.364c-1.004 0-1.818-0.895-1.818-2v-14c0-1.105 0.814-2 1.818-2zM3 5v14h18v-14h-18zM11 16c0 0.552 0.448 1 1 1s1-0.448 1-1c0-0.552-0.448-1-1-1s-1 0.448-1 1zM12 13c-0.552 0-1-0.448-1-1s0.448-1 1-1c0.552 0 1 0.448 1 1s-0.448 1-1 1zM11 8c0 0.552 0.448 1 1 1s1-0.448 1-1c0-0.552-0.448-1-1-1s-1 0.448-1 1z"></path>
</svg>
