<!-- Generated by IcoMoon.io -->
<svg version="1.1" xmlns="http://www.w3.org/2000/svg" width="24" height="24" viewBox="0 0 24 24">
<title>grid-elements-24</title>
<path d="M20 13h-5c-1.105 0-2 0.895-2 2v5c0 1.105 0.895 2 2 2h5c1.105 0 2-0.895 2-2v-5c0-1.105-0.895-2-2-2zM15 20v-5h5v5h-5zM11 4v16c0 1.105-0.895 2-2 2h-5c-1.105 0-2-0.895-2-2v-16c0-1.105 0.895-2 2-2h5c1.105 0 2 0.895 2 2zM9 4h-5v16h5v-16zM20 2h-5c-1.105 0-2 0.895-2 2v5c0 1.105 0.895 2 2 2h5c1.105 0 2-0.895 2-2v-5c0-1.105-0.895-2-2-2zM15 9v-5h5v5h-5z"></path>
</svg>
