<!-- Generated by IcoMoon.io -->
<svg version="1.1" xmlns="http://www.w3.org/2000/svg" width="24" height="24" viewBox="0 0 24 24">
<title>grid-edit-shape-24</title>
<path d="M23 19c0-1.306-0.835-2.418-2-2.829v-8.341c1.165-0.412 2-1.523 2-2.829 0-1.657-1.343-3-3-3-1.306 0-2.418 0.835-2.829 2h-10.341c-0.412-1.165-1.523-2-2.829-2-1.657 0-3 1.343-3 3 0 1.306 0.835 2.417 2 2.829v8.341c-1.165 0.412-2 1.523-2 2.829 0 1.657 1.343 3 3 3 1.306 0 2.417-0.835 2.829-2h10.341c0.412 1.165 1.523 2 2.829 2 1.657 0 3-1.343 3-3zM19 7.829v8.341c-0.852 0.301-1.528 0.977-1.829 1.829h-10.341c-0.301-0.852-0.977-1.528-1.829-1.829v-8.341c0.852-0.301 1.528-0.977 1.829-1.829h10.341c0.301 0.852 0.977 1.528 1.829 1.829zM4 6c0.552 0 1-0.448 1-1s-0.448-1-1-1c-0.552 0-1 0.448-1 1s0.448 1 1 1zM21 5c0 0.552-0.448 1-1 1s-1-0.448-1-1c0-0.552 0.448-1 1-1s1 0.448 1 1zM4 20c0.552 0 1-0.448 1-1s-0.448-1-1-1c-0.552 0-1 0.448-1 1s0.448 1 1 1zM21 19c0 0.552-0.448 1-1 1s-1-0.448-1-1c0-0.552 0.448-1 1-1s1 0.448 1 1z"></path>
</svg>
