<!-- Generated by IcoMoon.io -->
<svg version="1.1" xmlns="http://www.w3.org/2000/svg" width="24" height="24" viewBox="0 0 24 24">
<title>grid-segment-24</title>
<path d="M8.032 14.554l6.522-6.522c-0.352-0.596-0.554-1.29-0.554-2.032 0-2.209 1.791-4 4-4s4 1.791 4 4c0 2.209-1.791 4-4 4-0.742 0-1.437-0.202-2.032-0.554l-6.522 6.522c0.352 0.596 0.554 1.29 0.554 2.032 0 2.209-1.791 4-4 4s-4-1.791-4-4c0-2.209 1.791-4 4-4 0.742 0 1.436 0.202 2.032 0.554zM6 20c1.105 0 2-0.895 2-2s-0.895-2-2-2c-1.105 0-2 0.895-2 2s0.895 2 2 2zM20 6c0 1.105-0.895 2-2 2s-2-0.895-2-2c0-1.105 0.895-2 2-2s2 0.895 2 2z"></path>
</svg>
