<!-- Generated by IcoMoon.io -->
<svg version="1.1" xmlns="http://www.w3.org/2000/svg" width="16" height="16" viewBox="0 0 16 16">
<title>heart-16</title>
<path d="M11.188 1c-1.051-0-1.741 0.122-2.531 0.49-0.233 0.109-0.455 0.235-0.666 0.379-0.2-0.134-0.41-0.253-0.63-0.357-0.804-0.379-1.529-0.512-2.543-0.512-2.78 0-4.818 2.214-4.818 5.080 0 2.148 1.237 4.188 3.512 6.137 1.178 1.009 2.679 2.006 3.761 2.539l0.727 0.358 0.727-0.358c1.082-0.534 2.583-1.53 3.761-2.539 2.275-1.949 3.512-3.989 3.512-6.137 0-2.838-2.056-5.069-4.812-5.080zM14 6.080c0 1.464-0.939 3.013-2.813 4.618-0.995 0.852-2.265 1.706-3.187 2.185-0.922-0.479-2.192-1.333-3.187-2.185-1.874-1.605-2.813-3.154-2.813-4.618 0-1.797 1.182-3.080 2.818-3.080 0.74 0 1.181 0.081 1.691 0.321 0.294 0.139 0.553 0.321 0.776 0.547l0.719 0.73 0.713-0.736c0.228-0.236 0.49-0.421 0.786-0.559 0.494-0.23 0.905-0.303 1.682-0.303 1.614 0.006 2.816 1.31 2.816 3.080z"></path>
</svg>
