<!-- Generated by IcoMoon.io -->
<svg version="1.1" xmlns="http://www.w3.org/2000/svg" width="16" height="16" viewBox="0 0 16 16">
<title>icon-refresh-16</title>
<path d="M3.555 2.812c1.24-0.994 2.766-1.537 4.341-1.537s3.101 0.543 4.341 1.537c0.281 0.225 0.534 0.445 0.763 0.656v-0.468c0-0.552 0.448-1 1-1s1 0.448 1 1v3c0 0.552-0.448 1-1 1h-3c-0.552 0-1-0.448-1-1s0.448-1 1-1h0.717c-0.204-0.19-0.443-0.397-0.73-0.627-0.892-0.715-1.978-1.098-3.090-1.098s-2.199 0.383-3.091 1.098c-0.64 0.513-1.154 1.176-1.503 1.935-0.231 0.502-0.768 0.83-1.302 0.693s-0.864-0.686-0.657-1.198c0.472-1.17 1.23-2.203 2.212-2.99z"></path>
<path d="M12.445 13.188c-1.24 0.994-2.766 1.537-4.341 1.537s-3.101-0.543-4.341-1.537c-0.186-0.149-0.465-0.416-0.763-0.714v0.526c0 0.552-0.448 1-1 1s-1-0.448-1-1v-3c0-0.552 0.448-1 1-1h3c0.552 0 1 0.448 1 1s-0.448 1-1 1h-0.645c0.303 0.305 0.541 0.533 0.659 0.627 0.892 0.715 1.978 1.098 3.091 1.098s2.199-0.383 3.091-1.098c0.64-0.513 1.154-1.176 1.503-1.935 0.231-0.502 0.768-0.83 1.303-0.693s0.864 0.686 0.657 1.198c-0.472 1.17-1.23 2.204-2.212 2.99z"></path>
</svg>
