<!-- Generated by IcoMoon.io -->
<svg version="1.1" xmlns="http://www.w3.org/2000/svg" width="24" height="24" viewBox="0 0 24 24">
<title>maps-map-pin-location-24</title>
<path d="M13 11.9v7.1h-2v-7.1c-2.282-0.463-4-2.481-4-4.9 0-2.761 2.239-5 5-5s5 2.239 5 5c0 2.419-1.718 4.437-4 4.9zM9 14.157v2.027c-2.933 0.366-5 1.202-5 1.816 0 0.807 3.579 2 8 2s8-1.193 8-2c0-0.613-2.067-1.449-5-1.816v-2.027c4.056 0.444 7 1.811 7 3.843 0 2.507-4.48 4-10 4s-10-1.493-10-4c0-2.032 2.944-3.398 7-3.843zM15 7c0 1.657-1.343 3-3 3s-3-1.343-3-3c0-1.657 1.343-3 3-3s3 1.343 3 3z"></path>
</svg>
