<!-- Generated by IcoMoon.io -->
<svg version="1.1" xmlns="http://www.w3.org/2000/svg" width="24" height="24" viewBox="0 0 24 24">
<title>maps-pin-round-24</title>
<path d="M13.096 18.255c3.915-3.419 5.904-6.444 5.904-9.255 0-3.979-3.103-7-7-7s-7 3.021-7 7c0 2.811 1.988 5.837 5.904 9.255l1.096 0.957 1.096-0.957zM5.686 14.803c-2.249 0.682-3.686 1.777-3.686 3.197 0 2.507 4.48 4 10 4s10-1.493 10-4c0-1.42-1.437-2.514-3.686-3.197-0.411 0.562-0.868 1.134-1.372 1.716 1.862 0.419 3.057 1.015 3.057 1.481 0 0.807-3.579 2-8 2s-8-1.193-8-2c0-0.466 1.195-1.062 3.057-1.481-0.504-0.582-0.961-1.153-1.372-1.716zM12 4c2.804 0 5 2.138 5 5 0 2.047-1.627 4.566-5 7.556-3.373-2.99-5-5.509-5-7.556 0-2.862 2.196-5 5-5zM12 6c-1.657 0-3 1.343-3 3s1.343 3 3 3 3-1.343 3-3c0-1.657-1.343-3-3-3zM11 9c0-0.552 0.448-1 1-1s1 0.448 1 1c0 0.552-0.448 1-1 1s-1-0.448-1-1z"></path>
</svg>
