<!-- Generated by IcoMoon.io -->
<svg version="1.1" xmlns="http://www.w3.org/2000/svg" width="24" height="24" viewBox="0 0 24 24">
<title>maps-pin-question-24</title>
<path d="M12 23.328l0.658-0.574c5.531-4.83 8.342-9.046 8.342-12.753 0-5.249-4.097-9-9-9s-9 3.751-9 9c0 3.707 2.811 7.924 8.342 12.753l0.658 0.574zM12 20.663c-4.693-4.23-7-7.814-7-10.663 0-4.103 3.164-7 7-7s7 2.897 7 7c0 2.849-2.307 6.433-7 10.663zM13 13h-2c0-1.702 0.625-2.43 2.053-3.144 0.822-0.411 0.947-0.557 0.947-1.356 0-0.944-0.723-1.5-2-1.5-1.105 0-2 0.895-2 2h-2c0-2.209 1.791-4 4-4 2.284 0 4 1.321 4 3.5 0 1.702-0.625 2.43-2.053 3.144-0.822 0.411-0.947 0.557-0.947 1.356zM13.001 14.998c0 0.552-0.448 1-1 1s-1-0.448-1-1c0-0.552 0.448-1 1-1s1 0.448 1 1z"></path>
</svg>
