<!-- Generated by IcoMoon.io -->
<svg version="1.1" xmlns="http://www.w3.org/2000/svg" width="24" height="24" viewBox="0 0 24 24">
<title>maps-location-24</title>
<path d="M1 13h2.055c0.461 4.172 3.773 7.484 7.945 7.945v2.055h2v-2.055c4.172-0.461 7.484-3.774 7.945-7.945h2.055v-2h-2.055c-0.461-4.172-3.774-7.484-7.945-7.945v-2.055h-2v2.055c-4.172 0.461-7.484 3.773-7.945 7.945h-2.055v2zM5 12c0-3.866 3.134-7 7-7s7 3.134 7 7c0 3.866-3.134 7-7 7s-7-3.134-7-7zM12 8c2.209 0 4 1.791 4 4s-1.791 4-4 4c-2.209 0-4-1.791-4-4s1.791-4 4-4zM10 12c0-1.105 0.895-2 2-2s2 0.895 2 2c0 1.105-0.895 2-2 2s-2-0.895-2-2z"></path>
</svg>
