<!-- Generated by IcoMoon.io -->
<svg version="1.1" xmlns="http://www.w3.org/2000/svg" width="24" height="24" viewBox="0 0 24 24">
<title>maps-360-24</title>
<path d="M23 12c0-6.075-4.925-11-11-11s-11 4.925-11 11c0 6.075 4.925 11 11 11s11-4.925 11-11zM3.642 8.655c0.913-2.28 2.732-4.099 5.012-5.012-0.535 1.033-0.954 2.32-1.237 3.775-1.455 0.283-2.742 0.702-3.775 1.237zM15.345 3.642c0.535 1.033 0.954 2.32 1.237 3.775 1.455 0.283 2.742 0.702 3.775 1.237-0.913-2.28-2.733-4.099-5.012-5.012zM3 12c0-0.899 1.629-1.875 4.114-2.462-0.075 0.793-0.114 1.617-0.114 2.462s0.039 1.669 0.114 2.462c-2.486-0.587-4.114-1.563-4.114-2.462zM17 12c0 0.845-0.039 1.669-0.114 2.462 2.486-0.587 4.114-1.563 4.114-2.462s-1.629-1.875-4.114-2.462c0.075 0.793 0.114 1.617 0.114 2.462zM3.642 15.345c1.033 0.535 2.32 0.954 3.775 1.237 0.283 1.455 0.702 2.742 1.237 3.775-2.28-0.913-4.099-2.733-5.012-5.012zM16.583 16.583c-0.283 1.455-0.702 2.742-1.237 3.775 2.28-0.913 4.099-2.733 5.012-5.012-1.033 0.535-2.32 0.954-3.775 1.237zM9 12c0-0.99 0.062-1.94 0.173-2.827 0.887-0.111 1.837-0.173 2.827-0.173s1.94 0.062 2.827 0.173c0.111 0.887 0.173 1.837 0.173 2.827s-0.062 1.94-0.173 2.827c-0.887 0.111-1.837 0.173-2.827 0.173s-1.94-0.062-2.827-0.173c-0.111-0.887-0.173-1.837-0.173-2.827zM9.538 16.886c0.587 2.486 1.563 4.114 2.462 4.114s1.875-1.629 2.462-4.114c-0.793 0.075-1.617 0.114-2.462 0.114s-1.669-0.039-2.462-0.114zM12 3c-0.899 0-1.875 1.629-2.462 4.114 0.793-0.075 1.617-0.114 2.462-0.114s1.669 0.039 2.462 0.114c-0.587-2.486-1.563-4.114-2.462-4.114z"></path>
</svg>
