<!-- Generated by IcoMoon.io -->
<svg version="1.1" xmlns="http://www.w3.org/2000/svg" width="24" height="24" viewBox="0 0 24 24">
<title>maps-location-no-24</title>
<path d="M18.587 14.373l1.526 1.526c0.431-0.894 0.718-1.871 0.831-2.899h2.055v-2h-2.055c-0.461-4.172-3.774-7.484-7.945-7.945v-2.055h-2v2.055c-1.029 0.114-2.005 0.401-2.899 0.831l1.526 1.526c0.741-0.267 1.54-0.413 2.373-0.413 3.866 0 7 3.134 7 7 0 0.833-0.145 1.632-0.413 2.373zM13 20.945c1.736-0.192 3.323-0.877 4.618-1.913l3.675 3.675 1.414-1.414-20-20-1.414 1.414 3.675 3.675c-1.036 1.295-1.721 2.882-1.913 4.618h-2.055v2h2.055c0.461 4.172 3.773 7.484 7.945 7.945v2.055h2v-2.055zM5 12c0-1.572 0.518-3.024 1.394-4.192l2.16 2.16c-0.352 0.595-0.554 1.29-0.554 2.032 0 2.209 1.791 4 4 4 0.742 0 1.437-0.202 2.032-0.554l2.16 2.16c-1.169 0.875-2.62 1.394-4.192 1.394-3.866 0-7-3.134-7-7zM10.068 11.482c-0.044 0.165-0.068 0.339-0.068 0.518 0 1.105 0.895 2 2 2 0.179 0 0.353-0.024 0.518-0.068l-2.45-2.45z"></path>
</svg>
