<!-- Generated by IcoMoon.io -->
<svg version="1.1" xmlns="http://www.w3.org/2000/svg" width="24" height="24" viewBox="0 0 24 24">
<title>maps-route-24</title>
<path d="M6 22c1.306 0 2.417-0.835 2.829-2h8.671c2.485 0 4.5-2.015 4.5-4.5s-2.015-4.5-4.5-4.5h-11c-1.381 0-2.5-1.119-2.5-2.5s1.119-2.5 2.5-2.5h3.086l-1.293 1.293 1.414 1.414 3.707-3.707-3.707-3.707-1.414 1.414 1.293 1.293h-3.086c-2.485 0-4.5 2.015-4.5 4.5s2.015 4.5 4.5 4.5h11c1.381 0 2.5 1.119 2.5 2.5s-1.119 2.5-2.5 2.5h-8.671c-0.412-1.165-1.523-2-2.829-2-1.657 0-3 1.343-3 3s1.343 3 3 3zM5 19c0-0.552 0.448-1 1-1s1 0.448 1 1c0 0.552-0.448 1-1 1s-1-0.448-1-1zM18 2c1.657 0 3 1.343 3 3s-1.343 3-3 3c-1.657 0-3-1.343-3-3s1.343-3 3-3zM17 5c0-0.552 0.448-1 1-1s1 0.448 1 1c0 0.552-0.448 1-1 1s-1-0.448-1-1z"></path>
</svg>
