<!-- Generated by IcoMoon.io -->
<svg version="1.1" xmlns="http://www.w3.org/2000/svg" width="24" height="24" viewBox="0 0 24 24">
<title>maps-globe-24</title>
<path d="M12 3c-3.866 0-7 3.134-7 7s3.134 7 7 7c3.866 0 7-3.134 7-7s-3.134-7-7-7zM13 19.951c5.053-0.502 9-4.765 9-9.951 0-2.623-1.016-5.089-2.8-6.94l-1.44 1.388c1.429 1.482 2.24 3.452 2.24 5.552 0 4.418-3.582 8-8 8-2.134 0-4.133-0.838-5.622-2.308l-1.405 1.423c1.624 1.605 3.74 2.608 6.027 2.836v1.050h-2v2h6v-2h-2v-1.049zM7 10c0-2.761 2.239-5 5-5s5 2.239 5 5-2.238 5-5 5c-2.761 0-5-2.239-5-5z"></path>
</svg>
