<!-- Generated by IcoMoon.io -->
<svg version="1.1" xmlns="http://www.w3.org/2000/svg" width="24" height="24" viewBox="0 0 24 24">
<title>maps-pin-24</title>
<path d="M12 23.328l0.658-0.574c5.531-4.83 8.342-9.046 8.342-12.753 0-5.249-4.097-9-9-9s-9 3.751-9 9c0 3.707 2.811 7.924 8.342 12.753l0.658 0.574zM12 20.663c-4.693-4.23-7-7.814-7-10.663 0-4.103 3.164-7 7-7s7 2.897 7 7c0 2.849-2.307 6.433-7 10.663zM12 5c2.761 0 5 2.239 5 5s-2.239 5-5 5c-2.761 0-5-2.239-5-5s2.239-5 5-5zM9 10c0-1.657 1.343-3 3-3s3 1.343 3 3c0 1.657-1.343 3-3 3s-3-1.343-3-3z"></path>
</svg>
