<!-- Generated by IcoMoon.io -->
<svg version="1.1" xmlns="http://www.w3.org/2000/svg" width="24" height="24" viewBox="0 0 24 24">
<title>maps-radar-24</title>
<path d="M18.364 5.636l1.414-1.414c1.991 1.991 3.222 4.741 3.222 7.778 0 6.075-4.925 11-11 11s-11-4.925-11-11c0-5.738 4.393-10.45 10-10.955v-0.045h2v10l1.121-1.121c0.543 0.543 0.879 1.293 0.879 2.121 0 1.657-1.343 3-3 3s-3-1.343-3-3c0-1.306 0.835-2.417 2-2.829v-2.071c-2.282 0.463-4 2.481-4 4.9 0 2.761 2.239 5 5 5s5-2.239 5-5c0-1.381-0.56-2.631-1.464-3.536l1.414-1.414c1.267 1.267 2.050 3.017 2.050 4.95 0 3.866-3.134 7-7 7s-7-3.134-7-7c0-3.526 2.608-6.444 6-6.929v-2.016c-4.5 0.497-8 4.313-8 8.945 0 4.971 4.029 9 9 9s9-4.029 9-9c0-2.485-1.007-4.735-2.636-6.364z"></path>
</svg>
