<!-- Generated by IcoMoon.io -->
<svg version="1.1" xmlns="http://www.w3.org/2000/svg" width="24" height="24" viewBox="0 0 24 24">
<title>maps-pin-no-24</title>
<path d="M12 1c-1.921 0-3.718 0.576-5.194 1.592l1.445 1.445c1.087-0.666 2.375-1.037 3.749-1.037 3.836 0 7 2.897 7 7 0 1.123-0.358 2.36-1.080 3.706l1.469 1.468c1.072-1.829 1.611-3.55 1.611-5.175 0-5.249-4.097-9-9-9zM4.126 5.54l-2.833-2.833 1.414-1.414 20 20-1.414 1.414-4.275-4.275c-1.19 1.383-2.644 2.823-4.36 4.321l-0.658 0.574-0.658-0.574c-5.531-4.83-8.342-9.046-8.342-12.753 0-1.66 0.41-3.171 1.126-4.46zM15.599 17.013l-9.982-9.982c-0.396 0.885-0.617 1.885-0.617 2.969 0 2.849 2.307 6.433 7 10.663 1.416-1.276 2.615-2.494 3.599-3.65z"></path>
</svg>
