<!-- Generated by IcoMoon.io -->
<svg version="1.1" xmlns="http://www.w3.org/2000/svg" width="24" height="24" viewBox="0 0 24 24">
<title>maps-panorama-24</title>
<path d="M4 9.528c0.809 0.42 1.829 0.757 3 1.002v7.938c-1.829-0.419-3-1.007-3-1.468v-7.472zM9 18.816v2.027c-4.056-0.444-7-1.811-7-3.843v-10c0-2.507 4.48-4 10-4s10 1.493 10 4v10c0 2.032-2.944 3.398-7 3.843v-5.658c-0.926-0.116-1.939-0.184-3-0.184s-2.074 0.069-3 0.184v3.631zM20 17c0 0.462-1.171 1.049-3 1.468v-7.938c1.171-0.245 2.191-0.582 3-1.002v7.472zM15 13.157v-4.342c2.933-0.366 5-1.202 5-1.816 0-0.807-3.579-2-8-2s-8 1.193-8 2c0 0.613 2.067 1.45 5 1.816v4.342c0.947-0.104 1.955-0.157 3-0.157s2.053 0.054 3 0.157z"></path>
</svg>
