<!-- Generated by IcoMoon.io -->
<svg version="1.1" xmlns="http://www.w3.org/2000/svg" width="24" height="24" viewBox="0 0 24 24">
<title>maps-pin-start-24</title>
<path d="M12.658 22.753l-0.658 0.574-0.658-0.574c-5.531-4.83-8.342-9.046-8.342-12.753 0-5.249 4.097-9 9-9s9 3.751 9 9c0 3.707-2.811 7.924-8.342 12.753zM5 10c0 2.849 2.307 6.434 7 10.663 4.693-4.23 7-7.814 7-10.663 0-4.103-3.164-7-7-7s-7 2.897-7 7zM7 11h6.586l-2.293 2.293 1.414 1.414 4.707-4.707-4.707-4.707-1.414 1.414 2.293 2.293h-6.586v2z"></path>
</svg>
