<!-- Generated by IcoMoon.io -->
<svg version="1.1" xmlns="http://www.w3.org/2000/svg" width="24" height="24" viewBox="0 0 24 24">
<title>music-shuffle-24</title>
<path d="M17.586 8h-0.576c-2.020 0.019-2.84 0.882-4.16 3.764-0.148 0.325-0.227 0.497-0.301 0.657-1.772 3.828-3.584 5.518-7.548 5.58h-2v-2l1.985 0c3.013-0.047 4.264-1.213 5.748-4.42 0.072-0.155 0.149-0.323 0.298-0.65 1.613-3.52 2.925-4.902 5.969-4.931h0.586l-1.293-1.293 1.414-1.414 3.707 3.707-3.707 3.707-1.414-1.414 1.293-1.293zM17.586 18h-0.586c-1.933-0.018-3.168-0.582-4.224-1.893 0.392-0.564 0.761-1.19 1.115-1.879 0.84 1.311 1.671 1.758 3.118 1.772h0.576l-1.293-1.293 1.414-1.414 3.707 3.707-3.707 3.707-1.414-1.414 1.293-1.293zM4.985 8c2.038 0.031 3.269 0.575 4.312 1.915 0.328-0.705 0.654-1.343 0.99-1.916-1.288-1.333-2.896-1.962-5.286-1.999h-2v2l1.985-0z"></path>
</svg>
