<!-- Generated by IcoMoon.io -->
<svg version="1.1" xmlns="http://www.w3.org/2000/svg" width="24" height="24" viewBox="0 0 24 24">
<title>music-add-to-library-24</title>
<path d="M15 20v2h-11c-1.105 0-2-0.895-2-2v-16c0-1.105 0.895-2 2-2h16c1.105 0 2 0.895 2 2v10h-2v-10h-16v16h11zM12 7.131v5.009c-0.315-0.091-0.653-0.141-1-0.141-1.605 0-3 1.047-3 2.5s1.395 2.5 3 2.5c1.605 0 3-1.047 3-2.5v-3.631l1.445 0.964 1.109-1.664-4.555-3.036zM17 21h2v2h2v-2h2v-2h-2v-2h-2v2h-2v2zM12 14.5c0 0.203-0.395 0.5-1 0.5s-1-0.297-1-0.5c0-0.203 0.395-0.5 1-0.5s1 0.297 1 0.5z"></path>
</svg>
