<!-- Generated by IcoMoon.io -->
<svg version="1.1" xmlns="http://www.w3.org/2000/svg" width="24" height="24" viewBox="0 0 24 24">
<title>music-artist-24</title>
<path d="M13.87 13.611c-1.601-0.608-2.874-1.881-3.481-3.481l-6.090 8.755 0.817 0.817 8.755-6.090zM10.069 7.087c0.44-2.881 2.928-5.087 5.931-5.087 3.314 0 6 2.686 6 6 0 3.003-2.207 5.491-5.087 5.931l-12.028 8.368-3.183-3.183 8.368-12.028zM19.522 9.898c0.305-0.565 0.478-1.211 0.478-1.898 0-2.209-1.791-4-4-4-0.694 0-1.346 0.177-1.915 0.487 0.303 0.944 1.343 2.527 2.122 3.306 0.766 0.766 2.322 1.783 3.315 2.105zM18.033 11.445c-0.596 0.352-1.291 0.555-2.033 0.555-2.209 0-4-1.791-4-4 0-0.736 0.199-1.425 0.545-2.017 0.557 1.184 1.45 2.426 2.248 3.224 0.788 0.788 2.041 1.679 3.24 2.238z"></path>
</svg>
