<!-- Generated by IcoMoon.io -->
<svg version="1.1" xmlns="http://www.w3.org/2000/svg" width="24" height="24" viewBox="0 0 24 24">
<title>music-music-note-24</title>
<path d="M10 11.847l10-1.667v4.286c-0.592-0.298-1.277-0.467-2-0.467-2.173 0-4 1.523-4 3.5s1.827 3.5 4 3.5 4-1.523 4-3.5v-15.68l-14 2.333v11.314c-0.592-0.298-1.277-0.467-2-0.467-2.173 0-4 1.523-4 3.5s1.827 3.5 4 3.5 4-1.523 4-3.5v-6.653zM8 18.5c0 0.784-0.859 1.5-2 1.5s-2-0.716-2-1.5c0-0.784 0.859-1.5 2-1.5s2 0.716 2 1.5zM18 19c1.141 0 2-0.716 2-1.5s-0.859-1.5-2-1.5-2 0.716-2 1.5c0 0.784 0.859 1.5 2 1.5zM10 9.82v-3.972l10-1.667v3.972l-10 1.667z"></path>
</svg>
