<!-- Generated by IcoMoon.io -->
<svg version="1.1" xmlns="http://www.w3.org/2000/svg" width="24" height="24" viewBox="0 0 24 24">
<title>music-player-fast-forward-24</title>
<path d="M2 5v14c0 0.859 1.012 1.318 1.659 0.753l8-7c0.455-0.398 0.455-1.107 0-1.505l-8-7c-0.647-0.566-1.659-0.107-1.659 0.753zM9.481 12l-5.481 4.796v-9.592l5.481 4.796zM12 5c0-0.859 1.012-1.318 1.659-0.753l8 7c0.455 0.398 0.455 1.107 0 1.505l-8 7c-0.647 0.566-1.659 0.107-1.659-0.753v-14zM14 7.204l5.481 4.796-5.481 4.796v-9.592z"></path>
</svg>
