<!-- Generated by IcoMoon.io -->
<svg version="1.1" xmlns="http://www.w3.org/2000/svg" width="24" height="24" viewBox="0 0 24 24">
<title>music-music-library-24</title>
<path d="M18 21c1.105 0 2-0.895 2-2h1c1.105 0 2-0.895 2-2v-10c0-1.105-0.895-2-2-2h-1c0-1.105-0.895-2-2-2h-12c-1.105 0-2 0.895-2 2h-1c-1.105 0-2 0.895-2 2v10c0 1.105 0.895 2 2 2h1c0 1.105 0.895 2 2 2h12zM18 5v14h-12v-14h12zM12 12.141v-5.009l4.555 3.036-1.109 1.664-1.445-0.964v3.632c0 1.453-1.395 2.5-3 2.5s-3-1.047-3-2.5 1.395-2.5 3-2.5c0.347 0 0.684 0.049 1 0.141zM3 7h1v10h-1v-10zM20 17h1v-10h-1v10zM12 14.5c0 0.203-0.395 0.5-1 0.5s-1-0.297-1-0.5c0-0.203 0.395-0.5 1-0.5s1 0.297 1 0.5z"></path>
</svg>
