<!-- Generated by IcoMoon.io -->
<svg version="1.1" xmlns="http://www.w3.org/2000/svg" width="24" height="24" viewBox="0 0 24 24">
<title>music-player-play-circle-24</title>
<path d="M23 12c0 6.075-4.925 11-11 11s-11-4.925-11-11c0-6.075 4.925-11 11-11s11 4.925 11 11zM3 12c0 4.971 4.029 9 9 9s9-4.029 9-9c0-4.971-4.029-9-9-9s-9 4.029-9 9zM8 7c0-0.785 0.864-1.264 1.53-0.848l8 5c0.627 0.392 0.627 1.304 0 1.696l-8 5c-0.666 0.416-1.53-0.063-1.53-0.848v-10zM10 8.804l5.113 3.196-5.113 3.196v-6.392z"></path>
</svg>
