<!-- Generated by IcoMoon.io -->
<svg version="1.1" xmlns="http://www.w3.org/2000/svg" width="24" height="24" viewBox="0 0 24 24">
<title>music-volume-no-24</title>
<path d="M2.707 1.293l-1.414 1.414 4.293 4.293h-2.586c-1.105 0-2 0.895-2 2v6c0 1.104 0.895 2 2 2h3.764l7.236 3.618v-5.204l7.293 7.293 1.414-1.414-20-20zM12 13.414l-4-4v5.968l4 2v-3.968zM12 6.618v1.168l2 2v-6.404l-4.269 2.135 1.491 1.491 0.778-0.389zM16.962 12.747l1.704 1.704c0.217-0.774 0.335-1.598 0.335-2.451 0-2.411-0.935-4.588-2.425-6.060l-1.578 1.262c1.21 1.090 2.003 2.823 2.003 4.798 0 0.253-0.013 0.503-0.038 0.747zM20.254 16.040l1.518 1.518c0.782-1.635 1.228-3.537 1.228-5.558 0-3.432-1.286-6.519-3.321-8.543l-1.576 1.261c1.746 1.629 2.897 4.27 2.897 7.283 0 1.458-0.27 2.829-0.746 4.040zM6 9h-3v6h3v-6z"></path>
</svg>
