<!-- Generated by IcoMoon.io -->
<svg version="1.1" xmlns="http://www.w3.org/2000/svg" width="24" height="24" viewBox="0 0 24 24">
<title>music-radio-24</title>
<path d="M9.193 8h10.807c1.105 0 2 0.895 2 2v10c0 1.105-0.895 2-2 2h-16c-1.105 0-2-0.895-2-2v-10c0-1.029 0.777-1.877 1.777-1.988l14.852-5.941 0.743 1.857-10.179 4.072zM4 10v10h16v-10h-16zM19 15h-5v2h5v-2zM14 12h5v2h-5v-2zM5 15c0 2.209 1.791 4 4 4s4-1.791 4-4-1.791-4-4-4c-2.209 0-4 1.791-4 4zM9 17c1.105 0 2-0.895 2-2s-0.895-2-2-2c-1.105 0-2 0.895-2 2s0.895 2 2 2zM8 15c0 0.552 0.448 1 1 1s1-0.448 1-1c0-0.552-0.448-1-1-1s-1 0.448-1 1z"></path>
</svg>
