<!-- Generated by IcoMoon.io -->
<svg version="1.1" xmlns="http://www.w3.org/2000/svg" width="24" height="24" viewBox="0 0 24 24">
<title>music-player-fast-back-24</title>
<path d="M2.341 12.753l8 7c0.647 0.566 1.659 0.107 1.659-0.753v-14c0-0.859-1.012-1.318-1.659-0.753l-8 7c-0.455 0.398-0.455 1.107 0 1.505zM12.342 12.753l8 7c0.647 0.566 1.659 0.107 1.659-0.753v-14c0-0.859-1.012-1.318-1.659-0.753l-8 7c-0.455 0.398-0.455 1.107 0 1.505zM10 7.204l-5.481 4.796 5.481 4.796v-9.592zM20 7.204v9.592l-5.481-4.796 5.481-4.796z"></path>
</svg>
