<!-- Generated by IcoMoon.io -->
<svg version="1.1" xmlns="http://www.w3.org/2000/svg" width="24" height="24" viewBox="0 0 24 24">
<title>music-volume-high-24</title>
<path d="M8 8.618l4-2v10.764l-4-2v-6.764zM6.764 7l7.236-3.618v17.236l-7.236-3.618h-3.764c-1.105 0-2-0.895-2-2v-6c0-1.105 0.895-2 2-2h3.764zM6 9h-3v6h3v-6zM19.679 3.457c2.034 2.024 3.321 5.111 3.321 8.543s-1.286 6.519-3.321 8.543l-1.576-1.261c1.746-1.629 2.897-4.27 2.897-7.282s-1.151-5.654-2.897-7.283l1.576-1.261zM19 12c0-2.411-0.935-4.588-2.425-6.060l-1.578 1.262c1.21 1.090 2.003 2.824 2.003 4.798s-0.793 3.708-2.003 4.798l1.578 1.262c1.49-1.472 2.425-3.649 2.425-6.060z"></path>
</svg>
