<!-- Generated by IcoMoon.io -->
<svg version="1.1" xmlns="http://www.w3.org/2000/svg" width="24" height="24" viewBox="0 0 24 24">
<title>notifications-question-circle-24</title>
<path d="M1 12c0 6.075 4.925 11 11 11s11-4.925 11-11c0-6.075-4.925-11-11-11s-11 4.925-11 11zM21 12c0 4.971-4.029 9-9 9s-9-4.029-9-9c0-4.971 4.029-9 9-9s9 4.029 9 9zM12 16.998c0.552 0 1-0.448 1-1s-0.448-1-1-1c-0.552 0-1 0.448-1 1s0.448 1 1 1zM11 14h2c0-0.798 0.125-0.945 0.947-1.356 1.428-0.714 2.053-1.443 2.053-3.144 0-2.179-1.716-3.5-4-3.5-2.209 0-4 1.791-4 4h2c0-1.105 0.895-2 2-2 1.277 0 2 0.556 2 1.5 0 0.798-0.125 0.945-0.947 1.356-1.428 0.714-2.053 1.443-2.053 3.144z"></path>
</svg>
