<!-- Generated by IcoMoon.io -->
<svg version="1.1" xmlns="http://www.w3.org/2000/svg" width="24" height="24" viewBox="0 0 24 24">
<title>notifications-alert-triangle-24</title>
<path d="M22.442 15.953l-7.005-11.976c-0.703-1.219-2.014-1.976-3.432-1.978s-2.729 0.752-3.441 1.978l-7.008 11.98c-0.727 1.222-0.743 2.753-0.039 4.002 0.704 1.25 2.023 2.027 3.458 2.039h14.038c1.45-0.014 2.766-0.789 3.471-2.038 0.703-1.247 0.688-2.775-0.041-4.007zM3.278 16.974l7.013-11.989c0.355-0.611 1.007-0.986 1.711-0.985s1.356 0.377 1.705 0.982l7.011 11.985c0.367 0.621 0.375 1.386 0.023 2.010s-1.012 1.014-1.738 1.021l-14.020-0c-0.711-0.006-1.371-0.395-1.724-1.021s-0.344-1.392 0.020-2.003zM12 17.998c0.552 0 1-0.448 1-1s-0.448-1-1-1c-0.552 0-1 0.448-1 1s0.448 1 1 1zM13.004 7.998h-2.001v7h2.001v-7z"></path>
</svg>
