<!-- Generated by IcoMoon.io -->
<svg version="1.1" xmlns="http://www.w3.org/2000/svg" width="24" height="24" viewBox="0 0 24 24">
<title>notifications-bell-checked-24</title>
<path d="M16.162 6.522c-0.914-1.617-2.474-2.511-4.162-2.511-2.667 0-5 2.207-5 5.985 0 3.117-0.706 5.077-2.042 6.53-0.21 0.228-0.662 0.648-0.958 0.919v0.561h16v-0.562c-0.298-0.274-0.749-0.694-0.96-0.924-0.345-0.376-0.647-0.786-0.906-1.24l1.487-1.487c0.235 0.537 0.534 0.985 0.894 1.378 0.167 0.182 0.621 0.601 0.922 0.878l0 0c0.139 0.128 0.245 0.225 0.275 0.256l0.288 0.292v3.409h-6.126c-0.25 0.984-0.867 1.846-1.787 2.407-1.282 0.782-2.894 0.782-4.176 0-1.042-0.636-1.618-1.346-1.824-2.407h-6.088v-3.409l0.288-0.292c0.033-0.034 0.144-0.135 0.287-0.267 0.302-0.277 0.747-0.687 0.911-0.866 0.983-1.069 1.514-2.544 1.514-5.177 0-4.069 2.235-6.879 5.135-7.721 0.105-0.271 0.27-0.522 0.495-0.733 0.77-0.723 1.969-0.723 2.739 0 0.225 0.212 0.391 0.464 0.496 0.735 1.484 0.433 2.796 1.384 3.722 2.754l-1.425 1.491zM10.179 20.006c0.141 0.263 0.382 0.461 0.775 0.701 0.642 0.392 1.45 0.392 2.092 0 0.297-0.181 0.53-0.421 0.691-0.701h-3.558zM19.293 7.293l-4.293 4.293-2.293-2.293-1.414 1.414 3.707 3.707 5.707-5.707-1.414-1.414z"></path>
</svg>
