<!-- Generated by IcoMoon.io -->
<svg version="1.1" xmlns="http://www.w3.org/2000/svg" width="24" height="24" viewBox="0 0 24 24">
<title>notifications-bell-no-24</title>
<path d="M19 14.78v-4.784c0-4.057-2.238-6.874-5.135-7.719-0.105-0.271-0.271-0.523-0.496-0.735-0.77-0.723-1.969-0.723-2.739 0-0.225 0.211-0.39 0.463-0.495 0.733-0.867 0.252-1.675 0.679-2.381 1.264l1.422 1.421c0.815-0.621 1.794-0.949 2.824-0.949 2.66 0 5 2.218 5 5.985 0 1.184 0.102 2.201 0.303 3.088l1.697 1.696zM14.088 22.413c0.92-0.561 1.536-1.423 1.787-2.407h2.718l2.701 2.701 1.414-1.414-20-20-1.414 1.414 4.194 4.194c-0.314 0.923-0.487 1.96-0.487 3.095 0 2.633-0.531 4.108-1.514 5.177-0.164 0.179-0.61 0.588-0.911 0.866-0.143 0.131-0.253 0.233-0.287 0.267l-0.288 0.292v3.409h6.088c0.206 1.062 0.782 1.772 1.824 2.407 1.282 0.782 2.894 0.782 4.176 0zM7.125 8.539l9.468 9.468h-12.593v-0.561c0.296-0.271 0.748-0.691 0.958-0.919 1.336-1.453 2.042-3.413 2.042-6.53 0-0.515 0.043-1.002 0.125-1.457zM10.179 20.006h3.558c-0.161 0.28-0.393 0.52-0.691 0.701-0.642 0.392-1.45 0.392-2.092 0-0.393-0.24-0.634-0.438-0.775-0.701z"></path>
</svg>
