<!-- Generated by IcoMoon.io -->
<svg version="1.1" xmlns="http://www.w3.org/2000/svg" width="16" height="16" viewBox="0 0 16 16">
<title>options-16</title>
<path d="M10 2c-1.306 0-2.417 0.835-2.829 2h-7.171v2h7.171c0.412 1.165 1.523 2 2.829 2 1.657 0 3-1.343 3-3s-1.343-3-3-3zM5 8c-1.306 0-2.417 0.835-2.829 2h-2.171v2h2.171c0.412 1.165 1.523 2 2.829 2 1.657 0 3-1.343 3-3s-1.343-3-3-3zM9 10h7v2h-7v-2zM6 11c0 0.552-0.448 1-1 1s-1-0.448-1-1c0-0.552 0.448-1 1-1s1 0.448 1 1zM14 4h2v2h-2v-2zM11 5c0 0.552-0.448 1-1 1s-1-0.448-1-1c0-0.552 0.448-1 1-1s1 0.448 1 1z"></path>
</svg>
