<!-- Generated by IcoMoon.io -->
<svg version="1.1" xmlns="http://www.w3.org/2000/svg" width="16" height="16" viewBox="0 0 16 16">
<title>paperclip-16</title>
<path d="M8.653 2.608l-5.51 5.349c-1.42 1.379-1.42 3.614 0 4.992s3.723 1.379 5.143 0l6.245-6.062 1.469 1.426-6.245 6.062c-2.232 2.166-5.85 2.166-8.081 0s-2.232-5.679 0-7.845l5.51-5.349c1.623-1.575 4.254-1.575 5.877 0s1.623 4.13 0 5.705l-5.51 5.349c-1.014 0.985-2.659 0.985-3.673 0s-1.014-2.581 0-3.566l5.51-5.349 1.469 1.426-5.51 5.349c-0.203 0.197-0.203 0.516 0 0.713s0.532 0.197 0.735 0l5.51-5.349c0.812-0.788 0.812-2.065 0-2.853s-2.127-0.788-2.939 0z"></path>
</svg>
