<!-- Generated by IcoMoon.io -->
<svg version="1.1" xmlns="http://www.w3.org/2000/svg" width="16" height="16" viewBox="0 0 16 16">
<title>pencil-16</title>
<path d="M11 1c0.529 0 0.987 0.209 1.354 0.58l2.067 2.067c0.371 0.371 0.578 0.826 0.578 1.353 0 0.524-0.206 1.067-0.578 1.44l-7.531 7.528c-0.524 0.604-1.266 0.975-2.134 1.034h-3.756v-1l0.003-2.837c0.064-0.789 0.43-1.522 0.979-2.005l7.579-7.579c0.372-0.374 0.914-0.581 1.439-0.581zM3.352 10.616c-0.206 0.182-0.333 0.436-0.352 0.629v1.757l1.686 0.002c0.268-0.019 0.517-0.144 0.742-0.399l4.382-4.382-2.032-2.032-4.426 4.424zM9.192 4.778l2.032 2.032 1.766-1.766-2.031-2.031-1.766 1.766z"></path>
</svg>
