<!-- Generated by IcoMoon.io -->
<svg version="1.1" xmlns="http://www.w3.org/2000/svg" width="16" height="16" viewBox="0 0 16 16">
<title>pin--16</title>
<path d="M6.969 15.081l1.031 0.919 1.031-0.919c3.291-2.933 4.969-5.539 4.969-7.978 0-3.463-2.657-6.103-6-6.103s-6 2.64-6 6.103c0 2.439 1.678 5.045 4.969 7.978zM8 3c2.241 0 4 1.748 4 4.103 0 1.67-1.298 3.744-4 6.214-2.702-2.47-4-4.544-4-6.214 0-2.355 1.759-4.103 4-4.103zM8 4c1.657 0 3 1.343 3 3s-1.343 3-3 3c-1.657 0-3-1.343-3-3s1.343-3 3-3zM7 7c0-0.552 0.448-1 1-1s1 0.448 1 1c0 0.552-0.448 1-1 1s-1-0.448-1-1z"></path>
</svg>
