<!-- Generated by IcoMoon.io -->
<svg version="1.1" xmlns="http://www.w3.org/2000/svg" width="16" height="16" viewBox="0 0 16 16">
<title>question-circle-16</title>
<path d="M0 8c0 4.418 3.582 8 8 8s8-3.582 8-8c0-4.418-3.582-8-8-8s-8 3.582-8 8zM14 8c0 3.314-2.686 6-6 6s-6-2.686-6-6c0-3.314 2.686-6 6-6s6 2.686 6 6zM7 10v-0.5c0-1.218 0.424-1.818 1.4-2.55 0.524-0.393 0.6-0.501 0.6-0.95 0-0.552-0.448-1-1-1s-1 0.448-1 1h-2c0-1.657 1.343-3 3-3s3 1.343 3 3c0 1.218-0.424 1.818-1.4 2.55-0.524 0.393-0.6 0.501-0.6 0.95v0.5h-2zM9.001 11.998c0 0.552-0.448 1-1 1s-1-0.448-1-1c0-0.552 0.448-1 1-1s1 0.448 1 1z"></path>
</svg>
