<!-- Generated by IcoMoon.io -->
<svg version="1.1" xmlns="http://www.w3.org/2000/svg" width="24" height="24" viewBox="0 0 24 24">
<title>reactions-smiled-24</title>
<path d="M12 23c-6.075 0-11-4.925-11-11s4.925-11 11-11c6.075 0 11 4.925 11 11s-4.925 11-11 11zM12 21c4.971 0 9-4.029 9-9s-4.029-9-9-9c-4.971 0-9 4.029-9 9s4.029 9 9 9zM16.911 15.448l-1.636-1.151c-0.745 1.060-1.955 1.702-3.275 1.702s-2.529-0.642-3.275-1.702l-1.636 1.151c1.116 1.587 2.933 2.552 4.911 2.552s3.795-0.965 4.911-2.552zM14 11v-2h2v2h-2zM8 9v2h2v-2h-2z"></path>
</svg>
