<!-- Generated by IcoMoon.io -->
<svg version="1.1" xmlns="http://www.w3.org/2000/svg" width="24" height="24" viewBox="0 0 24 24">
<title>reactions-shocked-24</title>
<path d="M1 12c0 6.075 4.925 11 11 11s11-4.925 11-11c0-6.075-4.925-11-11-11s-11 4.925-11 11zM21 12c0 4.971-4.029 9-9 9s-9-4.029-9-9c0-4.971 4.029-9 9-9s9 4.029 9 9zM12 10c2.209 0 4 1.791 4 4v1c0 2.209-1.791 4-4 4s-4-1.791-4-4v-1c0-2.209 1.791-4 4-4zM10 14c0-1.105 0.895-2 2-2s2 0.895 2 2v1c0 1.105-0.895 2-2 2s-2-0.895-2-2v-1zM15 7h2v2h-2v-2zM9 7h-2v2h2v-2z"></path>
</svg>
