<!-- Generated by IcoMoon.io -->
<svg version="1.1" xmlns="http://www.w3.org/2000/svg" width="24" height="24" viewBox="0 0 24 24">
<title>reactions-laughing-24</title>
<path d="M1 12c0 6.075 4.925 11 11 11s11-4.925 11-11c0-6.075-4.925-11-11-11s-11 4.925-11 11zM21 12c0 4.971-4.029 9-9 9s-9-4.029-9-9c0-4.971 4.029-9 9-9s9 4.029 9 9zM12.032 19c-3.358 0-5.226-1.768-5.226-5v-1h10.309l0.028 0.972c0.092 3.243-1.743 5.028-5.111 5.028zM15.087 15c-0.235 1.395-1.179 2-3.055 2-1.876 0-2.85-0.61-3.135-2h6.191zM14 8h3v2h-3v-2zM10 8h-3v2h3v-2z"></path>
</svg>
