<!-- Generated by IcoMoon.io -->
<svg version="1.1" xmlns="http://www.w3.org/2000/svg" width="24" height="24" viewBox="0 0 24 24">
<title>security-lock-no-24</title>
<path d="M2.414 1.293l20 20-1.414 1.414-1.416-1.416c-0.372 0.438-0.954 0.708-1.584 0.708h-12c-1.068 0-2-0.776-2-1.833v-8.333c0-1.057 0.932-1.833 2-1.833h1v-1.293l-6-6 1.414-1.414zM18 19.707l-7.707-7.707h-4.293v8h12v-0.293zM18 14.079v-2.079h-2.079l-2-2h1.079v-3c0-1.657-1.343-3-3-3-1.105 0-2.071 0.598-2.591 1.487l-1.442-1.442c0.91-1.24 2.378-2.045 4.034-2.045 2.761 0 5 2.239 5 5v3h1c1.068 0 2 0.776 2 1.833v4.245l-2-2zM12 17c0.552 0 1-0.448 1-1s-0.448-1-1-1c-0.552 0-1 0.448-1 1s0.448 1 1 1z"></path>
</svg>
