<!-- Generated by IcoMoon.io -->
<svg version="1.1" xmlns="http://www.w3.org/2000/svg" width="24" height="24" viewBox="0 0 24 24">
<title>security-shield-24</title>
<path d="M3 15c0 2.66 3 5.327 9 8 6-2.667 9-5.333 9-8 0-0.381 0.002-1.197 0.004-2.205 0.006-2.958 0.016-7.577-0.004-7.795 0-0.768-0.295-0.946-1.11-1.44-0.247-0.149-0.541-0.328-0.89-0.56-1.5-1-4.005-2-7-2-3.437 0-6.838 1.892-7 2-0.349 0.232-0.643 0.411-0.89 0.56-0.815 0.494-1.11 0.672-1.11 1.44v10zM19.002 13.755c-0.001 0.629-0.002 1.015-0.002 1.245 0 1.514-2.228 3.574-6.999 5.802-4.772-2.233-7.001-4.293-7.001-5.802v-9.637c0.040-0.025 0.083-0.052 0.128-0.079 0.323-0.201 0.745-0.462 0.982-0.62 0.919-0.613 3.729-1.664 5.891-1.664 2.26 0 4.414 0.68 5.891 1.664 0.237 0.158 0.658 0.419 0.982 0.62 0.048 0.030 0.094 0.059 0.137 0.085 0.002 0.593 0.003 2.508-0.001 4.741-0.001 0.517-0.002 1.060-0.003 1.692l-0.004 1.953z"></path>
</svg>
