<!-- Generated by IcoMoon.io -->
<svg version="1.1" xmlns="http://www.w3.org/2000/svg" width="24" height="24" viewBox="0 0 24 24">
<title>security-lock-circle-24</title>
<path d="M1 12c0 6.075 4.925 11 11 11s11-4.925 11-11c0-6.075-4.925-11-11-11s-11 4.925-11 11zM21 12c0 4.971-4.029 9-9 9s-9-4.029-9-9c0-4.971 4.029-9 9-9s9 4.029 9 9zM11 8v2h2v-2c0-0.552-0.448-1-1-1s-1 0.448-1 1zM15 10c1.105 0 2 0.895 2 2v4c0 1.105-0.895 2-2 2h-6c-1.105 0-2-0.895-2-2v-4c0-1.105 0.895-2 2-2v-2c0-1.657 1.343-3 3-3s3 1.343 3 3v2zM9 12v4h6v-4h-6zM11 14c0 0.552 0.448 1 1 1s1-0.448 1-1c0-0.552-0.448-1-1-1s-1 0.448-1 1z"></path>
</svg>
