<!-- Generated by IcoMoon.io -->
<svg version="1.1" xmlns="http://www.w3.org/2000/svg" width="24" height="24" viewBox="0 0 24 24">
<title>security-key-24</title>
<path d="M8 9c0-3.866 3.134-7 7-7s7 3.134 7 7c0 3.866-3.134 7-7 7h-2v2h-2v2h-2v2h-7v-5.414l6.148-6.148c-0.098-0.469-0.148-0.95-0.148-1.438zM11 16v-2h4c2.761 0 5-2.239 5-5s-2.239-5-5-5c-2.761 0-5 2.239-5 5 0 0.499 0.073 0.986 0.214 1.453l0.174 0.573-6.388 6.388v2.586h3v-2h2v-2h2zM13 9c0 1.105 0.895 2 2 2s2-0.895 2-2c0-1.105-0.895-2-2-2s-2 0.895-2 2z"></path>
</svg>
