<!-- Generated by IcoMoon.io -->
<svg version="1.1" xmlns="http://www.w3.org/2000/svg" width="24" height="24" viewBox="0 0 24 24">
<title>security-shield-no-24</title>
<path d="M12 1c-2.091 0-4.169 0.701-5.512 1.273l1.522 1.522c1.207-0.427 2.712-0.795 3.991-0.795 2.26 0 4.414 0.68 5.891 1.664 0.237 0.158 0.658 0.419 0.981 0.62 0.048 0.030 0.094 0.059 0.137 0.085 0.002 0.593 0.003 2.508-0 4.741-0.001 0.518-0.002 1.060-0.003 1.692l-0.004 1.953c-0.001 0.465-0.001 0.797-0.002 1.031l1.692 1.692c0.205-0.493 0.307-0.986 0.307-1.478 0-0.381 0.002-1.197 0.004-2.205 0.006-2.958 0.016-7.577-0.004-7.795 0-0.768-0.295-0.946-1.11-1.44-0.247-0.149-0.541-0.328-0.89-0.56-1.5-1-4.005-2-7-2zM3.070 4.485l-1.778-1.778 1.414-1.414 20 20-1.414 1.414-3.178-3.178c-1.474 1.157-3.512 2.314-6.115 3.471-6-2.673-9-5.34-9-8v-10c0-0.21 0.022-0.375 0.070-0.515zM16.694 18.108l-11.694-11.694v8.586c0 1.509 2.229 3.569 7.001 5.802 2.006-0.937 3.563-1.844 4.693-2.694z"></path>
</svg>
