<!-- Generated by IcoMoon.io -->
<svg version="1.1" xmlns="http://www.w3.org/2000/svg" width="24" height="24" viewBox="0 0 24 24">
<title>security-face-ID-24</title>
<path d="M16 2h4.182c1.004 0 1.818 0.895 1.818 2v4h-2v-4h-4v-2zM3.818 22h4.182v-2h-4v-4h-2v4c0 1.105 0.814 2 1.818 2zM16 20v2h4.182c1.004 0 1.818-0.895 1.818-2v-4h-2v4h-4zM8 4v-2h-4.182c-1.004 0-1.818 0.895-1.818 2v4h2v-4h4z"></path>
<path d="M12 18c-3.552 0-5-2.448-5-4h2c0 0.448 0.552 2 3 2s3-1.552 3-2h2c0 1.552-1.448 4-5 4z"></path>
<path d="M10.997 7h2l0 2.125c0 1.126 0.001 2.374 0.003 2.872l0 0.003c0 0.575-0.278 1.067-0.605 1.395s-0.819 0.605-1.395 0.605h-0.707l-0-2h0.664c0-0-0 0 0 0 0.007-0.005 0.016-0.012 0.024-0.020s0.014-0.016 0.019-0.023c0-0 0 0 0 0-0.001-0.529-0.002-1.741-0.002-2.832l-0-2.125z"></path>
<path d="M15 7h2v3h-2v-3z"></path>
<path d="M7 7h2v3h-2v-3z"></path>
</svg>
