<!-- Generated by IcoMoon.io -->
<svg version="1.1" xmlns="http://www.w3.org/2000/svg" width="24" height="24" viewBox="0 0 24 24">
<title>security-shield-ok-24</title>
<path d="M12 23c-6-2.673-9-5.34-9-8v-10c0-0.768 0.295-0.946 1.11-1.44v0c0.247-0.149 0.541-0.328 0.89-0.56 0.162-0.108 3.563-2 7-2 2.995 0 5.5 1 7 2 0.349 0.232 0.643 0.411 0.89 0.56 0.815 0.494 1.11 0.672 1.11 1.44 0.020 0.217 0.010 4.837 0.004 7.795-0.002 1.009-0.004 1.824-0.004 2.205 0 2.667-3 5.333-9 8zM19 15c0-0.23 0.001-0.616 0.002-1.245l0.004-1.953c0.001-0.632 0.002-1.174 0.003-1.692 0.004-2.232 0.003-4.148 0.001-4.741l-0.137-0.085c-0.323-0.201-0.745-0.462-0.982-0.62-1.476-0.984-3.63-1.664-5.891-1.664-2.162 0-4.971 1.051-5.891 1.664-0.237 0.158-0.658 0.419-0.982 0.62v0l-0.128 0.079v9.637c0 1.509 2.229 3.569 7.001 5.802 4.771-2.228 6.999-4.288 6.999-5.802zM15.293 8.293l-4.293 4.293-2.293-2.293-1.414 1.414 3.707 3.707 5.707-5.707-1.414-1.414z"></path>
</svg>
