<!-- Generated by IcoMoon.io -->
<svg version="1.1" xmlns="http://www.w3.org/2000/svg" width="24" height="24" viewBox="0 0 24 24">
<title>security-key-no-24</title>
<path d="M1.293 2.707l6.72 6.72c0.021 0.341 0.066 0.679 0.135 1.011l-6.148 6.148v5.414h7v-2h2v-2h2v-2h1.586l6.707 6.707 1.414-1.414-20-20-1.414 1.414zM10 11.414l2.586 2.586h-1.586v2h-2v2h-2v2h-3v-2.586l6-6zM9.238 5.024c1.263-1.827 3.373-3.024 5.762-3.024 3.866 0 7 3.134 7 7 0 2.389-1.197 4.499-3.024 5.762l-1.447-1.447c1.479-0.869 2.471-2.475 2.471-4.314 0-2.761-2.239-5-5-5-1.839 0-3.446 0.993-4.314 2.471l-1.447-1.447zM15 7c-1.036 0-1.888 0.787-1.99 1.796l2.194 2.194c1.009-0.102 1.796-0.954 1.796-1.99 0-1.105-0.896-2-2-2z"></path>
</svg>
