<!-- Generated by IcoMoon.io -->
<svg version="1.1" xmlns="http://www.w3.org/2000/svg" width="24" height="24" viewBox="0 0 24 24">
<title>security-verified-24</title>
<path d="M4.222 19.778c-0.924-0.924-1.189-2.334-0.9-4.184-1.513-1.103-2.322-2.287-2.322-3.594s0.809-2.491 2.322-3.594c-0.29-1.85-0.025-3.26 0.9-4.184s2.334-1.189 4.184-0.9c1.103-1.513 2.287-2.322 3.594-2.322s2.491 0.809 3.594 2.322c1.85-0.29 3.26-0.025 4.184 0.9s1.189 2.334 0.9 4.184c1.513 1.103 2.322 2.287 2.322 3.594s-0.809 2.491-2.322 3.594c0.29 1.85 0.025 3.26-0.9 4.184s-2.334 1.189-4.184 0.9c-1.103 1.513-2.287 2.322-3.594 2.322s-2.491-0.809-3.594-2.322c-1.85 0.29-3.26 0.025-4.184-0.9zM8.653 18.598c0.406-0.087 0.823 0.086 1.049 0.435 0.881 1.361 1.666 1.968 2.298 1.968s1.418-0.607 2.298-1.968c0.226-0.348 0.643-0.521 1.049-0.435 1.585 0.339 2.569 0.213 3.017-0.234s0.573-1.431 0.234-3.017c-0.087-0.406 0.086-0.823 0.435-1.049 1.361-0.881 1.968-1.666 1.968-2.298s-0.607-1.418-1.968-2.298c-0.348-0.226-0.521-0.643-0.435-1.049 0.339-1.585 0.213-2.569-0.234-3.017s-1.431-0.573-3.017-0.234c-0.406 0.087-0.823-0.086-1.049-0.434-0.881-1.361-1.666-1.968-2.298-1.968s-1.418 0.607-2.298 1.968c-0.226 0.349-0.643 0.521-1.049 0.434-1.585-0.339-2.569-0.213-3.017 0.234s-0.573 1.432-0.234 3.017c0.087 0.406-0.086 0.823-0.434 1.049-1.361 0.881-1.968 1.666-1.968 2.298s0.607 1.418 1.968 2.298c0.349 0.226 0.521 0.643 0.434 1.049-0.339 1.585-0.213 2.569 0.234 3.017s1.432 0.573 3.017 0.234zM15.293 8.293l-4.293 4.293-2.293-2.293-1.414 1.414 3.707 3.707 5.707-5.707-1.414-1.414z"></path>
</svg>
