<!-- Generated by IcoMoon.io -->
<svg version="1.1" xmlns="http://www.w3.org/2000/svg" width="24" height="24" viewBox="0 0 24 24">
<title>shopping-cart-24</title>
<path d="M6.071 4.003c-0.178-0-0.349 0.020-0.512 0.058-0.223-0.492-0.518-0.933-0.853-1.268-0.569-0.569-1.466-0.793-2.707-0.793v2c0.758 0 1.195 0.109 1.293 0.207 0.378 0.378 0.707 1.146 0.707 1.793l0.010 0.141 0.98 6.859c-1.64 0.085-2.91 1.358-2.989 2.95l-0.001 1.050c0.097 1.644 1.363 2.909 2.943 2.998l0.227 0c0.411 1.166 1.523 2.001 2.83 2.001s2.418-0.835 2.829-2h2.341c0.412 1.165 1.523 2 2.829 2 1.657 0 3-1.343 3-3s-1.343-3-3-3c-1.306 0-2.418 0.835-2.829 2h-2.341c-0.412-1.165-1.523-2-2.829-2s-2.417 0.835-2.829 2h-0.171c-0.51-0.031-0.967-0.488-1.002-1.060l0.002-0.94c0.027-0.519 0.481-0.973 1.050-1.001l12.067 0.001 0.148-0.047c0.758-0.241 1.365-0.812 1.653-1.551l0.105-0.208 0.342-0.678c0.354-0.702 0.708-1.405 1.053-2.092 0.845-1.683 1.377-2.752 1.494-3.015 0.605-1.349-0.62-2.387-1.872-2.409l-13.969-0.998zM16.769 13h-9.657c-0.064-0.018-0.113-0.072-0.123-0.14l-0.98-6.859 13.883 0.994c-0.243 0.495-0.684 1.38-1.263 2.531l-0.015 0.029c-0.33 0.657-0.684 1.359-1.037 2.060l-0.471 0.934-0.049 0.113c-0.052 0.146-0.156 0.265-0.289 0.338zM16 20c0.552 0 1-0.448 1-1s-0.448-1-1-1c-0.552 0-1 0.448-1 1s0.448 1 1 1zM9 19c0 0.552-0.448 1-1 1s-1-0.448-1-1c0-0.552 0.448-1 1-1s1 0.448 1 1z"></path>
</svg>
