<!-- Generated by IcoMoon.io -->
<svg version="1.1" xmlns="http://www.w3.org/2000/svg" width="24" height="24" viewBox="0 0 24 24">
<title>shopping-tote-24</title>
<path d="M7.034 6h-2.881c-0.095 0-0.189 0.007-0.283 0.020-1.093 0.156-1.853 1.169-1.697 2.263l1.714 12c0.141 0.985 0.985 1.717 1.98 1.717h12.265c0.995 0 1.839-0.732 1.98-1.717l1.714-12c0.013-0.094 0.020-0.188 0.020-0.283 0-1.105-0.895-2-2-2h-2.881c-0.294-2.185-2.477-4-4.966-4s-4.672 1.815-4.966 4zM14.928 6h-5.856c0.304-1.062 1.53-2 2.928-2s2.624 0.938 2.928 2zM4.153 8h2.847v2h2v-2h6v2h2v-2h2.847l-1.714 12h-12.265l-1.714-12z"></path>
</svg>
