<!-- Generated by IcoMoon.io -->
<svg version="1.1" xmlns="http://www.w3.org/2000/svg" width="24" height="24" viewBox="0 0 24 24">
<title>shopping-delivery-24</title>
<path d="M16.382 7h-13.382v9h1.171c0.412-1.165 1.523-2 2.829-2s2.417 0.835 2.829 2h4.341c0.412-1.165 1.523-2 2.829-2s2.418 0.835 2.829 2h1.171v-3.465l-2.776-1.851-1.842-3.685zM21 18h-1.171c-0.412 1.165-1.523 2-2.829 2s-2.418-0.835-2.829-2h-4.341c-0.412 1.165-1.523 2-2.829 2s-2.417-0.835-2.829-2h-1.171c-1.105 0-2-0.895-2-2v-9c0-1.105 0.895-2 2-2h13.382c0.758 0 1.45 0.428 1.789 1.106l1.605 3.21 3.224 2.15v4.535c0 1.105-0.895 2-2 2zM8 17c0-0.552-0.448-1-1-1s-1 0.448-1 1c0 0.552 0.448 1 1 1s1-0.448 1-1zM18 17c0-0.552-0.448-1-1-1s-1 0.448-1 1c0 0.552 0.448 1 1 1s1-0.448 1-1z"></path>
</svg>
