<!-- Generated by IcoMoon.io -->
<svg version="1.1" xmlns="http://www.w3.org/2000/svg" width="24" height="24" viewBox="0 0 24 24">
<title>shopping-gift-24</title>
<path d="M5.497 7c-0.328-0.537-0.497-1.197-0.497-2 0-1.583 1.19-3 3-3 1.812 0 3.273 1.214 4 3.114 0.727-1.9 2.188-3.114 4-3.114 1.81 0 3 1.417 3 3 0 0.803-0.169 1.463-0.497 2h1.497c1.105 0 2 0.895 2 2v2c0 1.105-0.895 2-2 2v7c0 1.105-0.895 2-2 2h-12c-1.105 0-2-0.895-2-2v-7c-1.105 0-2-0.895-2-2v-2c0-1.105 0.895-2 2-2h1.497zM11 9h-7v2h7v-2zM20 11v-2h-7v2h7zM11 20v-7h-5v7h5zM18 20v-7h-5v7h5zM8 4c-0.62 0-1 0.452-1 1 0 1.253 1.017 1.849 3.429 1.974-0.268-1.863-1.267-2.975-2.429-2.975zM13.5 6.974c2.412-0.125 3.429-0.721 3.429-1.974 0-0.548-0.38-1-1-1-1.162 0-2.161 1.112-2.429 2.974z"></path>
</svg>
