<!-- Generated by IcoMoon.io -->
<svg version="1.1" xmlns="http://www.w3.org/2000/svg" width="24" height="24" viewBox="0 0 24 24">
<title>shopping-pos-24</title>
<path d="M20 6c1.105 0 2 0.895 2 2v8c0 1.105-0.895 2-2 2h-4v1.941c0 1.125-0.882 2.059-2 2.059h-10c-1.118 0-2-0.934-2-2.059v-15.882c0-1.125 0.882-2.059 2-2.059h10c1.118 0 2 0.934 2 2.059v1.941h4zM16 11v5h4v-5h-4zM14 19.941v-15.882c0-0.020-0.003-0.034-0.004-0.043-0.002-0.012-0.003-0.016 0.004-0.016h-10c0.007 0 0.007 0.004 0.004 0.016-0.002 0.009-0.004 0.023-0.004 0.043v15.882c0 0.020 0.003 0.034 0.004 0.043 0.002 0.012 0.003 0.016-0.004 0.016h10c-0.007 0-0.006-0.004-0.004-0.016 0.002-0.009 0.004-0.023 0.004-0.043zM5 17h2v2h-2v-2zM8 19h2v-2h-2v2zM11 17h2v2h-2v-2zM5 16h2v-2h-2v2zM8 14h2v2h-2v-2zM11 16h2v-2h-2v2zM13 13h-8v-8h8v8zM7 7v4h4v-4h-4zM20 8h-4v1h4v-1z"></path>
</svg>
