<!-- Generated by IcoMoon.io -->
<svg version="1.1" xmlns="http://www.w3.org/2000/svg" width="24" height="24" viewBox="0 0 24 24">
<title>shopping-discount-24</title>
<path d="M12 23c-6.075 0-11-4.925-11-11s4.925-11 11-11c6.075 0 11 4.925 11 11s-4.925 11-11 11zM12 21c4.971 0 9-4.029 9-9s-4.029-9-9-9c-4.971 0-9 4.029-9 9s4.029 9 9 9zM13 15c0 1.657 1.343 3 3 3s3-1.343 3-3c0-1.657-1.343-3-3-3s-3 1.343-3 3zM16 16c0.552 0 1-0.448 1-1s-0.448-1-1-1c-0.552 0-1 0.448-1 1s0.448 1 1 1zM5 9c0 1.657 1.343 3 3 3s3-1.343 3-3c0-1.657-1.343-3-3-3s-3 1.343-3 3zM8 10c0.552 0 1-0.448 1-1s-0.448-1-1-1c-0.552 0-1 0.448-1 1s0.448 1 1 1zM10.118 18l6-12h-2.236l-6 12h2.236z"></path>
</svg>
