<!-- Generated by IcoMoon.io -->
<svg version="1.1" xmlns="http://www.w3.org/2000/svg" width="24" height="24" viewBox="0 0 24 24">
<title>shopping-bascket-24</title>
<path d="M4 9h2c0 0.367 0.203 0.719 0.553 0.894 0.494 0.247 1.095 0.047 1.342-0.447l0.224-0.447h7.764l0.224 0.447c0.247 0.494 0.848 0.694 1.342 0.447 0.35-0.175 0.553-0.528 0.553-0.894h2v2h-16v-2zM17.118 7l-2.224-4.447c-0.247-0.494-0.848-0.694-1.342-0.447s-0.694 0.848-0.447 1.342l1.776 3.553h-5.764l1.776-3.553c0.247-0.494 0.047-1.095-0.447-1.342s-1.095-0.047-1.342 0.447l-2.224 4.447h-2.882c-1.105 0-2 0.895-2 2v2c0 0.84 0.518 1.559 1.251 1.855-0.014 0.189-0 0.384 0.043 0.579l1.556 7c0.203 0.915 1.015 1.566 1.952 1.566h10.396c0.937 0 1.749-0.651 1.952-1.566l1.556-7c0.032-0.142 0.048-0.288 0.048-0.434 0-0.049-0.002-0.097-0.005-0.145 0.734-0.296 1.252-1.015 1.252-1.855v-2c0-1.105-0.895-2-2-2h-2.882zM5.247 13h13.507l-1.556 7h-10.396l-1.556-7z"></path>
</svg>
