<!-- Generated by IcoMoon.io -->
<svg version="1.1" xmlns="http://www.w3.org/2000/svg" width="24" height="24" viewBox="0 0 24 24">
<title>shopping-coupon-24</title>
<path d="M23 18c0 1.105-0.895 2-2 2h-18c-1.105 0-2-0.895-2-2v-3.112l0.499-0.289c0.922-0.533 1.501-1.515 1.501-2.599s-0.579-2.066-1.501-2.599l-0.499-0.289v-3.112c0-1.105 0.895-2 2-2h18c1.105 0 2 0.895 2 2v3.112l-0.499 0.289c-0.922 0.533-1.501 1.515-1.501 2.599s0.579 2.066 1.501 2.599l0.499 0.289v3.112zM19 12c0-1.601 0.759-3.070 2-4.001v-1.999h-6c0 0.552-0.448 1-1 1s-1-0.448-1-1h-10v1.999c1.241 0.931 2 2.4 2 4.001s-0.759 3.070-2 4v2h10c0-0.552 0.448-1 1-1s1 0.448 1 1h6v-2c-1.241-0.931-2-2.4-2-4zM14 16c0.552 0 1-0.448 1-1s-0.448-1-1-1c-0.552 0-1 0.448-1 1s0.448 1 1 1zM15 12c0 0.552-0.448 1-1 1s-1-0.448-1-1c0-0.552 0.448-1 1-1s1 0.448 1 1zM14 10c0.552 0 1-0.448 1-1s-0.448-1-1-1c-0.552 0-1 0.448-1 1s0.448 1 1 1z"></path>
</svg>
