<!-- Generated by IcoMoon.io -->
<svg version="1.1" xmlns="http://www.w3.org/2000/svg" width="24" height="24" viewBox="0 0 24 24">
<title>shopping-bag-24</title>
<path d="M20.946 2l0.994 17.889c0.061 1.103-0.783 2.047-1.886 2.108-0.028 0.001-0.042 0.002-0.056 0.002s-0.028 0-0.056 0.001h-15.886c-1.105 0-2-0.895-2-2 0.001-0.056 0.001-0.056 0.003-0.111l0.994-17.889h17.892zM4.946 4l-0.889 16h15.886l-0.889-16h-14.108zM9 6h-2v2.5c0 2.401 2.323 4.5 5 4.5s5-2.099 5-4.5v-2.5h-2v2.5c0 1.248-1.385 2.5-3 2.5s-3-1.252-3-2.5v-2.5z"></path>
</svg>
