<!-- Generated by IcoMoon.io -->
<svg version="1.1" xmlns="http://www.w3.org/2000/svg" width="24" height="24" viewBox="0 0 24 24">
<title>shopping-cut-coupon-24</title>
<path d="M5 8c-1.657 0-3-1.343-3-3s1.343-3 3-3c1.657 0 3 1.343 3 3 0 0.313-0.048 0.614-0.137 0.898l2.47 1.852 6.067-4.55 1.2 1.6-5.6 4.2 5.6 4.2-1.2 1.6-6.067-4.55-2.47 1.852c0.089 0.283 0.137 0.585 0.137 0.898 0 1.657-1.343 3-3 3s-3-1.343-3-3c0-1.657 1.343-3 3-3 0.615 0 1.187 0.185 1.663 0.503l2.004-1.503-2.004-1.503c-0.476 0.318-1.048 0.503-1.663 0.503zM19 10v-2h-2v2h2zM20 13v-2h2v2h-2zM20 14h2v2h-2v-2zM20 22h2v-2h-2v2zM20 17h2v2h-2v-2zM17 22h2v-2h-2v2zM14 20h2v2h-2v-2zM8 22h2v-2h-2v2zM11 20h2v2h-2v-2zM5 22h2v-2h-2v2zM5 17h2v2h-2v-2zM16 8v2h-2v-2h2zM22 10v-2h-2v2h2zM5 14c0.552 0 1-0.448 1-1s-0.448-1-1-1c-0.552 0-1 0.448-1 1s0.448 1 1 1zM6 5c0-0.552-0.448-1-1-1s-1 0.448-1 1c0 0.552 0.448 1 1 1s1-0.448 1-1z"></path>
</svg>
