<!-- Generated by IcoMoon.io -->
<svg version="1.1" xmlns="http://www.w3.org/2000/svg" width="24" height="24" viewBox="0 0 24 24">
<title>software-cloud-download-24</title>
<path d="M18 17v2c2.761 0 5-2.239 5-5 0-2.515-1.857-4.596-4.275-4.948-0.85-2.947-3.567-5.052-6.725-5.052-2.347 0-4.491 1.165-5.78 3.050-2.953 0.383-5.22 2.909-5.22 5.95 0 2.973 2.162 5.441 5 5.917v-2.043c-1.725-0.444-3-2.010-3-3.874 0-2.15 1.699-3.913 3.84-3.997l0.551-0.022 0.276-0.478c0.888-1.538 2.526-2.504 4.334-2.504 2.451 0 4.53 1.776 4.931 4.166l0.143 0.852 0.864-0.018c0.016-0 0.023-0 0.031-0s0.016-0 0.031-0c1.657 0 3 1.343 3 3s-1.343 3-3 3zM11 12v6.253l-2.293-2.244-1.414 1.384 4.707 4.607 4.707-4.607-1.414-1.384-2.293 2.244v-6.253h-2z"></path>
</svg>
