<!-- Generated by IcoMoon.io -->
<svg version="1.1" xmlns="http://www.w3.org/2000/svg" width="24" height="24" viewBox="0 0 24 24">
<title>software-cloud-24</title>
<path d="M18 19c2.761 0 5-2.239 5-5 0-2.515-1.857-4.596-4.275-4.948-0.85-2.947-3.567-5.052-6.725-5.052-2.347 0-4.491 1.165-5.78 3.050-2.953 0.383-5.22 2.908-5.22 5.95 0 3.314 2.686 6 6 6h11zM21 14c0 1.657-1.343 3-3 3h-11c-2.209 0-4-1.791-4-4 0-2.15 1.699-3.913 3.84-3.997l0.551-0.022 0.276-0.478c0.888-1.538 2.526-2.504 4.334-2.504 2.451 0 4.53 1.776 4.931 4.166l0.143 0.852 0.864-0.018c0.016-0 0.023-0 0.031-0s0.016-0 0.031-0c1.657 0 3 1.343 3 3z"></path>
</svg>
