<!-- Generated by IcoMoon.io -->
<svg version="1.1" xmlns="http://www.w3.org/2000/svg" width="24" height="24" viewBox="0 0 24 24">
<title>software-cloud-connect-24</title>
<path d="M22 10.5c0-2.084-1.483-3.845-3.507-4.353-0.9-2.454-3.512-4.147-6.493-4.147-2.529 0-4.821 1.221-6.003 3.141-2.306 0.533-3.997 2.515-3.997 4.859 0 2.775 2.356 5 5.235 5h3.765v1.171c-0.852 0.301-1.528 0.977-1.829 1.829h-5.171v2h5.171c0.412 1.165 1.523 2 2.829 2s2.418-0.835 2.829-2h5.171v-2h-5.171c-0.301-0.852-0.977-1.528-1.829-1.829v-1.171h4.294c2.587 0 4.706-2.001 4.706-4.5zM13 19c0 0.552-0.448 1-1 1s-1-0.448-1-1c0-0.552 0.448-1 1-1s1 0.448 1 1zM17.607 8.016c1.367 0.145 2.393 1.222 2.393 2.484 0 1.368-1.199 2.5-2.706 2.5h-10.059c-1.799 0-3.235-1.356-3.235-3 0-1.486 1.181-2.759 2.773-2.97l0.527-0.070 0.237-0.476c0.734-1.477 2.477-2.484 4.463-2.484 2.346 0 4.311 1.401 4.738 3.247l0.16 0.694 0.708 0.075z"></path>
</svg>
