<!-- Generated by IcoMoon.io -->
<svg version="1.1" xmlns="http://www.w3.org/2000/svg" width="24" height="24" viewBox="0 0 24 24">
<title>software-cloud-no-24</title>
<path d="M17.586 19h-10.586c-3.314 0-6-2.686-6-6 0-2.868 2.016-5.277 4.722-5.864l-4.429-4.429 1.414-1.414 20 20-1.414 1.414-3.707-3.707zM7.455 8.87l-0.065 0.112-0.551 0.022c-2.14 0.084-3.84 1.847-3.84 3.997 0 2.209 1.791 4 4 4h8.586l-8.13-8.131zM20.226 16.011l1.415 1.415c0.843-0.895 1.359-2.101 1.359-3.427 0-2.515-1.857-4.596-4.275-4.948-0.85-2.947-3.567-5.052-6.725-5.052-1.091 0-2.138 0.252-3.075 0.71l1.532 1.533c0.489-0.159 1.009-0.243 1.543-0.243 2.451 0 4.53 1.776 4.931 4.166l0.143 0.852 0.864-0.018c0.016-0 0.023-0 0.031-0s0.016-0 0.031-0c1.657 0 3 1.343 3 3 0 0.774-0.293 1.479-0.774 2.011z"></path>
</svg>
