<!-- Generated by IcoMoon.io -->
<svg version="1.1" xmlns="http://www.w3.org/2000/svg" width="24" height="24" viewBox="0 0 24 24">
<title>software-database-24</title>
<path d="M5 12c0 0.837 3.101 2 7 2s7-1.163 7-2v-3.379c-1.655 0.884-4.185 1.379-7 1.379s-5.345-0.495-7-1.379v3.379zM3 12v-6c0-2.477 4.062-4 9-4s9 1.523 9 4v12c0 2.477-4.062 4-9 4s-9-1.523-9-4v-6zM19 14.621c-1.655 0.884-4.185 1.379-7 1.379s-5.345-0.495-7-1.379v3.379c0 0.837 3.101 2 7 2s7-1.163 7-2v-3.379zM12 8c3.899 0 7-1.163 7-2s-3.101-2-7-2c-3.899 0-7 1.163-7 2s3.101 2 7 2z"></path>
</svg>
