<!-- Generated by IcoMoon.io -->
<svg version="1.1" xmlns="http://www.w3.org/2000/svg" width="24" height="24" viewBox="0 0 24 24">
<title>software-code-24</title>
<path d="M12 23c-6.075 0-11-4.925-11-11s4.925-11 11-11c6.075 0 11 4.925 11 11s-4.925 11-11 11zM12 21c4.971 0 9-4.029 9-9s-4.029-9-9-9c-4.971 0-9 4.029-9 9s4.029 9 9 9zM8.293 16.707l1.414-1.414-3.293-3.293 3.293-3.293-1.414-1.414-4.707 4.707 4.707 4.707zM14.293 8.707l1.414-1.414 4.707 4.707-4.707 4.707-1.414-1.414 3.293-3.293-3.293-3.293zM10.014 17.836l1.973 0.329 2-12-1.973-0.329-2 12z"></path>
</svg>
