<!-- Generated by IcoMoon.io -->
<svg version="1.1" xmlns="http://www.w3.org/2000/svg" width="24" height="24" viewBox="0 0 24 24">
<title>software-cloud-checked-24</title>
<path d="M23 14c0 2.761-2.239 5-5 5h-11c-3.314 0-6-2.686-6-6 0-3.041 2.267-5.567 5.22-5.95 1.289-1.885 3.434-3.050 5.78-3.050 3.159 0 5.875 2.106 6.725 5.052 2.418 0.351 4.275 2.433 4.275 4.948zM18 17c1.657 0 3-1.343 3-3s-1.343-3-3-3l-0.031 0-0.031 0-0.864 0.018-0.143-0.852c-0.401-2.39-2.48-4.166-4.931-4.166-1.808 0-3.446 0.966-4.334 2.504l-0.276 0.478-0.551 0.022c-2.14 0.084-3.84 1.847-3.84 3.997 0 2.209 1.791 4 4 4h11zM13.293 9.293l-3.293 3.293-1.293-1.293-1.414 1.414 2.707 2.707 4.707-4.707-1.414-1.414z"></path>
</svg>
