<!-- Generated by IcoMoon.io -->
<svg version="1.1" xmlns="http://www.w3.org/2000/svg" width="24" height="24" viewBox="0 0 24 24">
<title>symbols-at-sign-24</title>
<path d="M14.999 7h2v5c0 2.471 0.189 3 1 3 1.304 0 2-0.617 2-3 0-5.289-2.653-8-8-8-3.464 0-6.534 2.23-7.606 5.524s0.098 6.904 2.898 8.943 6.595 2.044 9.401 0.013l1.173 1.62c-3.507 2.539-8.251 2.533-11.751-0.016s-4.963-7.061-3.623-11.179 5.178-6.905 9.508-6.905c6.461 0 10 3.616 10 10 0 3.545-1.641 5-4 5-1.344 0-2.113-0.433-2.535-1.395-0.899 0.864-2.12 1.395-3.465 1.395-2.761 0-5-2.239-5-5s2.239-5 5-5c1.126 0 2.164 0.372 3 1v-1zM14.999 12c0 1.657-1.343 3-3 3s-3-1.343-3-3 1.343-3 3-3c1.657 0 3 1.343 3 3z"></path>
</svg>
