<!-- Generated by IcoMoon.io -->
<svg version="1.1" xmlns="http://www.w3.org/2000/svg" width="24" height="24" viewBox="0 0 24 24">
<title>symbols--24</title>
<path d="M23 12c0-6.075-4.925-11-11-11s-11 4.925-11 11c0 6.075 4.925 11 11 11s11-4.925 11-11zM3 12c0-4.971 4.029-9 9-9s9 4.029 9 9c0 4.971-4.029 9-9 9s-9-4.029-9-9zM10.208 13.48l1.377 1.451c-0.719 0.682-1.664 1.070-2.667 1.070-2.17 0-3.918-1.797-3.918-4s1.748-4 3.918-4c1.071 0 2.074 0.442 2.806 1.208l-1.447 1.381c-0.359-0.376-0.842-0.589-1.359-0.589-1.053 0-1.918 0.889-1.918 2s0.865 2 1.918 2c0.484 0 0.938-0.186 1.29-0.52zM18.584 14.93l-1.377-1.451c-0.352 0.334-0.806 0.52-1.29 0.52-1.053 0-1.918-0.889-1.918-2s0.865-2 1.918-2c0.517 0 1 0.213 1.359 0.589l1.447-1.381c-0.731-0.766-1.734-1.208-2.806-1.208-2.17 0-3.918 1.797-3.918 4s1.748 4 3.918 4c1.003 0 1.948-0.388 2.667-1.070z"></path>
</svg>
