<!-- Generated by IcoMoon.io -->
<svg version="1.1" xmlns="http://www.w3.org/2000/svg" width="24" height="24" viewBox="0 0 24 24">
<title>symbols-command-24</title>
<path d="M14 8h-4v-2c0-2.209-1.791-4-4-4s-4 1.791-4 4c0 2.209 1.791 4 4 4h2v4h-2c-2.209 0-4 1.791-4 4s1.791 4 4 4c2.209 0 4-1.791 4-4v-2h4v2c0 2.209 1.791 4 4 4s4-1.791 4-4c0-2.209-1.791-4-4-4h-2v-4h2c2.209 0 4-1.791 4-4s-1.791-4-4-4c-2.209 0-4 1.791-4 4v2zM10 14v-4h4v4h-4zM16 16v2c0 1.105 0.895 2 2 2s2-0.895 2-2c0-1.105-0.895-2-2-2h-2zM6 16h2v2c0 1.105-0.895 2-2 2s-2-0.895-2-2c0-1.105 0.895-2 2-2zM16 8h2c1.105 0 2-0.895 2-2s-0.895-2-2-2c-1.105 0-2 0.895-2 2v2zM8 6v2h-2c-1.105 0-2-0.895-2-2s0.895-2 2-2c1.105 0 2 0.895 2 2z"></path>
</svg>
