<!-- Generated by IcoMoon.io -->
<svg version="1.1" xmlns="http://www.w3.org/2000/svg" width="24" height="24" viewBox="0 0 24 24">
<title>symbols-github-24</title>
<path d="M10.017 20.004c0.005 0.123-0.008 0.243-0.034 0.364-0.045 0.213-0.133 0.439-0.257 0.647-0.353 0.592-0.953 0.988-1.726 0.988-1.82 0-2.534-0.893-3.428-3.129-0.606-1.514-0.891-1.871-1.572-1.871v-2c1.82 0 2.534 0.893 3.428 3.129 0.606 1.514 0.891 1.871 1.572 1.871 0-0.29-0.004-0.547-0.012-0.895-0.020-0.816-0.022-0.982 0.014-1.2 0.014-0.476 0.137-0.814 0.384-1.149-2.232-0.486-3.737-1.489-4.601-3.117l-0.324-0.761c-0.315-0.906-0.46-1.933-0.46-3.118 0-1.366 0.416-2.587 1.194-3.607-0.243-0.97-0.209-2.155 0.326-3.494l0.175-0.437 0.449-0.144c0.060-0.019 0.133-0.037 0.219-0.050 0.874-0.137 2.117 0.19 3.743 1.231 0.958-0.222 1.967-0.334 2.983-0.334 0.908 0 1.811 0.092 2.673 0.272 1.581-0.99 2.791-1.301 3.641-1.169 0.085 0.013 0.157 0.030 0.217 0.049l0.451 0.143 0.175 0.44c0.469 1.177 0.549 2.261 0.378 3.21 0.894 1.073 1.375 2.391 1.375 3.89 0 1.263-0.090 2.213-0.351 3.136l-0.274 0.753c-0.719 1.626-2.303 2.64-4.747 3.123 0.254 0.352 0.372 0.709 0.372 1.228v1c0 0.485 0 0.5-0.001 1 0.002 0.036 0.005 0.054 0.009 0.064-0.001 0-0.007 1.935-0.007 1.935-0.852 0-1.485-0.415-1.797-1.071-0.162-0.34-0.21-0.664-0.203-0.944v-1.986c0-0.084-0.003-0.089-0.207-0.293-0.546-0.546-0.793-0.958-0.793-1.707v-0.905l0.9-0.090c2.679-0.269 4.136-1.013 4.62-2.1l0.226-0.617c0.18-0.645 0.255-1.431 0.255-2.529 0-1.166-0.407-2.129-1.177-2.899l-0.423-0.423 0.173-0.573c0.153-0.509 0.19-1.111 0.028-1.798-0.027 0.007-0.055 0.014-0.084 0.022-0.535 0.149-1.204 0.469-2.010 1.007l-0.367 0.246-0.429-0.106c-0.83-0.206-1.721-0.311-2.621-0.311-1.001 0-1.99 0.127-2.904 0.377l-0.446 0.122-0.382-0.261c-0.833-0.57-1.525-0.909-2.080-1.067-0.040-0.011-0.077-0.021-0.113-0.030-0.194 0.795-0.117 1.448 0.079 1.938l0.235 0.588-0.43 0.464c-0.686 0.739-1.047 1.639-1.047 2.706 0 0.977 0.114 1.786 0.324 2.396l0.262 0.62c0.654 1.227 2.044 1.966 4.521 2.232l0.893 0.096v0.899c0 0.75-0.247 1.161-0.793 1.707-0.204 0.204-0.207 0.209-0.207 0.293l-0.017 0.185c-0.011 0.061-0.011 0.217 0.004 0.872 0.007 0.301 0.011 0.539 0.013 0.788 0.012 0.052 0.014 0.085 0.018 0.156z"></path>
</svg>
