<!-- Generated by IcoMoon.io -->
<svg version="1.1" xmlns="http://www.w3.org/2000/svg" width="24" height="24" viewBox="0 0 24 24">
<title>symbols-twitter-24</title>
<path d="M21.12 4.508l1.415 0.165-0.636 1.275c-0.31 0.622-0.621 1.243-0.931 1.865-0.037 0.132-0.102 0.247-0.197 0.397-0.040 0.063-0.177 0.262-0.183 0.272-0.036 0.054-0.063 0.097-0.082 0.131v2.389c0 6.112-5.915 9.996-11.501 9.996-1.143 0-2.011-0.055-3.006-0.272-1.636-0.357-2.854-1.067-3.412-2.308l-0.574-1.277 1.394-0.128c1.261-0.116 2.355-0.356 3.195-0.678-2.306-0.371-3.598-1.383-3.598-3.285v-1h1c0.22 0 0.418-0.018 0.595-0.051-1.731-1.035-2.597-2.695-2.597-4.997-0-0.098-0-0.098-0.001-0.203-0.006-1.16 0.056-1.78 0.373-2.572 0.204-0.507 0.498-0.977 0.894-1.407l0.755-0.82 0.734 0.838c2.418 2.763 4.808 4.439 7.248 4.642 0.010-2.55 1.937-4.479 4.5-4.479 1.195 0 2.279 0.453 3.13 1.271 0.466 0.096 0.961 0.174 1.485 0.236zM18.909 6.162l-0.306-0.069-0.212-0.232c-0.512-0.562-1.155-0.859-1.886-0.859-1.463 0-2.5 1.042-2.5 2.5 0 0.238-0.006 0.388-0.036 0.585-0.118 0.785-0.559 1.415-1.464 1.415-2.998 0-5.703-1.606-8.34-4.349-0.136 0.413-0.168 0.838-0.163 1.635 0.001 0.107 0.001 0.107 0.001 0.214 0 2.048 0.83 3.168 2.794 3.793l0.697 0.222v0.731c0 0.887-0.84 1.722-2.070 2.096 0.564 0.428 1.716 0.658 3.581 0.658h1v1c0 1.433-1.646 2.555-4.133 3.14 0.811 0.248 1.891 0.355 3.133 0.355 4.614 0 9.501-3.209 9.501-7.996v-2.5c0-0.294 0.085-0.549 0.227-0.814 0.055-0.104 0.116-0.202 0.191-0.315 0.014-0.021 0.067-0.098 0.108-0.16l0.079-0.159c0.129-0.257 0.257-0.514 0.385-0.771-0.199-0.038-0.395-0.078-0.587-0.122z"></path>
</svg>
