<!-- Generated by IcoMoon.io -->
<svg version="1.1" xmlns="http://www.w3.org/2000/svg" width="24" height="24" viewBox="0 0 24 24">
<title>symbols-peace-24</title>
<path d="M12 1c6.075 0 11 4.925 11 11s-4.925 11-11 11c-6.075 0-11-4.925-11-11s4.925-11 11-11zM11 3.055c-4.5 0.497-8 4.313-8 8.945 0 2.125 0.736 4.078 1.968 5.618l6.032-6.032v-8.531zM13 3.055v8.531l6.032 6.032c1.232-1.54 1.968-3.493 1.968-5.618 0-4.633-3.5-8.448-8-8.945zM17.618 19.032l-4.618-4.618v6.531c1.736-0.192 3.323-0.877 4.618-1.913zM11 20.945v-6.531l-4.618 4.618c1.295 1.036 2.882 1.721 4.618 1.913z"></path>
</svg>
