<!-- Generated by IcoMoon.io -->
<svg version="1.1" xmlns="http://www.w3.org/2000/svg" width="24" height="24" viewBox="0 0 24 24">
<title>symbols-linkedin-24</title>
<path d="M4 2h16c1.105 0 2 0.895 2 2v16c0 1.105-0.895 2-2 2h-16c-1.105 0-2-0.895-2-2v-16c0-1.105 0.895-2 2-2zM4 4v16h16v-16h-16zM13 9c-0.518 0-1.065 0.158-1.548 0.452l-0.452-0.452h-1v7h2v-4c0-0.576 0.594-1 1-1h1c0.406 0 1 0.424 1 1v4h2v-4c0-1.853-1.606-3-3-3h-1zM8 8c0.552 0 1-0.448 1-1s-0.448-1-1-1c-0.552 0-1 0.448-1 1s0.448 1 1 1zM7 9v7h2v-7h-2z"></path>
</svg>
