<!-- Generated by IcoMoon.io -->
<svg version="1.1" xmlns="http://www.w3.org/2000/svg" width="24" height="24" viewBox="0 0 24 24">
<title>symbols-0-24</title>
<path d="M12 1c6.075 0 11 4.925 11 11s-4.925 11-11 11c-6.075 0-11-4.925-11-11s4.925-11 11-11zM12 3c-4.971 0-9 4.029-9 9s4.029 9 9 9c4.971 0 9-4.029 9-9s-4.029-9-9-9zM16.5 12c0-4.062-1.827-6-4.5-6-2.614 0-4.5 2.057-4.5 6s1.886 6 4.5 6c2.673 0 4.5-1.938 4.5-6zM12 8c-1.469 0-2.5 1.125-2.5 4 0 0.897 0.1 1.623 0.283 2.198l3.039-6.079c-0.251-0.082-0.526-0.12-0.822-0.12zM14.235 9.766l-3.049 6.098c0.251 0.092 0.524 0.136 0.814 0.136 1.541 0 2.5-1.017 2.5-4 0-0.924-0.092-1.659-0.265-2.234z"></path>
</svg>
