<!-- Generated by IcoMoon.io -->
<svg version="1.1" xmlns="http://www.w3.org/2000/svg" width="24" height="24" viewBox="0 0 24 24">
<title>symbols-telegram-24</title>
<path d="M18.711 22c-0.172 0-0.343-0.052-0.489-0.153l-5.532-3.814-2.967 2.17c-0.233 0.17-0.533 0.213-0.803 0.115s-0.475-0.326-0.548-0.607l-1.49-5.738-5.323-2.069c-0.335-0.13-0.557-0.456-0.56-0.821s0.215-0.694 0.549-0.828l20.24-8.185c0.092-0.040 0.189-0.063 0.287-0.069 0.035-0.002 0.070-0.002 0.105-0 0.203 0.012 0.402 0.096 0.558 0.251 0.016 0.016 0.032 0.032 0.046 0.050 0.129 0.15 0.2 0.332 0.213 0.518 0.003 0.047 0.003 0.094-0.001 0.141-0.003 0.034-0.008 0.067-0.014 0.101l-3.416 18.218c-0.055 0.293-0.251 0.538-0.522 0.652-0.107 0.045-0.221 0.068-0.334 0.068zM13.176 16.23l4.927 3.397 2.658-14.176-9.601 9.389 1.992 1.373c0.008 0.005 0.016 0.011 0.023 0.016zM9.074 15.475l0.66 2.541 1.421-1.039-1.861-1.283c-0.087-0.059-0.161-0.134-0.22-0.218zM4.267 11.061l3.655 1.42c0.262 0.102 0.459 0.325 0.531 0.601l0.464 1.785c0.021-0.206 0.113-0.4 0.262-0.546l9.148-8.947-14.060 5.686z"></path>
</svg>
