<!-- Generated by IcoMoon.io -->
<svg version="1.1" xmlns="http://www.w3.org/2000/svg" width="24" height="24" viewBox="0 0 24 24">
<title>symbols-gitlab-24</title>
<path d="M17.106 3.553l-2.724 5.447h-4.764l-2.724-5.447c-0.405-0.81-1.592-0.708-1.852 0.16l-3 10c-0.119 0.395 0.018 0.823 0.344 1.077l9 7c0.361 0.281 0.867 0.281 1.228 0l9-7c0.326-0.254 0.462-0.681 0.344-1.077l-3-10c-0.26-0.867-1.447-0.97-1.852-0.16zM15.894 10.447l1.872-3.745 2.079 6.929-7.845 6.102-7.845-6.102 2.079-6.929 1.872 3.745c0.169 0.339 0.516 0.553 0.894 0.553h6c0.379 0 0.725-0.214 0.894-0.553z"></path>
</svg>
