<!-- Generated by IcoMoon.io -->
<svg version="1.1" xmlns="http://www.w3.org/2000/svg" width="24" height="24" viewBox="0 0 24 24">
<title>symbols-behance-24</title>
<path d="M2 5v14h6c2.209 0 4-1.791 4-4 0-1.454-0.776-2.727-1.937-3.428 0.585-0.696 0.937-1.593 0.937-2.572 0-2.209-1.791-4-4-4h-5zM4 17v-4h4c1.105 0 2 0.895 2 2s-0.895 2-2 2h-4zM21 6v2h-7v-2h7zM17.638 17c1.041 0 1.68-0.213 2.021-0.533 0.18-0.169 0.255-0.356 0.255-0.467h2c0 1.627-1.463 3-4.276 3-2.783 0-4.638-1.804-4.638-5 0-2.966 1.581-5 4.5-5s4.5 2.034 4.5 5v1h-6.911c0.271 1.377 1.159 2 2.549 2zM19.915 13c-0.248-1.31-1.041-2-2.415-2s-2.166 0.69-2.415 2h4.829zM4 11v-4h3c1.105 0 2 0.895 2 2s-0.895 2-2 2h-3z"></path>
</svg>
