<!-- Generated by IcoMoon.io -->
<svg version="1.1" xmlns="http://www.w3.org/2000/svg" width="24" height="24" viewBox="0 0 24 24">
<title>symbols-instagram-24</title>
<path d="M16 2h-8c-3.314 0-6 2.686-6 6v8c0 3.314 2.686 6 6 6h8c3.314 0 6-2.686 6-6v-8c0-3.314-2.686-6-6-6zM4 8c0-2.209 1.791-4 4-4h8c2.209 0 4 1.791 4 4v8c0 2.209-1.791 4-4 4h-8c-2.209 0-4-1.791-4-4v-8zM12 17c-2.761 0-5-2.239-5-5s2.239-5 5-5c2.761 0 5 2.239 5 5s-2.239 5-5 5zM12 15c1.657 0 3-1.343 3-3s-1.343-3-3-3c-1.657 0-3 1.343-3 3s1.343 3 3 3zM18 7c0 0.552-0.448 1-1 1s-1-0.448-1-1c0-0.552 0.448-1 1-1s1 0.448 1 1z"></path>
</svg>
