<!-- Generated by IcoMoon.io -->
<svg version="1.1" xmlns="http://www.w3.org/2000/svg" width="24" height="24" viewBox="0 0 24 24">
<title>symbols-youtube-24</title>
<path d="M22.025 18.128c0.683-1.171 0.975-3.059 0.975-6.131 0-3.059-0.289-4.937-0.98-6.139-0.692-1.249-1.513-1.645-3.142-1.74-1.112-0.075-3.876-0.118-6.876-0.118-3.006 0-5.771 0.043-6.892 0.119-1.62 0.095-2.441 0.492-3.139 1.744-0.681 1.198-0.972 3.085-0.972 6.146 0 3.044 0.293 4.94 0.978 6.134 0.689 1.236 1.497 1.628 3.131 1.743 1.174 0.069 4.096 0.114 6.894 0.114 2.792 0 5.712-0.046 6.876-0.114 1.649-0.116 2.457-0.509 3.146-1.758zM18.752 6.114c1.019 0.060 1.208 0.151 1.531 0.736 0.47 0.814 0.717 2.408 0.717 5.159 0 2.73-0.248 4.332-0.714 5.133-0.324 0.586-0.512 0.678-1.535 0.749-1.101 0.064-3.993 0.11-6.747 0.11-2.761 0-5.654-0.045-6.766-0.11-1.011-0.071-1.201-0.163-1.518-0.732-0.47-0.819-0.719-2.431-0.719-5.161 0-2.728 0.248-4.331 0.715-5.154 0.322-0.577 0.514-0.67 1.522-0.729 1.068-0.072 3.807-0.114 6.766-0.114 2.952 0 5.69 0.042 6.75 0.114zM10 9l5 3-5 3v-6z"></path>
</svg>
