<!-- Generated by IcoMoon.io -->
<svg version="1.1" xmlns="http://www.w3.org/2000/svg" width="24" height="24" viewBox="0 0 24 24">
<title>time-alarm-snooze-24</title>
<path d="M4.793 1.293l1.414 1.414-3.5 3.5-1.414-1.414 3.5-3.5zM22.707 4.793l-3.5-3.5-1.414 1.414 3.5 3.5 1.414-1.414zM12 22c-5.523 0-10-4.477-10-10s4.477-10 10-10c5.523 0 10 4.477 10 10s-4.477 10-10 10zM12 20c4.418 0 8-3.582 8-8s-3.582-8-8-8c-4.418 0-8 3.582-8 8s3.582 8 8 8zM9 8v2h3.131l-4 6h6.869v-2h-3.132l4-6h-6.869z"></path>
</svg>
