<!-- Generated by IcoMoon.io -->
<svg version="1.1" xmlns="http://www.w3.org/2000/svg" width="24" height="24" viewBox="0 0 24 24">
<title>time-alarm-no-24</title>
<path d="M2.336 3.75l-1.043-1.043 1.414-1.414 20 20-1.414 1.414-2.964-2.964c-1.724 1.411-3.927 2.257-6.329 2.257-5.523 0-10-4.477-10-10 0-2.401 0.846-4.605 2.257-6.329l-0.507-0.507-1.043 1.043-1.414-1.414 1.043-1.043zM16.906 18.32l-11.226-11.225c-1.053 1.355-1.68 3.057-1.68 4.906 0 4.418 3.582 8 8 8 1.849 0 3.551-0.627 4.906-1.68zM20 12c0-4.418-3.582-8-8-8-1.116 0-2.179 0.229-3.144 0.642l-1.5-1.5c1.388-0.729 2.968-1.142 4.644-1.142 5.523 0 10 4.477 10 10 0 1.676-0.413 3.256-1.142 4.644l-1.5-1.5c0.413-0.965 0.642-2.028 0.642-3.144zM19.207 1.293l-1.414 1.414 3.5 3.5 1.414-1.414-3.5-3.5z"></path>
</svg>
