<!-- Generated by IcoMoon.io -->
<svg version="1.1" xmlns="http://www.w3.org/2000/svg" width="24" height="24" viewBox="0 0 24 24">
<title>time-timer-24</title>
<path d="M13 7v-3.945c4.5 0.497 8 4.313 8 8.945 0 4.971-4.029 9-9 9s-9-4.029-9-9c0-2.426 0.963-4.697 2.648-6.376l-1.412-1.417c-2.058 2.050-3.236 4.829-3.236 7.793 0 6.075 4.925 11 11 11s11-4.925 11-11c0-6.075-4.925-11-11-11h-1v6h2zM12 10c-0.179 0-0.353 0.024-0.518 0.068l-3.775-3.775-1.414 1.414 3.775 3.775c-0.044 0.165-0.068 0.339-0.068 0.518 0 1.105 0.895 2 2 2s2-0.895 2-2c0-1.105-0.895-2-2-2z"></path>
</svg>
