<!-- Generated by IcoMoon.io -->
<svg version="1.1" xmlns="http://www.w3.org/2000/svg" width="24" height="24" viewBox="0 0 24 24">
<title>time-watch-24</title>
<path d="M15 1h-6c-0.446 0-0.839 0.296-0.962 0.725l-1.186 4.15c-1.744 1.468-2.853 3.666-2.853 6.124s1.108 4.657 2.853 6.124l1.186 4.15c0.123 0.429 0.515 0.725 0.962 0.725h6c0.447 0 0.839-0.296 0.962-0.725l1.186-4.15c1.504-1.265 2.535-3.074 2.791-5.124h1.062v-2h-1.062c-0.256-2.050-1.287-3.859-2.791-5.124l-1.186-4.15c-0.123-0.429-0.515-0.725-0.962-0.725zM12 4c0.933 0 1.828 0.16 2.661 0.453l-0.415-1.453h-4.491l-0.415 1.453c0.832-0.294 1.728-0.453 2.661-0.453zM9.754 21l-0.415-1.453c0.832 0.294 1.728 0.453 2.661 0.453s1.828-0.16 2.661-0.453l-0.415 1.453h-4.491zM18 12c0 3.314-2.686 6-6 6s-6-2.686-6-6c0-3.314 2.686-6 6-6s6 2.686 6 6zM13 11h2v2h-4v-5h2v3z"></path>
</svg>
