<!-- Generated by IcoMoon.io -->
<svg version="1.1" xmlns="http://www.w3.org/2000/svg" width="24" height="24" viewBox="0 0 24 24">
<title>time-calendar-delete-24</title>
<path d="M8 6v-1h8v1h2v-1h2v3h-16v-3h2v1h2zM4 20v-10h16v10h-16zM16 3h-8v-1h-2v1h-2c-1.105 0-2 0.895-2 2v15c0 1.105 0.895 2 2 2h16c1.105 0 2-0.895 2-2v-15c0-1.105-0.895-2-2-2h-2v-1h-2v1zM14.293 11.293l1.414 1.414-2.293 2.293 2.293 2.293-1.414 1.414-2.293-2.293-2.293 2.293-1.414-1.414 2.293-2.293-2.293-2.293 1.414-1.414 2.293 2.293 2.293-2.293z"></path>
</svg>
