<!-- Generated by IcoMoon.io -->
<svg version="1.1" xmlns="http://www.w3.org/2000/svg" width="24" height="24" viewBox="0 0 24 24">
<title>various-cross-24</title>
<path d="M19.778 8c1.227 0 2.222 0.814 2.222 1.818v4.364c0 1.004-0.995 1.818-2.222 1.818h-3.778v3.778c0 1.227-0.814 2.222-1.818 2.222h-4.364c-1.004 0-1.818-0.995-1.818-2.222v-3.778h-3.778c-1.227 0-2.222-0.814-2.222-1.818v-4.364c0-1.004 0.995-1.818 2.222-1.818h3.778v-3.778c0-1.227 0.814-2.222 1.818-2.222h4.364c1.004 0 1.818 0.995 1.818 2.222v3.778h3.778zM20 10h-6v-6h-4v6h-6v4h6v6h4v-6h6v-4z"></path>
</svg>
