<!-- Generated by IcoMoon.io -->
<svg version="1.1" xmlns="http://www.w3.org/2000/svg" width="24" height="24" viewBox="0 0 24 24">
<title>various-atom-24</title>
<path d="M19.628 12c2.093-3.422 2.618-6.724 0.858-8.485s-5.063-1.235-8.485 0.857c-3.422-2.093-6.724-2.618-8.485-0.857s-1.235 5.063 0.857 8.485c-2.093 3.422-2.618 6.724-0.857 8.485s5.063 1.235 8.485-0.858c3.422 2.093 6.725 2.618 8.485 0.858s1.235-5.063-0.858-8.485zM9.172 9.172c0.926-0.926 1.885-1.729 2.828-2.397 0.943 0.668 1.902 1.471 2.829 2.397s1.729 1.885 2.397 2.828c-0.668 0.943-1.471 1.902-2.397 2.829s-1.885 1.729-2.829 2.397c-0.943-0.668-1.902-1.471-2.828-2.397s-1.729-1.885-2.397-2.829c0.668-0.943 1.471-1.902 2.397-2.828zM4.929 4.929c0.861-0.861 2.892-0.561 5.242 0.705-0.819 0.629-1.629 1.34-2.413 2.124s-1.495 1.595-2.124 2.413c-1.265-2.35-1.566-4.38-0.705-5.242zM16.243 7.757c-0.784-0.784-1.595-1.495-2.413-2.124 2.35-1.265 4.38-1.566 5.242-0.705s0.561 2.892-0.705 5.242c-0.629-0.819-1.34-1.629-2.124-2.413zM16.243 16.243c0.784-0.784 1.495-1.595 2.124-2.413 1.265 2.35 1.566 4.38 0.705 5.242s-2.892 0.561-5.242-0.705c0.819-0.629 1.629-1.34 2.413-2.124zM5.633 13.829c0.629 0.819 1.34 1.629 2.124 2.413s1.595 1.495 2.413 2.124c-2.35 1.265-4.38 1.566-5.242 0.705s-0.561-2.892 0.705-5.242zM13 12c0 0.552-0.448 1-1 1s-1-0.448-1-1c0-0.552 0.448-1 1-1s1 0.448 1 1z"></path>
</svg>
