<!-- Generated by IcoMoon.io -->
<svg version="1.1" xmlns="http://www.w3.org/2000/svg" width="24" height="24" viewBox="0 0 24 24">
<title>various-sun-24</title>
<path d="M5.927 18.073l1.684 4.522 4.389-2.007 4.389 2.007 1.684-4.522 4.522-1.684-2.007-4.389 2.007-4.389-4.522-1.684-1.684-4.522-4.389 2.007-4.389-2.007-1.684 4.522-4.522 1.684 2.007 4.389-2.007 4.389 4.522 1.684zM15.265 19.882l-3.265-1.493-3.265 1.493-1.253-3.364-3.364-1.253 1.493-3.265-1.493-3.265 3.364-1.253 1.253-3.364 3.265 1.493 3.265-1.493 1.253 3.364 3.364 1.253-1.493 3.265 1.493 3.265-3.364 1.253-1.253 3.364zM12 17c-2.761 0-5-2.239-5-5s2.239-5 5-5c2.761 0 5 2.239 5 5s-2.239 5-5 5zM15 12c0 1.657-1.343 3-3 3s-3-1.343-3-3c0-1.657 1.343-3 3-3s3 1.343 3 3z"></path>
</svg>
