<!-- Generated by IcoMoon.io -->
<svg version="1.1" xmlns="http://www.w3.org/2000/svg" width="24" height="24" viewBox="0 0 24 24">
<title>various-planet-24</title>
<path d="M19.81 10.257c0.95-1.022 1.383-1.906 1.139-2.431s-1.202-0.761-2.596-0.69c0.695 0.907 1.201 1.967 1.457 3.12zM16.434 5.34c-1.269-0.847-2.794-1.34-4.434-1.34-4.119 0-7.511 3.113-7.952 7.115-2.4 2.058-3.596 4.222-2.812 5.904s3.21 2.156 6.329 1.641c1.269 0.847 2.794 1.341 4.435 1.341 4.12 0 7.512-3.114 7.952-7.117 2.399-2.058 3.593-4.221 2.809-5.901s-3.209-2.156-6.327-1.641zM8.052 16.518c-1.257-1.1-2.052-2.716-2.052-4.518 0-3.314 2.686-6 6-6 3.273 0 5.934 2.621 5.999 5.879-1.271 0.98-2.886 1.98-4.732 2.84s-3.648 1.455-5.215 1.799zM10.742 17.868c1.095-0.356 2.228-0.804 3.37-1.336s2.215-1.114 3.192-1.724c-1.007 1.899-3.005 3.193-5.304 3.193-0.432 0-0.853-0.046-1.259-0.132zM5.647 16.863c-1.395 0.072-2.353-0.165-2.598-0.69s0.19-1.41 1.141-2.433c0.256 1.154 0.762 2.215 1.457 3.122z"></path>
</svg>
