<!-- Generated by IcoMoon.io -->
<svg version="1.1" xmlns="http://www.w3.org/2000/svg" width="24" height="24" viewBox="0 0 24 24">
<title>various-infinity-24</title>
<path d="M13.895 9.494c-0.371-0.689-0.732-1.262-1.108-1.731 0.128-0.131 0.236-0.24 0.301-0.302 1.079-1.028 2.143-1.461 3.912-1.461 3.216 0 6 2.598 6 6s-2.784 6-6 6c-2.853 0-4.064-1.484-5.912-5.59-1.527-3.394-2.357-4.41-4.088-4.41-2.251 0-4 1.868-4 4 0 2.141 1.735 4 4 4 1.043 0 2.29-0.415 3.379-1.003 0.387 0.665 0.77 1.206 1.178 1.635-1.403 0.799-3.046 1.368-4.557 1.368-3.402 0-6-2.784-6-6 0-3.208 2.614-6 6-6 2.853 0 4.064 1.484 5.912 5.59 1.527 3.394 2.357 4.41 4.088 4.41 2.141 0 4-1.735 4-4s-1.859-4-4-4c-1.251 0-1.822 0.233-2.533 0.909-0.094 0.089-0.328 0.331-0.572 0.585z"></path>
</svg>
