<!-- Generated by IcoMoon.io -->
<svg version="1.1" xmlns="http://www.w3.org/2000/svg" width="24" height="24" viewBox="0 0 24 24">
<title>various-lightbulb-24</title>
<path d="M16 15.915v2.085c0 2.209-1.791 4-4 4s-4-1.791-4-4v-2.085c0-0.195-0.069-0.408-0.233-0.689-0.105-0.18-0.242-0.378-0.449-0.652l-0.070-0.091c-0.138-0.18-0.44-0.574-0.552-0.725-1.13-1.526-1.696-2.888-1.696-4.758 0-3.866 3.134-7 7-7s7 3.134 7 7c0 1.911-0.574 3.325-1.694 4.848-0.119 0.161-0.418 0.551-0.596 0.781v0c-0.069 0.090-0.12 0.156-0.134 0.175-0.226 0.301-0.367 0.515-0.458 0.7-0.083 0.168-0.117 0.297-0.117 0.411zM14.044 15.439c0.051-0.277 0.146-0.548 0.28-0.82 0.158-0.32 0.359-0.625 0.653-1.017 0.020-0.027 0.085-0.111 0.169-0.221l0-0.001c0.18-0.234 0.447-0.581 0.548-0.718 0.889-1.208 1.306-2.235 1.306-3.663 0-2.761-2.239-5-5-5s-5 2.239-5 5c0 1.379 0.407 2.357 1.304 3.568 0.096 0.13 0.368 0.484 0.515 0.676l0 0 0.095 0.123c0.251 0.332 0.429 0.589 0.582 0.852 0.239 0.409 0.397 0.809 0.466 1.223 0.623 0.374 1.297 0.558 2.039 0.558 0.744 0 1.419-0.185 2.044-0.561zM14 18v-0.338c-0.633 0.225-1.301 0.338-2 0.338s-1.368-0.113-2-0.338v0.338c0 1.105 0.895 2 2 2s2-0.895 2-2z"></path>
</svg>
