<!-- Generated by IcoMoon.io -->
<svg version="1.1" xmlns="http://www.w3.org/2000/svg" width="24" height="24" viewBox="0 0 24 24">
<title>various-form-24</title>
<path d="M20.182 3c1.004 0 1.818 0.895 1.818 2v2c0 1.105-0.814 2-1.818 2h-16.364c-1.004 0-1.818-0.895-1.818-2v-2c0-1.105 0.814-2 1.818-2h16.364zM3.818 11h16.364c1.004 0 1.818 0.895 1.818 2v2c0 1.105-0.814 2-1.818 2h-16.364c-1.004 0-1.818-0.895-1.818-2v-2c0-1.105 0.814-2 1.818-2zM4 13v2h16v-2h-16zM4 5v2h16v-2h-16zM14 19v2h-12v-2h12z"></path>
</svg>
