<!-- Generated by IcoMoon.io -->
<svg version="1.1" xmlns="http://www.w3.org/2000/svg" width="24" height="24" viewBox="0 0 24 24">
<title>various-bone-24</title>
<path d="M1 14c0 2.209 1.791 4 4 4 1.457 0 2.764-0.786 3.465-2h7.070c0.701 1.214 2.008 2 3.465 2 2.209 0 4-1.791 4-4 0-0.714-0.189-1.401-0.535-2 0.347-0.6 0.535-1.286 0.535-2 0-2.209-1.791-4-4-4-1.457 0-2.764 0.786-3.465 2h-7.070c-0.701-1.214-2.008-2-3.465-2-2.209 0-4 1.791-4 4 0 0.714 0.189 1.401 0.535 2-0.347 0.6-0.535 1.286-0.535 2zM7.122 14l-0.236 0.667c-0.28 0.792-1.032 1.333-1.886 1.333-1.105 0-2-0.895-2-2 0-0.5 0.183-0.969 0.509-1.333l0.597-0.667-0.597-0.667c-0.326-0.365-0.509-0.833-0.509-1.333 0-1.105 0.895-2 2-2 0.855 0 1.606 0.541 1.886 1.333l0.236 0.667h9.756l0.236-0.667c0.28-0.792 1.032-1.333 1.887-1.333 1.105 0 2 0.895 2 2 0 0.5-0.183 0.969-0.509 1.333l-0.597 0.667 0.597 0.667c0.326 0.365 0.509 0.833 0.509 1.333 0 1.105-0.895 2-2 2-0.855 0-1.606-0.541-1.887-1.333l-0.236-0.667h-9.756z"></path>
</svg>
