<!-- Generated by IcoMoon.io -->
<svg version="1.1" xmlns="http://www.w3.org/2000/svg" width="24" height="24" viewBox="0 0 24 24">
<title>various-items-24</title>
<path d="M6.5 11c-2.485 0-4.5-2.015-4.5-4.5s2.015-4.5 4.5-4.5c2.485 0 4.5 2.015 4.5 4.5s-2.015 4.5-4.5 4.5zM2 17.5c0 2.485 2.015 4.5 4.5 4.5s4.5-2.015 4.5-4.5c0-2.485-2.015-4.5-4.5-4.5s-4.5 2.015-4.5 4.5zM13 17.5c0 2.485 2.015 4.5 4.5 4.5s4.5-2.015 4.5-4.5c0-2.485-2.015-4.5-4.5-4.5s-4.5 2.015-4.5 4.5zM13 6.5c0 2.485 2.015 4.5 4.5 4.5s4.5-2.015 4.5-4.5c0-2.485-2.015-4.5-4.5-4.5s-4.5 2.015-4.5 4.5zM17.5 9c1.381 0 2.5-1.119 2.5-2.5s-1.119-2.5-2.5-2.5c-1.381 0-2.5 1.119-2.5 2.5s1.119 2.5 2.5 2.5zM9 6.5c0 1.381-1.119 2.5-2.5 2.5s-2.5-1.119-2.5-2.5c0-1.381 1.119-2.5 2.5-2.5s2.5 1.119 2.5 2.5zM17.5 20c1.381 0 2.5-1.119 2.5-2.5s-1.119-2.5-2.5-2.5c-1.381 0-2.5 1.119-2.5 2.5s1.119 2.5 2.5 2.5zM9 17.5c0 1.381-1.119 2.5-2.5 2.5s-2.5-1.119-2.5-2.5c0-1.381 1.119-2.5 2.5-2.5s2.5 1.119 2.5 2.5z"></path>
</svg>
