<!-- Generated by IcoMoon.io -->
<svg version="1.1" xmlns="http://www.w3.org/2000/svg" width="24" height="24" viewBox="0 0 24 24">
<title>various-moon-24</title>
<path d="M13 9c0-1.975 0.82-3.815 2.24-5.132l1.478-1.371-1.986-0.347c-0.568-0.099-1.147-0.15-1.732-0.15-5.523 0-10 4.477-10 10s4.477 10 10 10c3.385 0 6.484-1.696 8.327-4.46l1.117-1.675-2.010 0.123c-0.144 0.009-0.288 0.013-0.434 0.013-3.866 0-7-3.134-7-7zM13 20c-4.418 0-8-3.582-8-8 0-4.252 3.317-7.729 7.505-7.985-0.968 1.453-1.505 3.177-1.505 4.985 0 4.439 3.214 8.127 7.441 8.865-1.454 1.35-3.38 2.134-5.441 2.134z"></path>
</svg>
