<!-- Generated by IcoMoon.io -->
<svg version="1.1" xmlns="http://www.w3.org/2000/svg" width="24" height="24" viewBox="0 0 24 24">
<title>various-brightness-low-24</title>
<path d="M13 5.071c-0.327-0.047-0.66-0.071-1-0.071s-0.673 0.024-1 0.071v-2.016c0.328-0.036 0.662-0.055 1-0.055s0.672 0.019 1 0.055v2.016zM7 12c0 2.761 2.239 5 5 5s5-2.239 5-5c0-2.761-2.239-5-5-5s-5 2.239-5 5zM15 12c0 1.657-1.343 3-3 3s-3-1.343-3-3c0-1.657 1.343-3 3-3s3 1.343 3 3zM13 20.945v-2.016c-0.327 0.047-0.66 0.071-1 0.071s-0.673-0.024-1-0.071v2.016c0.328 0.036 0.662 0.055 1 0.055s0.672-0.019 1-0.055zM18.929 11h2.016c0.036 0.328 0.055 0.662 0.055 1s-0.019 0.672-0.055 1h-2.016c0.047-0.327 0.071-0.66 0.071-1s-0.024-0.673-0.071-1zM5 12c0-0.339 0.024-0.673 0.071-1h-2.016c-0.036 0.328-0.055 0.662-0.055 1s0.019 0.672 0.055 1h2.016c-0.047-0.327-0.071-0.66-0.071-1zM16.192 6.394l1.425-1.426c0.522 0.418 0.997 0.892 1.414 1.414l-1.425 1.426c-0.402-0.536-0.878-1.013-1.414-1.414zM4.968 6.382l1.426 1.426c0.402-0.536 0.878-1.013 1.414-1.414l-1.426-1.426c-0.522 0.418-0.997 0.892-1.414 1.414zM17.606 16.192l1.425 1.425c-0.418 0.522-0.892 0.997-1.414 1.414l-1.425-1.425c0.536-0.402 1.013-0.878 1.414-1.414zM6.382 19.032l1.426-1.425c-0.536-0.402-1.013-0.878-1.414-1.414l-1.426 1.425c0.418 0.522 0.892 0.997 1.414 1.414z"></path>
</svg>
