<!-- Generated by IcoMoon.io -->
<svg version="1.1" xmlns="http://www.w3.org/2000/svg" width="24" height="24" viewBox="0 0 24 24">
<title>various-brightness-high-24</title>
<path d="M13 5.071c-0.327-0.047-0.66-0.071-1-0.071s-0.673 0.024-1 0.071v-4.026c0.329-0.030 0.663-0.045 1-0.045s0.671 0.015 1 0.045v4.026zM7 12c0 2.761 2.239 5 5 5s5-2.239 5-5c0-2.761-2.239-5-5-5s-5 2.239-5 5zM15 12c0 1.657-1.343 3-3 3s-3-1.343-3-3c0-1.657 1.343-3 3-3s3 1.343 3 3zM13 22.955v-4.026c-0.327 0.047-0.66 0.071-1 0.071s-0.673-0.024-1-0.071v4.026c0.329 0.030 0.663 0.045 1 0.045s0.671-0.015 1-0.045zM18.929 11h4.026c0.030 0.329 0.045 0.663 0.045 1s-0.015 0.671-0.045 1h-4.026c0.047-0.327 0.071-0.66 0.071-1s-0.024-0.673-0.071-1zM5 12c0-0.339 0.024-0.673 0.071-1h-4.026c-0.030 0.329-0.045 0.663-0.045 1s0.015 0.671 0.045 1h4.026c-0.047-0.327-0.071-0.66-0.071-1zM16.192 6.394l2.847-2.847c0.513 0.428 0.987 0.901 1.414 1.414l-2.847 2.847c-0.402-0.536-0.878-1.013-1.414-1.414zM3.547 4.961l2.847 2.847c0.402-0.536 0.878-1.013 1.414-1.414l-2.847-2.847c-0.513 0.428-0.987 0.901-1.414 1.414zM17.606 16.192l2.847 2.847c-0.428 0.513-0.901 0.987-1.414 1.414l-2.847-2.847c0.536-0.402 1.013-0.878 1.414-1.414zM4.961 20.453l2.847-2.847c-0.536-0.402-1.013-0.878-1.414-1.414l-2.847 2.847c0.428 0.513 0.901 0.987 1.414 1.414z"></path>
</svg>
