<!-- Generated by IcoMoon.io -->
<svg version="1.1" xmlns="http://www.w3.org/2000/svg" width="24" height="24" viewBox="0 0 24 24">
<title>various-toy-horse-24</title>
<path d="M4.236 9.764l1.749-3.498c2.087 0.607 3.015 1.526 3.015 2.734 0 1.552 1.448 3 3 3h1c1.987 0 2.427 0.434 3.031 2.386 0.41 1.326 0.482 1.54 0.766 2.154 0.263 0.568 0.575 1.086 0.957 1.564-0.294 0.206-0.61 0.402-0.943 0.585-0.635-2.14-2.788-3.688-5.31-3.688-2.27 0-3.432 0.956-4.794 3.406-0.225-0.139-0.44-0.285-0.643-0.435l2.016-6.049-1.632-3.265-2.211 1.106zM5.92 12.077l-1.436 4.308c-0.31-0.469-0.484-0.941-0.484-1.385h-2c0 3.475 5.183 7 10 7s10-3.525 10-7h-2c0 0.562-0.279 1.169-0.76 1.759-0.245-0.322-0.45-0.671-0.629-1.058-0.23-0.497-0.292-0.681-0.67-1.905-0.167-0.541-0.345-1.017-0.547-1.433 1.358-0.608 2.669-0.452 4.050 0.469l1.109-1.664c-2.111-1.407-4.305-1.543-6.433-0.406-0.739-0.526-1.725-0.762-3.122-0.762h-1c-0.448 0-1-0.552-1-1 0-2.585-2.059-4.232-5.804-4.981l-1.196-0.239v1.984l-2.217 4.434 2.019 2.019 1.75-0.875 0.368 0.735zM8.498 19.299c0.982-1.746 1.7-2.299 3.002-2.299 1.752 0 3.172 1.099 3.45 2.498-0.954 0.315-1.963 0.502-2.95 0.502-1.18 0-2.391-0.267-3.502-0.701z"></path>
</svg>
