<!-- Generated by IcoMoon.io -->
<svg version="1.1" xmlns="http://www.w3.org/2000/svg" width="24" height="24" viewBox="0 0 24 24">
<title>various-cup-24</title>
<path d="M13 19v-1.071c1.983-0.284 3.699-1.399 4.781-2.981 2.714-0.374 4.219-2.725 4.219-5.948v-3c0-1.105-0.895-2-2-2h-1.268c-0.346-0.598-0.992-1-1.732-1h-10c-0.74 0-1.387 0.402-1.732 1h-1.268c-1.105 0-2 0.895-2 2v3c0 3.223 1.505 5.574 4.219 5.948 1.083 1.582 2.798 2.698 4.781 2.981v1.071h-1c-1.105 0-2 0.895-2 2h8c0-1.105-0.895-2-2-2h-1zM4 6h1v5c0 0.458 0.044 0.905 0.128 1.338-0.738-0.664-1.128-1.807-1.128-3.339v-3zM19 6v5c0 0.458-0.044 0.905-0.128 1.338 0.738-0.664 1.128-1.807 1.128-3.339v-3h-1zM7 11v-6h10v6c0 2.761-2.239 5-5 5s-5-2.239-5-5z"></path>
</svg>
