<!-- Generated by IcoMoon.io -->
<svg version="1.1" xmlns="http://www.w3.org/2000/svg" width="24" height="24" viewBox="0 0 24 24">
<title>various-pocket-24</title>
<path d="M3 16c0 2.66 3 4.66 9 6 6-1.333 9-3.333 9-6 0-0.358 0.002-1.211 0.003-2.307v-0.001c0.006-3.499 0.017-9.471-0.003-9.693 0-1-1-2-2-2h-14c-1 0-2 1-2 2v12zM19.002 14.607c-0.001 0.742-0.002 1.164-0.002 1.393 0 1.351-2.134 2.812-6.999 3.949-4.866-1.141-7.001-2.603-7.001-3.949v-8h14.011c-0 0.652-0.001 1.356-0.002 2.086-0.001 0.677-0.002 1.388-0.003 2.198l-0.004 2.323zM19.011 6h-14.011v-2h14l0.008 0.181c0.001 0.016 0.003 0.717 0.003 1.819zM12 11c-0.552 0-1-0.448-1-1s0.448-1 1-1c0.552 0 1 0.448 1 1s-0.448 1-1 1z"></path>
</svg>
