<svg xmlns="http://www.w3.org/2000/svg" width="1em" height="1em" viewBox="0 0 24 24">
  <path fill="currentColor" fill-rule="evenodd" d="M11.47 21.53a.75.75 0 0 0 1.06 0l3-3a.75.75 0 1 0-1.06-1.06l-1.72 1.72v-6.44h6.44l-1.72 1.72a.75.75 0 1 0 1.06 1.06l3-3a.75.75 0 0 0 0-1.06l-3-3a.75.75 0 1 0-1.06 1.06l1.72 1.72h-6.44V4.81l1.72 1.72a.75.75 0 1 0 1.06-1.06l-3-3a.75.75 0 0 0-1.06 0l-3 3a.75.75 0 0 0 1.06 1.06l1.72-1.72v6.44H4.81l1.72-1.72a.75.75 0 0 0-1.06-1.06l-3 3a.75.75 0 0 0 0 1.06l3 3a.75.75 0 0 0 1.06-1.06l-1.72-1.72h6.44v6.44l-1.72-1.72a.75.75 0 0 0-1.06 1.06l3 3Z" clip-rule="evenodd"/>
</svg>
