<svg xmlns="http://www.w3.org/2000/svg" width="1em" height="1em" viewBox="0 0 24 24">
  <path fill="currentColor" fill-rule="evenodd" d="M18 2H6a4 4 0 0 0-4 4v12a4 4 0 0 0 4 4h12a4 4 0 0 0 4-4V6a4 4 0 0 0-4-4Zm-4.53 4.47a.75.75 0 0 1 1.06 0l2 2A.75.75 0 0 1 16 9.75h-6c-.69 0-1.25.56-1.25 1.25v1a.75.75 0 0 1-1.5 0v-1A2.75 2.75 0 0 1 10 8.25h4.19l-.72-.72a.75.75 0 0 1 0-1.06Zm-6 9.06 2 2a.75.75 0 1 0 1.06-1.06l-.72-.72H14A2.75 2.75 0 0 0 16.75 13v-1a.75.75 0 0 0-1.5 0v1c0 .69-.56 1.25-1.25 1.25H8a.75.75 0 0 0-.53 1.28Z" clip-rule="evenodd"/>
</svg>
